<svg version="1.1" viewBox="0.0 0.0 600.0 371.0" fill="none" stroke="none" stroke-linecap="square" stroke-miterlimit="10" width="600" height="371" xmlns:xlink="http://www.w3.org/1999/xlink" xmlns="http://www.w3.org/2000/svg"><path fill="#ffffff" d="M0 0L600.0 0L600.0 371.0L0 371.0L0 0Z" fill-rule="nonzero"/><path stroke="#333333" stroke-width="1.0" stroke-linecap="butt" d="M50.5 323.5L581.5 323.5" fill-rule="nonzero"/><path fill="#eeeeee" d="M45.5 328.5L50.5 324.5L581.5 324.5L576.5 328.5Z" fill-rule="nonzero"/><path stroke="#cccccc" stroke-width="1.0" stroke-linecap="butt" d="M50.5 276.5L581.5 276.5" fill-rule="nonzero"/><path stroke="#cccccc" stroke-width="1.0" stroke-linecap="butt" d="M50.5 229.5L581.5 229.5" fill-rule="nonzero"/><path stroke="#cccccc" stroke-width="1.0" stroke-linecap="butt" d="M50.5 183.5L581.5 183.5" fill-rule="nonzero"/><path stroke="#cccccc" stroke-width="1.0" stroke-linecap="butt" d="M50.5 136.5L581.5 136.5" fill-rule="nonzero"/><path stroke="#cccccc" stroke-width="1.0" stroke-linecap="butt" d="M50.5 89.5L581.5 89.5" fill-rule="nonzero"/><clipPath id="id_0"><path d="M45.55 89.78333L581.45 89.78333L581.45 328.45L45.55 328.45L45.55 89.78333Z" clip-rule="nonzero"/></clipPath><path fill="#2b569f" clip-path="url(#id_0)" d="M67.0 223.0L67.0 323.0L64.0 326.0L64.0 226.0Z" fill-rule="nonzero"/><path fill="#689df6" clip-path="url(#id_0)" d="M64.0 226.0L51.0 226.0L54.0 223.0L67.0 223.0Z" fill-rule="nonzero"/><path stroke="#000000" stroke-width="0.0" stroke-linecap="butt" stroke-opacity="0.0" clip-path="url(#id_0)" d="M64.0 326.0L51.0 326.0L51.0 226.0L64.0 226.0Z" fill-rule="nonzero"/><path fill="#4285f4" clip-path="url(#id_0)" d="M64.0 326.0L51.0 326.0L51.0 226.0L64.0 226.0Z" fill-rule="nonzero"/><path fill="#2b569f" clip-path="url(#id_0)" d="M87.0 269.0L87.0 323.0L84.0 326.0L84.0 272.0Z" fill-rule="nonzero"/><path fill="#689df6" clip-path="url(#id_0)" d="M84.0 272.0L71.0 272.0L74.0 269.0L87.0 269.0Z" fill-rule="nonzero"/><path stroke="#000000" stroke-width="0.0" stroke-linecap="butt" stroke-opacity="0.0" clip-path="url(#id_0)" d="M84.0 326.0L71.0 326.0L71.0 272.0L84.0 272.0Z" fill-rule="nonzero"/><path fill="#4285f4" clip-path="url(#id_0)" d="M84.0 326.0L71.0 326.0L71.0 272.0L84.0 272.0Z" fill-rule="nonzero"/><path fill="#2b569f" clip-path="url(#id_0)" d="M106.0 118.0L106.0 323.0L103.0 326.0L103.0 121.0Z" fill-rule="nonzero"/><path fill="#689df6" clip-path="url(#id_0)" d="M103.0 121.0L90.0 121.0L93.0 118.0L106.0 118.0Z" fill-rule="nonzero"/><path stroke="#000000" stroke-width="0.0" stroke-linecap="butt" stroke-opacity="0.0" clip-path="url(#id_0)" d="M103.0 326.0L90.0 326.0L90.0 121.0L103.0 121.0Z" fill-rule="nonzero"/><path fill="#4285f4" clip-path="url(#id_0)" d="M103.0 326.0L90.0 326.0L90.0 121.0L103.0 121.0Z" fill-rule="nonzero"/><path fill="#2b569f" clip-path="url(#id_0)" d="M126.0 143.0L126.0 323.0L123.0 326.0L123.0 146.0Z" fill-rule="nonzero"/><path fill="#689df6" clip-path="url(#id_0)" d="M123.0 146.0L110.0 146.0L113.0 143.0L126.0 143.0Z" fill-rule="nonzero"/><path stroke="#000000" stroke-width="0.0" stroke-linecap="butt" stroke-opacity="0.0" clip-path="url(#id_0)" d="M123.0 326.0L110.0 326.0L110.0 146.0L123.0 146.0Z" fill-rule="nonzero"/><path fill="#4285f4" clip-path="url(#id_0)" d="M123.0 326.0L110.0 326.0L110.0 146.0L123.0 146.0Z" fill-rule="nonzero"/><path fill="#2b569f" clip-path="url(#id_0)" d="M146.0 283.0L146.0 323.0L143.0 326.0L143.0 286.0Z" fill-rule="nonzero"/><path fill="#689df6" clip-path="url(#id_0)" d="M143.0 286.0L130.0 286.0L133.0 283.0L146.0 283.0Z" fill-rule="nonzero"/><path stroke="#000000" stroke-width="0.0" stroke-linecap="butt" stroke-opacity="0.0" clip-path="url(#id_0)" d="M143.0 326.0L130.0 326.0L130.0 286.0L143.0 286.0Z" fill-rule="nonzero"/><path fill="#4285f4" clip-path="url(#id_0)" d="M143.0 326.0L130.0 326.0L130.0 286.0L143.0 286.0Z" fill-rule="nonzero"/><path fill="#2b569f" clip-path="url(#id_0)" d="M165.0 265.0L165.0 323.0L162.0 326.0L162.0 268.0Z" fill-rule="nonzero"/><path fill="#689df6" clip-path="url(#id_0)" d="M162.0 268.0L149.0 268.0L152.0 265.0L165.0 265.0Z" fill-rule="nonzero"/><path stroke="#000000" stroke-width="0.0" stroke-linecap="butt" stroke-opacity="0.0" clip-path="url(#id_0)" d="M162.0 326.0L149.0 326.0L149.0 268.0L162.0 268.0Z" fill-rule="nonzero"/><path fill="#4285f4" clip-path="url(#id_0)" d="M162.0 326.0L149.0 326.0L149.0 268.0L162.0 268.0Z" fill-rule="nonzero"/><path fill="#2b569f" clip-path="url(#id_0)" d="M185.0 282.0L185.0 323.0L182.0 326.0L182.0 285.0Z" fill-rule="nonzero"/><path fill="#689df6" clip-path="url(#id_0)" d="M182.0 285.0L169.0 285.0L172.0 282.0L185.0 282.0Z" fill-rule="nonzero"/><path stroke="#000000" stroke-width="0.0" stroke-linecap="butt" stroke-opacity="0.0" clip-path="url(#id_0)" d="M182.0 326.0L169.0 326.0L169.0 285.0L182.0 285.0Z" fill-rule="nonzero"/><path fill="#4285f4" clip-path="url(#id_0)" d="M182.0 326.0L169.0 326.0L169.0 285.0L182.0 285.0Z" fill-rule="nonzero"/><path fill="#2b569f" clip-path="url(#id_0)" d="M204.0 287.0L204.0 323.0L201.0 326.0L201.0 290.0Z" fill-rule="nonzero"/><path fill="#689df6" clip-path="url(#id_0)" d="M201.0 290.0L188.0 290.0L191.0 287.0L204.0 287.0Z" fill-rule="nonzero"/><path stroke="#000000" stroke-width="0.0" stroke-linecap="butt" stroke-opacity="0.0" clip-path="url(#id_0)" d="M201.0 326.0L188.0 326.0L188.0 290.0L201.0 290.0Z" fill-rule="nonzero"/><path fill="#4285f4" clip-path="url(#id_0)" d="M201.0 326.0L188.0 326.0L188.0 290.0L201.0 290.0Z" fill-rule="nonzero"/><path fill="#2b569f" clip-path="url(#id_0)" d="M224.0 294.0L224.0 323.0L221.0 326.0L221.0 297.0Z" fill-rule="nonzero"/><path fill="#689df6" clip-path="url(#id_0)" d="M221.0 297.0L208.0 297.0L211.0 294.0L224.0 294.0Z" fill-rule="nonzero"/><path stroke="#000000" stroke-width="0.0" stroke-linecap="butt" stroke-opacity="0.0" clip-path="url(#id_0)" d="M221.0 326.0L208.0 326.0L208.0 297.0L221.0 297.0Z" fill-rule="nonzero"/><path fill="#4285f4" clip-path="url(#id_0)" d="M221.0 326.0L208.0 326.0L208.0 297.0L221.0 297.0Z" fill-rule="nonzero"/><path fill="#2b569f" clip-path="url(#id_0)" d="M244.0 231.0L244.0 323.0L241.0 326.0L241.0 234.0Z" fill-rule="nonzero"/><path fill="#689df6" clip-path="url(#id_0)" d="M241.0 234.0L228.0 234.0L231.0 231.0L244.0 231.0Z" fill-rule="nonzero"/><path stroke="#000000" stroke-width="0.0" stroke-linecap="butt" stroke-opacity="0.0" clip-path="url(#id_0)" d="M241.0 326.0L228.0 326.0L228.0 234.0L241.0 234.0Z" fill-rule="nonzero"/><path fill="#4285f4" clip-path="url(#id_0)" d="M241.0 326.0L228.0 326.0L228.0 234.0L241.0 234.0Z" fill-rule="nonzero"/><path fill="#2b569f" clip-path="url(#id_0)" d="M263.0 277.0L263.0 323.0L260.0 326.0L260.0 280.0Z" fill-rule="nonzero"/><path fill="#689df6" clip-path="url(#id_0)" d="M260.0 280.0L247.0 280.0L250.0 277.0L263.0 277.0Z" fill-rule="nonzero"/><path stroke="#000000" stroke-width="0.0" stroke-linecap="butt" stroke-opacity="0.0" clip-path="url(#id_0)" d="M260.0 326.0L247.0 326.0L247.0 280.0L260.0 280.0Z" fill-rule="nonzero"/><path fill="#4285f4" clip-path="url(#id_0)" d="M260.0 326.0L247.0 326.0L247.0 280.0L260.0 280.0Z" fill-rule="nonzero"/><path fill="#2b569f" clip-path="url(#id_0)" d="M283.0 289.0L283.0 323.0L280.0 326.0L280.0 292.0Z" fill-rule="nonzero"/><path fill="#689df6" clip-path="url(#id_0)" d="M280.0 292.0L267.0 292.0L270.0 289.0L283.0 289.0Z" fill-rule="nonzero"/><path stroke="#000000" stroke-width="0.0" stroke-linecap="butt" stroke-opacity="0.0" clip-path="url(#id_0)" d="M280.0 326.0L267.0 326.0L267.0 292.0L280.0 292.0Z" fill-rule="nonzero"/><path fill="#4285f4" clip-path="url(#id_0)" d="M280.0 326.0L267.0 326.0L267.0 292.0L280.0 292.0Z" fill-rule="nonzero"/><path fill="#2b569f" clip-path="url(#id_0)" d="M302.0 302.0L302.0 323.0L299.0 326.0L299.0 305.0Z" fill-rule="nonzero"/><path fill="#689df6" clip-path="url(#id_0)" d="M299.0 305.0L286.0 305.0L289.0 302.0L302.0 302.0Z" fill-rule="nonzero"/><path stroke="#000000" stroke-width="0.0" stroke-linecap="butt" stroke-opacity="0.0" clip-path="url(#id_0)" d="M299.0 326.0L286.0 326.0L286.0 305.0L299.0 305.0Z" fill-rule="nonzero"/><path fill="#4285f4" clip-path="url(#id_0)" d="M299.0 326.0L286.0 326.0L286.0 305.0L299.0 305.0Z" fill-rule="nonzero"/><path fill="#2b569f" clip-path="url(#id_0)" d="M322.0 208.0L322.0 323.0L319.0 326.0L319.0 211.0Z" fill-rule="nonzero"/><path fill="#689df6" clip-path="url(#id_0)" d="M319.0 211.0L306.0 211.0L309.0 208.0L322.0 208.0Z" fill-rule="nonzero"/><path stroke="#000000" stroke-width="0.0" stroke-linecap="butt" stroke-opacity="0.0" clip-path="url(#id_0)" d="M319.0 326.0L306.0 326.0L306.0 211.0L319.0 211.0Z" fill-rule="nonzero"/><path fill="#4285f4" clip-path="url(#id_0)" d="M319.0 326.0L306.0 326.0L306.0 211.0L319.0 211.0Z" fill-rule="nonzero"/><path fill="#2b569f" clip-path="url(#id_0)" d="M342.0 283.0L342.0 323.0L339.0 326.0L339.0 286.0Z" fill-rule="nonzero"/><path fill="#689df6" clip-path="url(#id_0)" d="M339.0 286.0L326.0 286.0L329.0 283.0L342.0 283.0Z" fill-rule="nonzero"/><path stroke="#000000" stroke-width="0.0" stroke-linecap="butt" stroke-opacity="0.0" clip-path="url(#id_0)" d="M339.0 326.0L326.0 326.0L326.0 286.0L339.0 286.0Z" fill-rule="nonzero"/><path fill="#4285f4" clip-path="url(#id_0)" d="M339.0 326.0L326.0 326.0L326.0 286.0L339.0 286.0Z" fill-rule="nonzero"/><path fill="#2b569f" clip-path="url(#id_0)" d="M361.0 301.0L361.0 323.0L358.0 326.0L358.0 304.0Z" fill-rule="nonzero"/><path fill="#689df6" clip-path="url(#id_0)" d="M358.0 304.0L345.0 304.0L348.0 301.0L361.0 301.0Z" fill-rule="nonzero"/><path stroke="#000000" stroke-width="0.0" stroke-linecap="butt" stroke-opacity="0.0" clip-path="url(#id_0)" d="M358.0 326.0L345.0 326.0L345.0 304.0L358.0 304.0Z" fill-rule="nonzero"/><path fill="#4285f4" clip-path="url(#id_0)" d="M358.0 326.0L345.0 326.0L345.0 304.0L358.0 304.0Z" fill-rule="nonzero"/><path fill="#2b569f" clip-path="url(#id_0)" d="M381.0 277.0L381.0 323.0L378.0 326.0L378.0 280.0Z" fill-rule="nonzero"/><path fill="#689df6" clip-path="url(#id_0)" d="M378.0 280.0L365.0 280.0L368.0 277.0L381.0 277.0Z" fill-rule="nonzero"/><path stroke="#000000" stroke-width="0.0" stroke-linecap="butt" stroke-opacity="0.0" clip-path="url(#id_0)" d="M378.0 326.0L365.0 326.0L365.0 280.0L378.0 280.0Z" fill-rule="nonzero"/><path fill="#4285f4" clip-path="url(#id_0)" d="M378.0 326.0L365.0 326.0L365.0 280.0L378.0 280.0Z" fill-rule="nonzero"/><path fill="#2b569f" clip-path="url(#id_0)" d="M400.0 280.0L400.0 323.0L397.0 326.0L397.0 283.0Z" fill-rule="nonzero"/><path fill="#689df6" clip-path="url(#id_0)" d="M397.0 283.0L384.0 283.0L387.0 280.0L400.0 280.0Z" fill-rule="nonzero"/><path stroke="#000000" stroke-width="0.0" stroke-linecap="butt" stroke-opacity="0.0" clip-path="url(#id_0)" d="M397.0 326.0L384.0 326.0L384.0 283.0L397.0 283.0Z" fill-rule="nonzero"/><path fill="#4285f4" clip-path="url(#id_0)" d="M397.0 326.0L384.0 326.0L384.0 283.0L397.0 283.0Z" fill-rule="nonzero"/><path fill="#2b569f" clip-path="url(#id_0)" d="M420.0 261.0L420.0 323.0L417.0 326.0L417.0 264.0Z" fill-rule="nonzero"/><path fill="#689df6" clip-path="url(#id_0)" d="M417.0 264.0L404.0 264.0L407.0 261.0L420.0 261.0Z" fill-rule="nonzero"/><path stroke="#000000" stroke-width="0.0" stroke-linecap="butt" stroke-opacity="0.0" clip-path="url(#id_0)" d="M417.0 326.0L404.0 326.0L404.0 264.0L417.0 264.0Z" fill-rule="nonzero"/><path fill="#4285f4" clip-path="url(#id_0)" d="M417.0 326.0L404.0 326.0L404.0 264.0L417.0 264.0Z" fill-rule="nonzero"/><path fill="#2b569f" clip-path="url(#id_0)" d="M440.0 269.0L440.0 323.0L437.0 326.0L437.0 272.0Z" fill-rule="nonzero"/><path fill="#689df6" clip-path="url(#id_0)" d="M437.0 272.0L424.0 272.0L427.0 269.0L440.0 269.0Z" fill-rule="nonzero"/><path stroke="#000000" stroke-width="0.0" stroke-linecap="butt" stroke-opacity="0.0" clip-path="url(#id_0)" d="M437.0 326.0L424.0 326.0L424.0 272.0L437.0 272.0Z" fill-rule="nonzero"/><path fill="#4285f4" clip-path="url(#id_0)" d="M437.0 326.0L424.0 326.0L424.0 272.0L437.0 272.0Z" fill-rule="nonzero"/><path fill="#2b569f" clip-path="url(#id_0)" d="M459.0 298.0L459.0 323.0L456.0 326.0L456.0 301.0Z" fill-rule="nonzero"/><path fill="#689df6" clip-path="url(#id_0)" d="M456.0 301.0L443.0 301.0L446.0 298.0L459.0 298.0Z" fill-rule="nonzero"/><path stroke="#000000" stroke-width="0.0" stroke-linecap="butt" stroke-opacity="0.0" clip-path="url(#id_0)" d="M456.0 326.0L443.0 326.0L443.0 301.0L456.0 301.0Z" fill-rule="nonzero"/><path fill="#4285f4" clip-path="url(#id_0)" d="M456.0 326.0L443.0 326.0L443.0 301.0L456.0 301.0Z" fill-rule="nonzero"/><path fill="#2b569f" clip-path="url(#id_0)" d="M479.0 274.0L479.0 323.0L476.0 326.0L476.0 277.0Z" fill-rule="nonzero"/><path fill="#689df6" clip-path="url(#id_0)" d="M476.0 277.0L463.0 277.0L466.0 274.0L479.0 274.0Z" fill-rule="nonzero"/><path stroke="#000000" stroke-width="0.0" stroke-linecap="butt" stroke-opacity="0.0" clip-path="url(#id_0)" d="M476.0 326.0L463.0 326.0L463.0 277.0L476.0 277.0Z" fill-rule="nonzero"/><path fill="#4285f4" clip-path="url(#id_0)" d="M476.0 326.0L463.0 326.0L463.0 277.0L476.0 277.0Z" fill-rule="nonzero"/><path fill="#2b569f" clip-path="url(#id_0)" d="M498.0 168.0L498.0 323.0L495.0 326.0L495.0 171.0Z" fill-rule="nonzero"/><path fill="#689df6" clip-path="url(#id_0)" d="M495.0 171.0L482.0 171.0L485.0 168.0L498.0 168.0Z" fill-rule="nonzero"/><path stroke="#000000" stroke-width="0.0" stroke-linecap="butt" stroke-opacity="0.0" clip-path="url(#id_0)" d="M495.0 326.0L482.0 326.0L482.0 171.0L495.0 171.0Z" fill-rule="nonzero"/><path fill="#4285f4" clip-path="url(#id_0)" d="M495.0 326.0L482.0 326.0L482.0 171.0L495.0 171.0Z" fill-rule="nonzero"/><path fill="#2b569f" clip-path="url(#id_0)" d="M518.0 308.0L518.0 323.0L515.0 326.0L515.0 311.0Z" fill-rule="nonzero"/><path fill="#689df6" clip-path="url(#id_0)" d="M515.0 311.0L502.0 311.0L505.0 308.0L518.0 308.0Z" fill-rule="nonzero"/><path stroke="#000000" stroke-width="0.0" stroke-linecap="butt" stroke-opacity="0.0" clip-path="url(#id_0)" d="M515.0 326.0L502.0 326.0L502.0 311.0L515.0 311.0Z" fill-rule="nonzero"/><path fill="#4285f4" clip-path="url(#id_0)" d="M515.0 326.0L502.0 326.0L502.0 311.0L515.0 311.0Z" fill-rule="nonzero"/><path fill="#2b569f" clip-path="url(#id_0)" d="M538.0 264.0L538.0 323.0L535.0 326.0L535.0 267.0Z" fill-rule="nonzero"/><path fill="#689df6" clip-path="url(#id_0)" d="M535.0 267.0L522.0 267.0L525.0 264.0L538.0 264.0Z" fill-rule="nonzero"/><path stroke="#000000" stroke-width="0.0" stroke-linecap="butt" stroke-opacity="0.0" clip-path="url(#id_0)" d="M535.0 326.0L522.0 326.0L522.0 267.0L535.0 267.0Z" fill-rule="nonzero"/><path fill="#4285f4" clip-path="url(#id_0)" d="M535.0 326.0L522.0 326.0L522.0 267.0L535.0 267.0Z" fill-rule="nonzero"/><path fill="#2b569f" clip-path="url(#id_0)" d="M557.0 282.0L557.0 323.0L554.0 326.0L554.0 285.0Z" fill-rule="nonzero"/><path fill="#689df6" clip-path="url(#id_0)" d="M554.0 285.0L541.0 285.0L544.0 282.0L557.0 282.0Z" fill-rule="nonzero"/><path stroke="#000000" stroke-width="0.0" stroke-linecap="butt" stroke-opacity="0.0" clip-path="url(#id_0)" d="M554.0 326.0L541.0 326.0L541.0 285.0L554.0 285.0Z" fill-rule="nonzero"/><path fill="#4285f4" clip-path="url(#id_0)" d="M554.0 326.0L541.0 326.0L541.0 285.0L554.0 285.0Z" fill-rule="nonzero"/><path fill="#2b569f" clip-path="url(#id_0)" d="M577.0 271.0L577.0 323.0L574.0 326.0L574.0 274.0Z" fill-rule="nonzero"/><path fill="#689df6" clip-path="url(#id_0)" d="M574.0 274.0L561.0 274.0L564.0 271.0L577.0 271.0Z" fill-rule="nonzero"/><path stroke="#000000" stroke-width="0.0" stroke-linecap="butt" stroke-opacity="0.0" clip-path="url(#id_0)" d="M574.0 326.0L561.0 326.0L561.0 274.0L574.0 274.0Z" fill-rule="nonzero"/><path fill="#4285f4" clip-path="url(#id_0)" d="M574.0 326.0L561.0 326.0L561.0 274.0L574.0 274.0Z" fill-rule="nonzero"/><path fill="#757575" d="M38.6125 324.3094Q38.6125 326.21564 37.95625 327.15314Q37.315624 328.075 35.925 328.075Q34.565624 328.075 33.909374 327.16876Q33.253124 326.2625 33.221874 324.45L33.221874 323.0125Q33.221874 321.1219 33.8625 320.21564Q34.51875 319.29376 35.909374 319.29376Q37.284374 319.29376 37.940624 320.1844Q38.596874 321.0594 38.6125 322.90314L38.6125 324.3094ZM37.51875 322.825Q37.51875 321.45 37.128124 320.825Q36.753124 320.1844 35.909374 320.1844Q35.08125 320.1844 34.690624 320.825Q34.315624 321.45 34.315624 322.7469L34.315624 324.48126Q34.315624 325.85626 34.70625 326.52814Q35.1125 327.1844 35.925 327.1844Q36.721874 327.1844 37.1125 326.5594Q37.503124 325.9344 37.51875 324.60626L37.51875 322.825Z" fill-rule="nonzero"/><path fill="#757575" d="M33.753124 276.93542L34.190624 272.68542L38.565624 272.68542L38.565624 273.68542L35.1125 273.68542L34.846874 276.01355Q35.4875 275.63855 36.284374 275.63855Q37.440624 275.63855 38.128124 276.4198Q38.815624 277.18542 38.815624 278.49792Q38.815624 279.81042 38.096874 280.57605Q37.39375 281.34167 36.1125 281.34167Q34.9875 281.34167 34.26875 280.71667Q33.55 280.07605 33.45625 278.96667L34.471874 278.96667Q34.58125 279.70105 35.003124 280.07605Q35.425 280.45105 36.1125 280.45105Q36.8625 280.45105 37.3 279.93542Q37.7375 279.4198 37.7375 278.51355Q37.7375 277.65417 37.26875 277.13855Q36.8 276.62292 36.01875 276.62292Q35.315624 276.62292 34.909374 276.9198L34.628124 277.15417L33.753124 276.93542Z" fill-rule="nonzero"/><path fill="#757575" d="M29.815624 234.48334L28.7375 234.48334L28.7375 227.26459L26.55 228.06146L26.55 227.07709L29.659374 225.90521L29.815624 225.90521L29.815624 234.48334ZM38.6125 230.84271Q38.6125 232.74896 37.95625 233.68646Q37.315624 234.60834 35.925 234.60834Q34.565624 234.60834 33.909374 233.70209Q33.253124 232.79584 33.221874 230.98334L33.221874 229.54584Q33.221874 227.65521 33.8625 226.74896Q34.51875 225.82709 35.909374 225.82709Q37.284374 225.82709 37.940624 226.71771Q38.596874 227.59271 38.6125 229.43646L38.6125 230.84271ZM37.51875 229.35834Q37.51875 227.98334 37.128124 227.35834Q36.753124 226.71771 35.909374 226.71771Q35.08125 226.71771 34.690624 227.35834Q34.315624 227.98334 34.315624 229.28021L34.315624 231.01459Q34.315624 232.38959 34.70625 233.06146Q35.1125 233.71771 35.925 233.71771Q36.721874 233.71771 37.1125 233.09271Q37.503124 232.46771 37.51875 231.13959L37.51875 229.35834Z" fill-rule="nonzero"/><path fill="#757575" d="M29.815624 187.75L28.7375 187.75L28.7375 180.53125L26.55 181.32812L26.55 180.34375L29.659374 179.17188L29.815624 179.17188L29.815624 187.75ZM33.753124 183.46875L34.190624 179.21875L38.565624 179.21875L38.565624 180.21875L35.1125 180.21875L34.846874 182.54688Q35.4875 182.17188 36.284374 182.17188Q37.440624 182.17188 38.128124 182.95312Q38.815624 183.71875 38.815624 185.03125Q38.815624 186.34375 38.096874 187.10938Q37.39375 187.875 36.1125 187.875Q34.9875 187.875 34.26875 187.25Q33.55 186.60938 33.45625 185.5L34.471874 185.5Q34.58125 186.23438 35.003124 186.60938Q35.425 186.98438 36.1125 186.98438Q36.8625 186.98438 37.3 186.46875Q37.7375 185.95312 37.7375 185.04688Q37.7375 184.1875 37.26875 183.67188Q36.8 183.15625 36.01875 183.15625Q35.315624 183.15625 34.909374 183.45312L34.628124 183.6875L33.753124 183.46875Z" fill-rule="nonzero"/><path fill="#757575" d="M31.846874 141.01666L26.253124 141.01666L26.253124 140.23541L29.20625 136.95416Q29.8625 136.20416 30.1125 135.75104Q30.3625 135.28229 30.3625 134.78229Q30.3625 134.11041 29.95625 133.68854Q29.565624 133.25104 28.878124 133.25104Q28.08125 133.25104 27.628124 133.71979Q27.175 134.17291 27.175 135.00104L26.096874 135.00104Q26.096874 133.81354 26.846874 133.09479Q27.6125 132.36041 28.878124 132.36041Q30.08125 132.36041 30.76875 132.98541Q31.45625 133.61041 31.45625 134.65729Q31.45625 135.90729 29.846874 137.65729L27.565624 140.12604L31.846874 140.12604L31.846874 141.01666ZM38.6125 137.37604Q38.6125 139.28229 37.95625 140.21979Q37.315624 141.14166 35.925 141.14166Q34.565624 141.14166 33.909374 140.23541Q33.253124 139.32916 33.221874 137.51666L33.221874 136.07916Q33.221874 134.18854 33.8625 133.28229Q34.51875 132.36041 35.909374 132.36041Q37.284374 132.36041 37.940624 133.25104Q38.596874 134.12604 38.6125 135.96979L38.6125 137.37604ZM37.51875 135.89166Q37.51875 134.51666 37.128124 133.89166Q36.753124 133.25104 35.909374 133.25104Q35.08125 133.25104 34.690624 133.89166Q34.315624 134.51666 34.315624 135.81354L34.315624 137.54791Q34.315624 138.92291 34.70625 139.59479Q35.1125 140.25104 35.925 140.25104Q36.721874 140.25104 37.1125 139.62604Q37.503124 139.00104 37.51875 137.67291L37.51875 135.89166Z" fill-rule="nonzero"/><path fill="#757575" d="M31.846874 94.28333L26.253124 94.28333L26.253124 93.50208L29.20625 90.22083Q29.8625 89.47083 30.1125 89.01771Q30.3625 88.54896 30.3625 88.04896Q30.3625 87.37708 29.95625 86.95521Q29.565624 86.51771 28.878124 86.51771Q28.08125 86.51771 27.628124 86.98646Q27.175 87.43958 27.175 88.26771L26.096874 88.26771Q26.096874 87.08021 26.846874 86.36146Q27.6125 85.62708 28.878124 85.62708Q30.08125 85.62708 30.76875 86.25208Q31.45625 86.87708 31.45625 87.92396Q31.45625 89.17396 29.846874 90.92396L27.565624 93.39271L31.846874 93.39271L31.846874 94.28333ZM33.753124 90.00208L34.190624 85.75208L38.565624 85.75208L38.565624 86.75208L35.1125 86.75208L34.846874 89.08021Q35.4875 88.70521 36.284374 88.70521Q37.440624 88.70521 38.128124 89.48646Q38.815624 90.25208 38.815624 91.56458Q38.815624 92.87708 38.096874 93.64271Q37.39375 94.40833 36.1125 94.40833Q34.9875 94.40833 34.26875 93.78333Q33.55 93.14271 33.45625 92.03333L34.471874 92.03333Q34.58125 92.76771 35.003124 93.14271Q35.425 93.51771 36.1125 93.51771Q36.8625 93.51771 37.3 93.00208Q37.7375 92.48646 37.7375 91.58021Q37.7375 90.72083 37.26875 90.20521Q36.8 89.68958 36.01875 89.68958Q35.315624 89.68958 34.909374 89.98646L34.628124 90.22083L33.753124 90.00208Z" fill-rule="nonzero"/><path fill="#757575" d="M59.54168 344.7469L59.54168 348.325L61.776054 349.1219L61.776054 350.27814L53.244804 347.02814L53.244804 346.04376L61.776054 342.77814L61.776054 343.9344L59.54168 344.7469ZM58.619804 347.98126L58.619804 345.075L54.63543 346.52814L58.619804 347.98126ZM59.07293 335.1844Q60.41668 335.34064 61.16668 336.1844Q61.901054 337.02814 61.901054 338.41876Q61.901054 339.9344 60.82293 340.84064Q59.72918 341.7469 57.901054 341.7469L57.088554 341.7469Q55.901054 341.7469 54.994804 341.325Q54.088554 340.90314 53.60418 340.1219Q53.119804 339.34064 53.119804 338.325Q53.119804 336.96564 53.88543 336.15314Q54.651054 335.325 55.97918 335.1844L55.97918 336.3094Q54.963554 336.46564 54.51043 336.95Q54.057304 337.4344 54.057304 338.325Q54.057304 339.40314 54.85418 340.0125Q55.651054 340.6219 57.119804 340.6219L57.94793 340.6219Q59.338554 340.6219 60.16668 340.04376Q60.97918 339.46564 60.97918 338.41876Q60.97918 337.48126 60.557304 336.98126Q60.119804 336.48126 59.07293 336.3094L59.07293 335.1844Z" fill-rule="nonzero"/><path fill="#757575" d="M79.135826 342.7469L79.135826 346.325L81.3702 347.1219L81.3702 348.27814L72.83895 345.02814L72.83895 344.04376L81.3702 340.77814L81.3702 341.9344L79.135826 342.7469ZM78.21395 345.98126L78.21395 343.075L74.229576 344.52814L78.21395 345.98126ZM80.448326 338.325L80.448326 334.27814L81.3702 334.27814L81.3702 339.46564L72.83895 339.46564L72.83895 338.325L80.448326 338.325Z" fill-rule="nonzero"/><path fill="#757575" d="M98.72998 344.7469L98.72998 348.325L100.964355 349.1219L100.964355 350.27814L92.433105 347.02814L92.433105 346.04376L100.964355 342.77814L100.964355 343.9344L98.72998 344.7469ZM97.808105 347.98126L97.808105 345.075L93.82373 346.52814L97.808105 347.98126ZM97.620605 340.34064L100.964355 340.34064L100.964355 341.46564L92.433105 341.46564L92.433105 338.3094Q92.433105 336.91876 93.151855 336.1219Q93.85498 335.325 95.04248 335.325Q96.276855 335.325 96.94873 336.10626Q97.620605 336.8719 97.620605 338.325L97.620605 340.34064ZM96.69873 340.34064L96.69873 338.3094Q96.69873 337.40314 96.276855 336.9344Q95.85498 336.45 95.058105 336.45Q94.29248 336.45 93.839355 336.9344Q93.370605 337.40314 93.35498 338.2469L93.35498 340.34064L96.69873 340.34064Z" fill-rule="nonzero"/><path fill="#757575" d="M118.32413 346.74686L118.32413 350.32498L120.5585 351.12186L120.5585 352.2781L112.02725 349.0281L112.02725 348.04373L120.5585 344.7781L120.5585 345.93436L118.32413 346.74686ZM117.40225 349.98123L117.40225 347.07498L113.41788 348.5281L117.40225 349.98123ZM112.02725 342.01248L118.98038 339.2156L112.02725 336.43436L112.02725 334.9656L120.5585 334.9656L120.5585 336.0906L117.23038 336.0906L113.65225 335.98123L120.5585 338.79373L120.5585 339.6531L113.66788 342.44998L117.23038 342.3406L120.5585 342.3406L120.5585 343.4656L112.02725 343.4656L112.02725 342.01248Z" fill-rule="nonzero"/><path fill="#757575" d="M140.15265 348.4656L131.6214 348.4656L131.6214 345.66873Q131.6214 344.2781 132.19952 343.5906Q132.76202 342.88748 133.88702 342.88748Q134.4964 342.88748 134.96515 343.23123Q135.41827 343.55936 135.66827 344.1531Q135.85577 343.44998 136.40265 343.05936Q136.9339 342.6531 137.6839 342.6531Q138.84015 342.6531 139.4964 343.4031Q140.15265 344.13748 140.15265 345.49686L140.15265 348.4656ZM136.16827 347.3406L139.23077 347.3406L139.23077 345.48123Q139.23077 344.68436 138.82452 344.23123Q138.41827 343.7781 137.69952 343.7781Q136.16827 343.7781 136.16827 345.4656L136.16827 347.3406ZM135.26202 347.3406L135.26202 345.63748Q135.26202 344.9031 134.90265 344.4656Q134.52765 344.01248 133.88702 344.01248Q133.1839 344.01248 132.8714 344.41873Q132.54327 344.82498 132.54327 345.66873L132.54327 347.3406L135.26202 347.3406ZM137.91827 336.74686L137.91827 340.32498L140.15265 341.12186L140.15265 342.2781L131.6214 339.0281L131.6214 338.04373L140.15265 334.7781L140.15265 335.93436L137.91827 336.74686ZM136.9964 339.98123L136.9964 337.07498L133.01202 338.5281L136.9964 339.98123Z" fill-rule="nonzero"/><path fill="#757575" d="M157.04367 342.1844Q158.38742 342.34064 159.13742 343.1844Q159.8718 344.02814 159.8718 345.41876Q159.8718 346.9344 158.79367 347.84064Q157.69992 348.7469 155.8718 348.7469L155.0593 348.7469Q153.8718 348.7469 152.96555 348.325Q152.0593 347.90314 151.57492 347.1219Q151.09055 346.34064 151.09055 345.325Q151.09055 343.96564 151.85617 343.15314Q152.6218 342.325 153.94992 342.1844L153.94992 343.3094Q152.9343 343.46564 152.48117 343.95Q152.02805 344.4344 152.02805 345.325Q152.02805 346.40314 152.82492 347.0125Q153.6218 347.6219 155.09055 347.6219L155.91867 347.6219Q157.3093 347.6219 158.13742 347.04376Q158.94992 346.46564 158.94992 345.41876Q158.94992 344.48126 158.52805 343.98126Q158.09055 343.48126 157.04367 343.3094L157.04367 342.1844ZM155.8093 335.6375L155.8093 339.34064L158.82492 339.34064L158.82492 335.04376L159.7468 335.04376L159.7468 340.46564L151.21555 340.46564L151.21555 335.09064L152.13742 335.09064L152.13742 339.34064L154.88742 339.34064L154.88742 335.6375L155.8093 335.6375Z" fill-rule="nonzero"/><path fill="#757575" d="M179.34096 348.46564L170.80971 348.46564L170.80971 346.04376Q170.80971 344.9344 171.30971 344.09064Q171.79408 343.23126 172.70033 342.7625Q173.60658 342.29376 174.79408 342.29376L175.32533 342.29376Q176.54408 342.29376 177.45033 342.7625Q178.35658 343.21564 178.84096 344.09064Q179.32533 344.95 179.34096 346.09064L179.34096 348.46564ZM171.73158 347.34064L178.41908 347.34064L178.41908 346.15314Q178.41908 344.85626 177.62221 344.1375Q176.80971 343.40314 175.30971 343.40314L174.80971 343.40314Q173.35658 343.40314 172.55971 344.09064Q171.74721 344.7625 171.73158 346.02814L171.73158 347.34064ZM175.57533 335.7469L175.57533 339.34064L179.34096 339.34064L179.34096 340.46564L170.80971 340.46564L170.80971 335.16876L171.73158 335.16876L171.73158 339.34064L174.65346 339.34064L174.65346 335.7469L175.57533 335.7469Z" fill-rule="nonzero"/><path fill="#757575" d="M194.9976 342.6375L194.9976 346.34064L198.01323 346.34064L198.01323 342.04376L198.9351 342.04376L198.9351 347.46564L190.40385 347.46564L190.40385 342.09064L191.32573 342.09064L191.32573 346.34064L194.07573 346.34064L194.07573 342.6375L194.9976 342.6375ZM195.13823 337.95Q194.71635 339.3875 194.10698 340.0594Q193.4976 340.71564 192.60698 340.71564Q191.60698 340.71564 190.95073 339.91876Q190.27885 339.10626 190.27885 337.8094Q190.27885 336.9344 190.6226 336.2469Q190.96635 335.5594 191.5601 335.1844Q192.15385 334.79376 192.8726 334.79376L192.8726 335.9344Q192.09135 335.9344 191.65385 336.4344Q191.21635 336.91876 191.21635 337.8094Q191.21635 338.6375 191.59135 339.10626Q191.95073 339.575 192.59135 339.575Q193.1226 339.575 193.48198 339.1375Q193.84135 338.6844 194.13823 337.6219Q194.4351 336.5594 194.79448 335.96564Q195.15385 335.35626 195.63823 335.075Q196.1226 334.77814 196.76323 334.77814Q197.8101 334.77814 198.4351 335.59064Q199.0601 336.40314 199.0601 337.7469Q199.0601 338.6375 198.71635 339.40314Q198.3726 340.15314 197.79448 340.575Q197.20073 340.98126 196.46635 340.98126L196.46635 339.85626Q197.23198 339.85626 197.6851 339.27814Q198.13823 338.7 198.13823 337.7469Q198.13823 336.85626 197.77885 336.3875Q197.40385 335.91876 196.77885 335.91876Q196.15385 335.91876 195.8101 336.35626Q195.46635 336.79376 195.13823 337.95Z" fill-rule="nonzero"/><path fill="#757575" d="M217.40425 343.1531Q218.02925 343.5906 218.34175 344.37186Q218.65425 345.1531 218.65425 346.18436Q218.65425 347.2156 218.16988 348.0281Q217.66988 348.8406 216.76363 349.2781Q215.85738 349.7156 214.66988 349.73123L213.9355 349.73123Q211.998 349.73123 210.9355 348.8406Q209.873 347.93436 209.873 346.30936Q209.873 344.9656 210.5605 344.1531Q211.248 343.3406 212.498 343.1531L212.498 344.2781Q210.8105 344.60623 210.8105 346.29373Q210.8105 347.43436 211.60738 348.01248Q212.38863 348.5906 213.90425 348.60623L214.59175 348.60623Q216.02925 348.60623 216.88863 347.94998Q217.73238 347.29373 217.73238 346.16873Q217.73238 345.54373 217.59175 345.07498Q217.45113 344.5906 217.10738 344.2781L215.20113 344.2781L215.20113 346.24686L214.27925 346.24686L214.27925 343.1531L217.40425 343.1531ZM214.54488 334.9031Q215.79488 334.9031 216.73238 335.32498Q217.65425 335.74686 218.15425 336.5281Q218.65425 337.29373 218.65425 338.32498Q218.65425 339.32498 218.15425 340.10623Q217.65425 340.88748 216.748 341.32498Q215.82613 341.74686 214.60738 341.76248L213.998 341.76248Q212.76363 341.76248 211.82613 341.3406Q210.88863 340.9031 210.38863 340.12186Q209.873 339.3406 209.873 338.32498Q209.873 337.30936 210.373 336.5281Q210.873 335.74686 211.8105 335.32498Q212.748 334.9031 213.998 334.9031L214.54488 334.9031ZM213.98238 336.01248Q212.46675 336.01248 211.65425 336.62186Q210.84175 337.23123 210.84175 338.32498Q210.84175 339.4031 211.65425 340.01248Q212.46675 340.62186 213.90425 340.63748L214.54488 340.63748Q216.01363 340.63748 216.85738 340.0281Q217.6855 339.4031 217.6855 338.32498Q217.6855 337.23123 216.90425 336.63748Q216.10738 336.0281 214.623 336.01248L213.98238 336.01248Z" fill-rule="nonzero"/><path fill="#757575" d="M229.59215 350.0125L236.54527 347.21564L229.59215 344.4344L229.59215 342.96564L238.1234 342.96564L238.1234 344.09064L234.79527 344.09064L231.21715 343.98126L238.1234 346.79376L238.1234 347.65314L231.23277 350.45L234.79527 350.34064L238.1234 350.34064L238.1234 351.46564L229.59215 351.46564L229.59215 350.0125ZM235.88902 336.7469L235.88902 340.325L238.1234 341.1219L238.1234 342.27814L229.59215 339.02814L229.59215 338.04376L238.1234 334.77814L238.1234 335.9344L235.88902 336.7469ZM234.96715 339.98126L234.96715 337.075L230.98277 338.52814L234.96715 339.98126Z" fill-rule="nonzero"/><path fill="#757575" d="M249.18631 349.0125L256.13943 346.21564L249.18631 343.4344L249.18631 341.96564L257.71756 341.96564L257.71756 343.09064L254.38943 343.09064L250.81131 342.98126L257.71756 345.79376L257.71756 346.65314L250.82693 349.45L254.38943 349.34064L257.71756 349.34064L257.71756 350.46564L249.18631 350.46564L249.18631 349.0125ZM250.10818 334.5594L250.10818 337.3094L257.71756 337.3094L257.71756 338.41876L250.10818 338.41876L250.10818 341.16876L249.18631 341.16876L249.18631 334.5594L250.10818 334.5594Z" fill-rule="nonzero"/><path fill="#757575" d="M268.78046 349.0125L275.73358 346.21564L268.78046 343.4344L268.78046 341.96564L277.3117 341.96564L277.3117 343.09064L273.98358 343.09064L270.40546 342.98126L277.3117 345.79376L277.3117 346.65314L270.42108 349.45L273.98358 349.34064L277.3117 349.34064L277.3117 350.46564L268.78046 350.46564L268.78046 349.0125ZM273.51483 337.95Q273.09296 339.3875 272.48358 340.0594Q271.8742 340.71564 270.98358 340.71564Q269.98358 340.71564 269.32733 339.91876Q268.65546 339.10626 268.65546 337.8094Q268.65546 336.9344 268.9992 336.2469Q269.34296 335.5594 269.9367 335.1844Q270.53046 334.79376 271.2492 334.79376L271.2492 335.9344Q270.46796 335.9344 270.03046 336.4344Q269.59296 336.91876 269.59296 337.8094Q269.59296 338.6375 269.96796 339.10626Q270.32733 339.575 270.96796 339.575Q271.4992 339.575 271.85858 339.1375Q272.21796 338.6844 272.51483 337.6219Q272.8117 336.5594 273.17108 335.96564Q273.53046 335.35626 274.01483 335.075Q274.4992 334.77814 275.13983 334.77814Q276.1867 334.77814 276.8117 335.59064Q277.4367 336.40314 277.4367 337.7469Q277.4367 338.6375 277.09296 339.40314Q276.7492 340.15314 276.17108 340.575Q275.57733 340.98126 274.84296 340.98126L274.84296 339.85626Q275.60858 339.85626 276.0617 339.27814Q276.51483 338.7 276.51483 337.7469Q276.51483 336.85626 276.15546 336.3875Q275.78046 335.91876 275.15546 335.91876Q274.53046 335.91876 274.1867 336.35626Q273.84296 336.79376 273.51483 337.95Z" fill-rule="nonzero"/><path fill="#757575" d="M288.3746 350.0125L295.32773 347.21564L288.3746 344.4344L288.3746 342.96564L296.90585 342.96564L296.90585 344.09064L293.57773 344.09064L289.9996 343.98126L296.90585 346.79376L296.90585 347.65314L290.01523 350.45L293.57773 350.34064L296.90585 350.34064L296.90585 351.46564L288.3746 351.46564L288.3746 350.0125ZM295.78085 335.15314Q296.40585 335.59064 296.71835 336.3719Q297.03085 337.15314 297.03085 338.1844Q297.03085 339.21564 296.54648 340.02814Q296.04648 340.84064 295.14023 341.27814Q294.23398 341.71564 293.04648 341.73126L292.3121 341.73126Q290.3746 341.73126 289.3121 340.84064Q288.2496 339.9344 288.2496 338.3094Q288.2496 336.96564 288.9371 336.15314Q289.6246 335.34064 290.8746 335.15314L290.8746 336.27814Q289.1871 336.60626 289.1871 338.29376Q289.1871 339.4344 289.98398 340.0125Q290.76523 340.59064 292.28085 340.60626L292.96835 340.60626Q294.40585 340.60626 295.26523 339.95Q296.10898 339.29376 296.10898 338.16876Q296.10898 337.54376 295.96835 337.075Q295.82773 336.59064 295.48398 336.27814L293.57773 336.27814L293.57773 338.2469L292.65585 338.2469L292.65585 335.15314L295.78085 335.15314Z" fill-rule="nonzero"/><path fill="#757575" d="M313.15625 348.34064L316.5 348.34064L316.5 349.46564L307.96875 349.46564L307.96875 346.3094Q307.96875 344.91876 308.6875 344.1219Q309.39062 343.325 310.57812 343.325Q311.8125 343.325 312.48438 344.10626Q313.15625 344.8719 313.15625 346.325L313.15625 348.34064ZM312.23438 348.34064L312.23438 346.3094Q312.23438 345.40314 311.8125 344.9344Q311.39062 344.45 310.59375 344.45Q309.82812 344.45 309.375 344.9344Q308.90625 345.40314 308.89062 346.2469L308.89062 348.34064L312.23438 348.34064ZM314.26562 336.7469L314.26562 340.325L316.5 341.1219L316.5 342.27814L307.96875 339.02814L307.96875 338.04376L316.5 334.77814L316.5 335.9344L314.26562 336.7469ZM313.34375 339.98126L313.34375 337.075L309.35938 338.52814L313.34375 339.98126Z" fill-rule="nonzero"/><path fill="#757575" d="M332.7504 347.34064L336.09415 347.34064L336.09415 348.46564L327.5629 348.46564L327.5629 345.3094Q327.5629 343.91876 328.28165 343.1219Q328.98477 342.325 330.17227 342.325Q331.40665 342.325 332.07852 343.10626Q332.7504 343.8719 332.7504 345.325L332.7504 347.34064ZM331.82852 347.34064L331.82852 345.3094Q331.82852 344.40314 331.40665 343.9344Q330.98477 343.45 330.1879 343.45Q329.42227 343.45 328.96915 343.9344Q328.5004 344.40314 328.48477 345.2469L328.48477 347.34064L331.82852 347.34064ZM336.09415 340.46564L327.5629 340.46564L327.5629 337.66876Q327.5629 336.27814 328.14102 335.59064Q328.70352 334.8875 329.82852 334.8875Q330.4379 334.8875 330.90665 335.23126Q331.35977 335.5594 331.60977 336.15314Q331.79727 335.45 332.34415 335.0594Q332.8754 334.65314 333.6254 334.65314Q334.78165 334.65314 335.4379 335.40314Q336.09415 336.1375 336.09415 337.4969L336.09415 340.46564ZM332.10977 339.34064L335.17227 339.34064L335.17227 337.48126Q335.17227 336.6844 334.76602 336.23126Q334.35977 335.77814 333.64102 335.77814Q332.10977 335.77814 332.10977 337.46564L332.10977 339.34064ZM331.20352 339.34064L331.20352 337.6375Q331.20352 336.90314 330.84415 336.46564Q330.46915 336.0125 329.82852 336.0125Q329.1254 336.0125 328.8129 336.41876Q328.48477 336.825 328.48477 337.66876L328.48477 339.34064L331.20352 339.34064Z" fill-rule="nonzero"/><path fill="#757575" d="M352.34454 347.3406L355.6883 347.3406L355.6883 348.4656L347.15704 348.4656L347.15704 345.30936Q347.15704 343.91873 347.8758 343.12186Q348.57892 342.32498 349.76642 342.32498Q351.0008 342.32498 351.67267 343.10623Q352.34454 343.87186 352.34454 345.32498L352.34454 347.3406ZM351.42267 347.3406L351.42267 345.30936Q351.42267 344.4031 351.0008 343.93436Q350.57892 343.44998 349.78204 343.44998Q349.01642 343.44998 348.5633 343.93436Q348.09454 344.4031 348.07892 345.24686L348.07892 347.3406L351.42267 347.3406ZM352.23517 337.32498L352.23517 339.3406L355.6883 339.3406L355.6883 340.4656L347.15704 340.4656L347.15704 337.63748Q347.15704 336.19998 347.8133 335.43436Q348.46954 334.6531 349.71954 334.6531Q350.51642 334.6531 351.11017 335.0906Q351.70392 335.51248 352.0008 336.2781L355.61017 334.2781L355.6883 334.2781L355.6883 335.48123L352.23517 337.32498ZM351.3133 339.3406L351.3133 337.60623Q351.3133 336.76248 350.89142 336.2781Q350.45392 335.7781 349.71954 335.7781Q348.9383 335.7781 348.51642 336.24686Q348.09454 336.7156 348.07892 337.60623L348.07892 339.3406L351.3133 339.3406Z" fill-rule="nonzero"/><path fill="#757575" d="M371.9387 347.3406L375.28244 347.3406L375.28244 348.4656L366.7512 348.4656L366.7512 345.30936Q366.7512 343.91873 367.46994 343.12186Q368.17307 342.32498 369.36057 342.32498Q370.59494 342.32498 371.2668 343.10623Q371.9387 343.87186 371.9387 345.32498L371.9387 347.3406ZM371.0168 347.3406L371.0168 345.30936Q371.0168 344.4031 370.59494 343.93436Q370.17307 343.44998 369.3762 343.44998Q368.61057 343.44998 368.15744 343.93436Q367.6887 344.4031 367.67307 345.24686L367.67307 347.3406L371.0168 347.3406ZM371.34494 335.63748L371.34494 339.3406L374.36057 339.3406L374.36057 335.04373L375.28244 335.04373L375.28244 340.4656L366.7512 340.4656L366.7512 335.0906L367.67307 335.0906L367.67307 339.3406L370.42307 339.3406L370.42307 335.63748L371.34494 335.63748Z" fill-rule="nonzero"/><path fill="#757575" d="M391.53284 343.3406L394.8766 343.3406L394.8766 344.4656L386.34534 344.4656L386.34534 341.30936Q386.34534 339.91873 387.0641 339.12186Q387.7672 338.32498 388.9547 338.32498Q390.1891 338.32498 390.86096 339.10623Q391.53284 339.87186 391.53284 341.32498L391.53284 343.3406ZM390.61096 343.3406L390.61096 341.30936Q390.61096 340.4031 390.1891 339.93436Q389.7672 339.44998 388.97034 339.44998Q388.2047 339.44998 387.7516 339.93436Q387.28284 340.4031 387.2672 341.24686L387.2672 343.3406L390.61096 343.3406ZM394.8766 335.24686L394.8766 336.37186L386.34534 336.37186L386.34534 335.24686L394.8766 335.24686Z" fill-rule="nonzero"/><path fill="#757575" d="M411.01764 344.32498L411.01764 346.3406L414.47076 346.3406L414.47076 347.4656L405.9395 347.4656L405.9395 344.63748Q405.9395 343.19998 406.59576 342.43436Q407.252 341.6531 408.502 341.6531Q409.2989 341.6531 409.89264 342.0906Q410.4864 342.51248 410.78326 343.2781L414.39264 341.2781L414.47076 341.2781L414.47076 342.48123L411.01764 344.32498ZM410.09576 346.3406L410.09576 344.60623Q410.09576 343.76248 409.6739 343.2781Q409.2364 342.7781 408.502 342.7781Q407.72076 342.7781 407.2989 343.24686Q406.877 343.7156 406.8614 344.60623L406.8614 346.3406L410.09576 346.3406ZM405.9395 336.88748L405.9395 335.74686L411.9864 335.74686Q413.20514 335.74686 413.90826 336.49686Q414.59576 337.23123 414.59576 338.44998Q414.59576 339.7156 413.9395 340.43436Q413.28326 341.13748 412.1114 341.13748L412.1114 340.01248Q412.84576 340.01248 413.26764 339.62186Q413.6739 339.2156 413.6739 338.44998Q413.6739 337.74686 413.2364 337.32498Q412.78326 336.88748 412.002 336.88748L405.9395 336.88748Z" fill-rule="nonzero"/><path fill="#757575" d="M430.6118 346.325L430.6118 348.34064L434.0649 348.34064L434.0649 349.46564L425.53366 349.46564L425.53366 346.6375Q425.53366 345.2 426.1899 344.4344Q426.84616 343.65314 428.09616 343.65314Q428.89304 343.65314 429.4868 344.09064Q430.08054 344.5125 430.3774 345.27814L433.9868 343.27814L434.0649 343.27814L434.0649 344.48126L430.6118 346.325ZM429.6899 348.34064L429.6899 346.60626Q429.6899 345.7625 429.26804 345.27814Q428.83054 344.77814 428.09616 344.77814Q427.3149 344.77814 426.89304 345.2469Q426.47116 345.71564 426.45554 346.60626L426.45554 348.34064L429.6899 348.34064ZM434.0649 335.90314L434.0649 337.02814L427.4868 341.325L434.0649 341.325L434.0649 342.46564L425.53366 342.46564L425.53366 341.325L432.14304 337.02814L425.53366 337.02814L425.53366 335.90314L434.0649 335.90314Z" fill-rule="nonzero"/><path fill="#757575" d="M450.20593 344.325L450.20593 346.34064L453.65906 346.34064L453.65906 347.46564L445.1278 347.46564L445.1278 344.6375Q445.1278 343.2 445.78406 342.4344Q446.4403 341.65314 447.6903 341.65314Q448.48718 341.65314 449.08093 342.09064Q449.67468 342.5125 449.97156 343.27814L453.58093 341.27814L453.65906 341.27814L453.65906 342.48126L450.20593 344.325ZM449.28406 346.34064L449.28406 344.60626Q449.28406 343.7625 448.86218 343.27814Q448.42468 342.77814 447.6903 342.77814Q446.90906 342.77814 446.48718 343.2469Q446.0653 343.71564 446.04968 344.60626L446.04968 346.34064L449.28406 346.34064ZM449.86218 337.95Q449.4403 339.3875 448.83093 340.0594Q448.22156 340.71564 447.33093 340.71564Q446.33093 340.71564 445.67468 339.91876Q445.0028 339.10626 445.0028 337.8094Q445.0028 336.9344 445.34656 336.2469Q445.6903 335.5594 446.28406 335.1844Q446.8778 334.79376 447.59656 334.79376L447.59656 335.9344Q446.8153 335.9344 446.3778 336.4344Q445.9403 336.91876 445.9403 337.8094Q445.9403 338.6375 446.3153 339.10626Q446.67468 339.575 447.3153 339.575Q447.84656 339.575 448.20593 339.1375Q448.5653 338.6844 448.86218 337.6219Q449.15906 336.5594 449.51843 335.96564Q449.8778 335.35626 450.36218 335.075Q450.84656 334.77814 451.48718 334.77814Q452.53406 334.77814 453.15906 335.59064Q453.78406 336.40314 453.78406 337.7469Q453.78406 338.6375 453.4403 339.40314Q453.09656 340.15314 452.51843 340.575Q451.92468 340.98126 451.1903 340.98126L451.1903 339.85626Q451.95593 339.85626 452.40906 339.27814Q452.86218 338.7 452.86218 337.7469Q452.86218 336.85626 452.5028 336.3875Q452.1278 335.91876 451.5028 335.91876Q450.8778 335.91876 450.53406 336.35626Q450.1903 336.79376 449.86218 337.95Z" fill-rule="nonzero"/><path fill="#757575" d="M469.80008 345.325L469.80008 347.34064L473.2532 347.34064L473.2532 348.46564L464.72195 348.46564L464.72195 345.6375Q464.72195 344.2 465.3782 343.4344Q466.03445 342.65314 467.28445 342.65314Q468.08133 342.65314 468.67508 343.09064Q469.26883 343.5125 469.5657 344.27814L473.17508 342.27814L473.2532 342.27814L473.2532 343.48126L469.80008 345.325ZM468.8782 347.34064L468.8782 345.60626Q468.8782 344.7625 468.45633 344.27814Q468.01883 343.77814 467.28445 343.77814Q466.5032 343.77814 466.08133 344.2469Q465.65945 344.71564 465.64383 345.60626L465.64383 347.34064L468.8782 347.34064ZM469.26883 334.90314Q470.51883 334.90314 471.45633 335.325Q472.3782 335.7469 472.8782 336.52814Q473.3782 337.29376 473.3782 338.325Q473.3782 339.325 472.8782 340.10626Q472.3782 340.8875 471.47195 341.325Q470.55008 341.7469 469.33133 341.7625L468.72195 341.7625Q467.48758 341.7625 466.55008 341.34064Q465.61258 340.90314 465.11258 340.1219Q464.59695 339.34064 464.59695 338.325Q464.59695 337.3094 465.09695 336.52814Q465.59695 335.7469 466.53445 335.325Q467.47195 334.90314 468.72195 334.90314L469.26883 334.90314ZM468.70633 336.0125Q467.1907 336.0125 466.3782 336.6219Q465.5657 337.23126 465.5657 338.325Q465.5657 339.40314 466.3782 340.0125Q467.1907 340.6219 468.6282 340.6375L469.26883 340.6375Q470.73758 340.6375 471.58133 340.02814Q472.40945 339.40314 472.40945 338.325Q472.40945 337.23126 471.6282 336.6375Q470.83133 336.02814 469.34695 336.0125L468.70633 336.0125Z" fill-rule="nonzero"/><path fill="#757575" d="M489.39423 344.32498L489.39423 346.3406L492.84735 346.3406L492.84735 347.4656L484.3161 347.4656L484.3161 344.63748Q484.3161 343.19998 484.97235 342.43436Q485.6286 341.6531 486.8786 341.6531Q487.67548 341.6531 488.26923 342.0906Q488.86298 342.51248 489.15985 343.2781L492.76923 341.2781L492.84735 341.2781L492.84735 342.48123L489.39423 344.32498ZM488.47235 346.3406L488.47235 344.60623Q488.47235 343.76248 488.05048 343.2781Q487.61298 342.7781 486.8786 342.7781Q486.09735 342.7781 485.67548 343.24686Q485.2536 343.7156 485.23798 344.60623L485.23798 346.3406L488.47235 346.3406ZM489.39423 337.32498L489.39423 339.3406L492.84735 339.3406L492.84735 340.4656L484.3161 340.4656L484.3161 337.63748Q484.3161 336.19998 484.97235 335.43436Q485.6286 334.6531 486.8786 334.6531Q487.67548 334.6531 488.26923 335.0906Q488.86298 335.51248 489.15985 336.2781L492.76923 334.2781L492.84735 334.2781L492.84735 335.48123L489.39423 337.32498ZM488.47235 339.3406L488.47235 337.60623Q488.47235 336.76248 488.05048 336.2781Q487.61298 335.7781 486.8786 335.7781Q486.09735 335.7781 485.67548 336.24686Q485.2536 336.7156 485.23798 337.60623L485.23798 339.3406L488.47235 339.3406Z" fill-rule="nonzero"/><path fill="#757575" d="M508.64462 345.95Q508.22275 347.3875 507.61337 348.0594Q507.004 348.71564 506.11337 348.71564Q505.11337 348.71564 504.45712 347.91876Q503.78525 347.10626 503.78525 345.8094Q503.78525 344.9344 504.129 344.2469Q504.47275 343.5594 505.0665 343.1844Q505.66025 342.79376 506.379 342.79376L506.379 343.9344Q505.59775 343.9344 505.16025 344.4344Q504.72275 344.91876 504.72275 345.8094Q504.72275 346.6375 505.09775 347.10626Q505.45712 347.575 506.09775 347.575Q506.629 347.575 506.98837 347.1375Q507.34775 346.6844 507.64462 345.6219Q507.9415 344.5594 508.30087 343.96564Q508.66025 343.35626 509.14462 343.075Q509.629 342.77814 510.26962 342.77814Q511.3165 342.77814 511.9415 343.59064Q512.5665 344.40314 512.5665 345.7469Q512.5665 346.6375 512.2228 347.40314Q511.879 348.15314 511.30087 348.575Q510.70712 348.98126 509.97275 348.98126L509.97275 347.85626Q510.73837 347.85626 511.1915 347.27814Q511.64462 346.7 511.64462 345.7469Q511.64462 344.85626 511.28525 344.3875Q510.91025 343.91876 510.28525 343.91876Q509.66025 343.91876 509.3165 344.35626Q508.97275 344.79376 508.64462 345.95ZM509.73837 335.1844Q511.08212 335.34064 511.83212 336.1844Q512.5665 337.02814 512.5665 338.41876Q512.5665 339.9344 511.48837 340.84064Q510.39462 341.7469 508.5665 341.7469L507.754 341.7469Q506.5665 341.7469 505.66025 341.325Q504.754 340.90314 504.26962 340.1219Q503.78525 339.34064 503.78525 338.325Q503.78525 336.96564 504.55087 336.15314Q505.3165 335.325 506.64462 335.1844L506.64462 336.3094Q505.629 336.46564 505.17587 336.95Q504.72275 337.4344 504.72275 338.325Q504.72275 339.40314 505.51962 340.0125Q506.3165 340.6219 507.78525 340.6219L508.61337 340.6219Q510.004 340.6219 510.83212 340.04376Q511.64462 339.46564 511.64462 338.41876Q511.64462 337.48126 511.22275 336.98126Q510.78525 336.48126 509.73837 336.3094L509.73837 335.1844Z" fill-rule="nonzero"/><path fill="#757575" d="M528.2388 345.94998Q527.8169 347.38748 527.2075 348.05936Q526.59814 348.7156 525.7075 348.7156Q524.7075 348.7156 524.0513 347.91873Q523.3794 347.10623 523.3794 345.80936Q523.3794 344.93436 523.72314 344.24686Q524.0669 343.55936 524.66064 343.18436Q525.2544 342.79373 525.97314 342.79373L525.97314 343.93436Q525.1919 343.93436 524.7544 344.43436Q524.3169 344.91873 524.3169 345.80936Q524.3169 346.63748 524.6919 347.10623Q525.0513 347.57498 525.6919 347.57498Q526.22314 347.57498 526.5825 347.13748Q526.9419 346.68436 527.2388 345.62186Q527.53564 344.55936 527.895 343.9656Q528.2544 343.35623 528.7388 343.07498Q529.22314 342.7781 529.8638 342.7781Q530.91064 342.7781 531.53564 343.5906Q532.16064 344.4031 532.16064 345.74686Q532.16064 346.63748 531.8169 347.4031Q531.47314 348.1531 530.895 348.57498Q530.3013 348.98123 529.5669 348.98123L529.5669 347.85623Q530.3325 347.85623 530.78564 347.2781Q531.2388 346.69998 531.2388 345.74686Q531.2388 344.85623 530.8794 344.38748Q530.5044 343.91873 529.8794 343.91873Q529.2544 343.91873 528.91064 344.35623Q528.5669 344.79373 528.2388 345.94998ZM528.6919 340.3406L532.03564 340.3406L532.03564 341.4656L523.5044 341.4656L523.5044 338.30936Q523.5044 336.91873 524.22314 336.12186Q524.9263 335.32498 526.1138 335.32498Q527.34814 335.32498 528.02 336.10623Q528.6919 336.87186 528.6919 338.32498L528.6919 340.3406ZM527.77 340.3406L527.77 338.30936Q527.77 337.4031 527.34814 336.93436Q526.9263 336.44998 526.1294 336.44998Q525.3638 336.44998 524.91064 336.93436Q524.4419 337.4031 524.4263 338.24686L524.4263 340.3406L527.77 340.3406Z" fill-rule="nonzero"/><path fill="#757575" d="M547.83295 344.95Q547.4111 346.3875 546.8017 347.0594Q546.1923 347.71564 545.3017 347.71564Q544.3017 347.71564 543.64545 346.91876Q542.9736 346.10626 542.9736 344.8094Q542.9736 343.9344 543.3173 343.2469Q543.6611 342.5594 544.2548 342.1844Q544.8486 341.79376 545.5673 341.79376L545.5673 342.9344Q544.7861 342.9344 544.3486 343.4344Q543.9111 343.91876 543.9111 344.8094Q543.9111 345.6375 544.2861 346.10626Q544.64545 346.575 545.2861 346.575Q545.8173 346.575 546.1767 346.1375Q546.5361 345.6844 546.83295 344.6219Q547.1298 343.5594 547.4892 342.96564Q547.8486 342.35626 548.33295 342.075Q548.8173 341.77814 549.45795 341.77814Q550.5048 341.77814 551.1298 342.59064Q551.7548 343.40314 551.7548 344.7469Q551.7548 345.6375 551.4111 346.40314Q551.0673 347.15314 550.4892 347.575Q549.89545 347.98126 549.1611 347.98126L549.1611 346.85626Q549.9267 346.85626 550.3798 346.27814Q550.83295 345.7 550.83295 344.7469Q550.83295 343.85626 550.4736 343.3875Q550.0986 342.91876 549.4736 342.91876Q548.8486 342.91876 548.5048 343.35626Q548.1611 343.79376 547.83295 344.95ZM547.6923 335.6375L547.6923 339.34064L550.70795 339.34064L550.70795 335.04376L551.6298 335.04376L551.6298 340.46564L543.0986 340.46564L543.0986 335.09064L544.02045 335.09064L544.02045 339.34064L546.77045 339.34064L546.77045 335.6375L547.6923 335.6375Z" fill-rule="nonzero"/><path fill="#757575" d="M563.61456 342.55936L563.61456 345.30936L571.22394 345.30936L571.22394 346.41873L563.61456 346.41873L563.61456 349.16873L562.6927 349.16873L562.6927 342.55936L563.61456 342.55936ZM567.23956 334.9031Q568.48956 334.9031 569.42706 335.32498Q570.34894 335.74686 570.84894 336.5281Q571.34894 337.29373 571.34894 338.32498Q571.34894 339.32498 570.84894 340.10623Q570.34894 340.88748 569.4427 341.32498Q568.5208 341.74686 567.30206 341.76248L566.6927 341.76248Q565.4583 341.76248 564.5208 341.3406Q563.5833 340.9031 563.0833 340.12186Q562.5677 339.3406 562.5677 338.32498Q562.5677 337.30936 563.0677 336.5281Q563.5677 335.74686 564.5052 335.32498Q565.4427 334.9031 566.6927 334.9031L567.23956 334.9031ZM566.67706 336.01248Q565.16144 336.01248 564.34894 336.62186Q563.53644 337.23123 563.53644 338.32498Q563.53644 339.4031 564.34894 340.01248Q565.16144 340.62186 566.59894 340.63748L567.23956 340.63748Q568.7083 340.63748 569.55206 340.0281Q570.3802 339.4031 570.3802 338.32498Q570.3802 337.23123 569.59894 336.63748Q568.80206 336.0281 567.3177 336.01248L566.67706 336.01248Z" fill-rule="nonzero"/><path fill="#4285f4" d="M224.0 57.416668C224.0 56.864384 224.44771 56.416668 225.0 56.416668L235.0 56.416668C235.55229 56.416668 236.0 56.864384 236.0 57.416668L236.0 67.416664C236.0 67.96895 235.55229 68.416664 235.0 68.416664L225.0 68.416664C224.44771 68.416664 224.0 67.96895 224.0 67.416664Z" fill-rule="nonzero"/><path fill="#757575" d="M249.70312 64.68229L246.125 64.68229L245.32812 66.916664L244.17188 66.916664L247.42188 58.385414L248.40625 58.385414L251.67188 66.916664L250.51562 66.916664L249.70312 64.68229ZM246.46875 63.760414L249.375 63.760414L247.92188 59.77604L246.46875 63.760414ZM252.5625 63.697914Q252.5625 62.229164 253.25 61.354164Q253.9375 60.46354 255.0625 60.46354Q256.17188 60.46354 256.82812 61.21354L256.82812 57.916664L257.90625 57.916664L257.90625 66.916664L256.90625 66.916664L256.85938 66.229164Q256.20312 67.041664 255.04688 67.041664Q253.95312 67.041664 253.25 66.135414Q252.5625 65.229164 252.5625 63.77604L252.5625 63.697914ZM253.64062 63.822914Q253.64062 64.90104 254.07812 65.510414Q254.53125 66.11979 255.3125 66.11979Q256.34375 66.11979 256.82812 65.18229L256.82812 62.27604Q256.34375 61.385414 255.32812 61.385414Q254.53125 61.385414 254.07812 61.99479Q253.64062 62.604164 253.64062 63.822914ZM262.45312 67.041664Q261.15625 67.041664 260.34375 66.197914Q259.54688 65.33854 259.54688 63.916664L259.54688 63.729164Q259.54688 62.77604 259.90625 62.041664Q260.26562 61.291664 260.90625 60.885414Q261.5625 60.46354 262.3125 60.46354Q263.54688 60.46354 264.23438 61.27604Q264.92188 62.08854 264.92188 63.604164L264.92188 64.05729L260.625 64.05729Q260.65625 64.99479 261.17188 65.572914Q261.70312 66.15104 262.51562 66.15104Q263.07812 66.15104 263.46875 65.916664Q263.875 65.68229 264.1875 65.291664L264.84375 65.80729Q264.04688 67.041664 262.45312 67.041664ZM262.3125 61.354164Q261.65625 61.354164 261.20312 61.83854Q260.76562 62.30729 260.67188 63.166664L263.84375 63.166664L263.84375 63.08854Q263.79688 62.260414 263.39062 61.80729Q263.0 61.354164 262.3125 61.354164ZM266.84375 60.572914L266.875 61.36979Q267.60938 60.46354 268.78125 60.46354Q270.79688 60.46354 270.8125 62.729164L270.8125 66.916664L269.71875 66.916664L269.71875 62.71354Q269.71875 62.041664 269.40625 61.71354Q269.10938 61.385414 268.45312 61.385414Q267.92188 61.385414 267.51562 61.666664Q267.125 61.947914 266.90625 62.40104L266.90625 66.916664L265.82812 66.916664L265.82812 60.572914L266.84375 60.572914ZM276.51562 65.229164Q276.51562 64.791664 276.17188 64.55729Q275.84375 64.30729 275.01562 64.135414Q274.20312 63.96354 273.71875 63.71354Q273.23438 63.46354 273.0 63.135414Q272.78125 62.791664 272.78125 62.322914Q272.78125 61.541664 273.4375 61.010414Q274.09375 60.46354 275.125 60.46354Q276.20312 60.46354 276.85938 61.02604Q277.53125 61.572914 277.53125 62.43229L276.45312 62.43229Q276.45312 61.99479 276.0625 61.68229Q275.6875 61.354164 275.125 61.354164Q274.53125 61.354164 274.1875 61.61979Q273.85938 61.86979 273.85938 62.27604Q273.85938 62.666664 274.17188 62.86979Q274.48438 63.072914 275.29688 63.260414Q276.10938 63.43229 276.60938 63.68229Q277.10938 63.93229 277.34375 64.291664Q277.59375 64.65104 277.59375 65.15104Q277.59375 66.010414 276.90625 66.52604Q276.23438 67.041664 275.15625 67.041664Q274.39062 67.041664 273.79688 66.77604Q273.21875 66.49479 272.89062 66.010414Q272.5625 65.52604 272.5625 64.96354L273.64062 64.96354Q273.67188 65.510414 274.07812 65.83854Q274.48438 66.15104 275.15625 66.15104Q275.76562 66.15104 276.14062 65.90104Q276.51562 65.65104 276.51562 65.229164ZM282.73438 66.916664Q282.64062 66.729164 282.57812 66.24479Q281.82812 67.041664 280.78125 67.041664Q279.84375 67.041664 279.23438 66.510414Q278.64062 65.979164 278.64062 65.15104Q278.64062 64.166664 279.39062 63.61979Q280.14062 63.072914 281.51562 63.072914L282.5625 63.072914L282.5625 62.572914Q282.5625 62.010414 282.21875 61.68229Q281.89062 61.33854 281.21875 61.33854Q280.64062 61.33854 280.25 61.635414Q279.85938 61.916664 279.85938 62.33854L278.76562 62.33854Q278.76562 61.854164 279.09375 61.416664Q279.4375 60.979164 280.01562 60.729164Q280.59375 60.46354 281.28125 60.46354Q282.39062 60.46354 283.0 61.010414Q283.625 61.55729 283.65625 62.510414L283.65625 65.43229Q283.65625 66.30729 283.875 66.822914L283.875 66.916664L282.73438 66.916664ZM280.9375 66.08854Q281.45312 66.08854 281.90625 65.822914Q282.35938 65.55729 282.5625 65.135414L282.5625 63.83854L281.71875 63.83854Q279.71875 63.83854 279.71875 65.010414Q279.71875 65.510414 280.0625 65.80729Q280.40625 66.08854 280.9375 66.08854ZM286.84375 60.572914L286.875 61.27604Q287.5625 60.46354 288.75 60.46354Q290.07812 60.46354 290.5625 61.479164Q290.875 61.02604 291.375 60.74479Q291.89062 60.46354 292.57812 60.46354Q294.67188 60.46354 294.70312 62.666664L294.70312 66.916664L293.625 66.916664L293.625 62.729164Q293.625 62.05729 293.3125 61.729164Q293.0 61.385414 292.26562 61.385414Q291.65625 61.385414 291.25 61.74479Q290.85938 62.104164 290.79688 62.71354L290.79688 66.916664L289.71875 66.916664L289.71875 62.760414Q289.71875 61.385414 288.35938 61.385414Q287.29688 61.385414 286.90625 62.291664L286.90625 66.916664L285.8125 66.916664L285.8125 60.572914L286.84375 60.572914ZM299.45312 67.041664Q298.15625 67.041664 297.34375 66.197914Q296.54688 65.33854 296.54688 63.916664L296.54688 63.729164Q296.54688 62.77604 296.90625 62.041664Q297.26562 61.291664 297.90625 60.885414Q298.5625 60.46354 299.3125 60.46354Q300.54688 60.46354 301.23438 61.27604Q301.92188 62.08854 301.92188 63.604164L301.92188 64.05729L297.625 64.05729Q297.65625 64.99479 298.17188 65.572914Q298.70312 66.15104 299.51562 66.15104Q300.07812 66.15104 300.46875 65.916664Q300.875 65.68229 301.1875 65.291664L301.84375 65.80729Q301.04688 67.041664 299.45312 67.041664ZM299.3125 61.354164Q298.65625 61.354164 298.20312 61.83854Q297.76562 62.30729 297.67188 63.166664L300.84375 63.166664L300.84375 63.08854Q300.79688 62.260414 300.39062 61.80729Q300.0 61.354164 299.3125 61.354164ZM303.84375 60.572914L303.875 61.36979Q304.60938 60.46354 305.78125 60.46354Q307.79688 60.46354 307.8125 62.729164L307.8125 66.916664L306.71875 66.916664L306.71875 62.71354Q306.71875 62.041664 306.40625 61.71354Q306.10938 61.385414 305.45312 61.385414Q304.92188 61.385414 304.51562 61.666664Q304.125 61.947914 303.90625 62.40104L303.90625 66.916664L302.82812 66.916664L302.82812 60.572914L303.84375 60.572914ZM311.29688 59.041664L311.29688 60.572914L312.46875 60.572914L312.46875 61.416664L311.29688 61.416664L311.29688 65.33854Q311.29688 65.729164 311.45312 65.916664Q311.60938 66.104164 311.98438 66.104164Q312.17188 66.104164 312.5 66.041664L312.5 66.916664Q312.07812 67.041664 311.67188 67.041664Q310.95312 67.041664 310.57812 66.604164Q310.20312 66.15104 310.20312 65.33854L310.20312 61.416664L309.04688 61.416664L309.04688 60.572914L310.20312 60.572914L310.20312 59.041664L311.29688 59.041664ZM313.53125 63.68229Q313.53125 62.760414 313.89062 62.010414Q314.26562 61.260414 314.92188 60.86979Q315.57812 60.46354 316.40625 60.46354Q317.70312 60.46354 318.5 61.354164Q319.3125 62.24479 319.3125 63.74479L319.3125 63.822914Q319.3125 64.74479 318.95312 65.479164Q318.59375 66.21354 317.9375 66.635414Q317.28125 67.041664 316.42188 67.041664Q315.14062 67.041664 314.32812 66.15104Q313.53125 65.24479 313.53125 63.760414L313.53125 63.68229ZM314.625 63.822914Q314.625 64.86979 315.10938 65.510414Q315.60938 66.15104 316.42188 66.15104Q317.25 66.15104 317.73438 65.510414Q318.21875 64.854164 318.21875 63.68229Q318.21875 62.65104 317.71875 62.010414Q317.23438 61.354164 316.40625 61.354164Q315.60938 61.354164 315.10938 61.99479Q314.625 62.61979 314.625 63.822914ZM328.8125 62.979164L325.10938 62.979164L325.10938 65.99479L329.40625 65.99479L329.40625 66.916664L323.98438 66.916664L323.98438 58.385414L329.35938 58.385414L329.35938 59.30729L325.10938 59.30729L325.10938 62.05729L328.8125 62.05729L328.8125 62.979164ZM332.95312 62.885414L334.35938 60.572914L335.625 60.572914L333.54688 63.71354L335.6875 66.916664L334.4375 66.916664L332.96875 64.541664L331.5 66.916664L330.23438 66.916664L332.375 63.71354L330.3125 60.572914L331.5625 60.572914L332.95312 62.885414ZM339.35938 66.15104Q339.9375 66.15104 340.375 65.80729Q340.8125 65.447914 340.85938 64.916664L341.89062 64.916664Q341.85938 65.46354 341.5 65.96354Q341.15625 66.447914 340.57812 66.74479Q340.01562 67.041664 339.35938 67.041664Q338.0625 67.041664 337.29688 66.18229Q336.54688 65.30729 336.54688 63.80729L336.54688 63.61979Q336.54688 62.697914 336.875 61.979164Q337.21875 61.260414 337.84375 60.86979Q338.48438 60.46354 339.35938 60.46354Q340.42188 60.46354 341.125 61.104164Q341.84375 61.729164 341.89062 62.760414L340.85938 62.760414Q340.8125 62.135414 340.39062 61.74479Q339.96875 61.354164 339.35938 61.354164Q338.53125 61.354164 338.07812 61.947914Q337.625 62.541664 337.625 63.666664L337.625 63.86979Q337.625 64.96354 338.07812 65.55729Q338.53125 66.15104 339.35938 66.15104ZM345.45312 67.041664Q344.15625 67.041664 343.34375 66.197914Q342.54688 65.33854 342.54688 63.916664L342.54688 63.729164Q342.54688 62.77604 342.90625 62.041664Q343.26562 61.291664 343.90625 60.885414Q344.5625 60.46354 345.3125 60.46354Q346.54688 60.46354 347.23438 61.27604Q347.92188 62.08854 347.92188 63.604164L347.92188 64.05729L343.625 64.05729Q343.65625 64.99479 344.17188 65.572914Q344.70312 66.15104 345.51562 66.15104Q346.07812 66.15104 346.46875 65.916664Q346.875 65.68229 347.1875 65.291664L347.84375 65.80729Q347.04688 67.041664 345.45312 67.041664ZM345.3125 61.354164Q344.65625 61.354164 344.20312 61.83854Q343.76562 62.30729 343.67188 63.166664L346.84375 63.166664L346.84375 63.08854Q346.79688 62.260414 346.39062 61.80729Q346.0 61.354164 345.3125 61.354164ZM352.51562 65.229164Q352.51562 64.791664 352.17188 64.55729Q351.84375 64.30729 351.01562 64.135414Q350.20312 63.96354 349.71875 63.71354Q349.23438 63.46354 349.0 63.135414Q348.78125 62.791664 348.78125 62.322914Q348.78125 61.541664 349.4375 61.010414Q350.09375 60.46354 351.125 60.46354Q352.20312 60.46354 352.85938 61.02604Q353.53125 61.572914 353.53125 62.43229L352.45312 62.43229Q352.45312 61.99479 352.0625 61.68229Q351.6875 61.354164 351.125 61.354164Q350.53125 61.354164 350.1875 61.61979Q349.85938 61.86979 349.85938 62.27604Q349.85938 62.666664 350.17188 62.86979Q350.48438 63.072914 351.29688 63.260414Q352.10938 63.43229 352.60938 63.68229Q353.10938 63.93229 353.34375 64.291664Q353.59375 64.65104 353.59375 65.15104Q353.59375 66.010414 352.90625 66.52604Q352.23438 67.041664 351.15625 67.041664Q350.39062 67.041664 349.79688 66.77604Q349.21875 66.49479 348.89062 66.010414Q348.5625 65.52604 348.5625 64.96354L349.64062 64.96354Q349.67188 65.510414 350.07812 65.83854Q350.48438 66.15104 351.15625 66.15104Q351.76562 66.15104 352.14062 65.90104Q352.51562 65.65104 352.51562 65.229164ZM358.51562 65.229164Q358.51562 64.791664 358.17188 64.55729Q357.84375 64.30729 357.01562 64.135414Q356.20312 63.96354 355.71875 63.71354Q355.23438 63.46354 355.0 63.135414Q354.78125 62.791664 354.78125 62.322914Q354.78125 61.541664 355.4375 61.010414Q356.09375 60.46354 357.125 60.46354Q358.20312 60.46354 358.85938 61.02604Q359.53125 61.572914 359.53125 62.43229L358.45312 62.43229Q358.45312 61.99479 358.0625 61.68229Q357.6875 61.354164 357.125 61.354164Q356.53125 61.354164 356.1875 61.61979Q355.85938 61.86979 355.85938 62.27604Q355.85938 62.666664 356.17188 62.86979Q356.48438 63.072914 357.29688 63.260414Q358.10938 63.43229 358.60938 63.68229Q359.10938 63.93229 359.34375 64.291664Q359.59375 64.65104 359.59375 65.15104Q359.59375 66.010414 358.90625 66.52604Q358.23438 67.041664 357.15625 67.041664Q356.39062 67.041664 355.79688 66.77604Q355.21875 66.49479 354.89062 66.010414Q354.5625 65.52604 354.5625 64.96354L355.64062 64.96354Q355.67188 65.510414 356.07812 65.83854Q356.48438 66.15104 357.15625 66.15104Q357.76562 66.15104 358.14062 65.90104Q358.51562 65.65104 358.51562 65.229164ZM362.0 66.916664L360.92188 66.916664L360.92188 60.572914L362.0 60.572914L362.0 66.916664ZM360.82812 58.90104Q360.82812 58.635414 360.98438 58.447914Q361.15625 58.260414 361.46875 58.260414Q361.78125 58.260414 361.9375 58.447914Q362.10938 58.635414 362.10938 58.90104Q362.10938 59.15104 361.9375 59.33854Q361.78125 59.510414 361.46875 59.510414Q361.15625 59.510414 360.98438 59.33854Q360.82812 59.15104 360.82812 58.90104ZM365.90625 65.447914L367.48438 60.572914L368.59375 60.572914L366.3125 66.916664L365.48438 66.916664L363.1875 60.572914L364.29688 60.572914L365.90625 65.447914ZM369.53125 63.68229Q369.53125 62.760414 369.89062 62.010414Q370.26562 61.260414 370.92188 60.86979Q371.57812 60.46354 372.40625 60.46354Q373.70312 60.46354 374.5 61.354164Q375.3125 62.24479 375.3125 63.74479L375.3125 63.822914Q375.3125 64.74479 374.95312 65.479164Q374.59375 66.21354 373.9375 66.635414Q373.28125 67.041664 372.42188 67.041664Q371.14062 67.041664 370.32812 66.15104Q369.53125 65.24479 369.53125 63.760414L369.53125 63.68229ZM370.625 63.822914Q370.625 64.86979 371.10938 65.510414Q371.60938 66.15104 372.42188 66.15104Q373.25 66.15104 373.73438 65.510414Q374.21875 64.854164 374.21875 63.68229Q374.21875 62.65104 373.71875 62.010414Q373.23438 61.354164 372.40625 61.354164Q371.60938 61.354164 371.10938 61.99479Q370.625 62.61979 370.625 63.822914Z" fill-rule="nonzero"/><path fill="#757575" d="M28.05 33.83125L22.096874 33.83125L20.753124 37.55L18.83125 37.55L24.253124 23.33125L25.89375 23.33125L31.33125 37.55L29.409374 37.55L28.05 33.83125ZM22.659374 32.3L27.503124 32.3L25.08125 25.64375L22.659374 32.3ZM32.471874 32.175Q32.471874 29.753124 33.628124 28.26875Q34.784374 26.784374 36.64375 26.784374Q38.503124 26.784374 39.58125 28.05L39.58125 22.55L41.39375 22.55L41.39375 37.55L39.7375 37.55L39.64375 36.409374Q38.565624 37.753124 36.628124 37.753124Q34.8 37.753124 33.628124 36.253124Q32.471874 34.7375 32.471874 32.315624L32.471874 32.175ZM34.284374 32.378124Q34.284374 34.175 35.01875 35.190624Q35.76875 36.20625 37.08125 36.20625Q38.8 36.20625 39.58125 34.675L39.58125 29.815624Q38.784374 28.315624 37.096874 28.315624Q35.76875 28.315624 35.01875 29.346874Q34.284374 30.378124 34.284374 32.378124ZM48.3 37.753124Q46.159374 37.753124 44.8 36.346874Q43.45625 34.925 43.45625 32.565624L43.45625 32.221874Q43.45625 30.659374 44.05 29.425Q44.659374 28.190624 45.7375 27.4875Q46.815624 26.784374 48.08125 26.784374Q50.14375 26.784374 51.284374 28.14375Q52.425 29.503124 52.425 32.034374L52.425 32.784374L45.26875 32.784374Q45.3 34.346874 46.175 35.315624Q47.05 36.26875 48.39375 36.26875Q49.3625 36.26875 50.01875 35.878124Q50.690624 35.4875 51.190624 34.846874L52.284374 35.70625Q50.95625 37.753124 48.3 37.753124ZM48.08125 28.26875Q46.9875 28.26875 46.2375 29.065624Q45.503124 29.8625 45.33125 31.3L50.6125 31.3L50.6125 31.159374Q50.534374 29.784374 49.8625 29.034374Q49.20625 28.26875 48.08125 28.26875ZM56.628124 26.9875L56.690624 28.315624Q57.89375 26.784374 59.846874 26.784374Q63.20625 26.784374 63.221874 30.565624L63.221874 37.55L61.425 37.55L61.425 30.55Q61.409374 29.409374 60.89375 28.8625Q60.39375 28.315624 59.3 28.315624Q58.425 28.315624 57.753124 28.784374Q57.096874 29.253124 56.721874 30.01875L56.721874 37.55L54.925 37.55L54.925 26.9875L56.628124 26.9875ZM72.06563 34.753124Q72.06563 34.01875 71.51875 33.6125Q70.97188 33.20625 69.59688 32.909374Q68.22188 32.6125 67.40938 32.20625Q66.6125 31.8 66.22188 31.2375Q65.84688 30.659374 65.84688 29.878124Q65.84688 28.58125 66.94063 27.690624Q68.03438 26.784374 69.75313 26.784374Q71.55 26.784374 72.65938 27.721874Q73.78438 28.64375 73.78438 30.08125L71.95625 30.08125Q71.95625 29.346874 71.33125 28.815624Q70.70625 28.26875 69.75313 28.26875Q68.75313 28.26875 68.19063 28.70625Q67.64375 29.128124 67.64375 29.83125Q67.64375 30.471874 68.15938 30.815624Q68.675 31.14375 70.03438 31.45625Q71.39375 31.753124 72.22188 32.175Q73.06563 32.58125 73.47188 33.175Q73.87813 33.76875 73.87813 34.6125Q73.87813 36.034374 72.7375 36.89375Q71.6125 37.753124 69.8 37.753124Q68.53438 37.753124 67.55 37.3Q66.58125 36.846874 66.01875 36.05Q65.47188 35.2375 65.47188 34.3L67.28438 34.3Q67.33125 35.20625 68.00313 35.7375Q68.69063 36.26875 69.8 36.26875Q70.83125 36.26875 71.44063 35.8625Q72.06563 35.440624 72.06563 34.753124ZM82.44063 37.55Q82.28438 37.2375 82.19063 36.440624Q80.925 37.753124 79.175 37.753124Q77.6125 37.753124 76.6125 36.8625Q75.6125 35.971874 75.6125 34.6125Q75.6125 32.971874 76.8625 32.065624Q78.12813 31.14375 80.39375 31.14375L82.15938 31.14375L82.15938 30.315624Q82.15938 29.3625 81.58125 28.8Q81.01875 28.2375 79.925 28.2375Q78.95625 28.2375 78.3 28.7375Q77.64375 29.221874 77.64375 29.909374L75.83125 29.909374Q75.83125 29.128124 76.39375 28.39375Q76.95625 27.64375 77.90938 27.221874Q78.87813 26.784374 80.03438 26.784374Q81.8625 26.784374 82.89375 27.70625Q83.925 28.6125 83.97188 30.221874L83.97188 35.08125Q83.97188 36.534374 84.33125 37.39375L84.33125 37.55L82.44063 37.55ZM79.44063 36.175Q80.3 36.175 81.05 35.7375Q81.81563 35.3 82.15938 34.596874L82.15938 32.425L80.7375 32.425Q77.425 32.425 77.425 34.3625Q77.425 35.221874 77.9875 35.70625Q78.55 36.175 79.44063 36.175ZM88.6125 26.9875L88.65938 28.159374Q89.83125 26.784374 91.8 26.784374Q94.01875 26.784374 94.81563 28.4875Q95.34688 27.721874 96.19063 27.253124Q97.03438 26.784374 98.19063 26.784374Q101.65938 26.784374 101.72188 30.471874L101.72188 37.55L99.90938 37.55L99.90938 30.58125Q99.90938 29.440624 99.39375 28.878124Q98.87813 28.315624 97.65938 28.315624Q96.65938 28.315624 95.9875 28.925Q95.33125 29.51875 95.22188 30.534374L95.22188 37.55L93.40938 37.55L93.40938 30.628124Q93.40938 28.315624 91.14375 28.315624Q89.3625 28.315624 88.72188 29.83125L88.72188 37.55L86.90938 37.55L86.90938 26.9875L88.6125 26.9875ZM109.3 37.753124Q107.15938 37.753124 105.8 36.346874Q104.45625 34.925 104.45625 32.565624L104.45625 32.221874Q104.45625 30.659374 105.05 29.425Q105.65938 28.190624 106.7375 27.4875Q107.81563 26.784374 109.08125 26.784374Q111.14375 26.784374 112.28438 28.14375Q113.425 29.503124 113.425 32.034374L113.425 32.784374L106.26875 32.784374Q106.3 34.346874 107.175 35.315624Q108.05 36.26875 109.39375 36.26875Q110.3625 36.26875 111.01875 35.878124Q111.69063 35.4875 112.19063 34.846874L113.28438 35.70625Q111.95625 37.753124 109.3 37.753124ZM109.08125 28.26875Q107.9875 28.26875 107.2375 29.065624Q106.50313 29.8625 106.33125 31.3L111.6125 31.3L111.6125 31.159374Q111.53438 29.784374 110.8625 29.034374Q110.20625 28.26875 109.08125 28.26875ZM117.62813 26.9875L117.69063 28.315624Q118.89375 26.784374 120.84688 26.784374Q124.20625 26.784374 124.22188 30.565624L124.22188 37.55L122.425 37.55L122.425 30.55Q122.40938 29.409374 121.89375 28.8625Q121.39375 28.315624 120.3 28.315624Q119.425 28.315624 118.75313 28.784374Q118.09688 29.253124 117.72188 30.01875L117.72188 37.55L115.925 37.55L115.925 26.9875L117.62813 26.9875ZM129.3625 24.425L129.3625 26.9875L131.34688 26.9875L131.34688 28.378124L129.3625 28.378124L129.3625 34.925Q129.3625 35.565624 129.62813 35.89375Q129.89375 36.20625 130.53438 36.20625Q130.84688 36.20625 131.39375 36.08125L131.39375 37.55Q130.675 37.753124 130.00313 37.753124Q128.8 37.753124 128.175 37.01875Q127.56563 36.284374 127.56563 34.925L127.56563 28.378124L125.64375 28.378124L125.64375 26.9875L127.56563 26.9875L127.56563 24.425L129.3625 24.425ZM133.44063 32.175Q133.44063 30.6125 134.05 29.378124Q134.65938 28.128124 135.7375 27.45625Q136.83125 26.784374 138.2375 26.784374Q140.39375 26.784374 141.72188 28.284374Q143.06563 29.76875 143.06563 32.253124L143.06563 32.378124Q143.06563 33.925 142.47188 35.159374Q141.87813 36.378124 140.76875 37.065624Q139.675 37.753124 138.25313 37.753124Q136.1125 37.753124 134.76875 36.253124Q133.44063 34.753124 133.44063 32.3L133.44063 32.175ZM135.25313 32.378124Q135.25313 34.14375 136.06563 35.20625Q136.89375 36.26875 138.25313 36.26875Q139.62813 36.26875 140.44063 35.190624Q141.25313 34.1125 141.25313 32.175Q141.25313 30.425 140.425 29.346874Q139.59688 28.26875 138.2375 28.26875Q136.89375 28.26875 136.06563 29.33125Q135.25313 30.39375 135.25313 32.378124ZM158.2375 30.971874L152.08125 30.971874L152.08125 36.01875L159.2375 36.01875L159.2375 37.55L150.20625 37.55L150.20625 23.33125L159.14375 23.33125L159.14375 24.878124L152.08125 24.878124L152.08125 29.440624L158.2375 29.440624L158.2375 30.971874ZM164.45625 30.846874L166.8 26.9875L168.90938 26.9875L165.45625 32.20625L169.01875 37.55L166.94063 37.55L164.4875 33.596874L162.05 37.55L159.95625 37.55L163.51875 32.20625L160.06563 26.9875L162.14375 26.9875L164.45625 30.846874ZM175.15938 36.26875Q176.12813 36.26875 176.84688 35.690624Q177.56563 35.096874 177.64375 34.221874L179.3625 34.221874Q179.3 35.128124 178.72188 35.95625Q178.15938 36.76875 177.19063 37.26875Q176.2375 37.753124 175.15938 37.753124Q173.00313 37.753124 171.72188 36.315624Q170.45625 34.8625 170.45625 32.3625L170.45625 32.065624Q170.45625 30.51875 171.01875 29.315624Q171.58125 28.1125 172.64375 27.45625Q173.70625 26.784374 175.14375 26.784374Q176.925 26.784374 178.09688 27.846874Q179.28438 28.909374 179.3625 30.6125L177.64375 30.6125Q177.56563 29.596874 176.8625 28.940624Q176.175 28.26875 175.14375 28.26875Q173.76875 28.26875 173.00313 29.26875Q172.25313 30.253124 172.25313 32.128124L172.25313 32.471874Q172.25313 34.3 173.00313 35.284374Q173.75313 36.26875 175.15938 36.26875ZM185.3 37.753124Q183.15938 37.753124 181.8 36.346874Q180.45625 34.925 180.45625 32.565624L180.45625 32.221874Q180.45625 30.659374 181.05 29.425Q181.65938 28.190624 182.7375 27.4875Q183.81563 26.784374 185.08125 26.784374Q187.14375 26.784374 188.28438 28.14375Q189.425 29.503124 189.425 32.034374L189.425 32.784374L182.26875 32.784374Q182.3 34.346874 183.175 35.315624Q184.05 36.26875 185.39375 36.26875Q186.3625 36.26875 187.01875 35.878124Q187.69063 35.4875 188.19063 34.846874L189.28438 35.70625Q187.95625 37.753124 185.3 37.753124ZM185.08125 28.26875Q183.9875 28.26875 183.2375 29.065624Q182.50313 29.8625 182.33125 31.3L187.6125 31.3L187.6125 31.159374Q187.53438 29.784374 186.8625 29.034374Q186.20625 28.26875 185.08125 28.26875ZM198.06563 34.753124Q198.06563 34.01875 197.51875 33.6125Q196.97188 33.20625 195.59688 32.909374Q194.22188 32.6125 193.40938 32.20625Q192.6125 31.8 192.22188 31.2375Q191.84688 30.659374 191.84688 29.878124Q191.84688 28.58125 192.94063 27.690624Q194.03438 26.784374 195.75313 26.784374Q197.55 26.784374 198.65938 27.721874Q199.78438 28.64375 199.78438 30.08125L197.95625 30.08125Q197.95625 29.346874 197.33125 28.815624Q196.70625 28.26875 195.75313 28.26875Q194.75313 28.26875 194.19063 28.70625Q193.64375 29.128124 193.64375 29.83125Q193.64375 30.471874 194.15938 30.815624Q194.675 31.14375 196.03438 31.45625Q197.39375 31.753124 198.22188 32.175Q199.06563 32.58125 199.47188 33.175Q199.87813 33.76875 199.87813 34.6125Q199.87813 36.034374 198.7375 36.89375Q197.6125 37.753124 195.8 37.753124Q194.53438 37.753124 193.55 37.3Q192.58125 36.846874 192.01875 36.05Q191.47188 35.2375 191.47188 34.3L193.28438 34.3Q193.33125 35.20625 194.00313 35.7375Q194.69063 36.26875 195.8 36.26875Q196.83125 36.26875 197.44063 35.8625Q198.06563 35.440624 198.06563 34.753124ZM208.06563 34.753124Q208.06563 34.01875 207.51875 33.6125Q206.97188 33.20625 205.59688 32.909374Q204.22188 32.6125 203.40938 32.20625Q202.6125 31.8 202.22188 31.2375Q201.84688 30.659374 201.84688 29.878124Q201.84688 28.58125 202.94063 27.690624Q204.03438 26.784374 205.75313 26.784374Q207.55 26.784374 208.65938 27.721874Q209.78438 28.64375 209.78438 30.08125L207.95625 30.08125Q207.95625 29.346874 207.33125 28.815624Q206.70625 28.26875 205.75313 28.26875Q204.75313 28.26875 204.19063 28.70625Q203.64375 29.128124 203.64375 29.83125Q203.64375 30.471874 204.15938 30.815624Q204.675 31.14375 206.03438 31.45625Q207.39375 31.753124 208.22188 32.175Q209.06563 32.58125 209.47188 33.175Q209.87813 33.76875 209.87813 34.6125Q209.87813 36.034374 208.7375 36.89375Q207.6125 37.753124 205.8 37.753124Q204.53438 37.753124 203.55 37.3Q202.58125 36.846874 202.01875 36.05Q201.47188 35.2375 201.47188 34.3L203.28438 34.3Q203.33125 35.20625 204.00313 35.7375Q204.69063 36.26875 205.8 36.26875Q206.83125 36.26875 207.44063 35.8625Q208.06563 35.440624 208.06563 34.753124ZM213.87813 37.55L212.08125 37.55L212.08125 26.9875L213.87813 26.9875L213.87813 37.55ZM211.925 24.175Q211.925 23.7375 212.19063 23.440624Q212.47188 23.128124 212.9875 23.128124Q213.51875 23.128124 213.78438 23.440624Q214.06563 23.7375 214.06563 24.175Q214.06563 24.6125 213.78438 24.909374Q213.51875 25.20625 212.9875 25.20625Q212.47188 25.20625 212.19063 24.909374Q211.925 24.6125 211.925 24.175ZM220.40938 35.096874L223.01875 26.9875L224.8625 26.9875L221.08125 37.55L219.70625 37.55L215.87813 26.9875L217.72188 26.9875L220.40938 35.096874ZM226.44063 32.175Q226.44063 30.6125 227.05 29.378124Q227.65938 28.128124 228.7375 27.45625Q229.83125 26.784374 231.2375 26.784374Q233.39375 26.784374 234.72188 28.284374Q236.06563 29.76875 236.06563 32.253124L236.06563 32.378124Q236.06563 33.925 235.47188 35.159374Q234.87813 36.378124 233.76875 37.065624Q232.675 37.753124 231.25313 37.753124Q229.1125 37.753124 227.76875 36.253124Q226.44063 34.753124 226.44063 32.3L226.44063 32.175ZM228.25313 32.378124Q228.25313 34.14375 229.06563 35.20625Q229.89375 36.26875 231.25313 36.26875Q232.62813 36.26875 233.44063 35.190624Q234.25313 34.1125 234.25313 32.175Q234.25313 30.425 233.425 29.346874Q232.59688 28.26875 231.2375 28.26875Q229.89375 28.26875 229.06563 29.33125Q228.25313 30.39375 228.25313 32.378124Z" fill-rule="nonzero"/></svg>