<svg version="1.1" viewBox="0.0 0.0 600.0 371.0" fill="none" stroke="none" stroke-linecap="square" stroke-miterlimit="10" width="600" height="371" xmlns:xlink="http://www.w3.org/1999/xlink" xmlns="http://www.w3.org/2000/svg"><path fill="#ffffff" d="M0 0L600.0 0L600.0 371.0L0 371.0L0 0Z" fill-rule="nonzero"/><path stroke="#333333" stroke-width="1.0" stroke-linecap="butt" d="M57.5 323.5L581.5 323.5" fill-rule="nonzero"/><path fill="#eeeeee" d="M52.5 328.5L57.5 324.5L581.5 324.5L576.5 328.5Z" fill-rule="nonzero"/><path stroke="#cccccc" stroke-width="1.0" stroke-linecap="butt" d="M57.5 265.5L581.5 265.5" fill-rule="nonzero"/><path stroke="#cccccc" stroke-width="1.0" stroke-linecap="butt" d="M57.5 206.5L581.5 206.5" fill-rule="nonzero"/><path stroke="#cccccc" stroke-width="1.0" stroke-linecap="butt" d="M57.5 148.5L581.5 148.5" fill-rule="nonzero"/><path stroke="#cccccc" stroke-width="1.0" stroke-linecap="butt" d="M57.5 89.5L581.5 89.5" fill-rule="nonzero"/><clipPath id="id_0"><path d="M52.55 89.78333L581.45 89.78333L581.45 328.45L52.55 328.45L52.55 89.78333Z" clip-rule="nonzero"/></clipPath><path fill="#2b569f" clip-path="url(#id_0)" d="M74.0 322.0L74.0 323.0L71.0 326.0L71.0 325.0Z" fill-rule="nonzero"/><path fill="#689df6" clip-path="url(#id_0)" d="M71.0 325.0L58.0 325.0L61.0 322.0L74.0 322.0Z" fill-rule="nonzero"/><path stroke="#000000" stroke-width="0.0" stroke-linecap="butt" stroke-opacity="0.0" clip-path="url(#id_0)" d="M71.0 326.0L58.0 326.0L58.0 325.0L71.0 325.0Z" fill-rule="nonzero"/><path fill="#4285f4" clip-path="url(#id_0)" d="M71.0 326.0L58.0 326.0L58.0 325.0L71.0 325.0Z" fill-rule="nonzero"/><path fill="#2b569f" clip-path="url(#id_0)" d="M93.0 315.0L93.0 323.0L90.0 326.0L90.0 318.0Z" fill-rule="nonzero"/><path fill="#689df6" clip-path="url(#id_0)" d="M90.0 318.0L77.0 318.0L80.0 315.0L93.0 315.0Z" fill-rule="nonzero"/><path stroke="#000000" stroke-width="0.0" stroke-linecap="butt" stroke-opacity="0.0" clip-path="url(#id_0)" d="M90.0 326.0L77.0 326.0L77.0 318.0L90.0 318.0Z" fill-rule="nonzero"/><path fill="#4285f4" clip-path="url(#id_0)" d="M90.0 326.0L77.0 326.0L77.0 318.0L90.0 318.0Z" fill-rule="nonzero"/><path fill="#2b569f" clip-path="url(#id_0)" d="M113.0 323.0L113.0 323.0L110.0 326.0L110.0 326.0Z" fill-rule="nonzero"/><path fill="#689df6" clip-path="url(#id_0)" d="M110.0 326.0L97.0 326.0L100.0 323.0L113.0 323.0Z" fill-rule="nonzero"/><path stroke="#000000" stroke-width="0.0" stroke-linecap="butt" stroke-opacity="0.0" clip-path="url(#id_0)" d="M110.0 326.0L97.0 326.0L97.0 326.0L110.0 326.0Z" fill-rule="nonzero"/><path fill="#4285f4" clip-path="url(#id_0)" d="M110.0 326.0L97.0 326.0L97.0 326.0L110.0 326.0Z" fill-rule="nonzero"/><path fill="#2b569f" clip-path="url(#id_0)" d="M132.0 316.0L132.0 323.0L129.0 326.0L129.0 319.0Z" fill-rule="nonzero"/><path fill="#689df6" clip-path="url(#id_0)" d="M129.0 319.0L116.0 319.0L119.0 316.0L132.0 316.0Z" fill-rule="nonzero"/><path stroke="#000000" stroke-width="0.0" stroke-linecap="butt" stroke-opacity="0.0" clip-path="url(#id_0)" d="M129.0 326.0L116.0 326.0L116.0 319.0L129.0 319.0Z" fill-rule="nonzero"/><path fill="#4285f4" clip-path="url(#id_0)" d="M129.0 326.0L116.0 326.0L116.0 319.0L129.0 319.0Z" fill-rule="nonzero"/><path fill="#2b569f" clip-path="url(#id_0)" d="M151.0 286.0L151.0 323.0L148.0 326.0L148.0 289.0Z" fill-rule="nonzero"/><path fill="#689df6" clip-path="url(#id_0)" d="M148.0 289.0L135.0 289.0L138.0 286.0L151.0 286.0Z" fill-rule="nonzero"/><path stroke="#000000" stroke-width="0.0" stroke-linecap="butt" stroke-opacity="0.0" clip-path="url(#id_0)" d="M148.0 326.0L135.0 326.0L135.0 289.0L148.0 289.0Z" fill-rule="nonzero"/><path fill="#4285f4" clip-path="url(#id_0)" d="M148.0 326.0L135.0 326.0L135.0 289.0L148.0 289.0Z" fill-rule="nonzero"/><path fill="#2b569f" clip-path="url(#id_0)" d="M171.0 304.0L171.0 323.0L168.0 326.0L168.0 307.0Z" fill-rule="nonzero"/><path fill="#689df6" clip-path="url(#id_0)" d="M168.0 307.0L155.0 307.0L158.0 304.0L171.0 304.0Z" fill-rule="nonzero"/><path stroke="#000000" stroke-width="0.0" stroke-linecap="butt" stroke-opacity="0.0" clip-path="url(#id_0)" d="M168.0 326.0L155.0 326.0L155.0 307.0L168.0 307.0Z" fill-rule="nonzero"/><path fill="#4285f4" clip-path="url(#id_0)" d="M168.0 326.0L155.0 326.0L155.0 307.0L168.0 307.0Z" fill-rule="nonzero"/><path fill="#2b569f" clip-path="url(#id_0)" d="M190.0 304.0L190.0 323.0L187.0 326.0L187.0 307.0Z" fill-rule="nonzero"/><path fill="#689df6" clip-path="url(#id_0)" d="M187.0 307.0L174.0 307.0L177.0 304.0L190.0 304.0Z" fill-rule="nonzero"/><path stroke="#000000" stroke-width="0.0" stroke-linecap="butt" stroke-opacity="0.0" clip-path="url(#id_0)" d="M187.0 326.0L174.0 326.0L174.0 307.0L187.0 307.0Z" fill-rule="nonzero"/><path fill="#4285f4" clip-path="url(#id_0)" d="M187.0 326.0L174.0 326.0L174.0 307.0L187.0 307.0Z" fill-rule="nonzero"/><path fill="#2b569f" clip-path="url(#id_0)" d="M209.0 303.0L209.0 323.0L206.0 326.0L206.0 306.0Z" fill-rule="nonzero"/><path fill="#689df6" clip-path="url(#id_0)" d="M206.0 306.0L193.0 306.0L196.0 303.0L209.0 303.0Z" fill-rule="nonzero"/><path stroke="#000000" stroke-width="0.0" stroke-linecap="butt" stroke-opacity="0.0" clip-path="url(#id_0)" d="M206.0 326.0L193.0 326.0L193.0 306.0L206.0 306.0Z" fill-rule="nonzero"/><path fill="#4285f4" clip-path="url(#id_0)" d="M206.0 326.0L193.0 326.0L193.0 306.0L206.0 306.0Z" fill-rule="nonzero"/><path fill="#2b569f" clip-path="url(#id_0)" d="M229.0 297.0L229.0 323.0L226.0 326.0L226.0 300.0Z" fill-rule="nonzero"/><path fill="#689df6" clip-path="url(#id_0)" d="M226.0 300.0L213.0 300.0L216.0 297.0L229.0 297.0Z" fill-rule="nonzero"/><path stroke="#000000" stroke-width="0.0" stroke-linecap="butt" stroke-opacity="0.0" clip-path="url(#id_0)" d="M226.0 326.0L213.0 326.0L213.0 300.0L226.0 300.0Z" fill-rule="nonzero"/><path fill="#4285f4" clip-path="url(#id_0)" d="M226.0 326.0L213.0 326.0L213.0 300.0L226.0 300.0Z" fill-rule="nonzero"/><path fill="#2b569f" clip-path="url(#id_0)" d="M248.0 310.0L248.0 323.0L245.0 326.0L245.0 313.0Z" fill-rule="nonzero"/><path fill="#689df6" clip-path="url(#id_0)" d="M245.0 313.0L232.0 313.0L235.0 310.0L248.0 310.0Z" fill-rule="nonzero"/><path stroke="#000000" stroke-width="0.0" stroke-linecap="butt" stroke-opacity="0.0" clip-path="url(#id_0)" d="M245.0 326.0L232.0 326.0L232.0 313.0L245.0 313.0Z" fill-rule="nonzero"/><path fill="#4285f4" clip-path="url(#id_0)" d="M245.0 326.0L232.0 326.0L232.0 313.0L245.0 313.0Z" fill-rule="nonzero"/><path fill="#2b569f" clip-path="url(#id_0)" d="M267.0 310.0L267.0 323.0L264.0 326.0L264.0 313.0Z" fill-rule="nonzero"/><path fill="#689df6" clip-path="url(#id_0)" d="M264.0 313.0L251.0 313.0L254.0 310.0L267.0 310.0Z" fill-rule="nonzero"/><path stroke="#000000" stroke-width="0.0" stroke-linecap="butt" stroke-opacity="0.0" clip-path="url(#id_0)" d="M264.0 326.0L251.0 326.0L251.0 313.0L264.0 313.0Z" fill-rule="nonzero"/><path fill="#4285f4" clip-path="url(#id_0)" d="M264.0 326.0L251.0 326.0L251.0 313.0L264.0 313.0Z" fill-rule="nonzero"/><path fill="#2b569f" clip-path="url(#id_0)" d="M287.0 314.0L287.0 323.0L284.0 326.0L284.0 317.0Z" fill-rule="nonzero"/><path fill="#689df6" clip-path="url(#id_0)" d="M284.0 317.0L271.0 317.0L274.0 314.0L287.0 314.0Z" fill-rule="nonzero"/><path stroke="#000000" stroke-width="0.0" stroke-linecap="butt" stroke-opacity="0.0" clip-path="url(#id_0)" d="M284.0 326.0L271.0 326.0L271.0 317.0L284.0 317.0Z" fill-rule="nonzero"/><path fill="#4285f4" clip-path="url(#id_0)" d="M284.0 326.0L271.0 326.0L271.0 317.0L284.0 317.0Z" fill-rule="nonzero"/><path fill="#2b569f" clip-path="url(#id_0)" d="M306.0 244.0L306.0 323.0L303.0 326.0L303.0 247.0Z" fill-rule="nonzero"/><path fill="#689df6" clip-path="url(#id_0)" d="M303.0 247.0L290.0 247.0L293.0 244.0L306.0 244.0Z" fill-rule="nonzero"/><path stroke="#000000" stroke-width="0.0" stroke-linecap="butt" stroke-opacity="0.0" clip-path="url(#id_0)" d="M303.0 326.0L290.0 326.0L290.0 247.0L303.0 247.0Z" fill-rule="nonzero"/><path fill="#4285f4" clip-path="url(#id_0)" d="M303.0 326.0L290.0 326.0L290.0 247.0L303.0 247.0Z" fill-rule="nonzero"/><path fill="#2b569f" clip-path="url(#id_0)" d="M326.0 306.0L326.0 323.0L323.0 326.0L323.0 309.0Z" fill-rule="nonzero"/><path fill="#689df6" clip-path="url(#id_0)" d="M323.0 309.0L310.0 309.0L313.0 306.0L326.0 306.0Z" fill-rule="nonzero"/><path stroke="#000000" stroke-width="0.0" stroke-linecap="butt" stroke-opacity="0.0" clip-path="url(#id_0)" d="M323.0 326.0L310.0 326.0L310.0 309.0L323.0 309.0Z" fill-rule="nonzero"/><path fill="#4285f4" clip-path="url(#id_0)" d="M323.0 326.0L310.0 326.0L310.0 309.0L323.0 309.0Z" fill-rule="nonzero"/><path fill="#2b569f" clip-path="url(#id_0)" d="M345.0 313.0L345.0 323.0L342.0 326.0L342.0 316.0Z" fill-rule="nonzero"/><path fill="#689df6" clip-path="url(#id_0)" d="M342.0 316.0L329.0 316.0L332.0 313.0L345.0 313.0Z" fill-rule="nonzero"/><path stroke="#000000" stroke-width="0.0" stroke-linecap="butt" stroke-opacity="0.0" clip-path="url(#id_0)" d="M342.0 326.0L329.0 326.0L329.0 316.0L342.0 316.0Z" fill-rule="nonzero"/><path fill="#4285f4" clip-path="url(#id_0)" d="M342.0 326.0L329.0 326.0L329.0 316.0L342.0 316.0Z" fill-rule="nonzero"/><path fill="#2b569f" clip-path="url(#id_0)" d="M364.0 271.0L364.0 323.0L361.0 326.0L361.0 274.0Z" fill-rule="nonzero"/><path fill="#689df6" clip-path="url(#id_0)" d="M361.0 274.0L348.0 274.0L351.0 271.0L364.0 271.0Z" fill-rule="nonzero"/><path stroke="#000000" stroke-width="0.0" stroke-linecap="butt" stroke-opacity="0.0" clip-path="url(#id_0)" d="M361.0 326.0L348.0 326.0L348.0 274.0L361.0 274.0Z" fill-rule="nonzero"/><path fill="#4285f4" clip-path="url(#id_0)" d="M361.0 326.0L348.0 326.0L348.0 274.0L361.0 274.0Z" fill-rule="nonzero"/><path fill="#2b569f" clip-path="url(#id_0)" d="M384.0 285.0L384.0 323.0L381.0 326.0L381.0 288.0Z" fill-rule="nonzero"/><path fill="#689df6" clip-path="url(#id_0)" d="M381.0 288.0L368.0 288.0L371.0 285.0L384.0 285.0Z" fill-rule="nonzero"/><path stroke="#000000" stroke-width="0.0" stroke-linecap="butt" stroke-opacity="0.0" clip-path="url(#id_0)" d="M381.0 326.0L368.0 326.0L368.0 288.0L381.0 288.0Z" fill-rule="nonzero"/><path fill="#4285f4" clip-path="url(#id_0)" d="M381.0 326.0L368.0 326.0L368.0 288.0L381.0 288.0Z" fill-rule="nonzero"/><path fill="#2b569f" clip-path="url(#id_0)" d="M403.0 317.0L403.0 323.0L400.0 326.0L400.0 320.0Z" fill-rule="nonzero"/><path fill="#689df6" clip-path="url(#id_0)" d="M400.0 320.0L387.0 320.0L390.0 317.0L403.0 317.0Z" fill-rule="nonzero"/><path stroke="#000000" stroke-width="0.0" stroke-linecap="butt" stroke-opacity="0.0" clip-path="url(#id_0)" d="M400.0 326.0L387.0 326.0L387.0 320.0L400.0 320.0Z" fill-rule="nonzero"/><path fill="#4285f4" clip-path="url(#id_0)" d="M400.0 326.0L387.0 326.0L387.0 320.0L400.0 320.0Z" fill-rule="nonzero"/><path fill="#2b569f" clip-path="url(#id_0)" d="M422.0 204.0L422.0 323.0L419.0 326.0L419.0 207.0Z" fill-rule="nonzero"/><path fill="#689df6" clip-path="url(#id_0)" d="M419.0 207.0L406.0 207.0L409.0 204.0L422.0 204.0Z" fill-rule="nonzero"/><path stroke="#000000" stroke-width="0.0" stroke-linecap="butt" stroke-opacity="0.0" clip-path="url(#id_0)" d="M419.0 326.0L406.0 326.0L406.0 207.0L419.0 207.0Z" fill-rule="nonzero"/><path fill="#4285f4" clip-path="url(#id_0)" d="M419.0 326.0L406.0 326.0L406.0 207.0L419.0 207.0Z" fill-rule="nonzero"/><path fill="#2b569f" clip-path="url(#id_0)" d="M442.0 312.0L442.0 323.0L439.0 326.0L439.0 315.0Z" fill-rule="nonzero"/><path fill="#689df6" clip-path="url(#id_0)" d="M439.0 315.0L426.0 315.0L429.0 312.0L442.0 312.0Z" fill-rule="nonzero"/><path stroke="#000000" stroke-width="0.0" stroke-linecap="butt" stroke-opacity="0.0" clip-path="url(#id_0)" d="M439.0 326.0L426.0 326.0L426.0 315.0L439.0 315.0Z" fill-rule="nonzero"/><path fill="#4285f4" clip-path="url(#id_0)" d="M439.0 326.0L426.0 326.0L426.0 315.0L439.0 315.0Z" fill-rule="nonzero"/><path fill="#2b569f" clip-path="url(#id_0)" d="M461.0 278.0L461.0 323.0L458.0 326.0L458.0 281.0Z" fill-rule="nonzero"/><path fill="#689df6" clip-path="url(#id_0)" d="M458.0 281.0L445.0 281.0L448.0 278.0L461.0 278.0Z" fill-rule="nonzero"/><path stroke="#000000" stroke-width="0.0" stroke-linecap="butt" stroke-opacity="0.0" clip-path="url(#id_0)" d="M458.0 326.0L445.0 326.0L445.0 281.0L458.0 281.0Z" fill-rule="nonzero"/><path fill="#4285f4" clip-path="url(#id_0)" d="M458.0 326.0L445.0 326.0L445.0 281.0L458.0 281.0Z" fill-rule="nonzero"/><path fill="#2b569f" clip-path="url(#id_0)" d="M480.0 318.0L480.0 323.0L477.0 326.0L477.0 321.0Z" fill-rule="nonzero"/><path fill="#689df6" clip-path="url(#id_0)" d="M477.0 321.0L464.0 321.0L467.0 318.0L480.0 318.0Z" fill-rule="nonzero"/><path stroke="#000000" stroke-width="0.0" stroke-linecap="butt" stroke-opacity="0.0" clip-path="url(#id_0)" d="M477.0 326.0L464.0 326.0L464.0 321.0L477.0 321.0Z" fill-rule="nonzero"/><path fill="#4285f4" clip-path="url(#id_0)" d="M477.0 326.0L464.0 326.0L464.0 321.0L477.0 321.0Z" fill-rule="nonzero"/><path fill="#2b569f" clip-path="url(#id_0)" d="M500.0 323.0L500.0 323.0L497.0 326.0L497.0 326.0Z" fill-rule="nonzero"/><path fill="#689df6" clip-path="url(#id_0)" d="M497.0 326.0L484.0 326.0L487.0 323.0L500.0 323.0Z" fill-rule="nonzero"/><path stroke="#000000" stroke-width="0.0" stroke-linecap="butt" stroke-opacity="0.0" clip-path="url(#id_0)" d="M497.0 326.0L484.0 326.0L484.0 326.0L497.0 326.0Z" fill-rule="nonzero"/><path fill="#4285f4" clip-path="url(#id_0)" d="M497.0 326.0L484.0 326.0L484.0 326.0L497.0 326.0Z" fill-rule="nonzero"/><path fill="#2b569f" clip-path="url(#id_0)" d="M519.0 303.0L519.0 323.0L516.0 326.0L516.0 306.0Z" fill-rule="nonzero"/><path fill="#689df6" clip-path="url(#id_0)" d="M516.0 306.0L503.0 306.0L506.0 303.0L519.0 303.0Z" fill-rule="nonzero"/><path stroke="#000000" stroke-width="0.0" stroke-linecap="butt" stroke-opacity="0.0" clip-path="url(#id_0)" d="M516.0 326.0L503.0 326.0L503.0 306.0L516.0 306.0Z" fill-rule="nonzero"/><path fill="#4285f4" clip-path="url(#id_0)" d="M516.0 326.0L503.0 326.0L503.0 306.0L516.0 306.0Z" fill-rule="nonzero"/><path fill="#2b569f" clip-path="url(#id_0)" d="M538.0 110.0L538.0 323.0L535.0 326.0L535.0 113.0Z" fill-rule="nonzero"/><path fill="#689df6" clip-path="url(#id_0)" d="M535.0 113.0L522.0 113.0L525.0 110.0L538.0 110.0Z" fill-rule="nonzero"/><path stroke="#000000" stroke-width="0.0" stroke-linecap="butt" stroke-opacity="0.0" clip-path="url(#id_0)" d="M535.0 326.0L522.0 326.0L522.0 113.0L535.0 113.0Z" fill-rule="nonzero"/><path fill="#4285f4" clip-path="url(#id_0)" d="M535.0 326.0L522.0 326.0L522.0 113.0L535.0 113.0Z" fill-rule="nonzero"/><path fill="#2b569f" clip-path="url(#id_0)" d="M558.0 316.0L558.0 323.0L555.0 326.0L555.0 319.0Z" fill-rule="nonzero"/><path fill="#689df6" clip-path="url(#id_0)" d="M555.0 319.0L542.0 319.0L545.0 316.0L558.0 316.0Z" fill-rule="nonzero"/><path stroke="#000000" stroke-width="0.0" stroke-linecap="butt" stroke-opacity="0.0" clip-path="url(#id_0)" d="M555.0 326.0L542.0 326.0L542.0 319.0L555.0 319.0Z" fill-rule="nonzero"/><path fill="#4285f4" clip-path="url(#id_0)" d="M555.0 326.0L542.0 326.0L542.0 319.0L555.0 319.0Z" fill-rule="nonzero"/><path fill="#2b569f" clip-path="url(#id_0)" d="M577.0 320.0L577.0 323.0L574.0 326.0L574.0 323.0Z" fill-rule="nonzero"/><path fill="#689df6" clip-path="url(#id_0)" d="M574.0 323.0L561.0 323.0L564.0 320.0L577.0 320.0Z" fill-rule="nonzero"/><path stroke="#000000" stroke-width="0.0" stroke-linecap="butt" stroke-opacity="0.0" clip-path="url(#id_0)" d="M574.0 326.0L561.0 326.0L561.0 323.0L574.0 323.0Z" fill-rule="nonzero"/><path fill="#4285f4" clip-path="url(#id_0)" d="M574.0 326.0L561.0 326.0L561.0 323.0L574.0 323.0Z" fill-rule="nonzero"/><path fill="#757575" d="M45.6125 324.3094Q45.6125 326.21564 44.95625 327.15314Q44.315624 328.075 42.925 328.075Q41.565624 328.075 40.909374 327.16876Q40.253124 326.2625 40.221874 324.45L40.221874 323.0125Q40.221874 321.1219 40.8625 320.21564Q41.51875 319.29376 42.909374 319.29376Q44.284374 319.29376 44.940624 320.1844Q45.596874 321.0594 45.6125 322.90314L45.6125 324.3094ZM44.51875 322.825Q44.51875 321.45 44.128124 320.825Q43.753124 320.1844 42.909374 320.1844Q42.08125 320.1844 41.690624 320.825Q41.315624 321.45 41.315624 322.7469L41.315624 324.48126Q41.315624 325.85626 41.70625 326.52814Q42.1125 327.1844 42.925 327.1844Q43.721874 327.1844 44.1125 326.5594Q44.503124 325.9344 44.51875 324.60626L44.51875 322.825Z" fill-rule="nonzero"/><path fill="#757575" d="M24.846874 269.53333L19.253124 269.53333L19.253124 268.75208L22.20625 265.47083Q22.8625 264.72083 23.1125 264.2677Q23.3625 263.79895 23.3625 263.29895Q23.3625 262.62708 22.95625 262.2052Q22.565624 261.7677 21.878124 261.7677Q21.08125 261.7677 20.628124 262.23645Q20.175 262.68958 20.175 263.5177L19.096874 263.5177Q19.096874 262.3302 19.846874 261.61145Q20.6125 260.87708 21.878124 260.87708Q23.08125 260.87708 23.76875 261.50208Q24.45625 262.12708 24.45625 263.17395Q24.45625 264.42395 22.846874 266.17395L20.565624 268.6427L24.846874 268.6427L24.846874 269.53333ZM31.6125 265.8927Q31.6125 267.79895 30.95625 268.73645Q30.315624 269.65833 28.925 269.65833Q27.565624 269.65833 26.909374 268.75208Q26.253124 267.84583 26.221874 266.03333L26.221874 264.59583Q26.221874 262.7052 26.8625 261.79895Q27.51875 260.87708 28.909374 260.87708Q30.284374 260.87708 30.940624 261.7677Q31.596874 262.6427 31.6125 264.48645L31.6125 265.8927ZM30.51875 264.40833Q30.51875 263.03333 30.128124 262.40833Q29.753124 261.7677 28.909374 261.7677Q28.08125 261.7677 27.690624 262.40833Q27.315624 263.03333 27.315624 264.3302L27.315624 266.06458Q27.315624 267.43958 27.70625 268.11145Q28.1125 268.7677 28.925 268.7677Q29.721874 268.7677 30.1125 268.1427Q30.503124 267.5177 30.51875 266.18958L30.51875 264.40833ZM38.6125 265.8927Q38.6125 267.79895 37.95625 268.73645Q37.315624 269.65833 35.925 269.65833Q34.565624 269.65833 33.909374 268.75208Q33.253124 267.84583 33.221874 266.03333L33.221874 264.59583Q33.221874 262.7052 33.8625 261.79895Q34.51875 260.87708 35.909374 260.87708Q37.284374 260.87708 37.940624 261.7677Q38.596874 262.6427 38.6125 264.48645L38.6125 265.8927ZM37.51875 264.40833Q37.51875 263.03333 37.128124 262.40833Q36.753124 261.7677 35.909374 261.7677Q35.08125 261.7677 34.690624 262.40833Q34.315624 263.03333 34.315624 264.3302L34.315624 266.06458Q34.315624 267.43958 34.70625 268.11145Q35.1125 268.7677 35.925 268.7677Q36.721874 268.7677 37.1125 268.1427Q37.503124 267.5177 37.51875 266.18958L37.51875 264.40833ZM45.6125 265.8927Q45.6125 267.79895 44.95625 268.73645Q44.315624 269.65833 42.925 269.65833Q41.565624 269.65833 40.909374 268.75208Q40.253124 267.84583 40.221874 266.03333L40.221874 264.59583Q40.221874 262.7052 40.8625 261.79895Q41.51875 260.87708 42.909374 260.87708Q44.284374 260.87708 44.940624 261.7677Q45.596874 262.6427 45.6125 264.48645L45.6125 265.8927ZM44.51875 264.40833Q44.51875 263.03333 44.128124 262.40833Q43.753124 261.7677 42.909374 261.7677Q42.08125 261.7677 41.690624 262.40833Q41.315624 263.03333 41.315624 264.3302L41.315624 266.06458Q41.315624 267.43958 41.70625 268.11145Q42.1125 268.7677 42.925 268.7677Q43.721874 268.7677 44.1125 268.1427Q44.503124 267.5177 44.51875 266.18958L44.51875 264.40833Z" fill-rule="nonzero"/><path fill="#757575" d="M23.83125 208.2573L25.01875 208.2573L25.01875 209.1323L23.83125 209.1323L23.83125 211.11667L22.753124 211.11667L22.753124 209.1323L18.8625 209.1323L18.8625 208.49167L22.675 202.58542L23.83125 202.58542L23.83125 208.2573ZM20.096874 208.2573L22.753124 208.2573L22.753124 204.0698L22.6125 204.30417L20.096874 208.2573ZM31.6125 207.47604Q31.6125 209.3823 30.95625 210.3198Q30.315624 211.24167 28.925 211.24167Q27.565624 211.24167 26.909374 210.33542Q26.253124 209.42917 26.221874 207.61667L26.221874 206.17917Q26.221874 204.28854 26.8625 203.3823Q27.51875 202.46042 28.909374 202.46042Q30.284374 202.46042 30.940624 203.35104Q31.596874 204.22604 31.6125 206.0698L31.6125 207.47604ZM30.51875 205.99167Q30.51875 204.61667 30.128124 203.99167Q29.753124 203.35104 28.909374 203.35104Q28.08125 203.35104 27.690624 203.99167Q27.315624 204.61667 27.315624 205.91354L27.315624 207.64792Q27.315624 209.02292 27.70625 209.6948Q28.1125 210.35104 28.925 210.35104Q29.721874 210.35104 30.1125 209.72604Q30.503124 209.10104 30.51875 207.77292L30.51875 205.99167ZM38.6125 207.47604Q38.6125 209.3823 37.95625 210.3198Q37.315624 211.24167 35.925 211.24167Q34.565624 211.24167 33.909374 210.33542Q33.253124 209.42917 33.221874 207.61667L33.221874 206.17917Q33.221874 204.28854 33.8625 203.3823Q34.51875 202.46042 35.909374 202.46042Q37.284374 202.46042 37.940624 203.35104Q38.596874 204.22604 38.6125 206.0698L38.6125 207.47604ZM37.51875 205.99167Q37.51875 204.61667 37.128124 203.99167Q36.753124 203.35104 35.909374 203.35104Q35.08125 203.35104 34.690624 203.99167Q34.315624 204.61667 34.315624 205.91354L34.315624 207.64792Q34.315624 209.02292 34.70625 209.6948Q35.1125 210.35104 35.925 210.35104Q36.721874 210.35104 37.1125 209.72604Q37.503124 209.10104 37.51875 207.77292L37.51875 205.99167ZM45.6125 207.47604Q45.6125 209.3823 44.95625 210.3198Q44.315624 211.24167 42.925 211.24167Q41.565624 211.24167 40.909374 210.33542Q40.253124 209.42917 40.221874 207.61667L40.221874 206.17917Q40.221874 204.28854 40.8625 203.3823Q41.51875 202.46042 42.909374 202.46042Q44.284374 202.46042 44.940624 203.35104Q45.596874 204.22604 45.6125 206.0698L45.6125 207.47604ZM44.51875 205.99167Q44.51875 204.61667 44.128124 203.99167Q43.753124 203.35104 42.909374 203.35104Q42.08125 203.35104 41.690624 203.99167Q41.315624 204.61667 41.315624 205.91354L41.315624 207.64792Q41.315624 209.02292 41.70625 209.6948Q42.1125 210.35104 42.925 210.35104Q43.721874 210.35104 44.1125 209.72604Q44.503124 209.10104 44.51875 207.77292L44.51875 205.99167Z" fill-rule="nonzero"/><path fill="#757575" d="M23.51875 144.16875L23.51875 145.075L23.315624 145.075Q22.05 145.10625 21.3 145.84062Q20.55 146.55937 20.425 147.87187Q21.1125 147.10625 22.26875 147.10625Q23.378124 147.10625 24.05 147.8875Q24.721874 148.66875 24.721874 149.91875Q24.721874 151.23125 24.003124 152.02812Q23.284374 152.825 22.065624 152.825Q20.846874 152.825 20.08125 151.8875Q19.33125 150.93437 19.33125 149.45L19.33125 149.04375Q19.33125 146.68437 20.33125 145.43437Q21.33125 144.18437 23.315624 144.16875L23.51875 144.16875ZM22.096874 148.0125Q21.534374 148.0125 21.065624 148.34062Q20.596874 148.66875 20.409374 149.18437L20.409374 149.575Q20.409374 150.6375 20.878124 151.27812Q21.3625 151.91875 22.065624 151.91875Q22.8 151.91875 23.221874 151.3875Q23.64375 150.84062 23.64375 149.96562Q23.64375 149.09062 23.221874 148.55937Q22.8 148.0125 22.096874 148.0125ZM31.6125 149.05937Q31.6125 150.96562 30.95625 151.90312Q30.315624 152.825 28.925 152.825Q27.565624 152.825 26.909374 151.91875Q26.253124 151.0125 26.221874 149.2L26.221874 147.7625Q26.221874 145.87187 26.8625 144.96562Q27.51875 144.04375 28.909374 144.04375Q30.284374 144.04375 30.940624 144.93437Q31.596874 145.80937 31.6125 147.65312L31.6125 149.05937ZM30.51875 147.575Q30.51875 146.2 30.128124 145.575Q29.753124 144.93437 28.909374 144.93437Q28.08125 144.93437 27.690624 145.575Q27.315624 146.2 27.315624 147.49687L27.315624 149.23125Q27.315624 150.60625 27.70625 151.27812Q28.1125 151.93437 28.925 151.93437Q29.721874 151.93437 30.1125 151.30937Q30.503124 150.68437 30.51875 149.35625L30.51875 147.575ZM38.6125 149.05937Q38.6125 150.96562 37.95625 151.90312Q37.315624 152.825 35.925 152.825Q34.565624 152.825 33.909374 151.91875Q33.253124 151.0125 33.221874 149.2L33.221874 147.7625Q33.221874 145.87187 33.8625 144.96562Q34.51875 144.04375 35.909374 144.04375Q37.284374 144.04375 37.940624 144.93437Q38.596874 145.80937 38.6125 147.65312L38.6125 149.05937ZM37.51875 147.575Q37.51875 146.2 37.128124 145.575Q36.753124 144.93437 35.909374 144.93437Q35.08125 144.93437 34.690624 145.575Q34.315624 146.2 34.315624 147.49687L34.315624 149.23125Q34.315624 150.60625 34.70625 151.27812Q35.1125 151.93437 35.925 151.93437Q36.721874 151.93437 37.1125 151.30937Q37.503124 150.68437 37.51875 149.35625L37.51875 147.575ZM45.6125 149.05937Q45.6125 150.96562 44.95625 151.90312Q44.315624 152.825 42.925 152.825Q41.565624 152.825 40.909374 151.91875Q40.253124 151.0125 40.221874 149.2L40.221874 147.7625Q40.221874 145.87187 40.8625 144.96562Q41.51875 144.04375 42.909374 144.04375Q44.284374 144.04375 44.940624 144.93437Q45.596874 145.80937 45.6125 147.65312L45.6125 149.05937ZM44.51875 147.575Q44.51875 146.2 44.128124 145.575Q43.753124 144.93437 42.909374 144.93437Q42.08125 144.93437 41.690624 145.575Q41.315624 146.2 41.315624 147.49687L41.315624 149.23125Q41.315624 150.60625 41.70625 151.27812Q42.1125 151.93437 42.925 151.93437Q43.721874 151.93437 44.1125 151.30937Q44.503124 150.68437 44.51875 149.35625L44.51875 147.575Z" fill-rule="nonzero"/><path fill="#757575" d="M24.440624 87.97083Q24.440624 88.61146 24.096874 89.11146Q23.753124 89.61146 23.190624 89.89271Q23.846874 90.17396 24.2375 90.73646Q24.628124 91.28333 24.628124 91.98646Q24.628124 93.08021 23.878124 93.75208Q23.14375 94.40833 21.925 94.40833Q20.690624 94.40833 19.940624 93.75208Q19.20625 93.08021 19.20625 91.98646Q19.20625 91.28333 19.58125 90.73646Q19.95625 90.17396 20.628124 89.89271Q20.065624 89.61146 19.7375 89.11146Q19.409374 88.61146 19.409374 87.97083Q19.409374 86.89271 20.096874 86.26771Q20.784374 85.62708 21.925 85.62708Q23.05 85.62708 23.7375 86.26771Q24.440624 86.89271 24.440624 87.97083ZM23.55 91.95521Q23.55 91.23646 23.096874 90.79896Q22.64375 90.34583 21.909374 90.34583Q21.175 90.34583 20.721874 90.79896Q20.284374 91.23646 20.284374 91.97083Q20.284374 92.68958 20.721874 93.11146Q21.159374 93.51771 21.925 93.51771Q22.675 93.51771 23.1125 93.09583Q23.55 92.67396 23.55 91.95521ZM21.925 86.51771Q21.284374 86.51771 20.878124 86.92396Q20.4875 87.31458 20.4875 88.00208Q20.4875 88.64271 20.878124 89.04896Q21.26875 89.45521 21.909374 89.45521Q22.565624 89.45521 22.95625 89.04896Q23.346874 88.64271 23.346874 88.00208Q23.346874 87.34583 22.940624 86.93958Q22.534374 86.51771 21.925 86.51771ZM31.6125 90.64271Q31.6125 92.54896 30.95625 93.48646Q30.315624 94.40833 28.925 94.40833Q27.565624 94.40833 26.909374 93.50208Q26.253124 92.59583 26.221874 90.78333L26.221874 89.34583Q26.221874 87.45521 26.8625 86.54896Q27.51875 85.62708 28.909374 85.62708Q30.284374 85.62708 30.940624 86.51771Q31.596874 87.39271 31.6125 89.23646L31.6125 90.64271ZM30.51875 89.15833Q30.51875 87.78333 30.128124 87.15833Q29.753124 86.51771 28.909374 86.51771Q28.08125 86.51771 27.690624 87.15833Q27.315624 87.78333 27.315624 89.08021L27.315624 90.81458Q27.315624 92.18958 27.70625 92.86146Q28.1125 93.51771 28.925 93.51771Q29.721874 93.51771 30.1125 92.89271Q30.503124 92.26771 30.51875 90.93958L30.51875 89.15833ZM38.6125 90.64271Q38.6125 92.54896 37.95625 93.48646Q37.315624 94.40833 35.925 94.40833Q34.565624 94.40833 33.909374 93.50208Q33.253124 92.59583 33.221874 90.78333L33.221874 89.34583Q33.221874 87.45521 33.8625 86.54896Q34.51875 85.62708 35.909374 85.62708Q37.284374 85.62708 37.940624 86.51771Q38.596874 87.39271 38.6125 89.23646L38.6125 90.64271ZM37.51875 89.15833Q37.51875 87.78333 37.128124 87.15833Q36.753124 86.51771 35.909374 86.51771Q35.08125 86.51771 34.690624 87.15833Q34.315624 87.78333 34.315624 89.08021L34.315624 90.81458Q34.315624 92.18958 34.70625 92.86146Q35.1125 93.51771 35.925 93.51771Q36.721874 93.51771 37.1125 92.89271Q37.503124 92.26771 37.51875 90.93958L37.51875 89.15833ZM45.6125 90.64271Q45.6125 92.54896 44.95625 93.48646Q44.315624 94.40833 42.925 94.40833Q41.565624 94.40833 40.909374 93.50208Q40.253124 92.59583 40.221874 90.78333L40.221874 89.34583Q40.221874 87.45521 40.8625 86.54896Q41.51875 85.62708 42.909374 85.62708Q44.284374 85.62708 44.940624 86.51771Q45.596874 87.39271 45.6125 89.23646L45.6125 90.64271ZM44.51875 89.15833Q44.51875 87.78333 44.128124 87.15833Q43.753124 86.51771 42.909374 86.51771Q42.08125 86.51771 41.690624 87.15833Q41.315624 87.78333 41.315624 89.08021L41.315624 90.81458Q41.315624 92.18958 41.70625 92.86146Q42.1125 93.51771 42.925 93.51771Q43.721874 93.51771 44.1125 92.89271Q44.503124 92.26771 44.51875 90.93958L44.51875 89.15833Z" fill-rule="nonzero"/><path fill="#757575" d="M66.36892 344.7469L66.36892 348.325L68.603294 349.1219L68.603294 350.27814L60.072044 347.02814L60.072044 346.04376L68.603294 342.77814L68.603294 343.9344L66.36892 344.7469ZM65.447044 347.98126L65.447044 345.075L61.46267 346.52814L65.447044 347.98126ZM65.90017 335.1844Q67.24392 335.34064 67.99392 336.1844Q68.728294 337.02814 68.728294 338.41876Q68.728294 339.9344 67.65017 340.84064Q66.55642 341.7469 64.728294 341.7469L63.915794 341.7469Q62.728294 341.7469 61.822044 341.325Q60.915794 340.90314 60.43142 340.1219Q59.947044 339.34064 59.947044 338.325Q59.947044 336.96564 60.71267 336.15314Q61.478294 335.325 62.80642 335.1844L62.80642 336.3094Q61.790794 336.46564 61.33767 336.95Q60.884544 337.4344 60.884544 338.325Q60.884544 339.40314 61.68142 340.0125Q62.478294 340.6219 63.947044 340.6219L64.77517 340.6219Q66.165794 340.6219 66.99392 340.04376Q67.80642 339.46564 67.80642 338.41876Q67.80642 337.48126 67.384544 336.98126Q66.947044 336.48126 65.90017 336.3094L65.90017 335.1844Z" fill-rule="nonzero"/><path fill="#757575" d="M85.70712 342.74686L85.70712 346.32498L87.9415 347.12186L87.9415 348.2781L79.41025 345.0281L79.41025 344.04373L87.9415 340.7781L87.9415 341.93436L85.70712 342.74686ZM84.78525 345.98123L84.78525 343.07498L80.80087 344.5281L84.78525 345.98123ZM87.01962 338.32498L87.01962 334.2781L87.9415 334.2781L87.9415 339.4656L79.41025 339.4656L79.41025 338.32498L87.01962 338.32498Z" fill-rule="nonzero"/><path fill="#757575" d="M105.045334 344.74686L105.045334 348.32498L107.27971 349.12186L107.27971 350.2781L98.74846 347.0281L98.74846 346.04373L107.27971 342.7781L107.27971 343.93436L105.045334 344.74686ZM104.12346 347.98123L104.12346 345.07498L100.139084 346.5281L104.12346 347.98123ZM103.93596 340.3406L107.27971 340.3406L107.27971 341.4656L98.74846 341.4656L98.74846 338.30936Q98.74846 336.91873 99.46721 336.12186Q100.170334 335.32498 101.357834 335.32498Q102.59221 335.32498 103.264084 336.10623Q103.93596 336.87186 103.93596 338.32498L103.93596 340.3406ZM103.014084 340.3406L103.014084 338.30936Q103.014084 337.4031 102.59221 336.93436Q102.170334 336.44998 101.37346 336.44998Q100.607834 336.44998 100.15471 336.93436Q99.68596 337.4031 99.670334 338.24686L99.670334 340.3406L103.014084 340.3406Z" fill-rule="nonzero"/><path fill="#757575" d="M124.383545 346.7469L124.383545 350.325L126.61792 351.1219L126.61792 352.27814L118.08667 349.02814L118.08667 348.04376L126.61792 344.77814L126.61792 345.9344L124.383545 346.7469ZM123.46167 349.98126L123.46167 347.075L119.477295 348.52814L123.46167 349.98126ZM118.08667 342.0125L125.039795 339.21564L118.08667 336.4344L118.08667 334.96564L126.61792 334.96564L126.61792 336.09064L123.289795 336.09064L119.71167 335.98126L126.61792 338.79376L126.61792 339.65314L119.727295 342.45L123.289795 342.34064L126.61792 342.34064L126.61792 343.46564L118.08667 343.46564L118.08667 342.0125Z" fill-rule="nonzero"/><path fill="#757575" d="M145.95613 348.46564L137.42488 348.46564L137.42488 345.66876Q137.42488 344.27814 138.003 343.59064Q138.5655 342.8875 139.6905 342.8875Q140.29988 342.8875 140.76863 343.23126Q141.22176 343.5594 141.47176 344.15314Q141.65926 343.45 142.20613 343.0594Q142.73738 342.65314 143.48738 342.65314Q144.64363 342.65314 145.29988 343.40314Q145.95613 344.1375 145.95613 345.4969L145.95613 348.46564ZM141.97176 347.34064L145.03426 347.34064L145.03426 345.48126Q145.03426 344.6844 144.628 344.23126Q144.22176 343.77814 143.503 343.77814Q141.97176 343.77814 141.97176 345.46564L141.97176 347.34064ZM141.0655 347.34064L141.0655 345.6375Q141.0655 344.90314 140.70613 344.46564Q140.33113 344.0125 139.6905 344.0125Q138.98738 344.0125 138.67488 344.41876Q138.34676 344.825 138.34676 345.66876L138.34676 347.34064L141.0655 347.34064ZM143.72176 336.7469L143.72176 340.325L145.95613 341.1219L145.95613 342.27814L137.42488 339.02814L137.42488 338.04376L145.95613 334.77814L145.95613 335.9344L143.72176 336.7469ZM142.79988 339.98126L142.79988 337.075L138.8155 338.52814L142.79988 339.98126Z" fill-rule="nonzero"/><path fill="#757575" d="M162.59122 342.1844Q163.93497 342.34064 164.68497 343.1844Q165.41934 344.02814 165.41934 345.41876Q165.41934 346.9344 164.34122 347.84064Q163.24747 348.7469 161.41934 348.7469L160.60684 348.7469Q159.41934 348.7469 158.51309 348.325Q157.60684 347.90314 157.12247 347.1219Q156.63809 346.34064 156.63809 345.325Q156.63809 343.96564 157.40372 343.15314Q158.16934 342.325 159.49747 342.1844L159.49747 343.3094Q158.48184 343.46564 158.02872 343.95Q157.57559 344.4344 157.57559 345.325Q157.57559 346.40314 158.37247 347.0125Q159.16934 347.6219 160.63809 347.6219L161.46622 347.6219Q162.85684 347.6219 163.68497 347.04376Q164.49747 346.46564 164.49747 345.41876Q164.49747 344.48126 164.07559 343.98126Q163.63809 343.48126 162.59122 343.3094L162.59122 342.1844ZM161.35684 335.6375L161.35684 339.34064L164.37247 339.34064L164.37247 335.04376L165.29434 335.04376L165.29434 340.46564L156.76309 340.46564L156.76309 335.09064L157.68497 335.09064L157.68497 339.34064L160.43497 339.34064L160.43497 335.6375L161.35684 335.6375Z" fill-rule="nonzero"/><path fill="#757575" d="M184.63254 348.46564L176.10129 348.46564L176.10129 346.04376Q176.10129 344.9344 176.60129 344.09064Q177.08566 343.23126 177.99191 342.7625Q178.89816 342.29376 180.08566 342.29376L180.61691 342.29376Q181.83566 342.29376 182.74191 342.7625Q183.64816 343.21564 184.13254 344.09064Q184.61691 344.95 184.63254 346.09064L184.63254 348.46564ZM177.02316 347.34064L183.71066 347.34064L183.71066 346.15314Q183.71066 344.85626 182.91379 344.1375Q182.10129 343.40314 180.60129 343.40314L180.10129 343.40314Q178.64816 343.40314 177.85129 344.09064Q177.03879 344.7625 177.02316 346.02814L177.02316 347.34064ZM180.86691 335.7469L180.86691 339.34064L184.63254 339.34064L184.63254 340.46564L176.10129 340.46564L176.10129 335.16876L177.02316 335.16876L177.02316 339.34064L179.94504 339.34064L179.94504 335.7469L180.86691 335.7469Z" fill-rule="nonzero"/><path fill="#757575" d="M200.03325 342.63748L200.03325 346.3406L203.04887 346.3406L203.04887 342.04373L203.97075 342.04373L203.97075 347.4656L195.4395 347.4656L195.4395 342.0906L196.36137 342.0906L196.36137 346.3406L199.11137 346.3406L199.11137 342.63748L200.03325 342.63748ZM200.17387 337.94998Q199.752 339.38748 199.14262 340.05936Q198.53325 340.7156 197.64262 340.7156Q196.64262 340.7156 195.98637 339.91873Q195.3145 339.10623 195.3145 337.80936Q195.3145 336.93436 195.65825 336.24686Q196.002 335.55936 196.59575 335.18436Q197.1895 334.79373 197.90825 334.79373L197.90825 335.93436Q197.127 335.93436 196.6895 336.43436Q196.252 336.91873 196.252 337.80936Q196.252 338.63748 196.627 339.10623Q196.98637 339.57498 197.627 339.57498Q198.15825 339.57498 198.51762 339.13748Q198.877 338.68436 199.17387 337.62186Q199.47075 336.55936 199.83012 335.9656Q200.1895 335.35623 200.67387 335.07498Q201.15825 334.7781 201.79887 334.7781Q202.84575 334.7781 203.47075 335.5906Q204.09575 336.4031 204.09575 337.74686Q204.09575 338.63748 203.752 339.4031Q203.40825 340.1531 202.83012 340.57498Q202.23637 340.98123 201.502 340.98123L201.502 339.85623Q202.26762 339.85623 202.72075 339.2781Q203.17387 338.69998 203.17387 337.74686Q203.17387 336.85623 202.8145 336.38748Q202.4395 335.91873 201.8145 335.91873Q201.1895 335.91873 200.84575 336.35623Q200.502 336.79373 200.17387 337.94998Z" fill-rule="nonzero"/><path fill="#757575" d="M222.18396 343.15314Q222.80896 343.59064 223.12146 344.3719Q223.43396 345.15314 223.43396 346.1844Q223.43396 347.21564 222.94958 348.02814Q222.44958 348.84064 221.54333 349.27814Q220.63708 349.71564 219.44958 349.73126L218.71521 349.73126Q216.77771 349.73126 215.71521 348.84064Q214.65271 347.9344 214.65271 346.3094Q214.65271 344.96564 215.34021 344.15314Q216.02771 343.34064 217.27771 343.15314L217.27771 344.27814Q215.59021 344.60626 215.59021 346.29376Q215.59021 347.4344 216.38708 348.0125Q217.16833 348.59064 218.68396 348.60626L219.37146 348.60626Q220.80896 348.60626 221.66833 347.95Q222.51208 347.29376 222.51208 346.16876Q222.51208 345.54376 222.37146 345.075Q222.23083 344.59064 221.88708 344.27814L219.98083 344.27814L219.98083 346.2469L219.05896 346.2469L219.05896 343.15314L222.18396 343.15314ZM219.32458 334.90314Q220.57458 334.90314 221.51208 335.325Q222.43396 335.7469 222.93396 336.52814Q223.43396 337.29376 223.43396 338.325Q223.43396 339.325 222.93396 340.10626Q222.43396 340.8875 221.52771 341.325Q220.60583 341.7469 219.38708 341.7625L218.77771 341.7625Q217.54333 341.7625 216.60583 341.34064Q215.66833 340.90314 215.16833 340.1219Q214.65271 339.34064 214.65271 338.325Q214.65271 337.3094 215.15271 336.52814Q215.65271 335.7469 216.59021 335.325Q217.52771 334.90314 218.77771 334.90314L219.32458 334.90314ZM218.76208 336.0125Q217.24646 336.0125 216.43396 336.6219Q215.62146 337.23126 215.62146 338.325Q215.62146 339.40314 216.43396 340.0125Q217.24646 340.6219 218.68396 340.6375L219.32458 340.6375Q220.79333 340.6375 221.63708 340.02814Q222.46521 339.40314 222.46521 338.325Q222.46521 337.23126 221.68396 336.6375Q220.88708 336.02814 219.40271 336.0125L218.76208 336.0125Z" fill-rule="nonzero"/><path fill="#757575" d="M234.11592 350.01248L241.06905 347.2156L234.11592 344.43436L234.11592 342.9656L242.64717 342.9656L242.64717 344.0906L239.31905 344.0906L235.74092 343.98123L242.64717 346.79373L242.64717 347.6531L235.75655 350.44998L239.31905 350.3406L242.64717 350.3406L242.64717 351.4656L234.11592 351.4656L234.11592 350.01248ZM240.4128 336.74686L240.4128 340.32498L242.64717 341.12186L242.64717 342.2781L234.11592 339.0281L234.11592 338.04373L242.64717 334.7781L242.64717 335.93436L240.4128 336.74686ZM239.49092 339.98123L239.49092 337.07498L235.50655 338.5281L239.49092 339.98123Z" fill-rule="nonzero"/><path fill="#757575" d="M253.45413 349.0125L260.40726 346.21564L253.45413 343.4344L253.45413 341.96564L261.98538 341.96564L261.98538 343.09064L258.65726 343.09064L255.07913 342.98126L261.98538 345.79376L261.98538 346.65314L255.09476 349.45L258.65726 349.34064L261.98538 349.34064L261.98538 350.46564L253.45413 350.46564L253.45413 349.0125ZM254.376 334.5594L254.376 337.3094L261.98538 337.3094L261.98538 338.41876L254.376 338.41876L254.376 341.16876L253.45413 341.16876L253.45413 334.5594L254.376 334.5594Z" fill-rule="nonzero"/><path fill="#757575" d="M272.79233 349.01248L279.74545 346.2156L272.79233 343.43436L272.79233 341.9656L281.32358 341.9656L281.32358 343.0906L277.99545 343.0906L274.41733 342.98123L281.32358 345.79373L281.32358 346.6531L274.43295 349.44998L277.99545 349.3406L281.32358 349.3406L281.32358 350.4656L272.79233 350.4656L272.79233 349.01248ZM277.5267 337.94998Q277.10483 339.38748 276.49545 340.05936Q275.88608 340.7156 274.99545 340.7156Q273.99545 340.7156 273.3392 339.91873Q272.66733 339.10623 272.66733 337.80936Q272.66733 336.93436 273.01108 336.24686Q273.35483 335.55936 273.94858 335.18436Q274.54233 334.79373 275.26108 334.79373L275.26108 335.93436Q274.47983 335.93436 274.04233 336.43436Q273.60483 336.91873 273.60483 337.80936Q273.60483 338.63748 273.97983 339.10623Q274.3392 339.57498 274.97983 339.57498Q275.51108 339.57498 275.87045 339.13748Q276.22983 338.68436 276.5267 337.62186Q276.82358 336.55936 277.18295 335.9656Q277.54233 335.35623 278.0267 335.07498Q278.51108 334.7781 279.1517 334.7781Q280.19858 334.7781 280.82358 335.5906Q281.44858 336.4031 281.44858 337.74686Q281.44858 338.63748 281.10483 339.4031Q280.76108 340.1531 280.18295 340.57498Q279.5892 340.98123 278.85483 340.98123L278.85483 339.85623Q279.62045 339.85623 280.07358 339.2781Q280.5267 338.69998 280.5267 337.74686Q280.5267 336.85623 280.16733 336.38748Q279.79233 335.91873 279.16733 335.91873Q278.54233 335.91873 278.19858 336.35623Q277.85483 336.79373 277.5267 337.94998Z" fill-rule="nonzero"/><path fill="#757575" d="M292.13055 350.0125L299.08368 347.21564L292.13055 344.4344L292.13055 342.96564L300.6618 342.96564L300.6618 344.09064L297.33368 344.09064L293.75555 343.98126L300.6618 346.79376L300.6618 347.65314L293.77118 350.45L297.33368 350.34064L300.6618 350.34064L300.6618 351.46564L292.13055 351.46564L292.13055 350.0125ZM299.5368 335.15314Q300.1618 335.59064 300.4743 336.3719Q300.7868 337.15314 300.7868 338.1844Q300.7868 339.21564 300.30243 340.02814Q299.80243 340.84064 298.89618 341.27814Q297.98993 341.71564 296.80243 341.73126L296.06805 341.73126Q294.13055 341.73126 293.06805 340.84064Q292.00555 339.9344 292.00555 338.3094Q292.00555 336.96564 292.69305 336.15314Q293.38055 335.34064 294.63055 335.15314L294.63055 336.27814Q292.94305 336.60626 292.94305 338.29376Q292.94305 339.4344 293.73993 340.0125Q294.52118 340.59064 296.0368 340.60626L296.7243 340.60626Q298.1618 340.60626 299.02118 339.95Q299.86493 339.29376 299.86493 338.16876Q299.86493 337.54376 299.7243 337.075Q299.58368 336.59064 299.23993 336.27814L297.33368 336.27814L297.33368 338.2469L296.4118 338.2469L296.4118 335.15314L299.5368 335.15314Z" fill-rule="nonzero"/><path fill="#757575" d="M316.65625 348.34064L320.0 348.34064L320.0 349.46564L311.46875 349.46564L311.46875 346.3094Q311.46875 344.91876 312.1875 344.1219Q312.89062 343.325 314.07812 343.325Q315.3125 343.325 315.98438 344.10626Q316.65625 344.8719 316.65625 346.325L316.65625 348.34064ZM315.73438 348.34064L315.73438 346.3094Q315.73438 345.40314 315.3125 344.9344Q314.89062 344.45 314.09375 344.45Q313.32812 344.45 312.875 344.9344Q312.40625 345.40314 312.39062 346.2469L312.39062 348.34064L315.73438 348.34064ZM317.76562 336.7469L317.76562 340.325L320.0 341.1219L320.0 342.27814L311.46875 339.02814L311.46875 338.04376L320.0 334.77814L320.0 335.9344L317.76562 336.7469ZM316.84375 339.98126L316.84375 337.075L312.85938 338.52814L316.84375 339.98126Z" fill-rule="nonzero"/><path fill="#757575" d="M335.99445 347.3406L339.3382 347.3406L339.3382 348.4656L330.80695 348.4656L330.80695 345.30936Q330.80695 343.91873 331.5257 343.12186Q332.22882 342.32498 333.41632 342.32498Q334.6507 342.32498 335.32257 343.10623Q335.99445 343.87186 335.99445 345.32498L335.99445 347.3406ZM335.07257 347.3406L335.07257 345.30936Q335.07257 344.4031 334.6507 343.93436Q334.22882 343.44998 333.43195 343.44998Q332.66632 343.44998 332.2132 343.93436Q331.74445 344.4031 331.72882 345.24686L331.72882 347.3406L335.07257 347.3406ZM339.3382 340.4656L330.80695 340.4656L330.80695 337.66873Q330.80695 336.2781 331.38507 335.5906Q331.94757 334.88748 333.07257 334.88748Q333.68195 334.88748 334.1507 335.23123Q334.60382 335.55936 334.85382 336.1531Q335.04132 335.44998 335.5882 335.05936Q336.11945 334.6531 336.86945 334.6531Q338.0257 334.6531 338.68195 335.4031Q339.3382 336.13748 339.3382 337.49686L339.3382 340.4656ZM335.35382 339.3406L338.41632 339.3406L338.41632 337.48123Q338.41632 336.68436 338.01007 336.23123Q337.60382 335.7781 336.88507 335.7781Q335.35382 335.7781 335.35382 337.4656L335.35382 339.3406ZM334.44757 339.3406L334.44757 337.63748Q334.44757 336.9031 334.0882 336.4656Q333.7132 336.01248 333.07257 336.01248Q332.36945 336.01248 332.05695 336.41873Q331.72882 336.82498 331.72882 337.66873L331.72882 339.3406L334.44757 339.3406Z" fill-rule="nonzero"/><path fill="#757575" d="M355.33267 347.34064L358.67642 347.34064L358.67642 348.46564L350.14517 348.46564L350.14517 345.3094Q350.14517 343.91876 350.86392 343.1219Q351.56705 342.325 352.75455 342.325Q353.98892 342.325 354.6608 343.10626Q355.33267 343.8719 355.33267 345.325L355.33267 347.34064ZM354.4108 347.34064L354.4108 345.3094Q354.4108 344.40314 353.98892 343.9344Q353.56705 343.45 352.77017 343.45Q352.00455 343.45 351.55142 343.9344Q351.08267 344.40314 351.06705 345.2469L351.06705 347.34064L354.4108 347.34064ZM355.2233 337.325L355.2233 339.34064L358.67642 339.34064L358.67642 340.46564L350.14517 340.46564L350.14517 337.6375Q350.14517 336.2 350.80142 335.4344Q351.45767 334.65314 352.70767 334.65314Q353.50455 334.65314 354.0983 335.09064Q354.69205 335.5125 354.98892 336.27814L358.5983 334.27814L358.67642 334.27814L358.67642 335.48126L355.2233 337.325ZM354.30142 339.34064L354.30142 337.60626Q354.30142 336.7625 353.87955 336.27814Q353.44205 335.77814 352.70767 335.77814Q351.92642 335.77814 351.50455 336.2469Q351.08267 336.71564 351.06705 337.60626L351.06705 339.34064L354.30142 339.34064Z" fill-rule="nonzero"/><path fill="#757575" d="M374.67087 347.3406L378.01462 347.3406L378.01462 348.4656L369.48337 348.4656L369.48337 345.30936Q369.48337 343.91873 370.20212 343.12186Q370.90524 342.32498 372.09274 342.32498Q373.32712 342.32498 373.999 343.10623Q374.67087 343.87186 374.67087 345.32498L374.67087 347.3406ZM373.749 347.3406L373.749 345.30936Q373.749 344.4031 373.32712 343.93436Q372.90524 343.44998 372.10837 343.44998Q371.34274 343.44998 370.88962 343.93436Q370.42087 344.4031 370.40524 345.24686L370.40524 347.3406L373.749 347.3406ZM374.07712 335.63748L374.07712 339.3406L377.09274 339.3406L377.09274 335.04373L378.01462 335.04373L378.01462 340.4656L369.48337 340.4656L369.48337 335.0906L370.40524 335.0906L370.40524 339.3406L373.15524 339.3406L373.15524 335.63748L374.07712 335.63748Z" fill-rule="nonzero"/><path fill="#757575" d="M394.0091 343.34064L397.35284 343.34064L397.35284 344.46564L388.8216 344.46564L388.8216 341.3094Q388.8216 339.91876 389.54034 339.1219Q390.24347 338.325 391.43097 338.325Q392.66534 338.325 393.33722 339.10626Q394.0091 339.8719 394.0091 341.325L394.0091 343.34064ZM393.08722 343.34064L393.08722 341.3094Q393.08722 340.40314 392.66534 339.9344Q392.24347 339.45 391.4466 339.45Q390.68097 339.45 390.22784 339.9344Q389.7591 340.40314 389.74347 341.2469L389.74347 343.34064L393.08722 343.34064ZM397.35284 335.2469L397.35284 336.3719L388.8216 336.3719L388.8216 335.2469L397.35284 335.2469Z" fill-rule="nonzero"/><path fill="#757575" d="M413.2379 344.325L413.2379 346.34064L416.69104 346.34064L416.69104 347.46564L408.1598 347.46564L408.1598 344.6375Q408.1598 343.2 408.81604 342.4344Q409.4723 341.65314 410.7223 341.65314Q411.51917 341.65314 412.1129 342.09064Q412.70667 342.5125 413.00354 343.27814L416.6129 341.27814L416.69104 341.27814L416.69104 342.48126L413.2379 344.325ZM412.31604 346.34064L412.31604 344.60626Q412.31604 343.7625 411.89417 343.27814Q411.45667 342.77814 410.7223 342.77814Q409.94104 342.77814 409.51917 343.2469Q409.0973 343.71564 409.08167 344.60626L409.08167 346.34064L412.31604 346.34064ZM408.1598 336.8875L408.1598 335.7469L414.20667 335.7469Q415.4254 335.7469 416.12854 336.4969Q416.81604 337.23126 416.81604 338.45Q416.81604 339.71564 416.1598 340.4344Q415.50354 341.1375 414.33167 341.1375L414.33167 340.0125Q415.06604 340.0125 415.4879 339.6219Q415.89417 339.21564 415.89417 338.45Q415.89417 337.7469 415.45667 337.325Q415.00354 336.8875 414.2223 336.8875L408.1598 336.8875Z" fill-rule="nonzero"/><path fill="#757575" d="M432.57614 346.32498L432.57614 348.3406L436.02927 348.3406L436.02927 349.4656L427.49802 349.4656L427.49802 346.63748Q427.49802 345.19998 428.15427 344.43436Q428.81052 343.6531 430.06052 343.6531Q430.8574 343.6531 431.45114 344.0906Q432.0449 344.51248 432.34177 345.2781L435.95114 343.2781L436.02927 343.2781L436.02927 344.48123L432.57614 346.32498ZM431.65427 348.3406L431.65427 346.60623Q431.65427 345.76248 431.2324 345.2781Q430.7949 344.7781 430.06052 344.7781Q429.27927 344.7781 428.8574 345.24686Q428.43552 345.7156 428.4199 346.60623L428.4199 348.3406L431.65427 348.3406ZM436.02927 335.9031L436.02927 337.0281L429.45114 341.32498L436.02927 341.32498L436.02927 342.4656L427.49802 342.4656L427.49802 341.32498L434.1074 337.0281L427.49802 337.0281L427.49802 335.9031L436.02927 335.9031Z" fill-rule="nonzero"/><path fill="#757575" d="M451.91434 344.325L451.91434 346.34064L455.36746 346.34064L455.36746 347.46564L446.8362 347.46564L446.8362 344.6375Q446.8362 343.2 447.49246 342.4344Q448.1487 341.65314 449.3987 341.65314Q450.1956 341.65314 450.78934 342.09064Q451.3831 342.5125 451.67996 343.27814L455.28934 341.27814L455.36746 341.27814L455.36746 342.48126L451.91434 344.325ZM450.99246 346.34064L450.99246 344.60626Q450.99246 343.7625 450.5706 343.27814Q450.1331 342.77814 449.3987 342.77814Q448.61746 342.77814 448.1956 343.2469Q447.7737 343.71564 447.7581 344.60626L447.7581 346.34064L450.99246 346.34064ZM451.5706 337.95Q451.1487 339.3875 450.53934 340.0594Q449.92996 340.71564 449.03934 340.71564Q448.03934 340.71564 447.3831 339.91876Q446.7112 339.10626 446.7112 337.8094Q446.7112 336.9344 447.05496 336.2469Q447.3987 335.5594 447.99246 335.1844Q448.5862 334.79376 449.30496 334.79376L449.30496 335.9344Q448.5237 335.9344 448.0862 336.4344Q447.6487 336.91876 447.6487 337.8094Q447.6487 338.6375 448.0237 339.10626Q448.3831 339.575 449.0237 339.575Q449.55496 339.575 449.91434 339.1375Q450.2737 338.6844 450.5706 337.6219Q450.86746 336.5594 451.22684 335.96564Q451.5862 335.35626 452.0706 335.075Q452.55496 334.77814 453.1956 334.77814Q454.24246 334.77814 454.86746 335.59064Q455.49246 336.40314 455.49246 337.7469Q455.49246 338.6375 455.1487 339.40314Q454.80496 340.15314 454.22684 340.575Q453.6331 340.98126 452.8987 340.98126L452.8987 339.85626Q453.66434 339.85626 454.11746 339.27814Q454.5706 338.7 454.5706 337.7469Q454.5706 336.85626 454.2112 336.3875Q453.8362 335.91876 453.2112 335.91876Q452.5862 335.91876 452.24246 336.35626Q451.8987 336.79376 451.5706 337.95Z" fill-rule="nonzero"/><path fill="#757575" d="M471.25253 345.325L471.25253 347.34064L474.70566 347.34064L474.70566 348.46564L466.1744 348.46564L466.1744 345.6375Q466.1744 344.2 466.83066 343.4344Q467.4869 342.65314 468.7369 342.65314Q469.53378 342.65314 470.12753 343.09064Q470.72128 343.5125 471.01816 344.27814L474.62753 342.27814L474.70566 342.27814L474.70566 343.48126L471.25253 345.325ZM470.33066 347.34064L470.33066 345.60626Q470.33066 344.7625 469.90878 344.27814Q469.47128 343.77814 468.7369 343.77814Q467.95566 343.77814 467.53378 344.2469Q467.1119 344.71564 467.09628 345.60626L467.09628 347.34064L470.33066 347.34064ZM470.72128 334.90314Q471.97128 334.90314 472.90878 335.325Q473.83066 335.7469 474.33066 336.52814Q474.83066 337.29376 474.83066 338.325Q474.83066 339.325 474.33066 340.10626Q473.83066 340.8875 472.9244 341.325Q472.00253 341.7469 470.78378 341.7625L470.1744 341.7625Q468.94003 341.7625 468.00253 341.34064Q467.06503 340.90314 466.56503 340.1219Q466.0494 339.34064 466.0494 338.325Q466.0494 337.3094 466.5494 336.52814Q467.0494 335.7469 467.9869 335.325Q468.9244 334.90314 470.1744 334.90314L470.72128 334.90314ZM470.15878 336.0125Q468.64316 336.0125 467.83066 336.6219Q467.01816 337.23126 467.01816 338.325Q467.01816 339.40314 467.83066 340.0125Q468.64316 340.6219 470.08066 340.6375L470.72128 340.6375Q472.19003 340.6375 473.03378 340.02814Q473.8619 339.40314 473.8619 338.325Q473.8619 337.23126 473.08066 336.6375Q472.28378 336.02814 470.7994 336.0125L470.15878 336.0125Z" fill-rule="nonzero"/><path fill="#757575" d="M490.59076 344.32498L490.59076 346.3406L494.04388 346.3406L494.04388 347.4656L485.51263 347.4656L485.51263 344.63748Q485.51263 343.19998 486.16888 342.43436Q486.82513 341.6531 488.07513 341.6531Q488.872 341.6531 489.46576 342.0906Q490.0595 342.51248 490.35638 343.2781L493.96576 341.2781L494.04388 341.2781L494.04388 342.48123L490.59076 344.32498ZM489.66888 346.3406L489.66888 344.60623Q489.66888 343.76248 489.247 343.2781Q488.8095 342.7781 488.07513 342.7781Q487.29388 342.7781 486.872 343.24686Q486.45013 343.7156 486.4345 344.60623L486.4345 346.3406L489.66888 346.3406ZM490.59076 337.32498L490.59076 339.3406L494.04388 339.3406L494.04388 340.4656L485.51263 340.4656L485.51263 337.63748Q485.51263 336.19998 486.16888 335.43436Q486.82513 334.6531 488.07513 334.6531Q488.872 334.6531 489.46576 335.0906Q490.0595 335.51248 490.35638 336.2781L493.96576 334.2781L494.04388 334.2781L494.04388 335.48123L490.59076 337.32498ZM489.66888 339.3406L489.66888 337.60623Q489.66888 336.76248 489.247 336.2781Q488.8095 335.7781 488.07513 335.7781Q487.29388 335.7781 486.872 336.24686Q486.45013 336.7156 486.4345 337.60623L486.4345 339.3406L489.66888 339.3406Z" fill-rule="nonzero"/><path fill="#757575" d="M509.5852 345.94998Q509.16333 347.38748 508.55396 348.05936Q507.94458 348.7156 507.05396 348.7156Q506.05396 348.7156 505.3977 347.91873Q504.72583 347.10623 504.72583 345.80936Q504.72583 344.93436 505.06958 344.24686Q505.41333 343.55936 506.00708 343.18436Q506.60083 342.79373 507.31958 342.79373L507.31958 343.93436Q506.53833 343.93436 506.10083 344.43436Q505.66333 344.91873 505.66333 345.80936Q505.66333 346.63748 506.03833 347.10623Q506.3977 347.57498 507.03833 347.57498Q507.56958 347.57498 507.92896 347.13748Q508.28833 346.68436 508.5852 345.62186Q508.88208 344.55936 509.24146 343.9656Q509.60083 343.35623 510.0852 343.07498Q510.56958 342.7781 511.2102 342.7781Q512.2571 342.7781 512.8821 343.5906Q513.5071 344.4031 513.5071 345.74686Q513.5071 346.63748 513.1633 347.4031Q512.8196 348.1531 512.24146 348.57498Q511.6477 348.98123 510.91333 348.98123L510.91333 347.85623Q511.67896 347.85623 512.1321 347.2781Q512.5852 346.69998 512.5852 345.74686Q512.5852 344.85623 512.2258 344.38748Q511.85083 343.91873 511.22583 343.91873Q510.60083 343.91873 510.25708 344.35623Q509.91333 344.79373 509.5852 345.94998ZM510.67896 335.18436Q512.0227 335.3406 512.7727 336.18436Q513.5071 337.0281 513.5071 338.41873Q513.5071 339.93436 512.42896 340.8406Q511.3352 341.74686 509.50708 341.74686L508.69458 341.74686Q507.50708 341.74686 506.60083 341.32498Q505.69458 340.9031 505.2102 340.12186Q504.72583 339.3406 504.72583 338.32498Q504.72583 336.9656 505.49146 336.1531Q506.25708 335.32498 507.5852 335.18436L507.5852 336.30936Q506.56958 336.4656 506.11646 336.94998Q505.66333 337.43436 505.66333 338.32498Q505.66333 339.4031 506.4602 340.01248Q507.25708 340.62186 508.72583 340.62186L509.55396 340.62186Q510.94458 340.62186 511.7727 340.04373Q512.5852 339.4656 512.5852 338.41873Q512.5852 337.48123 512.1633 336.98123Q511.72583 336.48123 510.67896 336.30936L510.67896 335.18436Z" fill-rule="nonzero"/><path fill="#757575" d="M528.9234 345.94998Q528.5015 347.38748 527.89215 348.05936Q527.2828 348.7156 526.39215 348.7156Q525.39215 348.7156 524.7359 347.91873Q524.064 347.10623 524.064 345.80936Q524.064 344.93436 524.4078 344.24686Q524.7515 343.55936 525.3453 343.18436Q525.939 342.79373 526.6578 342.79373L526.6578 343.93436Q525.8765 343.93436 525.439 344.43436Q525.0015 344.91873 525.0015 345.80936Q525.0015 346.63748 525.3765 347.10623Q525.7359 347.57498 526.3765 347.57498Q526.9078 347.57498 527.26715 347.13748Q527.6265 346.68436 527.9234 345.62186Q528.2203 344.55936 528.57965 343.9656Q528.939 343.35623 529.4234 343.07498Q529.9078 342.7781 530.5484 342.7781Q531.5953 342.7781 532.2203 343.5906Q532.8453 344.4031 532.8453 345.74686Q532.8453 346.63748 532.5015 347.4031Q532.1578 348.1531 531.57965 348.57498Q530.9859 348.98123 530.2515 348.98123L530.2515 347.85623Q531.01715 347.85623 531.4703 347.2781Q531.9234 346.69998 531.9234 345.74686Q531.9234 344.85623 531.564 344.38748Q531.189 343.91873 530.564 343.91873Q529.939 343.91873 529.5953 344.35623Q529.2515 344.79373 528.9234 345.94998ZM529.3765 340.3406L532.7203 340.3406L532.7203 341.4656L524.189 341.4656L524.189 338.30936Q524.189 336.91873 524.9078 336.12186Q525.6109 335.32498 526.7984 335.32498Q528.0328 335.32498 528.70465 336.10623Q529.3765 336.87186 529.3765 338.32498L529.3765 340.3406ZM528.45465 340.3406L528.45465 338.30936Q528.45465 337.4031 528.0328 336.93436Q527.6109 336.44998 526.814 336.44998Q526.0484 336.44998 525.5953 336.93436Q525.1265 337.4031 525.1109 338.24686L525.1109 340.3406L528.45465 340.3406Z" fill-rule="nonzero"/><path fill="#757575" d="M548.26166 344.95Q547.8398 346.3875 547.2304 347.0594Q546.62103 347.71564 545.7304 347.71564Q544.7304 347.71564 544.07416 346.91876Q543.4023 346.10626 543.4023 344.8094Q543.4023 343.9344 543.74603 343.2469Q544.0898 342.5594 544.68353 342.1844Q545.2773 341.79376 545.99603 341.79376L545.99603 342.9344Q545.2148 342.9344 544.7773 343.4344Q544.3398 343.91876 544.3398 344.8094Q544.3398 345.6375 544.7148 346.10626Q545.07416 346.575 545.7148 346.575Q546.24603 346.575 546.6054 346.1375Q546.9648 345.6844 547.26166 344.6219Q547.55853 343.5594 547.9179 342.96564Q548.2773 342.35626 548.76166 342.075Q549.24603 341.77814 549.88666 341.77814Q550.93353 341.77814 551.55853 342.59064Q552.18353 343.40314 552.18353 344.7469Q552.18353 345.6375 551.8398 346.40314Q551.49603 347.15314 550.9179 347.575Q550.32416 347.98126 549.5898 347.98126L549.5898 346.85626Q550.3554 346.85626 550.80853 346.27814Q551.26166 345.7 551.26166 344.7469Q551.26166 343.85626 550.9023 343.3875Q550.5273 342.91876 549.9023 342.91876Q549.2773 342.91876 548.93353 343.35626Q548.5898 343.79376 548.26166 344.95ZM548.12103 335.6375L548.12103 339.34064L551.13666 339.34064L551.13666 335.04376L552.05853 335.04376L552.05853 340.46564L543.5273 340.46564L543.5273 335.09064L544.44916 335.09064L544.44916 339.34064L547.19916 339.34064L547.19916 335.6375L548.12103 335.6375Z" fill-rule="nonzero"/><path fill="#757575" d="M563.78735 342.5594L563.78735 345.3094L571.3967 345.3094L571.3967 346.41876L563.78735 346.41876L563.78735 349.16876L562.8655 349.16876L562.8655 342.5594L563.78735 342.5594ZM567.41235 334.90314Q568.66235 334.90314 569.59985 335.325Q570.5217 335.7469 571.0217 336.52814Q571.5217 337.29376 571.5217 338.325Q571.5217 339.325 571.0217 340.10626Q570.5217 340.8875 569.6155 341.325Q568.6936 341.7469 567.47485 341.7625L566.8655 341.7625Q565.6311 341.7625 564.6936 341.34064Q563.7561 340.90314 563.2561 340.1219Q562.7405 339.34064 562.7405 338.325Q562.7405 337.3094 563.2405 336.52814Q563.7405 335.7469 564.678 335.325Q565.6155 334.90314 566.8655 334.90314L567.41235 334.90314ZM566.84985 336.0125Q565.3342 336.0125 564.5217 336.6219Q563.7092 337.23126 563.7092 338.325Q563.7092 339.40314 564.5217 340.0125Q565.3342 340.6219 566.7717 340.6375L567.41235 340.6375Q568.8811 340.6375 569.72485 340.02814Q570.553 339.40314 570.553 338.325Q570.553 337.23126 569.7717 336.6375Q568.97485 336.02814 567.4905 336.0125L566.84985 336.0125Z" fill-rule="nonzero"/><path fill="#4285f4" d="M236.0 57.416668C236.0 56.864384 236.44771 56.416668 237.0 56.416668L247.0 56.416668C247.55229 56.416668 248.0 56.864384 248.0 57.416668L248.0 67.416664C248.0 67.96895 247.55229 68.416664 247.0 68.416664L237.0 68.416664C236.44771 68.416664 236.0 67.96895 236.0 67.416664Z" fill-rule="nonzero"/><path fill="#757575" d="M258.125 65.99479L262.17188 65.99479L262.17188 66.916664L256.98438 66.916664L256.98438 58.385414L258.125 58.385414L258.125 65.99479ZM265.45312 67.041664Q264.15625 67.041664 263.34375 66.197914Q262.54688 65.33854 262.54688 63.916664L262.54688 63.729164Q262.54688 62.77604 262.90625 62.041664Q263.26562 61.291664 263.90625 60.885414Q264.5625 60.46354 265.3125 60.46354Q266.54688 60.46354 267.23438 61.27604Q267.92188 62.08854 267.92188 63.604164L267.92188 64.05729L263.625 64.05729Q263.65625 64.99479 264.17188 65.572914Q264.70312 66.15104 265.51562 66.15104Q266.07812 66.15104 266.46875 65.916664Q266.875 65.68229 267.1875 65.291664L267.84375 65.80729Q267.04688 67.041664 265.45312 67.041664ZM265.3125 61.354164Q264.65625 61.354164 264.20312 61.83854Q263.76562 62.30729 263.67188 63.166664L266.84375 63.166664L266.84375 63.08854Q266.79688 62.260414 266.39062 61.80729Q266.0 61.354164 265.3125 61.354164ZM270.0 66.916664L268.92188 66.916664L268.92188 60.572914L270.0 60.572914L270.0 66.916664ZM268.82812 58.90104Q268.82812 58.635414 268.98438 58.447914Q269.15625 58.260414 269.46875 58.260414Q269.78125 58.260414 269.9375 58.447914Q270.10938 58.635414 270.10938 58.90104Q270.10938 59.15104 269.9375 59.33854Q269.78125 59.510414 269.46875 59.510414Q269.15625 59.510414 268.98438 59.33854Q268.82812 59.15104 268.82812 58.90104ZM273.29688 59.041664L273.29688 60.572914L274.46875 60.572914L274.46875 61.416664L273.29688 61.416664L273.29688 65.33854Q273.29688 65.729164 273.45312 65.916664Q273.60938 66.104164 273.98438 66.104164Q274.17188 66.104164 274.5 66.041664L274.5 66.916664Q274.07812 67.041664 273.67188 67.041664Q272.95312 67.041664 272.57812 66.604164Q272.20312 66.15104 272.20312 65.33854L272.20312 61.416664L271.04688 61.416664L271.04688 60.572914L272.20312 60.572914L272.20312 59.041664L273.29688 59.041664ZM275.53125 63.68229Q275.53125 62.760414 275.89062 62.010414Q276.26562 61.260414 276.92188 60.86979Q277.57812 60.46354 278.40625 60.46354Q279.70312 60.46354 280.5 61.354164Q281.3125 62.24479 281.3125 63.74479L281.3125 63.822914Q281.3125 64.74479 280.95312 65.479164Q280.59375 66.21354 279.9375 66.635414Q279.28125 67.041664 278.42188 67.041664Q277.14062 67.041664 276.32812 66.15104Q275.53125 65.24479 275.53125 63.760414L275.53125 63.68229ZM276.625 63.822914Q276.625 64.86979 277.10938 65.510414Q277.60938 66.15104 278.42188 66.15104Q279.25 66.15104 279.73438 65.510414Q280.21875 64.854164 280.21875 63.68229Q280.21875 62.65104 279.71875 62.010414Q279.23438 61.354164 278.40625 61.354164Q277.60938 61.354164 277.10938 61.99479Q276.625 62.61979 276.625 63.822914ZM286.51562 65.229164Q286.51562 64.791664 286.17188 64.55729Q285.84375 64.30729 285.01562 64.135414Q284.20312 63.96354 283.71875 63.71354Q283.23438 63.46354 283.0 63.135414Q282.78125 62.791664 282.78125 62.322914Q282.78125 61.541664 283.4375 61.010414Q284.09375 60.46354 285.125 60.46354Q286.20312 60.46354 286.85938 61.02604Q287.53125 61.572914 287.53125 62.43229L286.45312 62.43229Q286.45312 61.99479 286.0625 61.68229Q285.6875 61.354164 285.125 61.354164Q284.53125 61.354164 284.1875 61.61979Q283.85938 61.86979 283.85938 62.27604Q283.85938 62.666664 284.17188 62.86979Q284.48438 63.072914 285.29688 63.260414Q286.10938 63.43229 286.60938 63.68229Q287.10938 63.93229 287.34375 64.291664Q287.59375 64.65104 287.59375 65.15104Q287.59375 66.010414 286.90625 66.52604Q286.23438 67.041664 285.15625 67.041664Q284.39062 67.041664 283.79688 66.77604Q283.21875 66.49479 282.89062 66.010414Q282.5625 65.52604 282.5625 64.96354L283.64062 64.96354Q283.67188 65.510414 284.07812 65.83854Q284.48438 66.15104 285.15625 66.15104Q285.76562 66.15104 286.14062 65.90104Q286.51562 65.65104 286.51562 65.229164ZM291.5625 63.697914Q291.5625 62.229164 292.25 61.354164Q292.9375 60.46354 294.0625 60.46354Q295.17188 60.46354 295.82812 61.21354L295.82812 57.916664L296.90625 57.916664L296.90625 66.916664L295.90625 66.916664L295.85938 66.229164Q295.20312 67.041664 294.04688 67.041664Q292.95312 67.041664 292.25 66.135414Q291.5625 65.229164 291.5625 63.77604L291.5625 63.697914ZM292.64062 63.822914Q292.64062 64.90104 293.07812 65.510414Q293.53125 66.11979 294.3125 66.11979Q295.34375 66.11979 295.82812 65.18229L295.82812 62.27604Q295.34375 61.385414 294.32812 61.385414Q293.53125 61.385414 293.07812 61.99479Q292.64062 62.604164 292.64062 63.822914ZM301.45312 67.041664Q300.15625 67.041664 299.34375 66.197914Q298.54688 65.33854 298.54688 63.916664L298.54688 63.729164Q298.54688 62.77604 298.90625 62.041664Q299.26562 61.291664 299.90625 60.885414Q300.5625 60.46354 301.3125 60.46354Q302.54688 60.46354 303.23438 61.27604Q303.92188 62.08854 303.92188 63.604164L303.92188 64.05729L299.625 64.05729Q299.65625 64.99479 300.17188 65.572914Q300.70312 66.15104 301.51562 66.15104Q302.07812 66.15104 302.46875 65.916664Q302.875 65.68229 303.1875 65.291664L303.84375 65.80729Q303.04688 67.041664 301.45312 67.041664ZM301.3125 61.354164Q300.65625 61.354164 300.20312 61.83854Q299.76562 62.30729 299.67188 63.166664L302.84375 63.166664L302.84375 63.08854Q302.79688 62.260414 302.39062 61.80729Q302.0 61.354164 301.3125 61.354164ZM314.0 58.385414L314.0 64.18229Q313.98438 65.385414 313.23438 66.166664Q312.48438 66.93229 311.20312 67.02604L310.89062 67.041664Q309.5 67.041664 308.65625 66.291664Q307.82812 65.52604 307.82812 64.197914L307.82812 58.385414L308.9375 58.385414L308.9375 64.166664Q308.9375 65.08854 309.4375 65.604164Q309.95312 66.11979 310.89062 66.11979Q311.85938 66.11979 312.35938 65.604164Q312.85938 65.08854 312.85938 64.166664L312.85938 58.385414L314.0 58.385414ZM321.89062 59.30729L319.14062 59.30729L319.14062 66.916664L318.03125 66.916664L318.03125 59.30729L315.28125 59.30729L315.28125 58.385414L321.89062 58.385414L321.89062 59.30729ZM324.20312 66.916664L323.07812 66.916664L323.07812 58.385414L324.20312 58.385414L324.20312 66.916664ZM333.70312 64.68229L330.125 64.68229L329.32812 66.916664L328.17188 66.916664L331.42188 58.385414L332.40625 58.385414L335.67188 66.916664L334.51562 66.916664L333.70312 64.68229ZM330.46875 63.760414L333.375 63.760414L331.92188 59.77604L330.46875 63.760414ZM336.5625 63.697914Q336.5625 62.229164 337.25 61.354164Q337.9375 60.46354 339.0625 60.46354Q340.17188 60.46354 340.82812 61.21354L340.82812 57.916664L341.90625 57.916664L341.90625 66.916664L340.90625 66.916664L340.85938 66.229164Q340.20312 67.041664 339.04688 67.041664Q337.95312 67.041664 337.25 66.135414Q336.5625 65.229164 336.5625 63.77604L336.5625 63.697914ZM337.64062 63.822914Q337.64062 64.90104 338.07812 65.510414Q338.53125 66.11979 339.3125 66.11979Q340.34375 66.11979 340.82812 65.18229L340.82812 62.27604Q340.34375 61.385414 339.32812 61.385414Q338.53125 61.385414 338.07812 61.99479Q337.64062 62.604164 337.64062 63.822914ZM347.73438 66.291664Q347.10938 67.041664 345.875 67.041664Q344.85938 67.041664 344.32812 66.447914Q343.79688 65.854164 343.79688 64.697914L343.79688 60.572914L344.875 60.572914L344.875 64.666664Q344.875 66.11979 346.04688 66.11979Q347.29688 66.11979 347.70312 65.18229L347.70312 60.572914L348.79688 60.572914L348.79688 66.916664L347.76562 66.916664L347.73438 66.291664ZM352.0 66.916664L350.92188 66.916664L350.92188 57.916664L352.0 57.916664L352.0 66.916664ZM355.29688 59.041664L355.29688 60.572914L356.46875 60.572914L356.46875 61.416664L355.29688 61.416664L355.29688 65.33854Q355.29688 65.729164 355.45312 65.916664Q355.60938 66.104164 355.98438 66.104164Q356.17188 66.104164 356.5 66.041664L356.5 66.916664Q356.07812 67.041664 355.67188 67.041664Q354.95312 67.041664 354.57812 66.604164Q354.20312 66.15104 354.20312 65.33854L354.20312 61.416664L353.04688 61.416664L353.04688 60.572914L354.20312 60.572914L354.20312 59.041664L355.29688 59.041664ZM357.53125 63.68229Q357.53125 62.760414 357.89062 62.010414Q358.26562 61.260414 358.92188 60.86979Q359.57812 60.46354 360.40625 60.46354Q361.70312 60.46354 362.5 61.354164Q363.3125 62.24479 363.3125 63.74479L363.3125 63.822914Q363.3125 64.74479 362.95312 65.479164Q362.59375 66.21354 361.9375 66.635414Q361.28125 67.041664 360.42188 67.041664Q359.14062 67.041664 358.32812 66.15104Q357.53125 65.24479 357.53125 63.760414L357.53125 63.68229ZM358.625 63.822914Q358.625 64.86979 359.10938 65.510414Q359.60938 66.15104 360.42188 66.15104Q361.25 66.15104 361.73438 65.510414Q362.21875 64.854164 362.21875 63.68229Q362.21875 62.65104 361.71875 62.010414Q361.23438 61.354164 360.40625 61.354164Q359.60938 61.354164 359.10938 61.99479Q358.625 62.61979 358.625 63.822914Z" fill-rule="nonzero"/><path fill="#757575" d="M22.08125 36.01875L28.83125 36.01875L28.83125 37.55L20.20625 37.55L20.20625 23.33125L22.08125 23.33125L22.08125 36.01875ZM35.3 37.753124Q33.159374 37.753124 31.8 36.346874Q30.45625 34.925 30.45625 32.565624L30.45625 32.221874Q30.45625 30.659374 31.05 29.425Q31.659374 28.190624 32.7375 27.4875Q33.815624 26.784374 35.08125 26.784374Q37.14375 26.784374 38.284374 28.14375Q39.425 29.503124 39.425 32.034374L39.425 32.784374L32.26875 32.784374Q32.3 34.346874 33.175 35.315624Q34.05 36.26875 35.39375 36.26875Q36.3625 36.26875 37.01875 35.878124Q37.690624 35.4875 38.190624 34.846874L39.284374 35.70625Q37.95625 37.753124 35.3 37.753124ZM35.08125 28.26875Q33.9875 28.26875 33.2375 29.065624Q32.503124 29.8625 32.33125 31.3L37.6125 31.3L37.6125 31.159374Q37.534374 29.784374 36.8625 29.034374Q36.20625 28.26875 35.08125 28.26875ZM43.878124 37.55L42.08125 37.55L42.08125 26.9875L43.878124 26.9875L43.878124 37.55ZM41.925 24.175Q41.925 23.7375 42.190624 23.440624Q42.471874 23.128124 42.9875 23.128124Q43.51875 23.128124 43.784374 23.440624Q44.065624 23.7375 44.065624 24.175Q44.065624 24.6125 43.784374 24.909374Q43.51875 25.20625 42.9875 25.20625Q42.471874 25.20625 42.190624 24.909374Q41.925 24.6125 41.925 24.175ZM49.3625 24.425L49.3625 26.9875L51.346874 26.9875L51.346874 28.378124L49.3625 28.378124L49.3625 34.925Q49.3625 35.565624 49.628124 35.89375Q49.89375 36.20625 50.534374 36.20625Q50.846874 36.20625 51.39375 36.08125L51.39375 37.55Q50.675 37.753124 50.003124 37.753124Q48.8 37.753124 48.175 37.01875Q47.565624 36.284374 47.565624 34.925L47.565624 28.378124L45.64375 28.378124L45.64375 26.9875L47.565624 26.9875L47.565624 24.425L49.3625 24.425ZM53.440624 32.175Q53.440624 30.6125 54.05 29.378124Q54.659374 28.128124 55.7375 27.45625Q56.83125 26.784374 58.2375 26.784374Q60.39375 26.784374 61.721874 28.284374Q63.065624 29.76875 63.065624 32.253124L63.065624 32.378124Q63.065624 33.925 62.471874 35.159374Q61.878124 36.378124 60.76875 37.065624Q59.675 37.753124 58.253124 37.753124Q56.1125 37.753124 54.76875 36.253124Q53.440624 34.753124 53.440624 32.3L53.440624 32.175ZM55.253124 32.378124Q55.253124 34.14375 56.065624 35.20625Q56.89375 36.26875 58.253124 36.26875Q59.628124 36.26875 60.440624 35.190624Q61.253124 34.1125 61.253124 32.175Q61.253124 30.425 60.425 29.346874Q59.596874 28.26875 58.2375 28.26875Q56.89375 28.26875 56.065624 29.33125Q55.253124 30.39375 55.253124 32.378124ZM71.06563 34.753124Q71.06563 34.01875 70.51875 33.6125Q69.97188 33.20625 68.59688 32.909374Q67.22188 32.6125 66.40938 32.20625Q65.6125 31.8 65.22188 31.2375Q64.84688 30.659374 64.84688 29.878124Q64.84688 28.58125 65.94063 27.690624Q67.03438 26.784374 68.75313 26.784374Q70.55 26.784374 71.65938 27.721874Q72.78438 28.64375 72.78438 30.08125L70.95625 30.08125Q70.95625 29.346874 70.33125 28.815624Q69.70625 28.26875 68.75313 28.26875Q67.75313 28.26875 67.19063 28.70625Q66.64375 29.128124 66.64375 29.83125Q66.64375 30.471874 67.15938 30.815624Q67.675 31.14375 69.03438 31.45625Q70.39375 31.753124 71.22188 32.175Q72.06563 32.58125 72.47188 33.175Q72.87813 33.76875 72.87813 34.6125Q72.87813 36.034374 71.7375 36.89375Q70.6125 37.753124 68.8 37.753124Q67.53438 37.753124 66.55 37.3Q65.58125 36.846874 65.01875 36.05Q64.47188 35.2375 64.47188 34.3L66.28438 34.3Q66.33125 35.20625 67.00313 35.7375Q67.69063 36.26875 68.8 36.26875Q69.83125 36.26875 70.44063 35.8625Q71.06563 35.440624 71.06563 34.753124ZM79.47188 32.175Q79.47188 29.753124 80.62813 28.26875Q81.78438 26.784374 83.64375 26.784374Q85.50313 26.784374 86.58125 28.05L86.58125 22.55L88.39375 22.55L88.39375 37.55L86.7375 37.55L86.64375 36.409374Q85.56563 37.753124 83.62813 37.753124Q81.8 37.753124 80.62813 36.253124Q79.47188 34.7375 79.47188 32.315624L79.47188 32.175ZM81.28438 32.378124Q81.28438 34.175 82.01875 35.190624Q82.76875 36.20625 84.08125 36.20625Q85.8 36.20625 86.58125 34.675L86.58125 29.815624Q85.78438 28.315624 84.09688 28.315624Q82.76875 28.315624 82.01875 29.346874Q81.28438 30.378124 81.28438 32.378124ZM95.3 37.753124Q93.15938 37.753124 91.8 36.346874Q90.45625 34.925 90.45625 32.565624L90.45625 32.221874Q90.45625 30.659374 91.05 29.425Q91.65938 28.190624 92.7375 27.4875Q93.81563 26.784374 95.08125 26.784374Q97.14375 26.784374 98.28438 28.14375Q99.425 29.503124 99.425 32.034374L99.425 32.784374L92.26875 32.784374Q92.3 34.346874 93.175 35.315624Q94.05 36.26875 95.39375 36.26875Q96.3625 36.26875 97.01875 35.878124Q97.69063 35.4875 98.19063 34.846874L99.28438 35.70625Q97.95625 37.753124 95.3 37.753124ZM95.08125 28.26875Q93.9875 28.26875 93.2375 29.065624Q92.50313 29.8625 92.33125 31.3L97.6125 31.3L97.6125 31.159374Q97.53438 29.784374 96.8625 29.034374Q96.20625 28.26875 95.08125 28.26875ZM117.20625 23.33125L117.20625 33.003124Q117.20625 35.003124 115.94063 36.284374Q114.69063 37.565624 112.55 37.721874L112.05 37.753124Q109.70625 37.753124 108.31563 36.4875Q106.94063 35.221874 106.925 33.01875L106.925 23.33125L108.76875 23.33125L108.76875 32.95625Q108.76875 34.503124 109.6125 35.3625Q110.47188 36.20625 112.05 36.20625Q113.64375 36.20625 114.4875 35.3625Q115.33125 34.51875 115.33125 32.971874L115.33125 23.33125L117.20625 23.33125ZM130.01875 24.878124L125.45625 24.878124L125.45625 37.55L123.59688 37.55L123.59688 24.878124L119.03438 24.878124L119.03438 23.33125L130.01875 23.33125L130.01875 24.878124ZM134.20625 37.55L132.33125 37.55L132.33125 23.33125L134.20625 23.33125L134.20625 37.55ZM150.84688 32.378124Q150.84688 34.8 149.7375 36.284374Q148.64375 37.753124 146.75313 37.753124Q144.83125 37.753124 143.72188 36.51875L143.72188 41.6125L141.925 41.6125L141.925 26.9875L143.56563 26.9875L143.65938 28.159374Q144.75313 26.784374 146.72188 26.784374Q148.62813 26.784374 149.7375 28.221874Q150.84688 29.659374 150.84688 32.221874L150.84688 32.378124ZM149.03438 32.175Q149.03438 30.39375 148.26875 29.3625Q147.51875 28.315624 146.19063 28.315624Q144.55 28.315624 143.72188 29.76875L143.72188 34.83125Q144.53438 36.26875 146.20625 36.26875Q147.50313 36.26875 148.26875 35.2375Q149.03438 34.20625 149.03438 32.175ZM152.44063 32.175Q152.44063 30.6125 153.05 29.378124Q153.65938 28.128124 154.7375 27.45625Q155.83125 26.784374 157.2375 26.784374Q159.39375 26.784374 160.72188 28.284374Q162.06563 29.76875 162.06563 32.253124L162.06563 32.378124Q162.06563 33.925 161.47188 35.159374Q160.87813 36.378124 159.76875 37.065624Q158.675 37.753124 157.25313 37.753124Q155.1125 37.753124 153.76875 36.253124Q152.44063 34.753124 152.44063 32.3L152.44063 32.175ZM154.25313 32.378124Q154.25313 34.14375 155.06563 35.20625Q155.89375 36.26875 157.25313 36.26875Q158.62813 36.26875 159.44063 35.190624Q160.25313 34.1125 160.25313 32.175Q160.25313 30.425 159.425 29.346874Q158.59688 28.26875 157.2375 28.26875Q155.89375 28.26875 155.06563 29.33125Q154.25313 30.39375 154.25313 32.378124ZM169.01875 28.596874Q168.6125 28.534374 168.14375 28.534374Q166.3625 28.534374 165.72188 30.05L165.72188 37.55L163.925 37.55L163.925 26.9875L165.675 26.9875L165.70625 28.20625Q166.59688 26.784374 168.22188 26.784374Q168.75313 26.784374 169.01875 26.925L169.01875 28.596874ZM180.3 37.753124Q178.15938 37.753124 176.8 36.346874Q175.45625 34.925 175.45625 32.565624L175.45625 32.221874Q175.45625 30.659374 176.05 29.425Q176.65938 28.190624 177.7375 27.4875Q178.81563 26.784374 180.08125 26.784374Q182.14375 26.784374 183.28438 28.14375Q184.425 29.503124 184.425 32.034374L184.425 32.784374L177.26875 32.784374Q177.3 34.346874 178.175 35.315624Q179.05 36.26875 180.39375 36.26875Q181.3625 36.26875 182.01875 35.878124Q182.69063 35.4875 183.19063 34.846874L184.28438 35.70625Q182.95625 37.753124 180.3 37.753124ZM180.08125 28.26875Q178.9875 28.26875 178.2375 29.065624Q177.50313 29.8625 177.33125 31.3L182.6125 31.3L182.6125 31.159374Q182.53438 29.784374 181.8625 29.034374Q181.20625 28.26875 180.08125 28.26875ZM193.06563 34.753124Q193.06563 34.01875 192.51875 33.6125Q191.97188 33.20625 190.59688 32.909374Q189.22188 32.6125 188.40938 32.20625Q187.6125 31.8 187.22188 31.2375Q186.84688 30.659374 186.84688 29.878124Q186.84688 28.58125 187.94063 27.690624Q189.03438 26.784374 190.75313 26.784374Q192.55 26.784374 193.65938 27.721874Q194.78438 28.64375 194.78438 30.08125L192.95625 30.08125Q192.95625 29.346874 192.33125 28.815624Q191.70625 28.26875 190.75313 28.26875Q189.75313 28.26875 189.19063 28.70625Q188.64375 29.128124 188.64375 29.83125Q188.64375 30.471874 189.15938 30.815624Q189.675 31.14375 191.03438 31.45625Q192.39375 31.753124 193.22188 32.175Q194.06563 32.58125 194.47188 33.175Q194.87813 33.76875 194.87813 34.6125Q194.87813 36.034374 193.7375 36.89375Q192.6125 37.753124 190.8 37.753124Q189.53438 37.753124 188.55 37.3Q187.58125 36.846874 187.01875 36.05Q186.47188 35.2375 186.47188 34.3L188.28438 34.3Q188.33125 35.20625 189.00313 35.7375Q189.69063 36.26875 190.8 36.26875Q191.83125 36.26875 192.44063 35.8625Q193.06563 35.440624 193.06563 34.753124ZM199.3625 24.425L199.3625 26.9875L201.34688 26.9875L201.34688 28.378124L199.3625 28.378124L199.3625 34.925Q199.3625 35.565624 199.62813 35.89375Q199.89375 36.20625 200.53438 36.20625Q200.84688 36.20625 201.39375 36.08125L201.39375 37.55Q200.675 37.753124 200.00313 37.753124Q198.8 37.753124 198.175 37.01875Q197.56563 36.284374 197.56563 34.925L197.56563 28.378124L195.64375 28.378124L195.64375 26.9875L197.56563 26.9875L197.56563 24.425L199.3625 24.425ZM210.44063 37.55Q210.28438 37.2375 210.19063 36.440624Q208.925 37.753124 207.175 37.753124Q205.6125 37.753124 204.6125 36.8625Q203.6125 35.971874 203.6125 34.6125Q203.6125 32.971874 204.8625 32.065624Q206.12813 31.14375 208.39375 31.14375L210.15938 31.14375L210.15938 30.315624Q210.15938 29.3625 209.58125 28.8Q209.01875 28.2375 207.925 28.2375Q206.95625 28.2375 206.3 28.7375Q205.64375 29.221874 205.64375 29.909374L203.83125 29.909374Q203.83125 29.128124 204.39375 28.39375Q204.95625 27.64375 205.90938 27.221874Q206.87813 26.784374 208.03438 26.784374Q209.8625 26.784374 210.89375 27.70625Q211.925 28.6125 211.97188 30.221874L211.97188 35.08125Q211.97188 36.534374 212.33125 37.39375L212.33125 37.55L210.44063 37.55ZM207.44063 36.175Q208.3 36.175 209.05 35.7375Q209.81563 35.3 210.15938 34.596874L210.15938 32.425L208.7375 32.425Q205.425 32.425 205.425 34.3625Q205.425 35.221874 205.9875 35.70625Q206.55 36.175 207.44063 36.175ZM214.47188 32.175Q214.47188 29.753124 215.62813 28.26875Q216.78438 26.784374 218.64375 26.784374Q220.50313 26.784374 221.58125 28.05L221.58125 22.55L223.39375 22.55L223.39375 37.55L221.7375 37.55L221.64375 36.409374Q220.56563 37.753124 218.62813 37.753124Q216.8 37.753124 215.62813 36.253124Q214.47188 34.7375 214.47188 32.315624L214.47188 32.175ZM216.28438 32.378124Q216.28438 34.175 217.01875 35.190624Q217.76875 36.20625 219.08125 36.20625Q220.8 36.20625 221.58125 34.675L221.58125 29.815624Q220.78438 28.315624 219.09688 28.315624Q217.76875 28.315624 217.01875 29.346874Q216.28438 30.378124 216.28438 32.378124ZM225.44063 32.175Q225.44063 30.6125 226.05 29.378124Q226.65938 28.128124 227.7375 27.45625Q228.83125 26.784374 230.2375 26.784374Q232.39375 26.784374 233.72188 28.284374Q235.06563 29.76875 235.06563 32.253124L235.06563 32.378124Q235.06563 33.925 234.47188 35.159374Q233.87813 36.378124 232.76875 37.065624Q231.675 37.753124 230.25313 37.753124Q228.1125 37.753124 226.76875 36.253124Q225.44063 34.753124 225.44063 32.3L225.44063 32.175ZM227.25313 32.378124Q227.25313 34.14375 228.06563 35.20625Q228.89375 36.26875 230.25313 36.26875Q231.62813 36.26875 232.44063 35.190624Q233.25313 34.1125 233.25313 32.175Q233.25313 30.425 232.425 29.346874Q231.59688 28.26875 230.2375 28.26875Q228.89375 28.26875 228.06563 29.33125Q227.25313 30.39375 227.25313 32.378124Z" fill-rule="nonzero"/></svg>