<svg version="1.1" viewBox="0.0 0.0 600.0 371.0" fill="none" stroke="none" stroke-linecap="square" stroke-miterlimit="10" width="600" height="371" xmlns:xlink="http://www.w3.org/1999/xlink" xmlns="http://www.w3.org/2000/svg"><path fill="#ffffff" d="M0 0L600.0 0L600.0 371.0L0 371.0L0 0Z" fill-rule="nonzero"/><path stroke="#333333" stroke-width="1.0" stroke-linecap="butt" d="M50.5 323.5L581.5 323.5" fill-rule="nonzero"/><path fill="#eeeeee" d="M45.5 328.5L50.5 324.5L581.5 324.5L576.5 328.5Z" fill-rule="nonzero"/><path stroke="#cccccc" stroke-width="1.0" stroke-linecap="butt" d="M50.5 276.5L581.5 276.5" fill-rule="nonzero"/><path stroke="#cccccc" stroke-width="1.0" stroke-linecap="butt" d="M50.5 229.5L581.5 229.5" fill-rule="nonzero"/><path stroke="#cccccc" stroke-width="1.0" stroke-linecap="butt" d="M50.5 183.5L581.5 183.5" fill-rule="nonzero"/><path stroke="#cccccc" stroke-width="1.0" stroke-linecap="butt" d="M50.5 136.5L581.5 136.5" fill-rule="nonzero"/><path stroke="#cccccc" stroke-width="1.0" stroke-linecap="butt" d="M50.5 89.5L581.5 89.5" fill-rule="nonzero"/><clipPath id="id_0"><path d="M45.55 89.78333L581.45 89.78333L581.45 328.45L45.55 328.45L45.55 89.78333Z" clip-rule="nonzero"/></clipPath><path fill="#2b569f" clip-path="url(#id_0)" d="M67.0 311.0L67.0 323.0L64.0 326.0L64.0 314.0Z" fill-rule="nonzero"/><path fill="#689df6" clip-path="url(#id_0)" d="M64.0 314.0L51.0 314.0L54.0 311.0L67.0 311.0Z" fill-rule="nonzero"/><path stroke="#000000" stroke-width="0.0" stroke-linecap="butt" stroke-opacity="0.0" clip-path="url(#id_0)" d="M64.0 326.0L51.0 326.0L51.0 314.0L64.0 314.0Z" fill-rule="nonzero"/><path fill="#4285f4" clip-path="url(#id_0)" d="M64.0 326.0L51.0 326.0L51.0 314.0L64.0 314.0Z" fill-rule="nonzero"/><path fill="#2b569f" clip-path="url(#id_0)" d="M87.0 303.0L87.0 323.0L84.0 326.0L84.0 306.0Z" fill-rule="nonzero"/><path fill="#689df6" clip-path="url(#id_0)" d="M84.0 306.0L71.0 306.0L74.0 303.0L87.0 303.0Z" fill-rule="nonzero"/><path stroke="#000000" stroke-width="0.0" stroke-linecap="butt" stroke-opacity="0.0" clip-path="url(#id_0)" d="M84.0 326.0L71.0 326.0L71.0 306.0L84.0 306.0Z" fill-rule="nonzero"/><path fill="#4285f4" clip-path="url(#id_0)" d="M84.0 326.0L71.0 326.0L71.0 306.0L84.0 306.0Z" fill-rule="nonzero"/><path fill="#2b569f" clip-path="url(#id_0)" d="M106.0 315.0L106.0 323.0L103.0 326.0L103.0 318.0Z" fill-rule="nonzero"/><path fill="#689df6" clip-path="url(#id_0)" d="M103.0 318.0L90.0 318.0L93.0 315.0L106.0 315.0Z" fill-rule="nonzero"/><path stroke="#000000" stroke-width="0.0" stroke-linecap="butt" stroke-opacity="0.0" clip-path="url(#id_0)" d="M103.0 326.0L90.0 326.0L90.0 318.0L103.0 318.0Z" fill-rule="nonzero"/><path fill="#4285f4" clip-path="url(#id_0)" d="M103.0 326.0L90.0 326.0L90.0 318.0L103.0 318.0Z" fill-rule="nonzero"/><path fill="#2b569f" clip-path="url(#id_0)" d="M126.0 308.0L126.0 323.0L123.0 326.0L123.0 311.0Z" fill-rule="nonzero"/><path fill="#689df6" clip-path="url(#id_0)" d="M123.0 311.0L110.0 311.0L113.0 308.0L126.0 308.0Z" fill-rule="nonzero"/><path stroke="#000000" stroke-width="0.0" stroke-linecap="butt" stroke-opacity="0.0" clip-path="url(#id_0)" d="M123.0 326.0L110.0 326.0L110.0 311.0L123.0 311.0Z" fill-rule="nonzero"/><path fill="#4285f4" clip-path="url(#id_0)" d="M123.0 326.0L110.0 326.0L110.0 311.0L123.0 311.0Z" fill-rule="nonzero"/><path fill="#2b569f" clip-path="url(#id_0)" d="M146.0 127.0L146.0 323.0L143.0 326.0L143.0 130.0Z" fill-rule="nonzero"/><path fill="#689df6" clip-path="url(#id_0)" d="M143.0 130.0L130.0 130.0L133.0 127.0L146.0 127.0Z" fill-rule="nonzero"/><path stroke="#000000" stroke-width="0.0" stroke-linecap="butt" stroke-opacity="0.0" clip-path="url(#id_0)" d="M143.0 326.0L130.0 326.0L130.0 130.0L143.0 130.0Z" fill-rule="nonzero"/><path fill="#4285f4" clip-path="url(#id_0)" d="M143.0 326.0L130.0 326.0L130.0 130.0L143.0 130.0Z" fill-rule="nonzero"/><path fill="#2b569f" clip-path="url(#id_0)" d="M165.0 306.0L165.0 323.0L162.0 326.0L162.0 309.0Z" fill-rule="nonzero"/><path fill="#689df6" clip-path="url(#id_0)" d="M162.0 309.0L149.0 309.0L152.0 306.0L165.0 306.0Z" fill-rule="nonzero"/><path stroke="#000000" stroke-width="0.0" stroke-linecap="butt" stroke-opacity="0.0" clip-path="url(#id_0)" d="M162.0 326.0L149.0 326.0L149.0 309.0L162.0 309.0Z" fill-rule="nonzero"/><path fill="#4285f4" clip-path="url(#id_0)" d="M162.0 326.0L149.0 326.0L149.0 309.0L162.0 309.0Z" fill-rule="nonzero"/><path fill="#2b569f" clip-path="url(#id_0)" d="M185.0 261.0L185.0 323.0L182.0 326.0L182.0 264.0Z" fill-rule="nonzero"/><path fill="#689df6" clip-path="url(#id_0)" d="M182.0 264.0L169.0 264.0L172.0 261.0L185.0 261.0Z" fill-rule="nonzero"/><path stroke="#000000" stroke-width="0.0" stroke-linecap="butt" stroke-opacity="0.0" clip-path="url(#id_0)" d="M182.0 326.0L169.0 326.0L169.0 264.0L182.0 264.0Z" fill-rule="nonzero"/><path fill="#4285f4" clip-path="url(#id_0)" d="M182.0 326.0L169.0 326.0L169.0 264.0L182.0 264.0Z" fill-rule="nonzero"/><path fill="#2b569f" clip-path="url(#id_0)" d="M204.0 282.0L204.0 323.0L201.0 326.0L201.0 285.0Z" fill-rule="nonzero"/><path fill="#689df6" clip-path="url(#id_0)" d="M201.0 285.0L188.0 285.0L191.0 282.0L204.0 282.0Z" fill-rule="nonzero"/><path stroke="#000000" stroke-width="0.0" stroke-linecap="butt" stroke-opacity="0.0" clip-path="url(#id_0)" d="M201.0 326.0L188.0 326.0L188.0 285.0L201.0 285.0Z" fill-rule="nonzero"/><path fill="#4285f4" clip-path="url(#id_0)" d="M201.0 326.0L188.0 326.0L188.0 285.0L201.0 285.0Z" fill-rule="nonzero"/><path fill="#2b569f" clip-path="url(#id_0)" d="M224.0 290.0L224.0 323.0L221.0 326.0L221.0 293.0Z" fill-rule="nonzero"/><path fill="#689df6" clip-path="url(#id_0)" d="M221.0 293.0L208.0 293.0L211.0 290.0L224.0 290.0Z" fill-rule="nonzero"/><path stroke="#000000" stroke-width="0.0" stroke-linecap="butt" stroke-opacity="0.0" clip-path="url(#id_0)" d="M221.0 326.0L208.0 326.0L208.0 293.0L221.0 293.0Z" fill-rule="nonzero"/><path fill="#4285f4" clip-path="url(#id_0)" d="M221.0 326.0L208.0 326.0L208.0 293.0L221.0 293.0Z" fill-rule="nonzero"/><path fill="#2b569f" clip-path="url(#id_0)" d="M244.0 307.0L244.0 323.0L241.0 326.0L241.0 310.0Z" fill-rule="nonzero"/><path fill="#689df6" clip-path="url(#id_0)" d="M241.0 310.0L228.0 310.0L231.0 307.0L244.0 307.0Z" fill-rule="nonzero"/><path stroke="#000000" stroke-width="0.0" stroke-linecap="butt" stroke-opacity="0.0" clip-path="url(#id_0)" d="M241.0 326.0L228.0 326.0L228.0 310.0L241.0 310.0Z" fill-rule="nonzero"/><path fill="#4285f4" clip-path="url(#id_0)" d="M241.0 326.0L228.0 326.0L228.0 310.0L241.0 310.0Z" fill-rule="nonzero"/><path fill="#2b569f" clip-path="url(#id_0)" d="M263.0 289.0L263.0 323.0L260.0 326.0L260.0 292.0Z" fill-rule="nonzero"/><path fill="#689df6" clip-path="url(#id_0)" d="M260.0 292.0L247.0 292.0L250.0 289.0L263.0 289.0Z" fill-rule="nonzero"/><path stroke="#000000" stroke-width="0.0" stroke-linecap="butt" stroke-opacity="0.0" clip-path="url(#id_0)" d="M260.0 326.0L247.0 326.0L247.0 292.0L260.0 292.0Z" fill-rule="nonzero"/><path fill="#4285f4" clip-path="url(#id_0)" d="M260.0 326.0L247.0 326.0L247.0 292.0L260.0 292.0Z" fill-rule="nonzero"/><path fill="#2b569f" clip-path="url(#id_0)" d="M283.0 296.0L283.0 323.0L280.0 326.0L280.0 299.0Z" fill-rule="nonzero"/><path fill="#689df6" clip-path="url(#id_0)" d="M280.0 299.0L267.0 299.0L270.0 296.0L283.0 296.0Z" fill-rule="nonzero"/><path stroke="#000000" stroke-width="0.0" stroke-linecap="butt" stroke-opacity="0.0" clip-path="url(#id_0)" d="M280.0 326.0L267.0 326.0L267.0 299.0L280.0 299.0Z" fill-rule="nonzero"/><path fill="#4285f4" clip-path="url(#id_0)" d="M280.0 326.0L267.0 326.0L267.0 299.0L280.0 299.0Z" fill-rule="nonzero"/><path fill="#2b569f" clip-path="url(#id_0)" d="M302.0 293.0L302.0 323.0L299.0 326.0L299.0 296.0Z" fill-rule="nonzero"/><path fill="#689df6" clip-path="url(#id_0)" d="M299.0 296.0L286.0 296.0L289.0 293.0L302.0 293.0Z" fill-rule="nonzero"/><path stroke="#000000" stroke-width="0.0" stroke-linecap="butt" stroke-opacity="0.0" clip-path="url(#id_0)" d="M299.0 326.0L286.0 326.0L286.0 296.0L299.0 296.0Z" fill-rule="nonzero"/><path fill="#4285f4" clip-path="url(#id_0)" d="M299.0 326.0L286.0 326.0L286.0 296.0L299.0 296.0Z" fill-rule="nonzero"/><path fill="#2b569f" clip-path="url(#id_0)" d="M322.0 306.0L322.0 323.0L319.0 326.0L319.0 309.0Z" fill-rule="nonzero"/><path fill="#689df6" clip-path="url(#id_0)" d="M319.0 309.0L306.0 309.0L309.0 306.0L322.0 306.0Z" fill-rule="nonzero"/><path stroke="#000000" stroke-width="0.0" stroke-linecap="butt" stroke-opacity="0.0" clip-path="url(#id_0)" d="M319.0 326.0L306.0 326.0L306.0 309.0L319.0 309.0Z" fill-rule="nonzero"/><path fill="#4285f4" clip-path="url(#id_0)" d="M319.0 326.0L306.0 326.0L306.0 309.0L319.0 309.0Z" fill-rule="nonzero"/><path fill="#2b569f" clip-path="url(#id_0)" d="M342.0 301.0L342.0 323.0L339.0 326.0L339.0 304.0Z" fill-rule="nonzero"/><path fill="#689df6" clip-path="url(#id_0)" d="M339.0 304.0L326.0 304.0L329.0 301.0L342.0 301.0Z" fill-rule="nonzero"/><path stroke="#000000" stroke-width="0.0" stroke-linecap="butt" stroke-opacity="0.0" clip-path="url(#id_0)" d="M339.0 326.0L326.0 326.0L326.0 304.0L339.0 304.0Z" fill-rule="nonzero"/><path fill="#4285f4" clip-path="url(#id_0)" d="M339.0 326.0L326.0 326.0L326.0 304.0L339.0 304.0Z" fill-rule="nonzero"/><path fill="#2b569f" clip-path="url(#id_0)" d="M361.0 285.0L361.0 323.0L358.0 326.0L358.0 288.0Z" fill-rule="nonzero"/><path fill="#689df6" clip-path="url(#id_0)" d="M358.0 288.0L345.0 288.0L348.0 285.0L361.0 285.0Z" fill-rule="nonzero"/><path stroke="#000000" stroke-width="0.0" stroke-linecap="butt" stroke-opacity="0.0" clip-path="url(#id_0)" d="M358.0 326.0L345.0 326.0L345.0 288.0L358.0 288.0Z" fill-rule="nonzero"/><path fill="#4285f4" clip-path="url(#id_0)" d="M358.0 326.0L345.0 326.0L345.0 288.0L358.0 288.0Z" fill-rule="nonzero"/><path fill="#2b569f" clip-path="url(#id_0)" d="M381.0 290.0L381.0 323.0L378.0 326.0L378.0 293.0Z" fill-rule="nonzero"/><path fill="#689df6" clip-path="url(#id_0)" d="M378.0 293.0L365.0 293.0L368.0 290.0L381.0 290.0Z" fill-rule="nonzero"/><path stroke="#000000" stroke-width="0.0" stroke-linecap="butt" stroke-opacity="0.0" clip-path="url(#id_0)" d="M378.0 326.0L365.0 326.0L365.0 293.0L378.0 293.0Z" fill-rule="nonzero"/><path fill="#4285f4" clip-path="url(#id_0)" d="M378.0 326.0L365.0 326.0L365.0 293.0L378.0 293.0Z" fill-rule="nonzero"/><path fill="#2b569f" clip-path="url(#id_0)" d="M400.0 307.0L400.0 323.0L397.0 326.0L397.0 310.0Z" fill-rule="nonzero"/><path fill="#689df6" clip-path="url(#id_0)" d="M397.0 310.0L384.0 310.0L387.0 307.0L400.0 307.0Z" fill-rule="nonzero"/><path stroke="#000000" stroke-width="0.0" stroke-linecap="butt" stroke-opacity="0.0" clip-path="url(#id_0)" d="M397.0 326.0L384.0 326.0L384.0 310.0L397.0 310.0Z" fill-rule="nonzero"/><path fill="#4285f4" clip-path="url(#id_0)" d="M397.0 326.0L384.0 326.0L384.0 310.0L397.0 310.0Z" fill-rule="nonzero"/><path fill="#2b569f" clip-path="url(#id_0)" d="M420.0 266.0L420.0 323.0L417.0 326.0L417.0 269.0Z" fill-rule="nonzero"/><path fill="#689df6" clip-path="url(#id_0)" d="M417.0 269.0L404.0 269.0L407.0 266.0L420.0 266.0Z" fill-rule="nonzero"/><path stroke="#000000" stroke-width="0.0" stroke-linecap="butt" stroke-opacity="0.0" clip-path="url(#id_0)" d="M417.0 326.0L404.0 326.0L404.0 269.0L417.0 269.0Z" fill-rule="nonzero"/><path fill="#4285f4" clip-path="url(#id_0)" d="M417.0 326.0L404.0 326.0L404.0 269.0L417.0 269.0Z" fill-rule="nonzero"/><path fill="#2b569f" clip-path="url(#id_0)" d="M440.0 296.0L440.0 323.0L437.0 326.0L437.0 299.0Z" fill-rule="nonzero"/><path fill="#689df6" clip-path="url(#id_0)" d="M437.0 299.0L424.0 299.0L427.0 296.0L440.0 296.0Z" fill-rule="nonzero"/><path stroke="#000000" stroke-width="0.0" stroke-linecap="butt" stroke-opacity="0.0" clip-path="url(#id_0)" d="M437.0 326.0L424.0 326.0L424.0 299.0L437.0 299.0Z" fill-rule="nonzero"/><path fill="#4285f4" clip-path="url(#id_0)" d="M437.0 326.0L424.0 326.0L424.0 299.0L437.0 299.0Z" fill-rule="nonzero"/><path fill="#2b569f" clip-path="url(#id_0)" d="M459.0 291.0L459.0 323.0L456.0 326.0L456.0 294.0Z" fill-rule="nonzero"/><path fill="#689df6" clip-path="url(#id_0)" d="M456.0 294.0L443.0 294.0L446.0 291.0L459.0 291.0Z" fill-rule="nonzero"/><path stroke="#000000" stroke-width="0.0" stroke-linecap="butt" stroke-opacity="0.0" clip-path="url(#id_0)" d="M456.0 326.0L443.0 326.0L443.0 294.0L456.0 294.0Z" fill-rule="nonzero"/><path fill="#4285f4" clip-path="url(#id_0)" d="M456.0 326.0L443.0 326.0L443.0 294.0L456.0 294.0Z" fill-rule="nonzero"/><path fill="#2b569f" clip-path="url(#id_0)" d="M479.0 298.0L479.0 323.0L476.0 326.0L476.0 301.0Z" fill-rule="nonzero"/><path fill="#689df6" clip-path="url(#id_0)" d="M476.0 301.0L463.0 301.0L466.0 298.0L479.0 298.0Z" fill-rule="nonzero"/><path stroke="#000000" stroke-width="0.0" stroke-linecap="butt" stroke-opacity="0.0" clip-path="url(#id_0)" d="M476.0 326.0L463.0 326.0L463.0 301.0L476.0 301.0Z" fill-rule="nonzero"/><path fill="#4285f4" clip-path="url(#id_0)" d="M476.0 326.0L463.0 326.0L463.0 301.0L476.0 301.0Z" fill-rule="nonzero"/><path fill="#2b569f" clip-path="url(#id_0)" d="M498.0 311.0L498.0 323.0L495.0 326.0L495.0 314.0Z" fill-rule="nonzero"/><path fill="#689df6" clip-path="url(#id_0)" d="M495.0 314.0L482.0 314.0L485.0 311.0L498.0 311.0Z" fill-rule="nonzero"/><path stroke="#000000" stroke-width="0.0" stroke-linecap="butt" stroke-opacity="0.0" clip-path="url(#id_0)" d="M495.0 326.0L482.0 326.0L482.0 314.0L495.0 314.0Z" fill-rule="nonzero"/><path fill="#4285f4" clip-path="url(#id_0)" d="M495.0 326.0L482.0 326.0L482.0 314.0L495.0 314.0Z" fill-rule="nonzero"/><path fill="#2b569f" clip-path="url(#id_0)" d="M518.0 299.0L518.0 323.0L515.0 326.0L515.0 302.0Z" fill-rule="nonzero"/><path fill="#689df6" clip-path="url(#id_0)" d="M515.0 302.0L502.0 302.0L505.0 299.0L518.0 299.0Z" fill-rule="nonzero"/><path stroke="#000000" stroke-width="0.0" stroke-linecap="butt" stroke-opacity="0.0" clip-path="url(#id_0)" d="M515.0 326.0L502.0 326.0L502.0 302.0L515.0 302.0Z" fill-rule="nonzero"/><path fill="#4285f4" clip-path="url(#id_0)" d="M515.0 326.0L502.0 326.0L502.0 302.0L515.0 302.0Z" fill-rule="nonzero"/><path fill="#2b569f" clip-path="url(#id_0)" d="M538.0 285.0L538.0 323.0L535.0 326.0L535.0 288.0Z" fill-rule="nonzero"/><path fill="#689df6" clip-path="url(#id_0)" d="M535.0 288.0L522.0 288.0L525.0 285.0L538.0 285.0Z" fill-rule="nonzero"/><path stroke="#000000" stroke-width="0.0" stroke-linecap="butt" stroke-opacity="0.0" clip-path="url(#id_0)" d="M535.0 326.0L522.0 326.0L522.0 288.0L535.0 288.0Z" fill-rule="nonzero"/><path fill="#4285f4" clip-path="url(#id_0)" d="M535.0 326.0L522.0 326.0L522.0 288.0L535.0 288.0Z" fill-rule="nonzero"/><path fill="#2b569f" clip-path="url(#id_0)" d="M557.0 297.0L557.0 323.0L554.0 326.0L554.0 300.0Z" fill-rule="nonzero"/><path fill="#689df6" clip-path="url(#id_0)" d="M554.0 300.0L541.0 300.0L544.0 297.0L557.0 297.0Z" fill-rule="nonzero"/><path stroke="#000000" stroke-width="0.0" stroke-linecap="butt" stroke-opacity="0.0" clip-path="url(#id_0)" d="M554.0 326.0L541.0 326.0L541.0 300.0L554.0 300.0Z" fill-rule="nonzero"/><path fill="#4285f4" clip-path="url(#id_0)" d="M554.0 326.0L541.0 326.0L541.0 300.0L554.0 300.0Z" fill-rule="nonzero"/><path fill="#2b569f" clip-path="url(#id_0)" d="M577.0 306.0L577.0 323.0L574.0 326.0L574.0 309.0Z" fill-rule="nonzero"/><path fill="#689df6" clip-path="url(#id_0)" d="M574.0 309.0L561.0 309.0L564.0 306.0L577.0 306.0Z" fill-rule="nonzero"/><path stroke="#000000" stroke-width="0.0" stroke-linecap="butt" stroke-opacity="0.0" clip-path="url(#id_0)" d="M574.0 326.0L561.0 326.0L561.0 309.0L574.0 309.0Z" fill-rule="nonzero"/><path fill="#4285f4" clip-path="url(#id_0)" d="M574.0 326.0L561.0 326.0L561.0 309.0L574.0 309.0Z" fill-rule="nonzero"/><path fill="#757575" d="M38.6125 324.3094Q38.6125 326.21564 37.95625 327.15314Q37.315624 328.075 35.925 328.075Q34.565624 328.075 33.909374 327.16876Q33.253124 326.2625 33.221874 324.45L33.221874 323.0125Q33.221874 321.1219 33.8625 320.21564Q34.51875 319.29376 35.909374 319.29376Q37.284374 319.29376 37.940624 320.1844Q38.596874 321.0594 38.6125 322.90314L38.6125 324.3094ZM37.51875 322.825Q37.51875 321.45 37.128124 320.825Q36.753124 320.1844 35.909374 320.1844Q35.08125 320.1844 34.690624 320.825Q34.315624 321.45 34.315624 322.7469L34.315624 324.48126Q34.315624 325.85626 34.70625 326.52814Q35.1125 327.1844 35.925 327.1844Q36.721874 327.1844 37.1125 326.5594Q37.503124 325.9344 37.51875 324.60626L37.51875 322.825Z" fill-rule="nonzero"/><path fill="#757575" d="M38.846874 281.21667L33.253124 281.21667L33.253124 280.43542L36.20625 277.15417Q36.8625 276.40417 37.1125 275.95105Q37.3625 275.4823 37.3625 274.9823Q37.3625 274.31042 36.95625 273.88855Q36.565624 273.45105 35.878124 273.45105Q35.08125 273.45105 34.628124 273.9198Q34.175 274.37292 34.175 275.20105L33.096874 275.20105Q33.096874 274.01355 33.846874 273.2948Q34.6125 272.56042 35.878124 272.56042Q37.08125 272.56042 37.76875 273.18542Q38.45625 273.81042 38.45625 274.8573Q38.45625 276.1073 36.846874 277.8573L34.565624 280.32605L38.846874 280.32605L38.846874 281.21667Z" fill-rule="nonzero"/><path fill="#757575" d="M37.83125 231.62396L39.01875 231.62396L39.01875 232.49896L37.83125 232.49896L37.83125 234.48334L36.753124 234.48334L36.753124 232.49896L32.8625 232.49896L32.8625 231.85834L36.675 225.95209L37.83125 225.95209L37.83125 231.62396ZM34.096874 231.62396L36.753124 231.62396L36.753124 227.43646L36.6125 227.67084L34.096874 231.62396Z" fill-rule="nonzero"/><path fill="#757575" d="M37.51875 179.21875L37.51875 180.125L37.315624 180.125Q36.05 180.15625 35.3 180.89062Q34.55 181.60938 34.425 182.92188Q35.1125 182.15625 36.26875 182.15625Q37.378124 182.15625 38.05 182.9375Q38.721874 183.71875 38.721874 184.96875Q38.721874 186.28125 38.003124 187.07812Q37.284374 187.875 36.065624 187.875Q34.846874 187.875 34.08125 186.9375Q33.33125 185.98438 33.33125 184.5L33.33125 184.09375Q33.33125 181.73438 34.33125 180.48438Q35.33125 179.23438 37.315624 179.21875L37.51875 179.21875ZM36.096874 183.0625Q35.534374 183.0625 35.065624 183.39062Q34.596874 183.71875 34.409374 184.23438L34.409374 184.625Q34.409374 185.6875 34.878124 186.32812Q35.3625 186.96875 36.065624 186.96875Q36.8 186.96875 37.221874 186.4375Q37.64375 185.89062 37.64375 185.01562Q37.64375 184.14062 37.221874 183.60938Q36.8 183.0625 36.096874 183.0625Z" fill-rule="nonzero"/><path fill="#757575" d="M38.440624 134.70416Q38.440624 135.34479 38.096874 135.84479Q37.753124 136.34479 37.190624 136.62604Q37.846874 136.90729 38.2375 137.46979Q38.628124 138.01666 38.628124 138.71979Q38.628124 139.81354 37.878124 140.48541Q37.14375 141.14166 35.925 141.14166Q34.690624 141.14166 33.940624 140.48541Q33.20625 139.81354 33.20625 138.71979Q33.20625 138.01666 33.58125 137.46979Q33.95625 136.90729 34.628124 136.62604Q34.065624 136.34479 33.7375 135.84479Q33.409374 135.34479 33.409374 134.70416Q33.409374 133.62604 34.096874 133.00104Q34.784374 132.36041 35.925 132.36041Q37.05 132.36041 37.7375 133.00104Q38.440624 133.62604 38.440624 134.70416ZM37.55 138.68854Q37.55 137.96979 37.096874 137.53229Q36.64375 137.07916 35.909374 137.07916Q35.175 137.07916 34.721874 137.53229Q34.284374 137.96979 34.284374 138.70416Q34.284374 139.42291 34.721874 139.84479Q35.159374 140.25104 35.925 140.25104Q36.675 140.25104 37.1125 139.82916Q37.55 139.40729 37.55 138.68854ZM35.925 133.25104Q35.284374 133.25104 34.878124 133.65729Q34.4875 134.04791 34.4875 134.73541Q34.4875 135.37604 34.878124 135.78229Q35.26875 136.18854 35.909374 136.18854Q36.565624 136.18854 36.95625 135.78229Q37.346874 135.37604 37.346874 134.73541Q37.346874 134.07916 36.940624 133.67291Q36.534374 133.25104 35.925 133.25104Z" fill-rule="nonzero"/><path fill="#757575" d="M29.815624 94.28333L28.7375 94.28333L28.7375 87.06458L26.55 87.86146L26.55 86.87708L29.659374 85.70521L29.815624 85.70521L29.815624 94.28333ZM38.6125 90.64271Q38.6125 92.54896 37.95625 93.48646Q37.315624 94.40833 35.925 94.40833Q34.565624 94.40833 33.909374 93.50208Q33.253124 92.59583 33.221874 90.78333L33.221874 89.34583Q33.221874 87.45521 33.8625 86.54896Q34.51875 85.62708 35.909374 85.62708Q37.284374 85.62708 37.940624 86.51771Q38.596874 87.39271 38.6125 89.23646L38.6125 90.64271ZM37.51875 89.15833Q37.51875 87.78333 37.128124 87.15833Q36.753124 86.51771 35.909374 86.51771Q35.08125 86.51771 34.690624 87.15833Q34.315624 87.78333 34.315624 89.08021L34.315624 90.81458Q34.315624 92.18958 34.70625 92.86146Q35.1125 93.51771 35.925 93.51771Q36.721874 93.51771 37.1125 92.89271Q37.503124 92.26771 37.51875 90.93958L37.51875 89.15833Z" fill-rule="nonzero"/><path fill="#757575" d="M59.54168 344.7469L59.54168 348.325L61.776054 349.1219L61.776054 350.27814L53.244804 347.02814L53.244804 346.04376L61.776054 342.77814L61.776054 343.9344L59.54168 344.7469ZM58.619804 347.98126L58.619804 345.075L54.63543 346.52814L58.619804 347.98126ZM59.07293 335.1844Q60.41668 335.34064 61.16668 336.1844Q61.901054 337.02814 61.901054 338.41876Q61.901054 339.9344 60.82293 340.84064Q59.72918 341.7469 57.901054 341.7469L57.088554 341.7469Q55.901054 341.7469 54.994804 341.325Q54.088554 340.90314 53.60418 340.1219Q53.119804 339.34064 53.119804 338.325Q53.119804 336.96564 53.88543 336.15314Q54.651054 335.325 55.97918 335.1844L55.97918 336.3094Q54.963554 336.46564 54.51043 336.95Q54.057304 337.4344 54.057304 338.325Q54.057304 339.40314 54.85418 340.0125Q55.651054 340.6219 57.119804 340.6219L57.94793 340.6219Q59.338554 340.6219 60.16668 340.04376Q60.97918 339.46564 60.97918 338.41876Q60.97918 337.48126 60.557304 336.98126Q60.119804 336.48126 59.07293 336.3094L59.07293 335.1844Z" fill-rule="nonzero"/><path fill="#757575" d="M79.135826 342.7469L79.135826 346.325L81.3702 347.1219L81.3702 348.27814L72.83895 345.02814L72.83895 344.04376L81.3702 340.77814L81.3702 341.9344L79.135826 342.7469ZM78.21395 345.98126L78.21395 343.075L74.229576 344.52814L78.21395 345.98126ZM80.448326 338.325L80.448326 334.27814L81.3702 334.27814L81.3702 339.46564L72.83895 339.46564L72.83895 338.325L80.448326 338.325Z" fill-rule="nonzero"/><path fill="#757575" d="M98.72998 344.7469L98.72998 348.325L100.964355 349.1219L100.964355 350.27814L92.433105 347.02814L92.433105 346.04376L100.964355 342.77814L100.964355 343.9344L98.72998 344.7469ZM97.808105 347.98126L97.808105 345.075L93.82373 346.52814L97.808105 347.98126ZM97.620605 340.34064L100.964355 340.34064L100.964355 341.46564L92.433105 341.46564L92.433105 338.3094Q92.433105 336.91876 93.151855 336.1219Q93.85498 335.325 95.04248 335.325Q96.276855 335.325 96.94873 336.10626Q97.620605 336.8719 97.620605 338.325L97.620605 340.34064ZM96.69873 340.34064L96.69873 338.3094Q96.69873 337.40314 96.276855 336.9344Q95.85498 336.45 95.058105 336.45Q94.29248 336.45 93.839355 336.9344Q93.370605 337.40314 93.35498 338.2469L93.35498 340.34064L96.69873 340.34064Z" fill-rule="nonzero"/><path fill="#757575" d="M118.32413 346.74686L118.32413 350.32498L120.5585 351.12186L120.5585 352.2781L112.02725 349.0281L112.02725 348.04373L120.5585 344.7781L120.5585 345.93436L118.32413 346.74686ZM117.40225 349.98123L117.40225 347.07498L113.41788 348.5281L117.40225 349.98123ZM112.02725 342.01248L118.98038 339.2156L112.02725 336.43436L112.02725 334.9656L120.5585 334.9656L120.5585 336.0906L117.23038 336.0906L113.65225 335.98123L120.5585 338.79373L120.5585 339.6531L113.66788 342.44998L117.23038 342.3406L120.5585 342.3406L120.5585 343.4656L112.02725 343.4656L112.02725 342.01248Z" fill-rule="nonzero"/><path fill="#757575" d="M140.15265 348.4656L131.6214 348.4656L131.6214 345.66873Q131.6214 344.2781 132.19952 343.5906Q132.76202 342.88748 133.88702 342.88748Q134.4964 342.88748 134.96515 343.23123Q135.41827 343.55936 135.66827 344.1531Q135.85577 343.44998 136.40265 343.05936Q136.9339 342.6531 137.6839 342.6531Q138.84015 342.6531 139.4964 343.4031Q140.15265 344.13748 140.15265 345.49686L140.15265 348.4656ZM136.16827 347.3406L139.23077 347.3406L139.23077 345.48123Q139.23077 344.68436 138.82452 344.23123Q138.41827 343.7781 137.69952 343.7781Q136.16827 343.7781 136.16827 345.4656L136.16827 347.3406ZM135.26202 347.3406L135.26202 345.63748Q135.26202 344.9031 134.90265 344.4656Q134.52765 344.01248 133.88702 344.01248Q133.1839 344.01248 132.8714 344.41873Q132.54327 344.82498 132.54327 345.66873L132.54327 347.3406L135.26202 347.3406ZM137.91827 336.74686L137.91827 340.32498L140.15265 341.12186L140.15265 342.2781L131.6214 339.0281L131.6214 338.04373L140.15265 334.7781L140.15265 335.93436L137.91827 336.74686ZM136.9964 339.98123L136.9964 337.07498L133.01202 338.5281L136.9964 339.98123Z" fill-rule="nonzero"/><path fill="#757575" d="M157.04367 342.1844Q158.38742 342.34064 159.13742 343.1844Q159.8718 344.02814 159.8718 345.41876Q159.8718 346.9344 158.79367 347.84064Q157.69992 348.7469 155.8718 348.7469L155.0593 348.7469Q153.8718 348.7469 152.96555 348.325Q152.0593 347.90314 151.57492 347.1219Q151.09055 346.34064 151.09055 345.325Q151.09055 343.96564 151.85617 343.15314Q152.6218 342.325 153.94992 342.1844L153.94992 343.3094Q152.9343 343.46564 152.48117 343.95Q152.02805 344.4344 152.02805 345.325Q152.02805 346.40314 152.82492 347.0125Q153.6218 347.6219 155.09055 347.6219L155.91867 347.6219Q157.3093 347.6219 158.13742 347.04376Q158.94992 346.46564 158.94992 345.41876Q158.94992 344.48126 158.52805 343.98126Q158.09055 343.48126 157.04367 343.3094L157.04367 342.1844ZM155.8093 335.6375L155.8093 339.34064L158.82492 339.34064L158.82492 335.04376L159.7468 335.04376L159.7468 340.46564L151.21555 340.46564L151.21555 335.09064L152.13742 335.09064L152.13742 339.34064L154.88742 339.34064L154.88742 335.6375L155.8093 335.6375Z" fill-rule="nonzero"/><path fill="#757575" d="M179.34096 348.46564L170.80971 348.46564L170.80971 346.04376Q170.80971 344.9344 171.30971 344.09064Q171.79408 343.23126 172.70033 342.7625Q173.60658 342.29376 174.79408 342.29376L175.32533 342.29376Q176.54408 342.29376 177.45033 342.7625Q178.35658 343.21564 178.84096 344.09064Q179.32533 344.95 179.34096 346.09064L179.34096 348.46564ZM171.73158 347.34064L178.41908 347.34064L178.41908 346.15314Q178.41908 344.85626 177.62221 344.1375Q176.80971 343.40314 175.30971 343.40314L174.80971 343.40314Q173.35658 343.40314 172.55971 344.09064Q171.74721 344.7625 171.73158 346.02814L171.73158 347.34064ZM175.57533 335.7469L175.57533 339.34064L179.34096 339.34064L179.34096 340.46564L170.80971 340.46564L170.80971 335.16876L171.73158 335.16876L171.73158 339.34064L174.65346 339.34064L174.65346 335.7469L175.57533 335.7469Z" fill-rule="nonzero"/><path fill="#757575" d="M194.9976 342.6375L194.9976 346.34064L198.01323 346.34064L198.01323 342.04376L198.9351 342.04376L198.9351 347.46564L190.40385 347.46564L190.40385 342.09064L191.32573 342.09064L191.32573 346.34064L194.07573 346.34064L194.07573 342.6375L194.9976 342.6375ZM195.13823 337.95Q194.71635 339.3875 194.10698 340.0594Q193.4976 340.71564 192.60698 340.71564Q191.60698 340.71564 190.95073 339.91876Q190.27885 339.10626 190.27885 337.8094Q190.27885 336.9344 190.6226 336.2469Q190.96635 335.5594 191.5601 335.1844Q192.15385 334.79376 192.8726 334.79376L192.8726 335.9344Q192.09135 335.9344 191.65385 336.4344Q191.21635 336.91876 191.21635 337.8094Q191.21635 338.6375 191.59135 339.10626Q191.95073 339.575 192.59135 339.575Q193.1226 339.575 193.48198 339.1375Q193.84135 338.6844 194.13823 337.6219Q194.4351 336.5594 194.79448 335.96564Q195.15385 335.35626 195.63823 335.075Q196.1226 334.77814 196.76323 334.77814Q197.8101 334.77814 198.4351 335.59064Q199.0601 336.40314 199.0601 337.7469Q199.0601 338.6375 198.71635 339.40314Q198.3726 340.15314 197.79448 340.575Q197.20073 340.98126 196.46635 340.98126L196.46635 339.85626Q197.23198 339.85626 197.6851 339.27814Q198.13823 338.7 198.13823 337.7469Q198.13823 336.85626 197.77885 336.3875Q197.40385 335.91876 196.77885 335.91876Q196.15385 335.91876 195.8101 336.35626Q195.46635 336.79376 195.13823 337.95Z" fill-rule="nonzero"/><path fill="#757575" d="M217.40425 343.1531Q218.02925 343.5906 218.34175 344.37186Q218.65425 345.1531 218.65425 346.18436Q218.65425 347.2156 218.16988 348.0281Q217.66988 348.8406 216.76363 349.2781Q215.85738 349.7156 214.66988 349.73123L213.9355 349.73123Q211.998 349.73123 210.9355 348.8406Q209.873 347.93436 209.873 346.30936Q209.873 344.9656 210.5605 344.1531Q211.248 343.3406 212.498 343.1531L212.498 344.2781Q210.8105 344.60623 210.8105 346.29373Q210.8105 347.43436 211.60738 348.01248Q212.38863 348.5906 213.90425 348.60623L214.59175 348.60623Q216.02925 348.60623 216.88863 347.94998Q217.73238 347.29373 217.73238 346.16873Q217.73238 345.54373 217.59175 345.07498Q217.45113 344.5906 217.10738 344.2781L215.20113 344.2781L215.20113 346.24686L214.27925 346.24686L214.27925 343.1531L217.40425 343.1531ZM214.54488 334.9031Q215.79488 334.9031 216.73238 335.32498Q217.65425 335.74686 218.15425 336.5281Q218.65425 337.29373 218.65425 338.32498Q218.65425 339.32498 218.15425 340.10623Q217.65425 340.88748 216.748 341.32498Q215.82613 341.74686 214.60738 341.76248L213.998 341.76248Q212.76363 341.76248 211.82613 341.3406Q210.88863 340.9031 210.38863 340.12186Q209.873 339.3406 209.873 338.32498Q209.873 337.30936 210.373 336.5281Q210.873 335.74686 211.8105 335.32498Q212.748 334.9031 213.998 334.9031L214.54488 334.9031ZM213.98238 336.01248Q212.46675 336.01248 211.65425 336.62186Q210.84175 337.23123 210.84175 338.32498Q210.84175 339.4031 211.65425 340.01248Q212.46675 340.62186 213.90425 340.63748L214.54488 340.63748Q216.01363 340.63748 216.85738 340.0281Q217.6855 339.4031 217.6855 338.32498Q217.6855 337.23123 216.90425 336.63748Q216.10738 336.0281 214.623 336.01248L213.98238 336.01248Z" fill-rule="nonzero"/><path fill="#757575" d="M229.59215 350.0125L236.54527 347.21564L229.59215 344.4344L229.59215 342.96564L238.1234 342.96564L238.1234 344.09064L234.79527 344.09064L231.21715 343.98126L238.1234 346.79376L238.1234 347.65314L231.23277 350.45L234.79527 350.34064L238.1234 350.34064L238.1234 351.46564L229.59215 351.46564L229.59215 350.0125ZM235.88902 336.7469L235.88902 340.325L238.1234 341.1219L238.1234 342.27814L229.59215 339.02814L229.59215 338.04376L238.1234 334.77814L238.1234 335.9344L235.88902 336.7469ZM234.96715 339.98126L234.96715 337.075L230.98277 338.52814L234.96715 339.98126Z" fill-rule="nonzero"/><path fill="#757575" d="M249.18631 349.0125L256.13943 346.21564L249.18631 343.4344L249.18631 341.96564L257.71756 341.96564L257.71756 343.09064L254.38943 343.09064L250.81131 342.98126L257.71756 345.79376L257.71756 346.65314L250.82693 349.45L254.38943 349.34064L257.71756 349.34064L257.71756 350.46564L249.18631 350.46564L249.18631 349.0125ZM250.10818 334.5594L250.10818 337.3094L257.71756 337.3094L257.71756 338.41876L250.10818 338.41876L250.10818 341.16876L249.18631 341.16876L249.18631 334.5594L250.10818 334.5594Z" fill-rule="nonzero"/><path fill="#757575" d="M268.78046 349.0125L275.73358 346.21564L268.78046 343.4344L268.78046 341.96564L277.3117 341.96564L277.3117 343.09064L273.98358 343.09064L270.40546 342.98126L277.3117 345.79376L277.3117 346.65314L270.42108 349.45L273.98358 349.34064L277.3117 349.34064L277.3117 350.46564L268.78046 350.46564L268.78046 349.0125ZM273.51483 337.95Q273.09296 339.3875 272.48358 340.0594Q271.8742 340.71564 270.98358 340.71564Q269.98358 340.71564 269.32733 339.91876Q268.65546 339.10626 268.65546 337.8094Q268.65546 336.9344 268.9992 336.2469Q269.34296 335.5594 269.9367 335.1844Q270.53046 334.79376 271.2492 334.79376L271.2492 335.9344Q270.46796 335.9344 270.03046 336.4344Q269.59296 336.91876 269.59296 337.8094Q269.59296 338.6375 269.96796 339.10626Q270.32733 339.575 270.96796 339.575Q271.4992 339.575 271.85858 339.1375Q272.21796 338.6844 272.51483 337.6219Q272.8117 336.5594 273.17108 335.96564Q273.53046 335.35626 274.01483 335.075Q274.4992 334.77814 275.13983 334.77814Q276.1867 334.77814 276.8117 335.59064Q277.4367 336.40314 277.4367 337.7469Q277.4367 338.6375 277.09296 339.40314Q276.7492 340.15314 276.17108 340.575Q275.57733 340.98126 274.84296 340.98126L274.84296 339.85626Q275.60858 339.85626 276.0617 339.27814Q276.51483 338.7 276.51483 337.7469Q276.51483 336.85626 276.15546 336.3875Q275.78046 335.91876 275.15546 335.91876Q274.53046 335.91876 274.1867 336.35626Q273.84296 336.79376 273.51483 337.95Z" fill-rule="nonzero"/><path fill="#757575" d="M288.3746 350.0125L295.32773 347.21564L288.3746 344.4344L288.3746 342.96564L296.90585 342.96564L296.90585 344.09064L293.57773 344.09064L289.9996 343.98126L296.90585 346.79376L296.90585 347.65314L290.01523 350.45L293.57773 350.34064L296.90585 350.34064L296.90585 351.46564L288.3746 351.46564L288.3746 350.0125ZM295.78085 335.15314Q296.40585 335.59064 296.71835 336.3719Q297.03085 337.15314 297.03085 338.1844Q297.03085 339.21564 296.54648 340.02814Q296.04648 340.84064 295.14023 341.27814Q294.23398 341.71564 293.04648 341.73126L292.3121 341.73126Q290.3746 341.73126 289.3121 340.84064Q288.2496 339.9344 288.2496 338.3094Q288.2496 336.96564 288.9371 336.15314Q289.6246 335.34064 290.8746 335.15314L290.8746 336.27814Q289.1871 336.60626 289.1871 338.29376Q289.1871 339.4344 289.98398 340.0125Q290.76523 340.59064 292.28085 340.60626L292.96835 340.60626Q294.40585 340.60626 295.26523 339.95Q296.10898 339.29376 296.10898 338.16876Q296.10898 337.54376 295.96835 337.075Q295.82773 336.59064 295.48398 336.27814L293.57773 336.27814L293.57773 338.2469L292.65585 338.2469L292.65585 335.15314L295.78085 335.15314Z" fill-rule="nonzero"/><path fill="#757575" d="M313.15625 348.34064L316.5 348.34064L316.5 349.46564L307.96875 349.46564L307.96875 346.3094Q307.96875 344.91876 308.6875 344.1219Q309.39062 343.325 310.57812 343.325Q311.8125 343.325 312.48438 344.10626Q313.15625 344.8719 313.15625 346.325L313.15625 348.34064ZM312.23438 348.34064L312.23438 346.3094Q312.23438 345.40314 311.8125 344.9344Q311.39062 344.45 310.59375 344.45Q309.82812 344.45 309.375 344.9344Q308.90625 345.40314 308.89062 346.2469L308.89062 348.34064L312.23438 348.34064ZM314.26562 336.7469L314.26562 340.325L316.5 341.1219L316.5 342.27814L307.96875 339.02814L307.96875 338.04376L316.5 334.77814L316.5 335.9344L314.26562 336.7469ZM313.34375 339.98126L313.34375 337.075L309.35938 338.52814L313.34375 339.98126Z" fill-rule="nonzero"/><path fill="#757575" d="M332.7504 347.34064L336.09415 347.34064L336.09415 348.46564L327.5629 348.46564L327.5629 345.3094Q327.5629 343.91876 328.28165 343.1219Q328.98477 342.325 330.17227 342.325Q331.40665 342.325 332.07852 343.10626Q332.7504 343.8719 332.7504 345.325L332.7504 347.34064ZM331.82852 347.34064L331.82852 345.3094Q331.82852 344.40314 331.40665 343.9344Q330.98477 343.45 330.1879 343.45Q329.42227 343.45 328.96915 343.9344Q328.5004 344.40314 328.48477 345.2469L328.48477 347.34064L331.82852 347.34064ZM336.09415 340.46564L327.5629 340.46564L327.5629 337.66876Q327.5629 336.27814 328.14102 335.59064Q328.70352 334.8875 329.82852 334.8875Q330.4379 334.8875 330.90665 335.23126Q331.35977 335.5594 331.60977 336.15314Q331.79727 335.45 332.34415 335.0594Q332.8754 334.65314 333.6254 334.65314Q334.78165 334.65314 335.4379 335.40314Q336.09415 336.1375 336.09415 337.4969L336.09415 340.46564ZM332.10977 339.34064L335.17227 339.34064L335.17227 337.48126Q335.17227 336.6844 334.76602 336.23126Q334.35977 335.77814 333.64102 335.77814Q332.10977 335.77814 332.10977 337.46564L332.10977 339.34064ZM331.20352 339.34064L331.20352 337.6375Q331.20352 336.90314 330.84415 336.46564Q330.46915 336.0125 329.82852 336.0125Q329.1254 336.0125 328.8129 336.41876Q328.48477 336.825 328.48477 337.66876L328.48477 339.34064L331.20352 339.34064Z" fill-rule="nonzero"/><path fill="#757575" d="M352.34454 347.3406L355.6883 347.3406L355.6883 348.4656L347.15704 348.4656L347.15704 345.30936Q347.15704 343.91873 347.8758 343.12186Q348.57892 342.32498 349.76642 342.32498Q351.0008 342.32498 351.67267 343.10623Q352.34454 343.87186 352.34454 345.32498L352.34454 347.3406ZM351.42267 347.3406L351.42267 345.30936Q351.42267 344.4031 351.0008 343.93436Q350.57892 343.44998 349.78204 343.44998Q349.01642 343.44998 348.5633 343.93436Q348.09454 344.4031 348.07892 345.24686L348.07892 347.3406L351.42267 347.3406ZM352.23517 337.32498L352.23517 339.3406L355.6883 339.3406L355.6883 340.4656L347.15704 340.4656L347.15704 337.63748Q347.15704 336.19998 347.8133 335.43436Q348.46954 334.6531 349.71954 334.6531Q350.51642 334.6531 351.11017 335.0906Q351.70392 335.51248 352.0008 336.2781L355.61017 334.2781L355.6883 334.2781L355.6883 335.48123L352.23517 337.32498ZM351.3133 339.3406L351.3133 337.60623Q351.3133 336.76248 350.89142 336.2781Q350.45392 335.7781 349.71954 335.7781Q348.9383 335.7781 348.51642 336.24686Q348.09454 336.7156 348.07892 337.60623L348.07892 339.3406L351.3133 339.3406Z" fill-rule="nonzero"/><path fill="#757575" d="M371.9387 347.3406L375.28244 347.3406L375.28244 348.4656L366.7512 348.4656L366.7512 345.30936Q366.7512 343.91873 367.46994 343.12186Q368.17307 342.32498 369.36057 342.32498Q370.59494 342.32498 371.2668 343.10623Q371.9387 343.87186 371.9387 345.32498L371.9387 347.3406ZM371.0168 347.3406L371.0168 345.30936Q371.0168 344.4031 370.59494 343.93436Q370.17307 343.44998 369.3762 343.44998Q368.61057 343.44998 368.15744 343.93436Q367.6887 344.4031 367.67307 345.24686L367.67307 347.3406L371.0168 347.3406ZM371.34494 335.63748L371.34494 339.3406L374.36057 339.3406L374.36057 335.04373L375.28244 335.04373L375.28244 340.4656L366.7512 340.4656L366.7512 335.0906L367.67307 335.0906L367.67307 339.3406L370.42307 339.3406L370.42307 335.63748L371.34494 335.63748Z" fill-rule="nonzero"/><path fill="#757575" d="M391.53284 343.3406L394.8766 343.3406L394.8766 344.4656L386.34534 344.4656L386.34534 341.30936Q386.34534 339.91873 387.0641 339.12186Q387.7672 338.32498 388.9547 338.32498Q390.1891 338.32498 390.86096 339.10623Q391.53284 339.87186 391.53284 341.32498L391.53284 343.3406ZM390.61096 343.3406L390.61096 341.30936Q390.61096 340.4031 390.1891 339.93436Q389.7672 339.44998 388.97034 339.44998Q388.2047 339.44998 387.7516 339.93436Q387.28284 340.4031 387.2672 341.24686L387.2672 343.3406L390.61096 343.3406ZM394.8766 335.24686L394.8766 336.37186L386.34534 336.37186L386.34534 335.24686L394.8766 335.24686Z" fill-rule="nonzero"/><path fill="#757575" d="M411.01764 344.32498L411.01764 346.3406L414.47076 346.3406L414.47076 347.4656L405.9395 347.4656L405.9395 344.63748Q405.9395 343.19998 406.59576 342.43436Q407.252 341.6531 408.502 341.6531Q409.2989 341.6531 409.89264 342.0906Q410.4864 342.51248 410.78326 343.2781L414.39264 341.2781L414.47076 341.2781L414.47076 342.48123L411.01764 344.32498ZM410.09576 346.3406L410.09576 344.60623Q410.09576 343.76248 409.6739 343.2781Q409.2364 342.7781 408.502 342.7781Q407.72076 342.7781 407.2989 343.24686Q406.877 343.7156 406.8614 344.60623L406.8614 346.3406L410.09576 346.3406ZM405.9395 336.88748L405.9395 335.74686L411.9864 335.74686Q413.20514 335.74686 413.90826 336.49686Q414.59576 337.23123 414.59576 338.44998Q414.59576 339.7156 413.9395 340.43436Q413.28326 341.13748 412.1114 341.13748L412.1114 340.01248Q412.84576 340.01248 413.26764 339.62186Q413.6739 339.2156 413.6739 338.44998Q413.6739 337.74686 413.2364 337.32498Q412.78326 336.88748 412.002 336.88748L405.9395 336.88748Z" fill-rule="nonzero"/><path fill="#757575" d="M430.6118 346.325L430.6118 348.34064L434.0649 348.34064L434.0649 349.46564L425.53366 349.46564L425.53366 346.6375Q425.53366 345.2 426.1899 344.4344Q426.84616 343.65314 428.09616 343.65314Q428.89304 343.65314 429.4868 344.09064Q430.08054 344.5125 430.3774 345.27814L433.9868 343.27814L434.0649 343.27814L434.0649 344.48126L430.6118 346.325ZM429.6899 348.34064L429.6899 346.60626Q429.6899 345.7625 429.26804 345.27814Q428.83054 344.77814 428.09616 344.77814Q427.3149 344.77814 426.89304 345.2469Q426.47116 345.71564 426.45554 346.60626L426.45554 348.34064L429.6899 348.34064ZM434.0649 335.90314L434.0649 337.02814L427.4868 341.325L434.0649 341.325L434.0649 342.46564L425.53366 342.46564L425.53366 341.325L432.14304 337.02814L425.53366 337.02814L425.53366 335.90314L434.0649 335.90314Z" fill-rule="nonzero"/><path fill="#757575" d="M450.20593 344.325L450.20593 346.34064L453.65906 346.34064L453.65906 347.46564L445.1278 347.46564L445.1278 344.6375Q445.1278 343.2 445.78406 342.4344Q446.4403 341.65314 447.6903 341.65314Q448.48718 341.65314 449.08093 342.09064Q449.67468 342.5125 449.97156 343.27814L453.58093 341.27814L453.65906 341.27814L453.65906 342.48126L450.20593 344.325ZM449.28406 346.34064L449.28406 344.60626Q449.28406 343.7625 448.86218 343.27814Q448.42468 342.77814 447.6903 342.77814Q446.90906 342.77814 446.48718 343.2469Q446.0653 343.71564 446.04968 344.60626L446.04968 346.34064L449.28406 346.34064ZM449.86218 337.95Q449.4403 339.3875 448.83093 340.0594Q448.22156 340.71564 447.33093 340.71564Q446.33093 340.71564 445.67468 339.91876Q445.0028 339.10626 445.0028 337.8094Q445.0028 336.9344 445.34656 336.2469Q445.6903 335.5594 446.28406 335.1844Q446.8778 334.79376 447.59656 334.79376L447.59656 335.9344Q446.8153 335.9344 446.3778 336.4344Q445.9403 336.91876 445.9403 337.8094Q445.9403 338.6375 446.3153 339.10626Q446.67468 339.575 447.3153 339.575Q447.84656 339.575 448.20593 339.1375Q448.5653 338.6844 448.86218 337.6219Q449.15906 336.5594 449.51843 335.96564Q449.8778 335.35626 450.36218 335.075Q450.84656 334.77814 451.48718 334.77814Q452.53406 334.77814 453.15906 335.59064Q453.78406 336.40314 453.78406 337.7469Q453.78406 338.6375 453.4403 339.40314Q453.09656 340.15314 452.51843 340.575Q451.92468 340.98126 451.1903 340.98126L451.1903 339.85626Q451.95593 339.85626 452.40906 339.27814Q452.86218 338.7 452.86218 337.7469Q452.86218 336.85626 452.5028 336.3875Q452.1278 335.91876 451.5028 335.91876Q450.8778 335.91876 450.53406 336.35626Q450.1903 336.79376 449.86218 337.95Z" fill-rule="nonzero"/><path fill="#757575" d="M469.80008 345.325L469.80008 347.34064L473.2532 347.34064L473.2532 348.46564L464.72195 348.46564L464.72195 345.6375Q464.72195 344.2 465.3782 343.4344Q466.03445 342.65314 467.28445 342.65314Q468.08133 342.65314 468.67508 343.09064Q469.26883 343.5125 469.5657 344.27814L473.17508 342.27814L473.2532 342.27814L473.2532 343.48126L469.80008 345.325ZM468.8782 347.34064L468.8782 345.60626Q468.8782 344.7625 468.45633 344.27814Q468.01883 343.77814 467.28445 343.77814Q466.5032 343.77814 466.08133 344.2469Q465.65945 344.71564 465.64383 345.60626L465.64383 347.34064L468.8782 347.34064ZM469.26883 334.90314Q470.51883 334.90314 471.45633 335.325Q472.3782 335.7469 472.8782 336.52814Q473.3782 337.29376 473.3782 338.325Q473.3782 339.325 472.8782 340.10626Q472.3782 340.8875 471.47195 341.325Q470.55008 341.7469 469.33133 341.7625L468.72195 341.7625Q467.48758 341.7625 466.55008 341.34064Q465.61258 340.90314 465.11258 340.1219Q464.59695 339.34064 464.59695 338.325Q464.59695 337.3094 465.09695 336.52814Q465.59695 335.7469 466.53445 335.325Q467.47195 334.90314 468.72195 334.90314L469.26883 334.90314ZM468.70633 336.0125Q467.1907 336.0125 466.3782 336.6219Q465.5657 337.23126 465.5657 338.325Q465.5657 339.40314 466.3782 340.0125Q467.1907 340.6219 468.6282 340.6375L469.26883 340.6375Q470.73758 340.6375 471.58133 340.02814Q472.40945 339.40314 472.40945 338.325Q472.40945 337.23126 471.6282 336.6375Q470.83133 336.02814 469.34695 336.0125L468.70633 336.0125Z" fill-rule="nonzero"/><path fill="#757575" d="M489.39423 344.32498L489.39423 346.3406L492.84735 346.3406L492.84735 347.4656L484.3161 347.4656L484.3161 344.63748Q484.3161 343.19998 484.97235 342.43436Q485.6286 341.6531 486.8786 341.6531Q487.67548 341.6531 488.26923 342.0906Q488.86298 342.51248 489.15985 343.2781L492.76923 341.2781L492.84735 341.2781L492.84735 342.48123L489.39423 344.32498ZM488.47235 346.3406L488.47235 344.60623Q488.47235 343.76248 488.05048 343.2781Q487.61298 342.7781 486.8786 342.7781Q486.09735 342.7781 485.67548 343.24686Q485.2536 343.7156 485.23798 344.60623L485.23798 346.3406L488.47235 346.3406ZM489.39423 337.32498L489.39423 339.3406L492.84735 339.3406L492.84735 340.4656L484.3161 340.4656L484.3161 337.63748Q484.3161 336.19998 484.97235 335.43436Q485.6286 334.6531 486.8786 334.6531Q487.67548 334.6531 488.26923 335.0906Q488.86298 335.51248 489.15985 336.2781L492.76923 334.2781L492.84735 334.2781L492.84735 335.48123L489.39423 337.32498ZM488.47235 339.3406L488.47235 337.60623Q488.47235 336.76248 488.05048 336.2781Q487.61298 335.7781 486.8786 335.7781Q486.09735 335.7781 485.67548 336.24686Q485.2536 336.7156 485.23798 337.60623L485.23798 339.3406L488.47235 339.3406Z" fill-rule="nonzero"/><path fill="#757575" d="M508.64462 345.95Q508.22275 347.3875 507.61337 348.0594Q507.004 348.71564 506.11337 348.71564Q505.11337 348.71564 504.45712 347.91876Q503.78525 347.10626 503.78525 345.8094Q503.78525 344.9344 504.129 344.2469Q504.47275 343.5594 505.0665 343.1844Q505.66025 342.79376 506.379 342.79376L506.379 343.9344Q505.59775 343.9344 505.16025 344.4344Q504.72275 344.91876 504.72275 345.8094Q504.72275 346.6375 505.09775 347.10626Q505.45712 347.575 506.09775 347.575Q506.629 347.575 506.98837 347.1375Q507.34775 346.6844 507.64462 345.6219Q507.9415 344.5594 508.30087 343.96564Q508.66025 343.35626 509.14462 343.075Q509.629 342.77814 510.26962 342.77814Q511.3165 342.77814 511.9415 343.59064Q512.5665 344.40314 512.5665 345.7469Q512.5665 346.6375 512.2228 347.40314Q511.879 348.15314 511.30087 348.575Q510.70712 348.98126 509.97275 348.98126L509.97275 347.85626Q510.73837 347.85626 511.1915 347.27814Q511.64462 346.7 511.64462 345.7469Q511.64462 344.85626 511.28525 344.3875Q510.91025 343.91876 510.28525 343.91876Q509.66025 343.91876 509.3165 344.35626Q508.97275 344.79376 508.64462 345.95ZM509.73837 335.1844Q511.08212 335.34064 511.83212 336.1844Q512.5665 337.02814 512.5665 338.41876Q512.5665 339.9344 511.48837 340.84064Q510.39462 341.7469 508.5665 341.7469L507.754 341.7469Q506.5665 341.7469 505.66025 341.325Q504.754 340.90314 504.26962 340.1219Q503.78525 339.34064 503.78525 338.325Q503.78525 336.96564 504.55087 336.15314Q505.3165 335.325 506.64462 335.1844L506.64462 336.3094Q505.629 336.46564 505.17587 336.95Q504.72275 337.4344 504.72275 338.325Q504.72275 339.40314 505.51962 340.0125Q506.3165 340.6219 507.78525 340.6219L508.61337 340.6219Q510.004 340.6219 510.83212 340.04376Q511.64462 339.46564 511.64462 338.41876Q511.64462 337.48126 511.22275 336.98126Q510.78525 336.48126 509.73837 336.3094L509.73837 335.1844Z" fill-rule="nonzero"/><path fill="#757575" d="M528.2388 345.94998Q527.8169 347.38748 527.2075 348.05936Q526.59814 348.7156 525.7075 348.7156Q524.7075 348.7156 524.0513 347.91873Q523.3794 347.10623 523.3794 345.80936Q523.3794 344.93436 523.72314 344.24686Q524.0669 343.55936 524.66064 343.18436Q525.2544 342.79373 525.97314 342.79373L525.97314 343.93436Q525.1919 343.93436 524.7544 344.43436Q524.3169 344.91873 524.3169 345.80936Q524.3169 346.63748 524.6919 347.10623Q525.0513 347.57498 525.6919 347.57498Q526.22314 347.57498 526.5825 347.13748Q526.9419 346.68436 527.2388 345.62186Q527.53564 344.55936 527.895 343.9656Q528.2544 343.35623 528.7388 343.07498Q529.22314 342.7781 529.8638 342.7781Q530.91064 342.7781 531.53564 343.5906Q532.16064 344.4031 532.16064 345.74686Q532.16064 346.63748 531.8169 347.4031Q531.47314 348.1531 530.895 348.57498Q530.3013 348.98123 529.5669 348.98123L529.5669 347.85623Q530.3325 347.85623 530.78564 347.2781Q531.2388 346.69998 531.2388 345.74686Q531.2388 344.85623 530.8794 344.38748Q530.5044 343.91873 529.8794 343.91873Q529.2544 343.91873 528.91064 344.35623Q528.5669 344.79373 528.2388 345.94998ZM528.6919 340.3406L532.03564 340.3406L532.03564 341.4656L523.5044 341.4656L523.5044 338.30936Q523.5044 336.91873 524.22314 336.12186Q524.9263 335.32498 526.1138 335.32498Q527.34814 335.32498 528.02 336.10623Q528.6919 336.87186 528.6919 338.32498L528.6919 340.3406ZM527.77 340.3406L527.77 338.30936Q527.77 337.4031 527.34814 336.93436Q526.9263 336.44998 526.1294 336.44998Q525.3638 336.44998 524.91064 336.93436Q524.4419 337.4031 524.4263 338.24686L524.4263 340.3406L527.77 340.3406Z" fill-rule="nonzero"/><path fill="#757575" d="M547.83295 344.95Q547.4111 346.3875 546.8017 347.0594Q546.1923 347.71564 545.3017 347.71564Q544.3017 347.71564 543.64545 346.91876Q542.9736 346.10626 542.9736 344.8094Q542.9736 343.9344 543.3173 343.2469Q543.6611 342.5594 544.2548 342.1844Q544.8486 341.79376 545.5673 341.79376L545.5673 342.9344Q544.7861 342.9344 544.3486 343.4344Q543.9111 343.91876 543.9111 344.8094Q543.9111 345.6375 544.2861 346.10626Q544.64545 346.575 545.2861 346.575Q545.8173 346.575 546.1767 346.1375Q546.5361 345.6844 546.83295 344.6219Q547.1298 343.5594 547.4892 342.96564Q547.8486 342.35626 548.33295 342.075Q548.8173 341.77814 549.45795 341.77814Q550.5048 341.77814 551.1298 342.59064Q551.7548 343.40314 551.7548 344.7469Q551.7548 345.6375 551.4111 346.40314Q551.0673 347.15314 550.4892 347.575Q549.89545 347.98126 549.1611 347.98126L549.1611 346.85626Q549.9267 346.85626 550.3798 346.27814Q550.83295 345.7 550.83295 344.7469Q550.83295 343.85626 550.4736 343.3875Q550.0986 342.91876 549.4736 342.91876Q548.8486 342.91876 548.5048 343.35626Q548.1611 343.79376 547.83295 344.95ZM547.6923 335.6375L547.6923 339.34064L550.70795 339.34064L550.70795 335.04376L551.6298 335.04376L551.6298 340.46564L543.0986 340.46564L543.0986 335.09064L544.02045 335.09064L544.02045 339.34064L546.77045 339.34064L546.77045 335.6375L547.6923 335.6375Z" fill-rule="nonzero"/><path fill="#757575" d="M563.61456 342.55936L563.61456 345.30936L571.22394 345.30936L571.22394 346.41873L563.61456 346.41873L563.61456 349.16873L562.6927 349.16873L562.6927 342.55936L563.61456 342.55936ZM567.23956 334.9031Q568.48956 334.9031 569.42706 335.32498Q570.34894 335.74686 570.84894 336.5281Q571.34894 337.29373 571.34894 338.32498Q571.34894 339.32498 570.84894 340.10623Q570.34894 340.88748 569.4427 341.32498Q568.5208 341.74686 567.30206 341.76248L566.6927 341.76248Q565.4583 341.76248 564.5208 341.3406Q563.5833 340.9031 563.0833 340.12186Q562.5677 339.3406 562.5677 338.32498Q562.5677 337.30936 563.0677 336.5281Q563.5677 335.74686 564.5052 335.32498Q565.4427 334.9031 566.6927 334.9031L567.23956 334.9031ZM566.67706 336.01248Q565.16144 336.01248 564.34894 336.62186Q563.53644 337.23123 563.53644 338.32498Q563.53644 339.4031 564.34894 340.01248Q565.16144 340.62186 566.59894 340.63748L567.23956 340.63748Q568.7083 340.63748 569.55206 340.0281Q570.3802 339.4031 570.3802 338.32498Q570.3802 337.23123 569.59894 336.63748Q568.80206 336.0281 567.3177 336.01248L566.67706 336.01248Z" fill-rule="nonzero"/><path fill="#4285f4" d="M220.5 57.416668C220.5 56.864384 220.94771 56.416668 221.5 56.416668L231.5 56.416668C232.05229 56.416668 232.5 56.864384 232.5 57.416668L232.5 67.416664C232.5 67.96895 232.05229 68.416664 231.5 68.416664L221.5 68.416664C220.94771 68.416664 220.5 67.96895 220.5 67.416664Z" fill-rule="nonzero"/><path fill="#757575" d="M247.5 58.385414L247.5 64.18229Q247.48438 65.385414 246.73438 66.166664Q245.98438 66.93229 244.70312 67.02604L244.39062 67.041664Q243.0 67.041664 242.15625 66.291664Q241.32812 65.52604 241.32812 64.197914L241.32812 58.385414L242.4375 58.385414L242.4375 64.166664Q242.4375 65.08854 242.9375 65.604164Q243.45312 66.11979 244.39062 66.11979Q245.35938 66.11979 245.85938 65.604164Q246.35938 65.08854 246.35938 64.166664L246.35938 58.385414L247.5 58.385414ZM255.39062 59.30729L252.64062 59.30729L252.64062 66.916664L251.53125 66.916664L251.53125 59.30729L248.78125 59.30729L248.78125 58.385414L255.39062 58.385414L255.39062 59.30729ZM257.70312 66.916664L256.57812 66.916664L256.57812 58.385414L257.70312 58.385414L257.70312 66.916664ZM267.67188 63.822914Q267.67188 65.260414 267.01562 66.15104Q266.35938 67.041664 265.21875 67.041664Q264.0625 67.041664 263.40625 66.30729L263.40625 69.354164L262.32812 69.354164L262.32812 60.572914L263.3125 60.572914L263.35938 61.27604Q264.03125 60.46354 265.20312 60.46354Q266.34375 60.46354 267.0 61.322914Q267.67188 62.18229 267.67188 63.71354L267.67188 63.822914ZM266.59375 63.697914Q266.59375 62.61979 266.125 62.010414Q265.67188 61.385414 264.875 61.385414Q263.89062 61.385414 263.40625 62.24479L263.40625 65.27604Q263.89062 66.15104 264.89062 66.15104Q265.67188 66.15104 266.125 65.541664Q266.59375 64.916664 266.59375 63.697914ZM269.03125 63.68229Q269.03125 62.760414 269.39062 62.010414Q269.76562 61.260414 270.42188 60.86979Q271.07812 60.46354 271.90625 60.46354Q273.20312 60.46354 274.0 61.354164Q274.8125 62.24479 274.8125 63.74479L274.8125 63.822914Q274.8125 64.74479 274.45312 65.479164Q274.09375 66.21354 273.4375 66.635414Q272.78125 67.041664 271.92188 67.041664Q270.64062 67.041664 269.82812 66.15104Q269.03125 65.24479 269.03125 63.760414L269.03125 63.68229ZM270.125 63.822914Q270.125 64.86979 270.60938 65.510414Q271.10938 66.15104 271.92188 66.15104Q272.75 66.15104 273.23438 65.510414Q273.71875 64.854164 273.71875 63.68229Q273.71875 62.65104 273.21875 62.010414Q272.73438 61.354164 271.90625 61.354164Q271.10938 61.354164 270.60938 61.99479Q270.125 62.61979 270.125 63.822914ZM279.39062 61.541664Q279.14062 61.510414 278.85938 61.510414Q277.78125 61.510414 277.40625 62.416664L277.40625 66.916664L276.32812 66.916664L276.32812 60.572914L277.375 60.572914L277.39062 61.30729Q277.92188 60.46354 278.90625 60.46354Q279.21875 60.46354 279.39062 60.541664L279.39062 61.541664ZM286.76562 66.916664L285.6875 66.916664L285.6875 59.697914L283.5 60.49479L283.5 59.510414L286.60938 58.33854L286.76562 58.33854L286.76562 66.916664ZM295.5625 63.27604Q295.5625 65.18229 294.90625 66.11979Q294.26562 67.041664 292.875 67.041664Q291.51562 67.041664 290.85938 66.135414Q290.20312 65.229164 290.17188 63.416664L290.17188 61.979164Q290.17188 60.08854 290.8125 59.18229Q291.46875 58.260414 292.85938 58.260414Q294.23438 58.260414 294.89062 59.15104Q295.54688 60.02604 295.5625 61.86979L295.5625 63.27604ZM294.46875 61.791664Q294.46875 60.416664 294.07812 59.791664Q293.70312 59.15104 292.85938 59.15104Q292.03125 59.15104 291.64062 59.791664Q291.26562 60.416664 291.26562 61.71354L291.26562 63.447914Q291.26562 64.822914 291.65625 65.49479Q292.0625 66.15104 292.875 66.15104Q293.67188 66.15104 294.0625 65.52604Q294.45312 64.90104 294.46875 63.572914L294.46875 61.791664ZM301.34375 60.572914L301.375 61.27604Q302.0625 60.46354 303.25 60.46354Q304.57812 60.46354 305.0625 61.479164Q305.375 61.02604 305.875 60.74479Q306.39062 60.46354 307.07812 60.46354Q309.17188 60.46354 309.20312 62.666664L309.20312 66.916664L308.125 66.916664L308.125 62.729164Q308.125 62.05729 307.8125 61.729164Q307.5 61.385414 306.76562 61.385414Q306.15625 61.385414 305.75 61.74479Q305.35938 62.104164 305.29688 62.71354L305.29688 66.916664L304.21875 66.916664L304.21875 62.760414Q304.21875 61.385414 302.85938 61.385414Q301.79688 61.385414 301.40625 62.291664L301.40625 66.916664L300.3125 66.916664L300.3125 60.572914L301.34375 60.572914ZM312.5 66.916664L311.42188 66.916664L311.42188 60.572914L312.5 60.572914L312.5 66.916664ZM311.32812 58.90104Q311.32812 58.635414 311.48438 58.447914Q311.65625 58.260414 311.96875 58.260414Q312.28125 58.260414 312.4375 58.447914Q312.60938 58.635414 312.60938 58.90104Q312.60938 59.15104 312.4375 59.33854Q312.28125 59.510414 311.96875 59.510414Q311.65625 59.510414 311.48438 59.33854Q311.32812 59.15104 311.32812 58.90104ZM315.5 66.916664L314.42188 66.916664L314.42188 57.916664L315.5 57.916664L315.5 66.916664ZM327.04688 66.916664L325.92188 66.916664L325.92188 62.979164L321.60938 62.979164L321.60938 66.916664L320.48438 66.916664L320.48438 58.385414L321.60938 58.385414L321.60938 62.05729L325.92188 62.05729L325.92188 58.385414L327.04688 58.385414L327.04688 66.916664ZM333.23438 66.916664Q333.14062 66.729164 333.07812 66.24479Q332.32812 67.041664 331.28125 67.041664Q330.34375 67.041664 329.73438 66.510414Q329.14062 65.979164 329.14062 65.15104Q329.14062 64.166664 329.89062 63.61979Q330.64062 63.072914 332.01562 63.072914L333.0625 63.072914L333.0625 62.572914Q333.0625 62.010414 332.71875 61.68229Q332.39062 61.33854 331.71875 61.33854Q331.14062 61.33854 330.75 61.635414Q330.35938 61.916664 330.35938 62.33854L329.26562 62.33854Q329.26562 61.854164 329.59375 61.416664Q329.9375 60.979164 330.51562 60.729164Q331.09375 60.46354 331.78125 60.46354Q332.89062 60.46354 333.5 61.010414Q334.125 61.55729 334.15625 62.510414L334.15625 65.43229Q334.15625 66.30729 334.375 66.822914L334.375 66.916664L333.23438 66.916664ZM331.4375 66.08854Q331.95312 66.08854 332.40625 65.822914Q332.85938 65.55729 333.0625 65.135414L333.0625 63.83854L332.21875 63.83854Q330.21875 63.83854 330.21875 65.010414Q330.21875 65.510414 330.5625 65.80729Q330.90625 66.08854 331.4375 66.08854ZM341.6875 63.822914Q341.6875 65.27604 341.01562 66.166664Q340.35938 67.041664 339.23438 67.041664Q338.03125 67.041664 337.375 66.18229L337.3125 66.916664L336.32812 66.916664L336.32812 57.916664L337.40625 57.916664L337.40625 61.27604Q338.0625 60.46354 339.21875 60.46354Q340.375 60.46354 341.03125 61.33854Q341.6875 62.197914 341.6875 63.729164L341.6875 63.822914ZM340.60938 63.697914Q340.60938 62.58854 340.17188 61.99479Q339.75 61.385414 338.95312 61.385414Q337.875 61.385414 337.40625 62.36979L337.40625 65.11979Q337.90625 66.11979 338.95312 66.11979Q339.73438 66.11979 340.17188 65.510414Q340.60938 64.90104 340.60938 63.697914ZM344.5 66.916664L343.42188 66.916664L343.42188 60.572914L344.5 60.572914L344.5 66.916664ZM343.32812 58.90104Q343.32812 58.635414 343.48438 58.447914Q343.65625 58.260414 343.96875 58.260414Q344.28125 58.260414 344.4375 58.447914Q344.60938 58.635414 344.60938 58.90104Q344.60938 59.15104 344.4375 59.33854Q344.28125 59.510414 343.96875 59.510414Q343.65625 59.510414 343.48438 59.33854Q343.32812 59.15104 343.32812 58.90104ZM347.79688 59.041664L347.79688 60.572914L348.96875 60.572914L348.96875 61.416664L347.79688 61.416664L347.79688 65.33854Q347.79688 65.729164 347.95312 65.916664Q348.10938 66.104164 348.48438 66.104164Q348.67188 66.104164 349.0 66.041664L349.0 66.916664Q348.57812 67.041664 348.17188 67.041664Q347.45312 67.041664 347.07812 66.604164Q346.70312 66.15104 346.70312 65.33854L346.70312 61.416664L345.54688 61.416664L345.54688 60.572914L346.70312 60.572914L346.70312 59.041664L347.79688 59.041664ZM354.23438 66.916664Q354.14062 66.729164 354.07812 66.24479Q353.32812 67.041664 352.28125 67.041664Q351.34375 67.041664 350.73438 66.510414Q350.14062 65.979164 350.14062 65.15104Q350.14062 64.166664 350.89062 63.61979Q351.64062 63.072914 353.01562 63.072914L354.0625 63.072914L354.0625 62.572914Q354.0625 62.010414 353.71875 61.68229Q353.39062 61.33854 352.71875 61.33854Q352.14062 61.33854 351.75 61.635414Q351.35938 61.916664 351.35938 62.33854L350.26562 62.33854Q350.26562 61.854164 350.59375 61.416664Q350.9375 60.979164 351.51562 60.729164Q352.09375 60.46354 352.78125 60.46354Q353.89062 60.46354 354.5 61.010414Q355.125 61.55729 355.15625 62.510414L355.15625 65.43229Q355.15625 66.30729 355.375 66.822914L355.375 66.916664L354.23438 66.916664ZM352.4375 66.08854Q352.95312 66.08854 353.40625 65.822914Q353.85938 65.55729 354.0625 65.135414L354.0625 63.83854L353.21875 63.83854Q351.21875 63.83854 351.21875 65.010414Q351.21875 65.510414 351.5625 65.80729Q351.90625 66.08854 352.4375 66.08854ZM358.34375 60.572914L358.375 61.36979Q359.10938 60.46354 360.28125 60.46354Q362.29688 60.46354 362.3125 62.729164L362.3125 66.916664L361.21875 66.916664L361.21875 62.71354Q361.21875 62.041664 360.90625 61.71354Q360.60938 61.385414 359.95312 61.385414Q359.42188 61.385414 359.01562 61.666664Q358.625 61.947914 358.40625 62.40104L358.40625 66.916664L357.32812 66.916664L357.32812 60.572914L358.34375 60.572914ZM365.79688 59.041664L365.79688 60.572914L366.96875 60.572914L366.96875 61.416664L365.79688 61.416664L365.79688 65.33854Q365.79688 65.729164 365.95312 65.916664Q366.10938 66.104164 366.48438 66.104164Q366.67188 66.104164 367.0 66.041664L367.0 66.916664Q366.57812 67.041664 366.17188 67.041664Q365.45312 67.041664 365.07812 66.604164Q364.70312 66.15104 364.70312 65.33854L364.70312 61.416664L363.54688 61.416664L363.54688 60.572914L364.70312 60.572914L364.70312 59.041664L365.79688 59.041664ZM370.95312 67.041664Q369.65625 67.041664 368.84375 66.197914Q368.04688 65.33854 368.04688 63.916664L368.04688 63.729164Q368.04688 62.77604 368.40625 62.041664Q368.76562 61.291664 369.40625 60.885414Q370.0625 60.46354 370.8125 60.46354Q372.04688 60.46354 372.73438 61.27604Q373.42188 62.08854 373.42188 63.604164L373.42188 64.05729L369.125 64.05729Q369.15625 64.99479 369.67188 65.572914Q370.20312 66.15104 371.01562 66.15104Q371.57812 66.15104 371.96875 65.916664Q372.375 65.68229 372.6875 65.291664L373.34375 65.80729Q372.54688 67.041664 370.95312 67.041664ZM370.8125 61.354164Q370.15625 61.354164 369.70312 61.83854Q369.26562 62.30729 369.17188 63.166664L372.34375 63.166664L372.34375 63.08854Q372.29688 62.260414 371.89062 61.80729Q371.5 61.354164 370.8125 61.354164ZM378.01562 65.229164Q378.01562 64.791664 377.67188 64.55729Q377.34375 64.30729 376.51562 64.135414Q375.70312 63.96354 375.21875 63.71354Q374.73438 63.46354 374.5 63.135414Q374.28125 62.791664 374.28125 62.322914Q374.28125 61.541664 374.9375 61.010414Q375.59375 60.46354 376.625 60.46354Q377.70312 60.46354 378.35938 61.02604Q379.03125 61.572914 379.03125 62.43229L377.95312 62.43229Q377.95312 61.99479 377.5625 61.68229Q377.1875 61.354164 376.625 61.354164Q376.03125 61.354164 375.6875 61.61979Q375.35938 61.86979 375.35938 62.27604Q375.35938 62.666664 375.67188 62.86979Q375.98438 63.072914 376.79688 63.260414Q377.60938 63.43229 378.10938 63.68229Q378.60938 63.93229 378.84375 64.291664Q379.09375 64.65104 379.09375 65.15104Q379.09375 66.010414 378.40625 66.52604Q377.73438 67.041664 376.65625 67.041664Q375.89062 67.041664 375.29688 66.77604Q374.71875 66.49479 374.39062 66.010414Q374.0625 65.52604 374.0625 64.96354L375.14062 64.96354Q375.17188 65.510414 375.57812 65.83854Q375.98438 66.15104 376.65625 66.15104Q377.26562 66.15104 377.64062 65.90104Q378.01562 65.65104 378.01562 65.229164Z" fill-rule="nonzero"/><path fill="#757575" d="M22.08125 36.01875L28.83125 36.01875L28.83125 37.55L20.20625 37.55L20.20625 23.33125L22.08125 23.33125L22.08125 36.01875ZM35.3 37.753124Q33.159374 37.753124 31.8 36.346874Q30.45625 34.925 30.45625 32.565624L30.45625 32.221874Q30.45625 30.659374 31.05 29.425Q31.659374 28.190624 32.7375 27.4875Q33.815624 26.784374 35.08125 26.784374Q37.14375 26.784374 38.284374 28.14375Q39.425 29.503124 39.425 32.034374L39.425 32.784374L32.26875 32.784374Q32.3 34.346874 33.175 35.315624Q34.05 36.26875 35.39375 36.26875Q36.3625 36.26875 37.01875 35.878124Q37.690624 35.4875 38.190624 34.846874L39.284374 35.70625Q37.95625 37.753124 35.3 37.753124ZM35.08125 28.26875Q33.9875 28.26875 33.2375 29.065624Q32.503124 29.8625 32.33125 31.3L37.6125 31.3L37.6125 31.159374Q37.534374 29.784374 36.8625 29.034374Q36.20625 28.26875 35.08125 28.26875ZM43.878124 37.55L42.08125 37.55L42.08125 26.9875L43.878124 26.9875L43.878124 37.55ZM41.925 24.175Q41.925 23.7375 42.190624 23.440624Q42.471874 23.128124 42.9875 23.128124Q43.51875 23.128124 43.784374 23.440624Q44.065624 23.7375 44.065624 24.175Q44.065624 24.6125 43.784374 24.909374Q43.51875 25.20625 42.9875 25.20625Q42.471874 25.20625 42.190624 24.909374Q41.925 24.6125 41.925 24.175ZM49.3625 24.425L49.3625 26.9875L51.346874 26.9875L51.346874 28.378124L49.3625 28.378124L49.3625 34.925Q49.3625 35.565624 49.628124 35.89375Q49.89375 36.20625 50.534374 36.20625Q50.846874 36.20625 51.39375 36.08125L51.39375 37.55Q50.675 37.753124 50.003124 37.753124Q48.8 37.753124 48.175 37.01875Q47.565624 36.284374 47.565624 34.925L47.565624 28.378124L45.64375 28.378124L45.64375 26.9875L47.565624 26.9875L47.565624 24.425L49.3625 24.425ZM53.440624 32.175Q53.440624 30.6125 54.05 29.378124Q54.659374 28.128124 55.7375 27.45625Q56.83125 26.784374 58.2375 26.784374Q60.39375 26.784374 61.721874 28.284374Q63.065624 29.76875 63.065624 32.253124L63.065624 32.378124Q63.065624 33.925 62.471874 35.159374Q61.878124 36.378124 60.76875 37.065624Q59.675 37.753124 58.253124 37.753124Q56.1125 37.753124 54.76875 36.253124Q53.440624 34.753124 53.440624 32.3L53.440624 32.175ZM55.253124 32.378124Q55.253124 34.14375 56.065624 35.20625Q56.89375 36.26875 58.253124 36.26875Q59.628124 36.26875 60.440624 35.190624Q61.253124 34.1125 61.253124 32.175Q61.253124 30.425 60.425 29.346874Q59.596874 28.26875 58.2375 28.26875Q56.89375 28.26875 56.065624 29.33125Q55.253124 30.39375 55.253124 32.378124ZM71.06563 34.753124Q71.06563 34.01875 70.51875 33.6125Q69.97188 33.20625 68.59688 32.909374Q67.22188 32.6125 66.40938 32.20625Q65.6125 31.8 65.22188 31.2375Q64.84688 30.659374 64.84688 29.878124Q64.84688 28.58125 65.94063 27.690624Q67.03438 26.784374 68.75313 26.784374Q70.55 26.784374 71.65938 27.721874Q72.78438 28.64375 72.78438 30.08125L70.95625 30.08125Q70.95625 29.346874 70.33125 28.815624Q69.70625 28.26875 68.75313 28.26875Q67.75313 28.26875 67.19063 28.70625Q66.64375 29.128124 66.64375 29.83125Q66.64375 30.471874 67.15938 30.815624Q67.675 31.14375 69.03438 31.45625Q70.39375 31.753124 71.22188 32.175Q72.06563 32.58125 72.47188 33.175Q72.87813 33.76875 72.87813 34.6125Q72.87813 36.034374 71.7375 36.89375Q70.6125 37.753124 68.8 37.753124Q67.53438 37.753124 66.55 37.3Q65.58125 36.846874 65.01875 36.05Q64.47188 35.2375 64.47188 34.3L66.28438 34.3Q66.33125 35.20625 67.00313 35.7375Q67.69063 36.26875 68.8 36.26875Q69.83125 36.26875 70.44063 35.8625Q71.06563 35.440624 71.06563 34.753124ZM79.47188 32.175Q79.47188 29.753124 80.62813 28.26875Q81.78438 26.784374 83.64375 26.784374Q85.50313 26.784374 86.58125 28.05L86.58125 22.55L88.39375 22.55L88.39375 37.55L86.7375 37.55L86.64375 36.409374Q85.56563 37.753124 83.62813 37.753124Q81.8 37.753124 80.62813 36.253124Q79.47188 34.7375 79.47188 32.315624L79.47188 32.175ZM81.28438 32.378124Q81.28438 34.175 82.01875 35.190624Q82.76875 36.20625 84.08125 36.20625Q85.8 36.20625 86.58125 34.675L86.58125 29.815624Q85.78438 28.315624 84.09688 28.315624Q82.76875 28.315624 82.01875 29.346874Q81.28438 30.378124 81.28438 32.378124ZM95.3 37.753124Q93.15938 37.753124 91.8 36.346874Q90.45625 34.925 90.45625 32.565624L90.45625 32.221874Q90.45625 30.659374 91.05 29.425Q91.65938 28.190624 92.7375 27.4875Q93.81563 26.784374 95.08125 26.784374Q97.14375 26.784374 98.28438 28.14375Q99.425 29.503124 99.425 32.034374L99.425 32.784374L92.26875 32.784374Q92.3 34.346874 93.175 35.315624Q94.05 36.26875 95.39375 36.26875Q96.3625 36.26875 97.01875 35.878124Q97.69063 35.4875 98.19063 34.846874L99.28438 35.70625Q97.95625 37.753124 95.3 37.753124ZM95.08125 28.26875Q93.9875 28.26875 93.2375 29.065624Q92.50313 29.8625 92.33125 31.3L97.6125 31.3L97.6125 31.159374Q97.53438 29.784374 96.8625 29.034374Q96.20625 28.26875 95.08125 28.26875ZM117.20625 23.33125L117.20625 33.003124Q117.20625 35.003124 115.94063 36.284374Q114.69063 37.565624 112.55 37.721874L112.05 37.753124Q109.70625 37.753124 108.31563 36.4875Q106.94063 35.221874 106.925 33.01875L106.925 23.33125L108.76875 23.33125L108.76875 32.95625Q108.76875 34.503124 109.6125 35.3625Q110.47188 36.20625 112.05 36.20625Q113.64375 36.20625 114.4875 35.3625Q115.33125 34.51875 115.33125 32.971874L115.33125 23.33125L117.20625 23.33125ZM130.01875 24.878124L125.45625 24.878124L125.45625 37.55L123.59688 37.55L123.59688 24.878124L119.03438 24.878124L119.03438 23.33125L130.01875 23.33125L130.01875 24.878124ZM134.20625 37.55L132.33125 37.55L132.33125 23.33125L134.20625 23.33125L134.20625 37.55ZM150.84688 32.378124Q150.84688 34.8 149.7375 36.284374Q148.64375 37.753124 146.75313 37.753124Q144.83125 37.753124 143.72188 36.51875L143.72188 41.6125L141.925 41.6125L141.925 26.9875L143.56563 26.9875L143.65938 28.159374Q144.75313 26.784374 146.72188 26.784374Q148.62813 26.784374 149.7375 28.221874Q150.84688 29.659374 150.84688 32.221874L150.84688 32.378124ZM149.03438 32.175Q149.03438 30.39375 148.26875 29.3625Q147.51875 28.315624 146.19063 28.315624Q144.55 28.315624 143.72188 29.76875L143.72188 34.83125Q144.53438 36.26875 146.20625 36.26875Q147.50313 36.26875 148.26875 35.2375Q149.03438 34.20625 149.03438 32.175ZM159.44063 37.55Q159.28438 37.2375 159.19063 36.440624Q157.925 37.753124 156.175 37.753124Q154.6125 37.753124 153.6125 36.8625Q152.6125 35.971874 152.6125 34.6125Q152.6125 32.971874 153.8625 32.065624Q155.12813 31.14375 157.39375 31.14375L159.15938 31.14375L159.15938 30.315624Q159.15938 29.3625 158.58125 28.8Q158.01875 28.2375 156.925 28.2375Q155.95625 28.2375 155.3 28.7375Q154.64375 29.221874 154.64375 29.909374L152.83125 29.909374Q152.83125 29.128124 153.39375 28.39375Q153.95625 27.64375 154.90938 27.221874Q155.87813 26.784374 157.03438 26.784374Q158.8625 26.784374 159.89375 27.70625Q160.925 28.6125 160.97188 30.221874L160.97188 35.08125Q160.97188 36.534374 161.33125 37.39375L161.33125 37.55L159.44063 37.55ZM156.44063 36.175Q157.3 36.175 158.05 35.7375Q158.81563 35.3 159.15938 34.596874L159.15938 32.425L157.7375 32.425Q154.425 32.425 154.425 34.3625Q154.425 35.221874 154.9875 35.70625Q155.55 36.175 156.44063 36.175ZM169.01875 28.596874Q168.6125 28.534374 168.14375 28.534374Q166.3625 28.534374 165.72188 30.05L165.72188 37.55L163.925 37.55L163.925 26.9875L165.675 26.9875L165.70625 28.20625Q166.59688 26.784374 168.22188 26.784374Q168.75313 26.784374 169.01875 26.925L169.01875 28.596874ZM177.44063 37.55Q177.28438 37.2375 177.19063 36.440624Q175.925 37.753124 174.175 37.753124Q172.6125 37.753124 171.6125 36.8625Q170.6125 35.971874 170.6125 34.6125Q170.6125 32.971874 171.8625 32.065624Q173.12813 31.14375 175.39375 31.14375L177.15938 31.14375L177.15938 30.315624Q177.15938 29.3625 176.58125 28.8Q176.01875 28.2375 174.925 28.2375Q173.95625 28.2375 173.3 28.7375Q172.64375 29.221874 172.64375 29.909374L170.83125 29.909374Q170.83125 29.128124 171.39375 28.39375Q171.95625 27.64375 172.90938 27.221874Q173.87813 26.784374 175.03438 26.784374Q176.8625 26.784374 177.89375 27.70625Q178.925 28.6125 178.97188 30.221874L178.97188 35.08125Q178.97188 36.534374 179.33125 37.39375L179.33125 37.55L177.44063 37.55ZM174.44063 36.175Q175.3 36.175 176.05 35.7375Q176.81563 35.3 177.15938 34.596874L177.15938 32.425L175.7375 32.425Q172.425 32.425 172.425 34.3625Q172.425 35.221874 172.9875 35.70625Q173.55 36.175 174.44063 36.175ZM191.15938 36.26875Q192.12813 36.26875 192.84688 35.690624Q193.56563 35.096874 193.64375 34.221874L195.3625 34.221874Q195.3 35.128124 194.72188 35.95625Q194.15938 36.76875 193.19063 37.26875Q192.2375 37.753124 191.15938 37.753124Q189.00313 37.753124 187.72188 36.315624Q186.45625 34.8625 186.45625 32.3625L186.45625 32.065624Q186.45625 30.51875 187.01875 29.315624Q187.58125 28.1125 188.64375 27.45625Q189.70625 26.784374 191.14375 26.784374Q192.925 26.784374 194.09688 27.846874Q195.28438 28.909374 195.3625 30.6125L193.64375 30.6125Q193.56563 29.596874 192.8625 28.940624Q192.175 28.26875 191.14375 28.26875Q189.76875 28.26875 189.00313 29.26875Q188.25313 30.253124 188.25313 32.128124L188.25313 32.471874Q188.25313 34.3 189.00313 35.284374Q189.75313 36.26875 191.15938 36.26875ZM203.44063 37.55Q203.28438 37.2375 203.19063 36.440624Q201.925 37.753124 200.175 37.753124Q198.6125 37.753124 197.6125 36.8625Q196.6125 35.971874 196.6125 34.6125Q196.6125 32.971874 197.8625 32.065624Q199.12813 31.14375 201.39375 31.14375L203.15938 31.14375L203.15938 30.315624Q203.15938 29.3625 202.58125 28.8Q202.01875 28.2375 200.925 28.2375Q199.95625 28.2375 199.3 28.7375Q198.64375 29.221874 198.64375 29.909374L196.83125 29.909374Q196.83125 29.128124 197.39375 28.39375Q197.95625 27.64375 198.90938 27.221874Q199.87813 26.784374 201.03438 26.784374Q202.8625 26.784374 203.89375 27.70625Q204.925 28.6125 204.97188 30.221874L204.97188 35.08125Q204.97188 36.534374 205.33125 37.39375L205.33125 37.55L203.44063 37.55ZM200.44063 36.175Q201.3 36.175 202.05 35.7375Q202.81563 35.3 203.15938 34.596874L203.15938 32.425L201.7375 32.425Q198.425 32.425 198.425 34.3625Q198.425 35.221874 198.9875 35.70625Q199.55 36.175 200.44063 36.175ZM207.47188 32.175Q207.47188 29.753124 208.62813 28.26875Q209.78438 26.784374 211.64375 26.784374Q213.50313 26.784374 214.58125 28.05L214.58125 22.55L216.39375 22.55L216.39375 37.55L214.7375 37.55L214.64375 36.409374Q213.56563 37.753124 211.62813 37.753124Q209.8 37.753124 208.62813 36.253124Q207.47188 34.7375 207.47188 32.315624L207.47188 32.175ZM209.28438 32.378124Q209.28438 34.175 210.01875 35.190624Q210.76875 36.20625 212.08125 36.20625Q213.8 36.20625 214.58125 34.675L214.58125 29.815624Q213.78438 28.315624 212.09688 28.315624Q210.76875 28.315624 210.01875 29.346874Q209.28438 30.378124 209.28438 32.378124ZM225.44063 37.55Q225.28438 37.2375 225.19063 36.440624Q223.925 37.753124 222.175 37.753124Q220.6125 37.753124 219.6125 36.8625Q218.6125 35.971874 218.6125 34.6125Q218.6125 32.971874 219.8625 32.065624Q221.12813 31.14375 223.39375 31.14375L225.15938 31.14375L225.15938 30.315624Q225.15938 29.3625 224.58125 28.8Q224.01875 28.2375 222.925 28.2375Q221.95625 28.2375 221.3 28.7375Q220.64375 29.221874 220.64375 29.909374L218.83125 29.909374Q218.83125 29.128124 219.39375 28.39375Q219.95625 27.64375 220.90938 27.221874Q221.87813 26.784374 223.03438 26.784374Q224.8625 26.784374 225.89375 27.70625Q226.925 28.6125 226.97188 30.221874L226.97188 35.08125Q226.97188 36.534374 227.33125 37.39375L227.33125 37.55L225.44063 37.55ZM222.44063 36.175Q223.3 36.175 224.05 35.7375Q224.81563 35.3 225.15938 34.596874L225.15938 32.425L223.7375 32.425Q220.425 32.425 220.425 34.3625Q220.425 35.221874 220.9875 35.70625Q221.55 36.175 222.44063 36.175ZM240.675 37.55L238.84688 37.55L238.84688 25.503124L235.20625 26.846874L235.20625 25.20625L240.39375 23.26875L240.675 23.26875L240.675 37.55ZM254.64375 31.4875Q254.64375 34.659374 253.56563 36.20625Q252.4875 37.753124 250.175 37.753124Q247.89375 37.753124 246.8 36.2375Q245.70625 34.721874 245.675 31.721874L245.675 29.315624Q245.675 26.175 246.75313 24.659374Q247.84688 23.128124 250.15938 23.128124Q252.45625 23.128124 253.53438 24.6125Q254.6125 26.08125 254.64375 29.14375L254.64375 31.4875ZM252.84688 29.01875Q252.84688 26.721874 252.19063 25.675Q251.55 24.6125 250.15938 24.6125Q248.76875 24.6125 248.12813 25.659374Q247.50313 26.70625 247.4875 28.878124L247.4875 31.76875Q247.4875 34.065624 248.14375 35.175Q248.81563 36.26875 250.175 36.26875Q251.51875 36.26875 252.15938 35.2375Q252.81563 34.20625 252.84688 31.971874L252.84688 29.01875ZM263.6125 26.9875L263.65936 28.159374Q264.83124 26.784374 266.8 26.784374Q269.01874 26.784374 269.8156 28.4875Q270.34686 27.721874 271.1906 27.253124Q272.03436 26.784374 273.1906 26.784374Q276.65936 26.784374 276.72186 30.471874L276.72186 37.55L274.90936 37.55L274.90936 30.58125Q274.90936 29.440624 274.39374 28.878124Q273.8781 28.315624 272.65936 28.315624Q271.65936 28.315624 270.9875 28.925Q270.33124 29.51875 270.22186 30.534374L270.22186 37.55L268.40936 37.55L268.40936 30.628124Q268.40936 28.315624 266.14374 28.315624Q264.3625 28.315624 263.72186 29.83125L263.72186 37.55L261.90936 37.55L261.90936 26.9875L263.6125 26.9875ZM281.8781 37.55L280.08124 37.55L280.08124 26.9875L281.8781 26.9875L281.8781 37.55ZM279.925 24.175Q279.925 23.7375 280.1906 23.440624Q280.47186 23.128124 280.9875 23.128124Q281.51874 23.128124 281.78436 23.440624Q282.0656 23.7375 282.0656 24.175Q282.0656 24.6125 281.78436 24.909374Q281.51874 25.20625 280.9875 25.20625Q280.47186 25.20625 280.1906 24.909374Q279.925 24.6125 279.925 24.175ZM286.8781 37.55L285.08124 37.55L285.08124 22.55L286.8781 22.55L286.8781 37.55ZM296.72186 28.26875Q297.925 26.784374 299.84686 26.784374Q303.20624 26.784374 303.22186 30.565624L303.22186 37.55L301.425 37.55L301.425 30.55Q301.40936 29.409374 300.89374 28.8625Q300.39374 28.315624 299.3 28.315624Q298.425 28.315624 297.7531 28.784374Q297.09686 29.253124 296.72186 30.01875L296.72186 37.55L294.925 37.55L294.925 22.55L296.72186 22.55L296.72186 28.26875ZM312.4406 37.55Q312.28436 37.2375 312.1906 36.440624Q310.925 37.753124 309.175 37.753124Q307.6125 37.753124 306.6125 36.8625Q305.6125 35.971874 305.6125 34.6125Q305.6125 32.971874 306.8625 32.065624Q308.1281 31.14375 310.39374 31.14375L312.15936 31.14375L312.15936 30.315624Q312.15936 29.3625 311.58124 28.8Q311.01874 28.2375 309.925 28.2375Q308.95624 28.2375 308.3 28.7375Q307.64374 29.221874 307.64374 29.909374L305.83124 29.909374Q305.83124 29.128124 306.39374 28.39375Q306.95624 27.64375 307.90936 27.221874Q308.8781 26.784374 310.03436 26.784374Q311.8625 26.784374 312.89374 27.70625Q313.925 28.6125 313.97186 30.221874L313.97186 35.08125Q313.97186 36.534374 314.33124 37.39375L314.33124 37.55L312.4406 37.55ZM309.4406 36.175Q310.3 36.175 311.05 35.7375Q311.8156 35.3 312.15936 34.596874L312.15936 32.425L310.7375 32.425Q307.425 32.425 307.425 34.3625Q307.425 35.221874 307.9875 35.70625Q308.55 36.175 309.4406 36.175ZM325.8625 32.378124Q325.8625 34.8 324.7531 36.284374Q323.64374 37.753124 321.76874 37.753124Q319.7531 37.753124 318.65936 36.33125L318.58124 37.55L316.925 37.55L316.925 22.55L318.72186 22.55L318.72186 28.14375Q319.8156 26.784374 321.7375 26.784374Q323.65936 26.784374 324.7531 28.2375Q325.8625 29.690624 325.8625 32.221874L325.8625 32.378124ZM324.05 32.175Q324.05 30.33125 323.33124 29.33125Q322.6281 28.315624 321.3 28.315624Q319.5031 28.315624 318.72186 29.9875L318.72186 34.55Q319.55 36.20625 321.3156 36.20625Q322.6125 36.20625 323.33124 35.20625Q324.05 34.20625 324.05 32.175ZM329.8781 37.55L328.08124 37.55L328.08124 26.9875L329.8781 26.9875L329.8781 37.55ZM327.925 24.175Q327.925 23.7375 328.1906 23.440624Q328.47186 23.128124 328.9875 23.128124Q329.51874 23.128124 329.78436 23.440624Q330.0656 23.7375 330.0656 24.175Q330.0656 24.6125 329.78436 24.909374Q329.51874 25.20625 328.9875 25.20625Q328.47186 25.20625 328.1906 24.909374Q327.925 24.6125 327.925 24.175ZM335.3625 24.425L335.3625 26.9875L337.34686 26.9875L337.34686 28.378124L335.3625 28.378124L335.3625 34.925Q335.3625 35.565624 335.6281 35.89375Q335.89374 36.20625 336.53436 36.20625Q336.84686 36.20625 337.39374 36.08125L337.39374 37.55Q336.675 37.753124 336.0031 37.753124Q334.8 37.753124 334.175 37.01875Q333.5656 36.284374 333.5656 34.925L333.5656 28.378124L331.64374 28.378124L331.64374 26.9875L333.5656 26.9875L333.5656 24.425L335.3625 24.425ZM346.4406 37.55Q346.28436 37.2375 346.1906 36.440624Q344.925 37.753124 343.175 37.753124Q341.6125 37.753124 340.6125 36.8625Q339.6125 35.971874 339.6125 34.6125Q339.6125 32.971874 340.8625 32.065624Q342.1281 31.14375 344.39374 31.14375L346.15936 31.14375L346.15936 30.315624Q346.15936 29.3625 345.58124 28.8Q345.01874 28.2375 343.925 28.2375Q342.95624 28.2375 342.3 28.7375Q341.64374 29.221874 341.64374 29.909374L339.83124 29.909374Q339.83124 29.128124 340.39374 28.39375Q340.95624 27.64375 341.90936 27.221874Q342.8781 26.784374 344.03436 26.784374Q345.8625 26.784374 346.89374 27.70625Q347.925 28.6125 347.97186 30.221874L347.97186 35.08125Q347.97186 36.534374 348.33124 37.39375L348.33124 37.55L346.4406 37.55ZM343.4406 36.175Q344.3 36.175 345.05 35.7375Q345.8156 35.3 346.15936 34.596874L346.15936 32.425L344.7375 32.425Q341.425 32.425 341.425 34.3625Q341.425 35.221874 341.9875 35.70625Q342.55 36.175 343.4406 36.175ZM352.6281 26.9875L352.6906 28.315624Q353.89374 26.784374 355.84686 26.784374Q359.20624 26.784374 359.22186 30.565624L359.22186 37.55L357.425 37.55L357.425 30.55Q357.40936 29.409374 356.89374 28.8625Q356.39374 28.315624 355.3 28.315624Q354.425 28.315624 353.7531 28.784374Q353.09686 29.253124 352.72186 30.01875L352.72186 37.55L350.925 37.55L350.925 26.9875L352.6281 26.9875ZM364.3625 24.425L364.3625 26.9875L366.34686 26.9875L366.34686 28.378124L364.3625 28.378124L364.3625 34.925Q364.3625 35.565624 364.6281 35.89375Q364.89374 36.20625 365.53436 36.20625Q365.84686 36.20625 366.39374 36.08125L366.39374 37.55Q365.675 37.753124 365.0031 37.753124Q363.8 37.753124 363.175 37.01875Q362.5656 36.284374 362.5656 34.925L362.5656 28.378124L360.64374 28.378124L360.64374 26.9875L362.5656 26.9875L362.5656 24.425L364.3625 24.425ZM373.3 37.753124Q371.15936 37.753124 369.8 36.346874Q368.45624 34.925 368.45624 32.565624L368.45624 32.221874Q368.45624 30.659374 369.05 29.425Q369.65936 28.190624 370.7375 27.4875Q371.8156 26.784374 373.08124 26.784374Q375.14374 26.784374 376.28436 28.14375Q377.425 29.503124 377.425 32.034374L377.425 32.784374L370.26874 32.784374Q370.3 34.346874 371.175 35.315624Q372.05 36.26875 373.39374 36.26875Q374.3625 36.26875 375.01874 35.878124Q375.6906 35.4875 376.1906 34.846874L377.28436 35.70625Q375.95624 37.753124 373.3 37.753124ZM373.08124 28.26875Q371.9875 28.26875 371.2375 29.065624Q370.5031 29.8625 370.33124 31.3L375.6125 31.3L375.6125 31.159374Q375.53436 29.784374 374.8625 29.034374Q374.20624 28.26875 373.08124 28.26875ZM386.0656 34.753124Q386.0656 34.01875 385.51874 33.6125Q384.97186 33.20625 383.59686 32.909374Q382.22186 32.6125 381.40936 32.20625Q380.6125 31.8 380.22186 31.2375Q379.84686 30.659374 379.84686 29.878124Q379.84686 28.58125 380.9406 27.690624Q382.03436 26.784374 383.7531 26.784374Q385.55 26.784374 386.65936 27.721874Q387.78436 28.64375 387.78436 30.08125L385.95624 30.08125Q385.95624 29.346874 385.33124 28.815624Q384.70624 28.26875 383.7531 28.26875Q382.7531 28.26875 382.1906 28.70625Q381.64374 29.128124 381.64374 29.83125Q381.64374 30.471874 382.15936 30.815624Q382.675 31.14375 384.03436 31.45625Q385.39374 31.753124 386.22186 32.175Q387.0656 32.58125 387.47186 33.175Q387.8781 33.76875 387.8781 34.6125Q387.8781 36.034374 386.7375 36.89375Q385.6125 37.753124 383.8 37.753124Q382.53436 37.753124 381.55 37.3Q380.58124 36.846874 380.01874 36.05Q379.47186 35.2375 379.47186 34.3L381.28436 34.3Q381.33124 35.20625 382.0031 35.7375Q382.6906 36.26875 383.8 36.26875Q384.83124 36.26875 385.4406 35.8625Q386.0656 35.440624 386.0656 34.753124Z" fill-rule="nonzero"/></svg>