<svg version="1.1" viewBox="0.0 0.0 600.0 371.0" fill="none" stroke="none" stroke-linecap="square" stroke-miterlimit="10" width="600" height="371" xmlns:xlink="http://www.w3.org/1999/xlink" xmlns="http://www.w3.org/2000/svg"><path fill="#ffffff" d="M0 0L600.0 0L600.0 371.0L0 371.0L0 0Z" fill-rule="nonzero"/><path stroke="#333333" stroke-width="1.0" stroke-linecap="butt" d="M67.5 323.5L581.5 323.5" fill-rule="nonzero"/><path fill="#eeeeee" d="M62.5 328.5L67.5 324.5L581.5 324.5L576.5 328.5Z" fill-rule="nonzero"/><path stroke="#cccccc" stroke-width="1.0" stroke-linecap="butt" d="M67.5 255.5L581.5 255.5" fill-rule="nonzero"/><path stroke="#cccccc" stroke-width="1.0" stroke-linecap="butt" d="M67.5 188.5L581.5 188.5" fill-rule="nonzero"/><path stroke="#cccccc" stroke-width="1.0" stroke-linecap="butt" d="M67.5 120.5L581.5 120.5" fill-rule="nonzero"/><path stroke="#cccccc" stroke-width="1.0" stroke-linecap="butt" d="M67.5 53.5L581.5 53.5" fill-rule="nonzero"/><clipPath id="id_0"><path d="M62.55 53.416668L581.45 53.416668L581.45 328.45L62.55 328.45L62.55 53.416668Z" clip-rule="nonzero"/></clipPath><path fill="#9d7e21" clip-path="url(#id_0)" d="M83.0 169.0L83.0 323.0L80.0 326.0L80.0 172.0Z" fill-rule="nonzero"/><path fill="#f4ce5b" clip-path="url(#id_0)" d="M80.0 172.0L68.0 172.0L71.0 169.0L83.0 169.0Z" fill-rule="nonzero"/><path stroke="#000000" stroke-width="0.0" stroke-linecap="butt" stroke-opacity="0.0" clip-path="url(#id_0)" d="M80.0 326.0L68.0 326.0L68.0 172.0L80.0 172.0Z" fill-rule="nonzero"/><path fill="#f1c232" clip-path="url(#id_0)" d="M80.0 326.0L68.0 326.0L68.0 172.0L80.0 172.0Z" fill-rule="nonzero"/><path fill="#9d7e21" clip-path="url(#id_0)" d="M102.0 246.0L102.0 323.0L99.0 326.0L99.0 249.0Z" fill-rule="nonzero"/><path fill="#f4ce5b" clip-path="url(#id_0)" d="M99.0 249.0L87.0 249.0L90.0 246.0L102.0 246.0Z" fill-rule="nonzero"/><path stroke="#000000" stroke-width="0.0" stroke-linecap="butt" stroke-opacity="0.0" clip-path="url(#id_0)" d="M99.0 326.0L87.0 326.0L87.0 249.0L99.0 249.0Z" fill-rule="nonzero"/><path fill="#f1c232" clip-path="url(#id_0)" d="M99.0 326.0L87.0 326.0L87.0 249.0L99.0 249.0Z" fill-rule="nonzero"/><path fill="#9d7e21" clip-path="url(#id_0)" d="M121.0 185.0L121.0 323.0L118.0 326.0L118.0 188.0Z" fill-rule="nonzero"/><path fill="#f4ce5b" clip-path="url(#id_0)" d="M118.0 188.0L106.0 188.0L109.0 185.0L121.0 185.0Z" fill-rule="nonzero"/><path stroke="#000000" stroke-width="0.0" stroke-linecap="butt" stroke-opacity="0.0" clip-path="url(#id_0)" d="M118.0 326.0L106.0 326.0L106.0 188.0L118.0 188.0Z" fill-rule="nonzero"/><path fill="#f1c232" clip-path="url(#id_0)" d="M118.0 326.0L106.0 326.0L106.0 188.0L118.0 188.0Z" fill-rule="nonzero"/><path fill="#9d7e21" clip-path="url(#id_0)" d="M140.0 228.0L140.0 323.0L137.0 326.0L137.0 231.0Z" fill-rule="nonzero"/><path fill="#f4ce5b" clip-path="url(#id_0)" d="M137.0 231.0L125.0 231.0L128.0 228.0L140.0 228.0Z" fill-rule="nonzero"/><path stroke="#000000" stroke-width="0.0" stroke-linecap="butt" stroke-opacity="0.0" clip-path="url(#id_0)" d="M137.0 326.0L125.0 326.0L125.0 231.0L137.0 231.0Z" fill-rule="nonzero"/><path fill="#f1c232" clip-path="url(#id_0)" d="M137.0 326.0L125.0 326.0L125.0 231.0L137.0 231.0Z" fill-rule="nonzero"/><path fill="#9d7e21" clip-path="url(#id_0)" d="M159.0 269.0L159.0 323.0L156.0 326.0L156.0 272.0Z" fill-rule="nonzero"/><path fill="#f4ce5b" clip-path="url(#id_0)" d="M156.0 272.0L144.0 272.0L147.0 269.0L159.0 269.0Z" fill-rule="nonzero"/><path stroke="#000000" stroke-width="0.0" stroke-linecap="butt" stroke-opacity="0.0" clip-path="url(#id_0)" d="M156.0 326.0L144.0 326.0L144.0 272.0L156.0 272.0Z" fill-rule="nonzero"/><path fill="#f1c232" clip-path="url(#id_0)" d="M156.0 326.0L144.0 326.0L144.0 272.0L156.0 272.0Z" fill-rule="nonzero"/><path fill="#9d7e21" clip-path="url(#id_0)" d="M178.0 252.0L178.0 323.0L175.0 326.0L175.0 255.0Z" fill-rule="nonzero"/><path fill="#f4ce5b" clip-path="url(#id_0)" d="M175.0 255.0L163.0 255.0L166.0 252.0L178.0 252.0Z" fill-rule="nonzero"/><path stroke="#000000" stroke-width="0.0" stroke-linecap="butt" stroke-opacity="0.0" clip-path="url(#id_0)" d="M175.0 326.0L163.0 326.0L163.0 255.0L175.0 255.0Z" fill-rule="nonzero"/><path fill="#f1c232" clip-path="url(#id_0)" d="M175.0 326.0L163.0 326.0L163.0 255.0L175.0 255.0Z" fill-rule="nonzero"/><path fill="#9d7e21" clip-path="url(#id_0)" d="M197.0 307.0L197.0 323.0L194.0 326.0L194.0 310.0Z" fill-rule="nonzero"/><path fill="#f4ce5b" clip-path="url(#id_0)" d="M194.0 310.0L182.0 310.0L185.0 307.0L197.0 307.0Z" fill-rule="nonzero"/><path stroke="#000000" stroke-width="0.0" stroke-linecap="butt" stroke-opacity="0.0" clip-path="url(#id_0)" d="M194.0 326.0L182.0 326.0L182.0 310.0L194.0 310.0Z" fill-rule="nonzero"/><path fill="#f1c232" clip-path="url(#id_0)" d="M194.0 326.0L182.0 326.0L182.0 310.0L194.0 310.0Z" fill-rule="nonzero"/><path fill="#9d7e21" clip-path="url(#id_0)" d="M216.0 275.0L216.0 323.0L213.0 326.0L213.0 278.0Z" fill-rule="nonzero"/><path fill="#f4ce5b" clip-path="url(#id_0)" d="M213.0 278.0L201.0 278.0L204.0 275.0L216.0 275.0Z" fill-rule="nonzero"/><path stroke="#000000" stroke-width="0.0" stroke-linecap="butt" stroke-opacity="0.0" clip-path="url(#id_0)" d="M213.0 326.0L201.0 326.0L201.0 278.0L213.0 278.0Z" fill-rule="nonzero"/><path fill="#f1c232" clip-path="url(#id_0)" d="M213.0 326.0L201.0 326.0L201.0 278.0L213.0 278.0Z" fill-rule="nonzero"/><path fill="#9d7e21" clip-path="url(#id_0)" d="M235.0 282.0L235.0 323.0L232.0 326.0L232.0 285.0Z" fill-rule="nonzero"/><path fill="#f4ce5b" clip-path="url(#id_0)" d="M232.0 285.0L220.0 285.0L223.0 282.0L235.0 282.0Z" fill-rule="nonzero"/><path stroke="#000000" stroke-width="0.0" stroke-linecap="butt" stroke-opacity="0.0" clip-path="url(#id_0)" d="M232.0 326.0L220.0 326.0L220.0 285.0L232.0 285.0Z" fill-rule="nonzero"/><path fill="#f1c232" clip-path="url(#id_0)" d="M232.0 326.0L220.0 326.0L220.0 285.0L232.0 285.0Z" fill-rule="nonzero"/><path fill="#9d7e21" clip-path="url(#id_0)" d="M254.0 222.0L254.0 323.0L251.0 326.0L251.0 225.0Z" fill-rule="nonzero"/><path fill="#f4ce5b" clip-path="url(#id_0)" d="M251.0 225.0L239.0 225.0L242.0 222.0L254.0 222.0Z" fill-rule="nonzero"/><path stroke="#000000" stroke-width="0.0" stroke-linecap="butt" stroke-opacity="0.0" clip-path="url(#id_0)" d="M251.0 326.0L239.0 326.0L239.0 225.0L251.0 225.0Z" fill-rule="nonzero"/><path fill="#f1c232" clip-path="url(#id_0)" d="M251.0 326.0L239.0 326.0L239.0 225.0L251.0 225.0Z" fill-rule="nonzero"/><path fill="#9d7e21" clip-path="url(#id_0)" d="M273.0 256.0L273.0 323.0L270.0 326.0L270.0 259.0Z" fill-rule="nonzero"/><path fill="#f4ce5b" clip-path="url(#id_0)" d="M270.0 259.0L258.0 259.0L261.0 256.0L273.0 256.0Z" fill-rule="nonzero"/><path stroke="#000000" stroke-width="0.0" stroke-linecap="butt" stroke-opacity="0.0" clip-path="url(#id_0)" d="M270.0 326.0L258.0 326.0L258.0 259.0L270.0 259.0Z" fill-rule="nonzero"/><path fill="#f1c232" clip-path="url(#id_0)" d="M270.0 326.0L258.0 326.0L258.0 259.0L270.0 259.0Z" fill-rule="nonzero"/><path fill="#9d7e21" clip-path="url(#id_0)" d="M292.0 283.0L292.0 323.0L289.0 326.0L289.0 286.0Z" fill-rule="nonzero"/><path fill="#f4ce5b" clip-path="url(#id_0)" d="M289.0 286.0L277.0 286.0L280.0 283.0L292.0 283.0Z" fill-rule="nonzero"/><path stroke="#000000" stroke-width="0.0" stroke-linecap="butt" stroke-opacity="0.0" clip-path="url(#id_0)" d="M289.0 326.0L277.0 326.0L277.0 286.0L289.0 286.0Z" fill-rule="nonzero"/><path fill="#f1c232" clip-path="url(#id_0)" d="M289.0 326.0L277.0 326.0L277.0 286.0L289.0 286.0Z" fill-rule="nonzero"/><path fill="#9d7e21" clip-path="url(#id_0)" d="M311.0 285.0L311.0 323.0L308.0 326.0L308.0 288.0Z" fill-rule="nonzero"/><path fill="#f4ce5b" clip-path="url(#id_0)" d="M308.0 288.0L296.0 288.0L299.0 285.0L311.0 285.0Z" fill-rule="nonzero"/><path stroke="#000000" stroke-width="0.0" stroke-linecap="butt" stroke-opacity="0.0" clip-path="url(#id_0)" d="M308.0 326.0L296.0 326.0L296.0 288.0L308.0 288.0Z" fill-rule="nonzero"/><path fill="#f1c232" clip-path="url(#id_0)" d="M308.0 326.0L296.0 326.0L296.0 288.0L308.0 288.0Z" fill-rule="nonzero"/><path fill="#9d7e21" clip-path="url(#id_0)" d="M330.0 153.0L330.0 323.0L327.0 326.0L327.0 156.0Z" fill-rule="nonzero"/><path fill="#f4ce5b" clip-path="url(#id_0)" d="M327.0 156.0L315.0 156.0L318.0 153.0L330.0 153.0Z" fill-rule="nonzero"/><path stroke="#000000" stroke-width="0.0" stroke-linecap="butt" stroke-opacity="0.0" clip-path="url(#id_0)" d="M327.0 326.0L315.0 326.0L315.0 156.0L327.0 156.0Z" fill-rule="nonzero"/><path fill="#f1c232" clip-path="url(#id_0)" d="M327.0 326.0L315.0 326.0L315.0 156.0L327.0 156.0Z" fill-rule="nonzero"/><path fill="#9d7e21" clip-path="url(#id_0)" d="M348.0 242.0L348.0 323.0L345.0 326.0L345.0 245.0Z" fill-rule="nonzero"/><path fill="#f4ce5b" clip-path="url(#id_0)" d="M345.0 245.0L333.0 245.0L336.0 242.0L348.0 242.0Z" fill-rule="nonzero"/><path stroke="#000000" stroke-width="0.0" stroke-linecap="butt" stroke-opacity="0.0" clip-path="url(#id_0)" d="M345.0 326.0L333.0 326.0L333.0 245.0L345.0 245.0Z" fill-rule="nonzero"/><path fill="#f1c232" clip-path="url(#id_0)" d="M345.0 326.0L333.0 326.0L333.0 245.0L345.0 245.0Z" fill-rule="nonzero"/><path fill="#9d7e21" clip-path="url(#id_0)" d="M367.0 291.0L367.0 323.0L364.0 326.0L364.0 294.0Z" fill-rule="nonzero"/><path fill="#f4ce5b" clip-path="url(#id_0)" d="M364.0 294.0L352.0 294.0L355.0 291.0L367.0 291.0Z" fill-rule="nonzero"/><path stroke="#000000" stroke-width="0.0" stroke-linecap="butt" stroke-opacity="0.0" clip-path="url(#id_0)" d="M364.0 326.0L352.0 326.0L352.0 294.0L364.0 294.0Z" fill-rule="nonzero"/><path fill="#f1c232" clip-path="url(#id_0)" d="M364.0 326.0L352.0 326.0L352.0 294.0L364.0 294.0Z" fill-rule="nonzero"/><path fill="#9d7e21" clip-path="url(#id_0)" d="M386.0 243.0L386.0 323.0L383.0 326.0L383.0 246.0Z" fill-rule="nonzero"/><path fill="#f4ce5b" clip-path="url(#id_0)" d="M383.0 246.0L371.0 246.0L374.0 243.0L386.0 243.0Z" fill-rule="nonzero"/><path stroke="#000000" stroke-width="0.0" stroke-linecap="butt" stroke-opacity="0.0" clip-path="url(#id_0)" d="M383.0 326.0L371.0 326.0L371.0 246.0L383.0 246.0Z" fill-rule="nonzero"/><path fill="#f1c232" clip-path="url(#id_0)" d="M383.0 326.0L371.0 326.0L371.0 246.0L383.0 246.0Z" fill-rule="nonzero"/><path fill="#9d7e21" clip-path="url(#id_0)" d="M405.0 273.0L405.0 323.0L402.0 326.0L402.0 276.0Z" fill-rule="nonzero"/><path fill="#f4ce5b" clip-path="url(#id_0)" d="M402.0 276.0L390.0 276.0L393.0 273.0L405.0 273.0Z" fill-rule="nonzero"/><path stroke="#000000" stroke-width="0.0" stroke-linecap="butt" stroke-opacity="0.0" clip-path="url(#id_0)" d="M402.0 326.0L390.0 326.0L390.0 276.0L402.0 276.0Z" fill-rule="nonzero"/><path fill="#f1c232" clip-path="url(#id_0)" d="M402.0 326.0L390.0 326.0L390.0 276.0L402.0 276.0Z" fill-rule="nonzero"/><path fill="#9d7e21" clip-path="url(#id_0)" d="M424.0 285.0L424.0 323.0L421.0 326.0L421.0 288.0Z" fill-rule="nonzero"/><path fill="#f4ce5b" clip-path="url(#id_0)" d="M421.0 288.0L409.0 288.0L412.0 285.0L424.0 285.0Z" fill-rule="nonzero"/><path stroke="#000000" stroke-width="0.0" stroke-linecap="butt" stroke-opacity="0.0" clip-path="url(#id_0)" d="M421.0 326.0L409.0 326.0L409.0 288.0L421.0 288.0Z" fill-rule="nonzero"/><path fill="#f1c232" clip-path="url(#id_0)" d="M421.0 326.0L409.0 326.0L409.0 288.0L421.0 288.0Z" fill-rule="nonzero"/><path fill="#9d7e21" clip-path="url(#id_0)" d="M443.0 273.0L443.0 323.0L440.0 326.0L440.0 276.0Z" fill-rule="nonzero"/><path fill="#f4ce5b" clip-path="url(#id_0)" d="M440.0 276.0L428.0 276.0L431.0 273.0L443.0 273.0Z" fill-rule="nonzero"/><path stroke="#000000" stroke-width="0.0" stroke-linecap="butt" stroke-opacity="0.0" clip-path="url(#id_0)" d="M440.0 326.0L428.0 326.0L428.0 276.0L440.0 276.0Z" fill-rule="nonzero"/><path fill="#f1c232" clip-path="url(#id_0)" d="M440.0 326.0L428.0 326.0L428.0 276.0L440.0 276.0Z" fill-rule="nonzero"/><path fill="#9d7e21" clip-path="url(#id_0)" d="M462.0 289.0L462.0 323.0L459.0 326.0L459.0 292.0Z" fill-rule="nonzero"/><path fill="#f4ce5b" clip-path="url(#id_0)" d="M459.0 292.0L447.0 292.0L450.0 289.0L462.0 289.0Z" fill-rule="nonzero"/><path stroke="#000000" stroke-width="0.0" stroke-linecap="butt" stroke-opacity="0.0" clip-path="url(#id_0)" d="M459.0 326.0L447.0 326.0L447.0 292.0L459.0 292.0Z" fill-rule="nonzero"/><path fill="#f1c232" clip-path="url(#id_0)" d="M459.0 326.0L447.0 326.0L447.0 292.0L459.0 292.0Z" fill-rule="nonzero"/><path fill="#9d7e21" clip-path="url(#id_0)" d="M481.0 128.0L481.0 323.0L478.0 326.0L478.0 131.0Z" fill-rule="nonzero"/><path fill="#f4ce5b" clip-path="url(#id_0)" d="M478.0 131.0L466.0 131.0L469.0 128.0L481.0 128.0Z" fill-rule="nonzero"/><path stroke="#000000" stroke-width="0.0" stroke-linecap="butt" stroke-opacity="0.0" clip-path="url(#id_0)" d="M478.0 326.0L466.0 326.0L466.0 131.0L478.0 131.0Z" fill-rule="nonzero"/><path fill="#f1c232" clip-path="url(#id_0)" d="M478.0 326.0L466.0 326.0L466.0 131.0L478.0 131.0Z" fill-rule="nonzero"/><path fill="#9d7e21" clip-path="url(#id_0)" d="M500.0 279.0L500.0 323.0L497.0 326.0L497.0 282.0Z" fill-rule="nonzero"/><path fill="#f4ce5b" clip-path="url(#id_0)" d="M497.0 282.0L485.0 282.0L488.0 279.0L500.0 279.0Z" fill-rule="nonzero"/><path stroke="#000000" stroke-width="0.0" stroke-linecap="butt" stroke-opacity="0.0" clip-path="url(#id_0)" d="M497.0 326.0L485.0 326.0L485.0 282.0L497.0 282.0Z" fill-rule="nonzero"/><path fill="#f1c232" clip-path="url(#id_0)" d="M497.0 326.0L485.0 326.0L485.0 282.0L497.0 282.0Z" fill-rule="nonzero"/><path fill="#9d7e21" clip-path="url(#id_0)" d="M519.0 268.0L519.0 323.0L516.0 326.0L516.0 271.0Z" fill-rule="nonzero"/><path fill="#f4ce5b" clip-path="url(#id_0)" d="M516.0 271.0L504.0 271.0L507.0 268.0L519.0 268.0Z" fill-rule="nonzero"/><path stroke="#000000" stroke-width="0.0" stroke-linecap="butt" stroke-opacity="0.0" clip-path="url(#id_0)" d="M516.0 326.0L504.0 326.0L504.0 271.0L516.0 271.0Z" fill-rule="nonzero"/><path fill="#f1c232" clip-path="url(#id_0)" d="M516.0 326.0L504.0 326.0L504.0 271.0L516.0 271.0Z" fill-rule="nonzero"/><path fill="#9d7e21" clip-path="url(#id_0)" d="M538.0 309.0L538.0 323.0L535.0 326.0L535.0 312.0Z" fill-rule="nonzero"/><path fill="#f4ce5b" clip-path="url(#id_0)" d="M535.0 312.0L523.0 312.0L526.0 309.0L538.0 309.0Z" fill-rule="nonzero"/><path stroke="#000000" stroke-width="0.0" stroke-linecap="butt" stroke-opacity="0.0" clip-path="url(#id_0)" d="M535.0 326.0L523.0 326.0L523.0 312.0L535.0 312.0Z" fill-rule="nonzero"/><path fill="#f1c232" clip-path="url(#id_0)" d="M535.0 326.0L523.0 326.0L523.0 312.0L535.0 312.0Z" fill-rule="nonzero"/><path fill="#9d7e21" clip-path="url(#id_0)" d="M557.0 277.0L557.0 323.0L554.0 326.0L554.0 280.0Z" fill-rule="nonzero"/><path fill="#f4ce5b" clip-path="url(#id_0)" d="M554.0 280.0L542.0 280.0L545.0 277.0L557.0 277.0Z" fill-rule="nonzero"/><path stroke="#000000" stroke-width="0.0" stroke-linecap="butt" stroke-opacity="0.0" clip-path="url(#id_0)" d="M554.0 326.0L542.0 326.0L542.0 280.0L554.0 280.0Z" fill-rule="nonzero"/><path fill="#f1c232" clip-path="url(#id_0)" d="M554.0 326.0L542.0 326.0L542.0 280.0L554.0 280.0Z" fill-rule="nonzero"/><path fill="#9d7e21" clip-path="url(#id_0)" d="M576.0 261.0L576.0 323.0L573.0 326.0L573.0 264.0Z" fill-rule="nonzero"/><path fill="#f4ce5b" clip-path="url(#id_0)" d="M573.0 264.0L561.0 264.0L564.0 261.0L576.0 261.0Z" fill-rule="nonzero"/><path stroke="#000000" stroke-width="0.0" stroke-linecap="butt" stroke-opacity="0.0" clip-path="url(#id_0)" d="M573.0 326.0L561.0 326.0L561.0 264.0L573.0 264.0Z" fill-rule="nonzero"/><path fill="#f1c232" clip-path="url(#id_0)" d="M573.0 326.0L561.0 326.0L561.0 264.0L573.0 264.0Z" fill-rule="nonzero"/><path stroke="#9e7f21" stroke-width="1.0" stroke-linecap="butt" clip-path="url(#id_0)" d="M74.0 187.12054L74.0 149.93979" fill-rule="nonzero"/><path stroke="#9e7f21" stroke-width="1.0" stroke-linecap="butt" clip-path="url(#id_0)" d="M68.0 187.12054L80.0 187.12054" fill-rule="nonzero"/><path stroke="#9e7f21" stroke-width="1.0" stroke-linecap="butt" clip-path="url(#id_0)" d="M68.0 149.93979L80.0 149.93979" fill-rule="nonzero"/><path stroke="#9e7f21" stroke-width="1.0" stroke-linecap="butt" clip-path="url(#id_0)" d="M93.0 255.6829L93.0 237.20097" fill-rule="nonzero"/><path stroke="#9e7f21" stroke-width="1.0" stroke-linecap="butt" clip-path="url(#id_0)" d="M87.0 255.6829L99.0 255.6829" fill-rule="nonzero"/><path stroke="#9e7f21" stroke-width="1.0" stroke-linecap="butt" clip-path="url(#id_0)" d="M87.0 237.20097L99.0 237.20097" fill-rule="nonzero"/><path stroke="#9e7f21" stroke-width="1.0" stroke-linecap="butt" clip-path="url(#id_0)" d="M112.0 201.84929L112.0 168.68546" fill-rule="nonzero"/><path stroke="#9e7f21" stroke-width="1.0" stroke-linecap="butt" clip-path="url(#id_0)" d="M106.0 201.84929L118.0 201.84929" fill-rule="nonzero"/><path stroke="#9e7f21" stroke-width="1.0" stroke-linecap="butt" clip-path="url(#id_0)" d="M106.0 168.68546L118.0 168.68546" fill-rule="nonzero"/><path stroke="#9e7f21" stroke-width="1.0" stroke-linecap="butt" clip-path="url(#id_0)" d="M131.0 239.79922L131.0 216.98537" fill-rule="nonzero"/><path stroke="#9e7f21" stroke-width="1.0" stroke-linecap="butt" clip-path="url(#id_0)" d="M125.0 239.79922L137.0 239.79922" fill-rule="nonzero"/><path stroke="#9e7f21" stroke-width="1.0" stroke-linecap="butt" clip-path="url(#id_0)" d="M125.0 216.98537L137.0 216.98537" fill-rule="nonzero"/><path stroke="#9e7f21" stroke-width="1.0" stroke-linecap="butt" clip-path="url(#id_0)" d="M150.0 275.72366L150.0 262.7074" fill-rule="nonzero"/><path stroke="#9e7f21" stroke-width="1.0" stroke-linecap="butt" clip-path="url(#id_0)" d="M144.0 275.72366L156.0 275.72366" fill-rule="nonzero"/><path stroke="#9e7f21" stroke-width="1.0" stroke-linecap="butt" clip-path="url(#id_0)" d="M144.0 262.7074L156.0 262.7074" fill-rule="nonzero"/><path stroke="#9e7f21" stroke-width="1.0" stroke-linecap="butt" clip-path="url(#id_0)" d="M169.0 260.17758L169.0 242.92148" fill-rule="nonzero"/><path stroke="#9e7f21" stroke-width="1.0" stroke-linecap="butt" clip-path="url(#id_0)" d="M163.0 260.17758L175.0 260.17758" fill-rule="nonzero"/><path stroke="#9e7f21" stroke-width="1.0" stroke-linecap="butt" clip-path="url(#id_0)" d="M163.0 242.92148L175.0 242.92148" fill-rule="nonzero"/><path stroke="#9e7f21" stroke-width="1.0" stroke-linecap="butt" clip-path="url(#id_0)" d="M188.0 308.59137L188.0 304.53903" fill-rule="nonzero"/><path stroke="#9e7f21" stroke-width="1.0" stroke-linecap="butt" clip-path="url(#id_0)" d="M182.0 308.59137L194.0 308.59137" fill-rule="nonzero"/><path stroke="#9e7f21" stroke-width="1.0" stroke-linecap="butt" clip-path="url(#id_0)" d="M182.0 304.53903L194.0 304.53903" fill-rule="nonzero"/><path stroke="#9e7f21" stroke-width="1.0" stroke-linecap="butt" clip-path="url(#id_0)" d="M207.0 280.77335L207.0 269.13428" fill-rule="nonzero"/><path stroke="#9e7f21" stroke-width="1.0" stroke-linecap="butt" clip-path="url(#id_0)" d="M201.0 280.77335L213.0 280.77335" fill-rule="nonzero"/><path stroke="#9e7f21" stroke-width="1.0" stroke-linecap="butt" clip-path="url(#id_0)" d="M201.0 269.13428L213.0 269.13428" fill-rule="nonzero"/><path stroke="#9e7f21" stroke-width="1.0" stroke-linecap="butt" clip-path="url(#id_0)" d="M226.0 286.93646L226.0 276.97824" fill-rule="nonzero"/><path stroke="#9e7f21" stroke-width="1.0" stroke-linecap="butt" clip-path="url(#id_0)" d="M220.0 286.93646L232.0 286.93646" fill-rule="nonzero"/><path stroke="#9e7f21" stroke-width="1.0" stroke-linecap="butt" clip-path="url(#id_0)" d="M220.0 276.97824L232.0 276.97824" fill-rule="nonzero"/><path stroke="#9e7f21" stroke-width="1.0" stroke-linecap="butt" clip-path="url(#id_0)" d="M245.0 234.46237L245.0 210.19301" fill-rule="nonzero"/><path stroke="#9e7f21" stroke-width="1.0" stroke-linecap="butt" clip-path="url(#id_0)" d="M239.0 234.46237L251.0 234.46237" fill-rule="nonzero"/><path stroke="#9e7f21" stroke-width="1.0" stroke-linecap="butt" clip-path="url(#id_0)" d="M239.0 210.19301L251.0 210.19301" fill-rule="nonzero"/><path stroke="#9e7f21" stroke-width="1.0" stroke-linecap="butt" clip-path="url(#id_0)" d="M264.0 264.01782L264.0 247.80904" fill-rule="nonzero"/><path stroke="#9e7f21" stroke-width="1.0" stroke-linecap="butt" clip-path="url(#id_0)" d="M258.0 264.01782L270.0 264.01782" fill-rule="nonzero"/><path stroke="#9e7f21" stroke-width="1.0" stroke-linecap="butt" clip-path="url(#id_0)" d="M258.0 247.80904L270.0 247.80904" fill-rule="nonzero"/><path stroke="#9e7f21" stroke-width="1.0" stroke-linecap="butt" clip-path="url(#id_0)" d="M283.0 288.05396L283.0 278.4005" fill-rule="nonzero"/><path stroke="#9e7f21" stroke-width="1.0" stroke-linecap="butt" clip-path="url(#id_0)" d="M277.0 288.05396L289.0 288.05396" fill-rule="nonzero"/><path stroke="#9e7f21" stroke-width="1.0" stroke-linecap="butt" clip-path="url(#id_0)" d="M277.0 278.4005L289.0 278.4005" fill-rule="nonzero"/><path stroke="#9e7f21" stroke-width="1.0" stroke-linecap="butt" clip-path="url(#id_0)" d="M302.0 289.797L302.0 280.6189" fill-rule="nonzero"/><path stroke="#9e7f21" stroke-width="1.0" stroke-linecap="butt" clip-path="url(#id_0)" d="M296.0 289.797L308.0 289.797" fill-rule="nonzero"/><path stroke="#9e7f21" stroke-width="1.0" stroke-linecap="butt" clip-path="url(#id_0)" d="M296.0 280.6189L308.0 280.6189" fill-rule="nonzero"/><path stroke="#9e7f21" stroke-width="1.0" stroke-linecap="butt" clip-path="url(#id_0)" d="M321.0 173.77579L321.0 132.95554" fill-rule="nonzero"/><path stroke="#9e7f21" stroke-width="1.0" stroke-linecap="butt" clip-path="url(#id_0)" d="M315.0 173.77579L327.0 173.77579" fill-rule="nonzero"/><path stroke="#9e7f21" stroke-width="1.0" stroke-linecap="butt" clip-path="url(#id_0)" d="M315.0 132.95554L327.0 132.95554" fill-rule="nonzero"/><path stroke="#9e7f21" stroke-width="1.0" stroke-linecap="butt" clip-path="url(#id_0)" d="M339.0 252.02194L339.0 232.54156" fill-rule="nonzero"/><path stroke="#9e7f21" stroke-width="1.0" stroke-linecap="butt" clip-path="url(#id_0)" d="M333.0 252.02194L345.0 252.02194" fill-rule="nonzero"/><path stroke="#9e7f21" stroke-width="1.0" stroke-linecap="butt" clip-path="url(#id_0)" d="M333.0 232.54156L345.0 232.54156" fill-rule="nonzero"/><path stroke="#9e7f21" stroke-width="1.0" stroke-linecap="butt" clip-path="url(#id_0)" d="M358.0 294.4936L358.0 286.59637" fill-rule="nonzero"/><path stroke="#9e7f21" stroke-width="1.0" stroke-linecap="butt" clip-path="url(#id_0)" d="M352.0 294.4936L364.0 294.4936" fill-rule="nonzero"/><path stroke="#9e7f21" stroke-width="1.0" stroke-linecap="butt" clip-path="url(#id_0)" d="M352.0 286.59637L364.0 286.59637" fill-rule="nonzero"/><path stroke="#9e7f21" stroke-width="1.0" stroke-linecap="butt" clip-path="url(#id_0)" d="M377.0 252.46805L377.0 233.10933" fill-rule="nonzero"/><path stroke="#9e7f21" stroke-width="1.0" stroke-linecap="butt" clip-path="url(#id_0)" d="M371.0 252.46805L383.0 252.46805" fill-rule="nonzero"/><path stroke="#9e7f21" stroke-width="1.0" stroke-linecap="butt" clip-path="url(#id_0)" d="M371.0 233.10933L383.0 233.10933" fill-rule="nonzero"/><path stroke="#9e7f21" stroke-width="1.0" stroke-linecap="butt" clip-path="url(#id_0)" d="M396.0 279.14325L396.0 267.0596" fill-rule="nonzero"/><path stroke="#9e7f21" stroke-width="1.0" stroke-linecap="butt" clip-path="url(#id_0)" d="M390.0 279.14325L402.0 279.14325" fill-rule="nonzero"/><path stroke="#9e7f21" stroke-width="1.0" stroke-linecap="butt" clip-path="url(#id_0)" d="M390.0 267.0596L402.0 267.0596" fill-rule="nonzero"/><path stroke="#9e7f21" stroke-width="1.0" stroke-linecap="butt" clip-path="url(#id_0)" d="M415.0 290.0104L415.0 280.8905" fill-rule="nonzero"/><path stroke="#9e7f21" stroke-width="1.0" stroke-linecap="butt" clip-path="url(#id_0)" d="M409.0 290.0104L421.0 290.0104" fill-rule="nonzero"/><path stroke="#9e7f21" stroke-width="1.0" stroke-linecap="butt" clip-path="url(#id_0)" d="M409.0 280.8905L421.0 280.8905" fill-rule="nonzero"/><path stroke="#9e7f21" stroke-width="1.0" stroke-linecap="butt" clip-path="url(#id_0)" d="M434.0 279.24973L434.0 267.1951" fill-rule="nonzero"/><path stroke="#9e7f21" stroke-width="1.0" stroke-linecap="butt" clip-path="url(#id_0)" d="M428.0 279.24973L440.0 279.24973" fill-rule="nonzero"/><path stroke="#9e7f21" stroke-width="1.0" stroke-linecap="butt" clip-path="url(#id_0)" d="M428.0 267.1951L440.0 267.1951" fill-rule="nonzero"/><path stroke="#9e7f21" stroke-width="1.0" stroke-linecap="butt" clip-path="url(#id_0)" d="M453.0 293.2205L453.0 284.97607" fill-rule="nonzero"/><path stroke="#9e7f21" stroke-width="1.0" stroke-linecap="butt" clip-path="url(#id_0)" d="M447.0 293.2205L459.0 293.2205" fill-rule="nonzero"/><path stroke="#9e7f21" stroke-width="1.0" stroke-linecap="butt" clip-path="url(#id_0)" d="M447.0 284.97607L459.0 284.97607" fill-rule="nonzero"/><path stroke="#9e7f21" stroke-width="1.0" stroke-linecap="butt" clip-path="url(#id_0)" d="M472.0 151.13899L472.0 104.14509" fill-rule="nonzero"/><path stroke="#9e7f21" stroke-width="1.0" stroke-linecap="butt" clip-path="url(#id_0)" d="M466.0 151.13899L478.0 151.13899" fill-rule="nonzero"/><path stroke="#9e7f21" stroke-width="1.0" stroke-linecap="butt" clip-path="url(#id_0)" d="M466.0 104.14509L478.0 104.14509" fill-rule="nonzero"/><path stroke="#9e7f21" stroke-width="1.0" stroke-linecap="butt" clip-path="url(#id_0)" d="M491.0 284.51834L491.0 273.9006" fill-rule="nonzero"/><path stroke="#9e7f21" stroke-width="1.0" stroke-linecap="butt" clip-path="url(#id_0)" d="M485.0 284.51834L497.0 284.51834" fill-rule="nonzero"/><path stroke="#9e7f21" stroke-width="1.0" stroke-linecap="butt" clip-path="url(#id_0)" d="M485.0 273.9006L497.0 273.9006" fill-rule="nonzero"/><path stroke="#9e7f21" stroke-width="1.0" stroke-linecap="butt" clip-path="url(#id_0)" d="M510.0 274.5633L510.0 261.23056" fill-rule="nonzero"/><path stroke="#9e7f21" stroke-width="1.0" stroke-linecap="butt" clip-path="url(#id_0)" d="M504.0 274.5633L516.0 274.5633" fill-rule="nonzero"/><path stroke="#9e7f21" stroke-width="1.0" stroke-linecap="butt" clip-path="url(#id_0)" d="M504.0 261.23056L516.0 261.23056" fill-rule="nonzero"/><path stroke="#9e7f21" stroke-width="1.0" stroke-linecap="butt" clip-path="url(#id_0)" d="M529.0 311.06488L529.0 307.68713" fill-rule="nonzero"/><path stroke="#9e7f21" stroke-width="1.0" stroke-linecap="butt" clip-path="url(#id_0)" d="M523.0 311.06488L535.0 311.06488" fill-rule="nonzero"/><path stroke="#9e7f21" stroke-width="1.0" stroke-linecap="butt" clip-path="url(#id_0)" d="M523.0 307.68713L535.0 307.68713" fill-rule="nonzero"/><path stroke="#9e7f21" stroke-width="1.0" stroke-linecap="butt" clip-path="url(#id_0)" d="M548.0 282.4708L548.0 271.29465" fill-rule="nonzero"/><path stroke="#9e7f21" stroke-width="1.0" stroke-linecap="butt" clip-path="url(#id_0)" d="M542.0 282.4708L554.0 282.4708" fill-rule="nonzero"/><path stroke="#9e7f21" stroke-width="1.0" stroke-linecap="butt" clip-path="url(#id_0)" d="M542.0 271.29465L554.0 271.29465" fill-rule="nonzero"/><path stroke="#9e7f21" stroke-width="1.0" stroke-linecap="butt" clip-path="url(#id_0)" d="M567.0 268.3643L567.0 253.3409" fill-rule="nonzero"/><path stroke="#9e7f21" stroke-width="1.0" stroke-linecap="butt" clip-path="url(#id_0)" d="M561.0 268.3643L573.0 268.3643" fill-rule="nonzero"/><path stroke="#9e7f21" stroke-width="1.0" stroke-linecap="butt" clip-path="url(#id_0)" d="M561.0 253.3409L573.0 253.3409" fill-rule="nonzero"/><path fill="#757575" d="M56.628124 324.7625L53.76875 324.7625L53.76875 323.8875L56.628124 323.8875L56.628124 324.7625Z" fill-rule="nonzero"/><path fill="#757575" d="M39.846874 260.44168L34.253124 260.44168L34.253124 259.66043L37.20625 256.37918Q37.8625 255.62918 38.1125 255.17606Q38.3625 254.7073 38.3625 254.2073Q38.3625 253.53543 37.95625 253.11356Q37.565624 252.67606 36.878124 252.67606Q36.08125 252.67606 35.628124 253.1448Q35.175 253.59793 35.175 254.42606L34.096874 254.42606Q34.096874 253.23856 34.846874 252.5198Q35.6125 251.78543 36.878124 251.78543Q38.08125 251.78543 38.76875 252.41043Q39.45625 253.03543 39.45625 254.0823Q39.45625 255.3323 37.846874 257.0823L35.565624 259.55106L39.846874 259.55106L39.846874 260.44168ZM46.6125 256.80106Q46.6125 258.7073 45.95625 259.6448Q45.315624 260.56668 43.925 260.56668Q42.565624 260.56668 41.909374 259.66043Q41.253124 258.75418 41.221874 256.94168L41.221874 255.50418Q41.221874 253.61356 41.8625 252.7073Q42.51875 251.78543 43.909374 251.78543Q45.284374 251.78543 45.940624 252.67606Q46.596874 253.55106 46.6125 255.3948L46.6125 256.80106ZM45.51875 255.31668Q45.51875 253.94168 45.128124 253.31668Q44.753124 252.67606 43.909374 252.67606Q43.08125 252.67606 42.690624 253.31668Q42.315624 253.94168 42.315624 255.23856L42.315624 256.97293Q42.315624 258.34793 42.70625 259.0198Q43.1125 259.67606 43.925 259.67606Q44.721874 259.67606 45.1125 259.05106Q45.503124 258.42606 45.51875 257.09793L45.51875 255.31668ZM48.33125 262.1448L47.721874 261.72293Q48.26875 260.9573 48.3 260.12918L48.3 259.16043L49.3625 259.16043L49.3625 260.00418Q49.3625 260.59793 49.065624 261.19168Q48.76875 261.78543 48.33125 262.1448ZM55.6125 256.80106Q55.6125 258.7073 54.95625 259.6448Q54.315624 260.56668 52.925 260.56668Q51.565624 260.56668 50.909374 259.66043Q50.253124 258.75418 50.221874 256.94168L50.221874 255.50418Q50.221874 253.61356 50.8625 252.7073Q51.51875 251.78543 52.909374 251.78543Q54.284374 251.78543 54.940624 252.67606Q55.596874 253.55106 55.6125 255.3948L55.6125 256.80106ZM54.51875 255.31668Q54.51875 253.94168 54.128124 253.31668Q53.753124 252.67606 52.909374 252.67606Q52.08125 252.67606 51.690624 253.31668Q51.315624 253.94168 51.315624 255.23856L51.315624 256.97293Q51.315624 258.34793 51.70625 259.0198Q52.1125 259.67606 52.925 259.67606Q53.721874 259.67606 54.1125 259.05106Q54.503124 258.42606 54.51875 257.09793L54.51875 255.31668Z" fill-rule="nonzero"/><path fill="#757575" d="M38.83125 190.07396L40.01875 190.07396L40.01875 190.94896L38.83125 190.94896L38.83125 192.93333L37.753124 192.93333L37.753124 190.94896L33.8625 190.94896L33.8625 190.30833L37.675 184.40208L38.83125 184.40208L38.83125 190.07396ZM35.096874 190.07396L37.753124 190.07396L37.753124 185.88646L37.6125 186.12083L35.096874 190.07396ZM46.6125 189.29271Q46.6125 191.19896 45.95625 192.13646Q45.315624 193.05833 43.925 193.05833Q42.565624 193.05833 41.909374 192.15208Q41.253124 191.24583 41.221874 189.43333L41.221874 187.99583Q41.221874 186.10521 41.8625 185.19896Q42.51875 184.27708 43.909374 184.27708Q45.284374 184.27708 45.940624 185.16771Q46.596874 186.04271 46.6125 187.88646L46.6125 189.29271ZM45.51875 187.80833Q45.51875 186.43333 45.128124 185.80833Q44.753124 185.16771 43.909374 185.16771Q43.08125 185.16771 42.690624 185.80833Q42.315624 186.43333 42.315624 187.73021L42.315624 189.46458Q42.315624 190.83958 42.70625 191.51146Q43.1125 192.16771 43.925 192.16771Q44.721874 192.16771 45.1125 191.54271Q45.503124 190.91771 45.51875 189.58958L45.51875 187.80833ZM48.33125 194.63646L47.721874 194.21458Q48.26875 193.44896 48.3 192.62083L48.3 191.65208L49.3625 191.65208L49.3625 192.49583Q49.3625 193.08958 49.065624 193.68333Q48.76875 194.27708 48.33125 194.63646ZM55.6125 189.29271Q55.6125 191.19896 54.95625 192.13646Q54.315624 193.05833 52.925 193.05833Q51.565624 193.05833 50.909374 192.15208Q50.253124 191.24583 50.221874 189.43333L50.221874 187.99583Q50.221874 186.10521 50.8625 185.19896Q51.51875 184.27708 52.909374 184.27708Q54.284374 184.27708 54.940624 185.16771Q55.596874 186.04271 55.6125 187.88646L55.6125 189.29271ZM54.51875 187.80833Q54.51875 186.43333 54.128124 185.80833Q53.753124 185.16771 52.909374 185.16771Q52.08125 185.16771 51.690624 185.80833Q51.315624 186.43333 51.315624 187.73021L51.315624 189.46458Q51.315624 190.83958 51.70625 191.51146Q52.1125 192.16771 52.925 192.16771Q53.721874 192.16771 54.1125 191.54271Q54.503124 190.91771 54.51875 189.58958L54.51875 187.80833Z" fill-rule="nonzero"/><path fill="#757575" d="M38.51875 116.89375L38.51875 117.8L38.315624 117.8Q37.05 117.83125 36.3 118.56563Q35.55 119.28438 35.425 120.59688Q36.1125 119.83125 37.26875 119.83125Q38.378124 119.83125 39.05 120.6125Q39.721874 121.39375 39.721874 122.64375Q39.721874 123.95625 39.003124 124.75313Q38.284374 125.55 37.065624 125.55Q35.846874 125.55 35.08125 124.6125Q34.33125 123.65938 34.33125 122.175L34.33125 121.76875Q34.33125 119.40938 35.33125 118.15938Q36.33125 116.90938 38.315624 116.89375L38.51875 116.89375ZM37.096874 120.7375Q36.534374 120.7375 36.065624 121.06563Q35.596874 121.39375 35.409374 121.90938L35.409374 122.3Q35.409374 123.3625 35.878124 124.00313Q36.3625 124.64375 37.065624 124.64375Q37.8 124.64375 38.221874 124.1125Q38.64375 123.56563 38.64375 122.69063Q38.64375 121.81563 38.221874 121.28438Q37.8 120.7375 37.096874 120.7375ZM46.6125 121.78438Q46.6125 123.69063 45.95625 124.62813Q45.315624 125.55 43.925 125.55Q42.565624 125.55 41.909374 124.64375Q41.253124 123.7375 41.221874 121.925L41.221874 120.4875Q41.221874 118.59688 41.8625 117.69063Q42.51875 116.76875 43.909374 116.76875Q45.284374 116.76875 45.940624 117.65938Q46.596874 118.53438 46.6125 120.37813L46.6125 121.78438ZM45.51875 120.3Q45.51875 118.925 45.128124 118.3Q44.753124 117.65938 43.909374 117.65938Q43.08125 117.65938 42.690624 118.3Q42.315624 118.925 42.315624 120.22188L42.315624 121.95625Q42.315624 123.33125 42.70625 124.00313Q43.1125 124.65938 43.925 124.65938Q44.721874 124.65938 45.1125 124.03438Q45.503124 123.40938 45.51875 122.08125L45.51875 120.3ZM48.33125 127.12813L47.721874 126.70625Q48.26875 125.94063 48.3 125.1125L48.3 124.14375L49.3625 124.14375L49.3625 124.9875Q49.3625 125.58125 49.065624 126.175Q48.76875 126.76875 48.33125 127.12813ZM55.6125 121.78438Q55.6125 123.69063 54.95625 124.62813Q54.315624 125.55 52.925 125.55Q51.565624 125.55 50.909374 124.64375Q50.253124 123.7375 50.221874 121.925L50.221874 120.4875Q50.221874 118.59688 50.8625 117.69063Q51.51875 116.76875 52.909374 116.76875Q54.284374 116.76875 54.940624 117.65938Q55.596874 118.53438 55.6125 120.37813L55.6125 121.78438ZM54.51875 120.3Q54.51875 118.925 54.128124 118.3Q53.753124 117.65938 52.909374 117.65938Q52.08125 117.65938 51.690624 118.3Q51.315624 118.925 51.315624 120.22188L51.315624 121.95625Q51.315624 123.33125 51.70625 124.00313Q52.1125 124.65938 52.925 124.65938Q53.721874 124.65938 54.1125 124.03438Q54.503124 123.40938 54.51875 122.08125L54.51875 120.3Z" fill-rule="nonzero"/><path fill="#757575" d="M39.440624 51.604168Q39.440624 52.244793 39.096874 52.744793Q38.753124 53.244793 38.190624 53.526043Q38.846874 53.807293 39.2375 54.369793Q39.628124 54.916668 39.628124 55.619793Q39.628124 56.713543 38.878124 57.385418Q38.14375 58.041668 36.925 58.041668Q35.690624 58.041668 34.940624 57.385418Q34.20625 56.713543 34.20625 55.619793Q34.20625 54.916668 34.58125 54.369793Q34.95625 53.807293 35.628124 53.526043Q35.065624 53.244793 34.7375 52.744793Q34.409374 52.244793 34.409374 51.604168Q34.409374 50.526043 35.096874 49.901043Q35.784374 49.260418 36.925 49.260418Q38.05 49.260418 38.7375 49.901043Q39.440624 50.526043 39.440624 51.604168ZM38.55 55.588543Q38.55 54.869793 38.096874 54.432293Q37.64375 53.979168 36.909374 53.979168Q36.175 53.979168 35.721874 54.432293Q35.284374 54.869793 35.284374 55.604168Q35.284374 56.322918 35.721874 56.744793Q36.159374 57.151043 36.925 57.151043Q37.675 57.151043 38.1125 56.729168Q38.55 56.307293 38.55 55.588543ZM36.925 50.151043Q36.284374 50.151043 35.878124 50.557293Q35.4875 50.947918 35.4875 51.635418Q35.4875 52.276043 35.878124 52.682293Q36.26875 53.088543 36.909374 53.088543Q37.565624 53.088543 37.95625 52.682293Q38.346874 52.276043 38.346874 51.635418Q38.346874 50.979168 37.940624 50.572918Q37.534374 50.151043 36.925 50.151043ZM46.6125 54.276043Q46.6125 56.182293 45.95625 57.119793Q45.315624 58.041668 43.925 58.041668Q42.565624 58.041668 41.909374 57.135418Q41.253124 56.229168 41.221874 54.416668L41.221874 52.979168Q41.221874 51.088543 41.8625 50.182293Q42.51875 49.260418 43.909374 49.260418Q45.284374 49.260418 45.940624 50.151043Q46.596874 51.026043 46.6125 52.869793L46.6125 54.276043ZM45.51875 52.791668Q45.51875 51.416668 45.128124 50.791668Q44.753124 50.151043 43.909374 50.151043Q43.08125 50.151043 42.690624 50.791668Q42.315624 51.416668 42.315624 52.713543L42.315624 54.447918Q42.315624 55.822918 42.70625 56.494793Q43.1125 57.151043 43.925 57.151043Q44.721874 57.151043 45.1125 56.526043Q45.503124 55.901043 45.51875 54.572918L45.51875 52.791668ZM48.33125 59.619793L47.721874 59.197918Q48.26875 58.432293 48.3 57.604168L48.3 56.635418L49.3625 56.635418L49.3625 57.479168Q49.3625 58.072918 49.065624 58.666668Q48.76875 59.260418 48.33125 59.619793ZM55.6125 54.276043Q55.6125 56.182293 54.95625 57.119793Q54.315624 58.041668 52.925 58.041668Q51.565624 58.041668 50.909374 57.135418Q50.253124 56.229168 50.221874 54.416668L50.221874 52.979168Q50.221874 51.088543 50.8625 50.182293Q51.51875 49.260418 52.909374 49.260418Q54.284374 49.260418 54.940624 50.151043Q55.596874 51.026043 55.6125 52.869793L55.6125 54.276043ZM54.51875 52.791668Q54.51875 51.416668 54.128124 50.791668Q53.753124 50.151043 52.909374 50.151043Q52.08125 50.151043 51.690624 50.791668Q51.315624 51.416668 51.315624 52.713543L51.315624 54.447918Q51.315624 55.822918 51.70625 56.494793Q52.1125 57.151043 52.925 57.151043Q53.721874 57.151043 54.1125 56.526043Q54.503124 55.901043 54.51875 54.572918L54.51875 52.791668Z" fill-rule="nonzero"/><path fill="#757575" d="M76.12212 344.7469L76.12212 348.325L78.3565 349.1219L78.3565 350.27814L69.82525 347.02814L69.82525 346.04376L78.3565 342.77814L78.3565 343.9344L76.12212 344.7469ZM75.20025 347.98126L75.20025 345.075L71.21587 346.52814L75.20025 347.98126ZM75.65337 335.1844Q76.99712 335.34064 77.74712 336.1844Q78.4815 337.02814 78.4815 338.41876Q78.4815 339.9344 77.40337 340.84064Q76.30962 341.7469 74.4815 341.7469L73.669 341.7469Q72.4815 341.7469 71.57525 341.325Q70.669 340.90314 70.18462 340.1219Q69.70025 339.34064 69.70025 338.325Q69.70025 336.96564 70.46587 336.15314Q71.2315 335.325 72.55962 335.1844L72.55962 336.3094Q71.544 336.46564 71.09087 336.95Q70.63775 337.4344 70.63775 338.325Q70.63775 339.40314 71.43462 340.0125Q72.2315 340.6219 73.70025 340.6219L74.52837 340.6219Q75.919 340.6219 76.74712 340.04376Q77.55962 339.46564 77.55962 338.41876Q77.55962 337.48126 77.13775 336.98126Q76.70025 336.48126 75.65337 336.3094L75.65337 335.1844Z" fill-rule="nonzero"/><path fill="#757575" d="M95.0947 342.7469L95.0947 346.325L97.32908 347.1219L97.32908 348.27814L88.79783 345.02814L88.79783 344.04376L97.32908 340.77814L97.32908 341.9344L95.0947 342.7469ZM94.17283 345.98126L94.17283 343.075L90.18845 344.52814L94.17283 345.98126ZM96.4072 338.325L96.4072 334.27814L97.32908 334.27814L97.32908 339.46564L88.79783 339.46564L88.79783 338.325L96.4072 338.325Z" fill-rule="nonzero"/><path fill="#757575" d="M114.06728 344.74686L114.06728 348.32498L116.30166 349.12186L116.30166 350.2781L107.77041 347.0281L107.77041 346.04373L116.30166 342.7781L116.30166 343.93436L114.06728 344.74686ZM113.14541 347.98123L113.14541 345.07498L109.16103 346.5281L113.14541 347.98123ZM112.95791 340.3406L116.30166 340.3406L116.30166 341.4656L107.77041 341.4656L107.77041 338.30936Q107.77041 336.91873 108.48916 336.12186Q109.19228 335.32498 110.37978 335.32498Q111.61416 335.32498 112.28603 336.10623Q112.95791 336.87186 112.95791 338.32498L112.95791 340.3406ZM112.03603 340.3406L112.03603 338.30936Q112.03603 337.4031 111.61416 336.93436Q111.19228 336.44998 110.39541 336.44998Q109.62978 336.44998 109.17666 336.93436Q108.70791 337.4031 108.69228 338.24686L108.69228 340.3406L112.03603 340.3406Z" fill-rule="nonzero"/><path fill="#757575" d="M133.03986 346.74686L133.03986 350.32498L135.27423 351.12186L135.27423 352.2781L126.74298 349.0281L126.74298 348.04373L135.27423 344.7781L135.27423 345.93436L133.03986 346.74686ZM132.11798 349.98123L132.11798 347.07498L128.1336 348.5281L132.11798 349.98123ZM126.74298 342.01248L133.6961 339.2156L126.74298 336.43436L126.74298 334.9656L135.27423 334.9656L135.27423 336.0906L131.9461 336.0906L128.36798 335.98123L135.27423 338.79373L135.27423 339.6531L128.3836 342.44998L131.9461 342.3406L135.27423 342.3406L135.27423 343.4656L126.74298 343.4656L126.74298 342.01248Z" fill-rule="nonzero"/><path fill="#757575" d="M154.24681 348.46564L145.71556 348.46564L145.71556 345.66876Q145.71556 344.27814 146.29369 343.59064Q146.85619 342.8875 147.98119 342.8875Q148.59056 342.8875 149.05931 343.23126Q149.51244 343.5594 149.76244 344.15314Q149.94994 343.45 150.49681 343.0594Q151.02806 342.65314 151.77806 342.65314Q152.93431 342.65314 153.59056 343.40314Q154.24681 344.1375 154.24681 345.4969L154.24681 348.46564ZM150.26244 347.34064L153.32494 347.34064L153.32494 345.48126Q153.32494 344.6844 152.91869 344.23126Q152.51244 343.77814 151.79369 343.77814Q150.26244 343.77814 150.26244 345.46564L150.26244 347.34064ZM149.35619 347.34064L149.35619 345.6375Q149.35619 344.90314 148.99681 344.46564Q148.62181 344.0125 147.98119 344.0125Q147.27806 344.0125 146.96556 344.41876Q146.63744 344.825 146.63744 345.66876L146.63744 347.34064L149.35619 347.34064ZM152.01244 336.7469L152.01244 340.325L154.24681 341.1219L154.24681 342.27814L145.71556 339.02814L145.71556 338.04376L154.24681 334.77814L154.24681 335.9344L152.01244 336.7469ZM151.09056 339.98126L151.09056 337.075L147.10619 338.52814L151.09056 339.98126Z" fill-rule="nonzero"/><path fill="#757575" d="M170.51627 342.1844Q171.86002 342.34064 172.61002 343.1844Q173.34439 344.02814 173.34439 345.41876Q173.34439 346.9344 172.26627 347.84064Q171.17252 348.7469 169.34439 348.7469L168.53189 348.7469Q167.34439 348.7469 166.43814 348.325Q165.53189 347.90314 165.04752 347.1219Q164.56314 346.34064 164.56314 345.325Q164.56314 343.96564 165.32877 343.15314Q166.09439 342.325 167.42252 342.1844L167.42252 343.3094Q166.40689 343.46564 165.95377 343.95Q165.50064 344.4344 165.50064 345.325Q165.50064 346.40314 166.29752 347.0125Q167.09439 347.6219 168.56314 347.6219L169.39127 347.6219Q170.78189 347.6219 171.61002 347.04376Q172.42252 346.46564 172.42252 345.41876Q172.42252 344.48126 172.00064 343.98126Q171.56314 343.48126 170.51627 343.3094L170.51627 342.1844ZM169.28189 335.6375L169.28189 339.34064L172.29752 339.34064L172.29752 335.04376L173.21939 335.04376L173.21939 340.46564L164.68814 340.46564L164.68814 335.09064L165.61002 335.09064L165.61002 339.34064L168.36002 339.34064L168.36002 335.6375L169.28189 335.6375Z" fill-rule="nonzero"/><path fill="#757575" d="M192.19197 348.46564L183.66072 348.46564L183.66072 346.04376Q183.66072 344.9344 184.16072 344.09064Q184.6451 343.23126 185.55135 342.7625Q186.4576 342.29376 187.6451 342.29376L188.17635 342.29376Q189.3951 342.29376 190.30135 342.7625Q191.2076 343.21564 191.69197 344.09064Q192.17635 344.95 192.19197 346.09064L192.19197 348.46564ZM184.5826 347.34064L191.2701 347.34064L191.2701 346.15314Q191.2701 344.85626 190.47322 344.1375Q189.66072 343.40314 188.16072 343.40314L187.66072 343.40314Q186.2076 343.40314 185.41072 344.09064Q184.59822 344.7625 184.5826 346.02814L184.5826 347.34064ZM188.42635 335.7469L188.42635 339.34064L192.19197 339.34064L192.19197 340.46564L183.66072 340.46564L183.66072 335.16876L184.5826 335.16876L184.5826 339.34064L187.50447 339.34064L187.50447 335.7469L188.42635 335.7469Z" fill-rule="nonzero"/><path fill="#757575" d="M207.22705 342.63748L207.22705 346.3406L210.24268 346.3406L210.24268 342.04373L211.16455 342.04373L211.16455 347.4656L202.6333 347.4656L202.6333 342.0906L203.55518 342.0906L203.55518 346.3406L206.30518 346.3406L206.30518 342.63748L207.22705 342.63748ZM207.36768 337.94998Q206.9458 339.38748 206.33643 340.05936Q205.72705 340.7156 204.83643 340.7156Q203.83643 340.7156 203.18018 339.91873Q202.5083 339.10623 202.5083 337.80936Q202.5083 336.93436 202.85205 336.24686Q203.1958 335.55936 203.78955 335.18436Q204.3833 334.79373 205.10205 334.79373L205.10205 335.93436Q204.3208 335.93436 203.8833 336.43436Q203.4458 336.91873 203.4458 337.80936Q203.4458 338.63748 203.8208 339.10623Q204.18018 339.57498 204.8208 339.57498Q205.35205 339.57498 205.71143 339.13748Q206.0708 338.68436 206.36768 337.62186Q206.66455 336.55936 207.02393 335.9656Q207.3833 335.35623 207.86768 335.07498Q208.35205 334.7781 208.99268 334.7781Q210.03955 334.7781 210.66455 335.5906Q211.28955 336.4031 211.28955 337.74686Q211.28955 338.63748 210.9458 339.4031Q210.60205 340.1531 210.02393 340.57498Q209.43018 340.98123 208.6958 340.98123L208.6958 339.85623Q209.46143 339.85623 209.91455 339.2781Q210.36768 338.69998 210.36768 337.74686Q210.36768 336.85623 210.0083 336.38748Q209.6333 335.91873 209.0083 335.91873Q208.3833 335.91873 208.03955 336.35623Q207.6958 336.79373 207.36768 337.94998Z" fill-rule="nonzero"/><path fill="#757575" d="M229.01212 343.15314Q229.63712 343.59064 229.94962 344.3719Q230.26212 345.15314 230.26212 346.1844Q230.26212 347.21564 229.77774 348.02814Q229.27774 348.84064 228.37149 349.27814Q227.46524 349.71564 226.27774 349.73126L225.54337 349.73126Q223.60587 349.73126 222.54337 348.84064Q221.48087 347.9344 221.48087 346.3094Q221.48087 344.96564 222.16837 344.15314Q222.85587 343.34064 224.10587 343.15314L224.10587 344.27814Q222.41837 344.60626 222.41837 346.29376Q222.41837 347.4344 223.21524 348.0125Q223.99649 348.59064 225.51212 348.60626L226.19962 348.60626Q227.63712 348.60626 228.49649 347.95Q229.34024 347.29376 229.34024 346.16876Q229.34024 345.54376 229.19962 345.075Q229.05899 344.59064 228.71524 344.27814L226.80899 344.27814L226.80899 346.2469L225.88712 346.2469L225.88712 343.15314L229.01212 343.15314ZM226.15274 334.90314Q227.40274 334.90314 228.34024 335.325Q229.26212 335.7469 229.76212 336.52814Q230.26212 337.29376 230.26212 338.325Q230.26212 339.325 229.76212 340.10626Q229.26212 340.8875 228.35587 341.325Q227.43399 341.7469 226.21524 341.7625L225.60587 341.7625Q224.37149 341.7625 223.43399 341.34064Q222.49649 340.90314 221.99649 340.1219Q221.48087 339.34064 221.48087 338.325Q221.48087 337.3094 221.98087 336.52814Q222.48087 335.7469 223.41837 335.325Q224.35587 334.90314 225.60587 334.90314L226.15274 334.90314ZM225.59024 336.0125Q224.07462 336.0125 223.26212 336.6219Q222.44962 337.23126 222.44962 338.325Q222.44962 339.40314 223.26212 340.0125Q224.07462 340.6219 225.51212 340.6375L226.15274 340.6375Q227.62149 340.6375 228.46524 340.02814Q229.29337 339.40314 229.29337 338.325Q229.29337 337.23126 228.51212 336.6375Q227.71524 336.02814 226.23087 336.0125L225.59024 336.0125Z" fill-rule="nonzero"/><path fill="#757575" d="M240.57845 350.0125L247.53157 347.21564L240.57845 344.4344L240.57845 342.96564L249.1097 342.96564L249.1097 344.09064L245.78157 344.09064L242.20345 343.98126L249.1097 346.79376L249.1097 347.65314L242.21907 350.45L245.78157 350.34064L249.1097 350.34064L249.1097 351.46564L240.57845 351.46564L240.57845 350.0125ZM246.87532 336.7469L246.87532 340.325L249.1097 341.1219L249.1097 342.27814L240.57845 339.02814L240.57845 338.04376L249.1097 334.77814L249.1097 335.9344L246.87532 336.7469ZM245.95345 339.98126L245.95345 337.075L241.96907 338.52814L245.95345 339.98126Z" fill-rule="nonzero"/><path fill="#757575" d="M259.55103 349.01248L266.50415 346.2156L259.55103 343.43436L259.55103 341.9656L268.08228 341.9656L268.08228 343.0906L264.75415 343.0906L261.17603 342.98123L268.08228 345.79373L268.08228 346.6531L261.19165 349.44998L264.75415 349.3406L268.08228 349.3406L268.08228 350.4656L259.55103 350.4656L259.55103 349.01248ZM260.4729 334.55936L260.4729 337.30936L268.08228 337.30936L268.08228 338.41873L260.4729 338.41873L260.4729 341.16873L259.55103 341.16873L259.55103 334.55936L260.4729 334.55936Z" fill-rule="nonzero"/><path fill="#757575" d="M278.5236 349.0125L285.4767 346.21564L278.5236 343.4344L278.5236 341.96564L287.05484 341.96564L287.05484 343.09064L283.7267 343.09064L280.1486 342.98126L287.05484 345.79376L287.05484 346.65314L280.1642 349.45L283.7267 349.34064L287.05484 349.34064L287.05484 350.46564L278.5236 350.46564L278.5236 349.0125ZM283.25797 337.95Q282.8361 339.3875 282.2267 340.0594Q281.61734 340.71564 280.7267 340.71564Q279.7267 340.71564 279.07047 339.91876Q278.3986 339.10626 278.3986 337.8094Q278.3986 336.9344 278.74234 336.2469Q279.0861 335.5594 279.67984 335.1844Q280.2736 334.79376 280.99234 334.79376L280.99234 335.9344Q280.2111 335.9344 279.7736 336.4344Q279.3361 336.91876 279.3361 337.8094Q279.3361 338.6375 279.7111 339.10626Q280.07047 339.575 280.7111 339.575Q281.24234 339.575 281.6017 339.1375Q281.9611 338.6844 282.25797 337.6219Q282.55484 336.5594 282.9142 335.96564Q283.2736 335.35626 283.75797 335.075Q284.24234 334.77814 284.88297 334.77814Q285.92984 334.77814 286.55484 335.59064Q287.17984 336.40314 287.17984 337.7469Q287.17984 338.6375 286.8361 339.40314Q286.49234 340.15314 285.9142 340.575Q285.32047 340.98126 284.5861 340.98126L284.5861 339.85626Q285.3517 339.85626 285.80484 339.27814Q286.25797 338.7 286.25797 337.7469Q286.25797 336.85626 285.8986 336.3875Q285.5236 335.91876 284.8986 335.91876Q284.2736 335.91876 283.92984 336.35626Q283.5861 336.79376 283.25797 337.95Z" fill-rule="nonzero"/><path fill="#757575" d="M297.4962 350.01248L304.4493 347.2156L297.4962 344.43436L297.4962 342.9656L306.02744 342.9656L306.02744 344.0906L302.6993 344.0906L299.1212 343.98123L306.02744 346.79373L306.02744 347.6531L299.1368 350.44998L302.6993 350.3406L306.02744 350.3406L306.02744 351.4656L297.4962 351.4656L297.4962 350.01248ZM304.90244 335.1531Q305.52744 335.5906 305.83994 336.37186Q306.15244 337.1531 306.15244 338.18436Q306.15244 339.2156 305.66806 340.0281Q305.16806 340.8406 304.2618 341.2781Q303.35556 341.7156 302.16806 341.73123L301.4337 341.73123Q299.4962 341.73123 298.4337 340.8406Q297.3712 339.93436 297.3712 338.30936Q297.3712 336.9656 298.0587 336.1531Q298.7462 335.3406 299.9962 335.1531L299.9962 336.2781Q298.3087 336.60623 298.3087 338.29373Q298.3087 339.43436 299.10556 340.01248Q299.8868 340.5906 301.40244 340.60623L302.08994 340.60623Q303.52744 340.60623 304.3868 339.94998Q305.23056 339.29373 305.23056 338.16873Q305.23056 337.54373 305.08994 337.07498Q304.9493 336.5906 304.60556 336.2781L302.6993 336.2781L302.6993 338.24686L301.77744 338.24686L301.77744 335.1531L304.90244 335.1531Z" fill-rule="nonzero"/><path fill="#757575" d="M321.65625 348.34064L325.0 348.34064L325.0 349.46564L316.46875 349.46564L316.46875 346.3094Q316.46875 344.91876 317.1875 344.1219Q317.89062 343.325 319.07812 343.325Q320.3125 343.325 320.98438 344.10626Q321.65625 344.8719 321.65625 346.325L321.65625 348.34064ZM320.73438 348.34064L320.73438 346.3094Q320.73438 345.40314 320.3125 344.9344Q319.89062 344.45 319.09375 344.45Q318.32812 344.45 317.875 344.9344Q317.40625 345.40314 317.39062 346.2469L317.39062 348.34064L320.73438 348.34064ZM322.76562 336.7469L322.76562 340.325L325.0 341.1219L325.0 342.27814L316.46875 339.02814L316.46875 338.04376L325.0 334.77814L325.0 335.9344L322.76562 336.7469ZM321.84375 339.98126L321.84375 337.075L317.85938 338.52814L321.84375 339.98126Z" fill-rule="nonzero"/><path fill="#757575" d="M340.62885 347.34064L343.9726 347.34064L343.9726 348.46564L335.44135 348.46564L335.44135 345.3094Q335.44135 343.91876 336.1601 343.1219Q336.86322 342.325 338.05072 342.325Q339.2851 342.325 339.95697 343.10626Q340.62885 343.8719 340.62885 345.325L340.62885 347.34064ZM339.70697 347.34064L339.70697 345.3094Q339.70697 344.40314 339.2851 343.9344Q338.86322 343.45 338.06635 343.45Q337.30072 343.45 336.8476 343.9344Q336.37885 344.40314 336.36322 345.2469L336.36322 347.34064L339.70697 347.34064ZM343.9726 340.46564L335.44135 340.46564L335.44135 337.66876Q335.44135 336.27814 336.01947 335.59064Q336.58197 334.8875 337.70697 334.8875Q338.31635 334.8875 338.7851 335.23126Q339.23822 335.5594 339.48822 336.15314Q339.67572 335.45 340.2226 335.0594Q340.75385 334.65314 341.50385 334.65314Q342.6601 334.65314 343.31635 335.40314Q343.9726 336.1375 343.9726 337.4969L343.9726 340.46564ZM339.98822 339.34064L343.05072 339.34064L343.05072 337.48126Q343.05072 336.6844 342.64447 336.23126Q342.23822 335.77814 341.51947 335.77814Q339.98822 335.77814 339.98822 337.46564L339.98822 339.34064ZM339.08197 339.34064L339.08197 337.6375Q339.08197 336.90314 338.7226 336.46564Q338.3476 336.0125 337.70697 336.0125Q337.00385 336.0125 336.69135 336.41876Q336.36322 336.825 336.36322 337.66876L336.36322 339.34064L339.08197 339.34064Z" fill-rule="nonzero"/><path fill="#757575" d="M359.6014 347.34064L362.94516 347.34064L362.94516 348.46564L354.4139 348.46564L354.4139 345.3094Q354.4139 343.91876 355.13266 343.1219Q355.8358 342.325 357.0233 342.325Q358.25766 342.325 358.92953 343.10626Q359.6014 343.8719 359.6014 345.325L359.6014 347.34064ZM358.67953 347.34064L358.67953 345.3094Q358.67953 344.40314 358.25766 343.9344Q357.8358 343.45 357.0389 343.45Q356.2733 343.45 355.82016 343.9344Q355.3514 344.40314 355.3358 345.2469L355.3358 347.34064L358.67953 347.34064ZM359.49203 337.325L359.49203 339.34064L362.94516 339.34064L362.94516 340.46564L354.4139 340.46564L354.4139 337.6375Q354.4139 336.2 355.07016 335.4344Q355.7264 334.65314 356.9764 334.65314Q357.7733 334.65314 358.36703 335.09064Q358.9608 335.5125 359.25766 336.27814L362.86703 334.27814L362.94516 334.27814L362.94516 335.48126L359.49203 337.325ZM358.57016 339.34064L358.57016 337.60626Q358.57016 336.7625 358.1483 336.27814Q357.7108 335.77814 356.9764 335.77814Q356.19516 335.77814 355.7733 336.2469Q355.3514 336.71564 355.3358 337.60626L355.3358 339.34064L358.57016 339.34064Z" fill-rule="nonzero"/><path fill="#757575" d="M378.574 347.34064L381.91776 347.34064L381.91776 348.46564L373.3865 348.46564L373.3865 345.3094Q373.3865 343.91876 374.10526 343.1219Q374.80838 342.325 375.99588 342.325Q377.23026 342.325 377.90213 343.10626Q378.574 343.8719 378.574 345.325L378.574 347.34064ZM377.65213 347.34064L377.65213 345.3094Q377.65213 344.40314 377.23026 343.9344Q376.80838 343.45 376.0115 343.45Q375.24588 343.45 374.79276 343.9344Q374.324 344.40314 374.30838 345.2469L374.30838 347.34064L377.65213 347.34064ZM377.98026 335.6375L377.98026 339.34064L380.99588 339.34064L380.99588 335.04376L381.91776 335.04376L381.91776 340.46564L373.3865 340.46564L373.3865 335.09064L374.30838 335.09064L374.30838 339.34064L377.05838 339.34064L377.05838 335.6375L377.98026 335.6375Z" fill-rule="nonzero"/><path fill="#757575" d="M397.54657 343.3406L400.89032 343.3406L400.89032 344.4656L392.35907 344.4656L392.35907 341.30936Q392.35907 339.91873 393.07782 339.12186Q393.78094 338.32498 394.96844 338.32498Q396.20282 338.32498 396.8747 339.10623Q397.54657 339.87186 397.54657 341.32498L397.54657 343.3406ZM396.6247 343.3406L396.6247 341.30936Q396.6247 340.4031 396.20282 339.93436Q395.78094 339.44998 394.98407 339.44998Q394.21844 339.44998 393.76532 339.93436Q393.29657 340.4031 393.28094 341.24686L393.28094 343.3406L396.6247 343.3406ZM400.89032 335.24686L400.89032 336.37186L392.35907 336.37186L392.35907 335.24686L400.89032 335.24686Z" fill-rule="nonzero"/><path fill="#757575" d="M416.40976 344.325L416.40976 346.34064L419.86288 346.34064L419.86288 347.46564L411.33163 347.46564L411.33163 344.6375Q411.33163 343.2 411.98788 342.4344Q412.64413 341.65314 413.89413 341.65314Q414.691 341.65314 415.28476 342.09064Q415.8785 342.5125 416.17538 343.27814L419.78476 341.27814L419.86288 341.27814L419.86288 342.48126L416.40976 344.325ZM415.48788 346.34064L415.48788 344.60626Q415.48788 343.7625 415.066 343.27814Q414.6285 342.77814 413.89413 342.77814Q413.11288 342.77814 412.691 343.2469Q412.26913 343.71564 412.2535 344.60626L412.2535 346.34064L415.48788 346.34064ZM411.33163 336.8875L411.33163 335.7469L417.3785 335.7469Q418.59726 335.7469 419.30038 336.4969Q419.98788 337.23126 419.98788 338.45Q419.98788 339.71564 419.33163 340.4344Q418.67538 341.1375 417.5035 341.1375L417.5035 340.0125Q418.23788 340.0125 418.65976 339.6219Q419.066 339.21564 419.066 338.45Q419.066 337.7469 418.6285 337.325Q418.17538 336.8875 417.39413 336.8875L411.33163 336.8875Z" fill-rule="nonzero"/><path fill="#757575" d="M435.38235 346.32498L435.38235 348.3406L438.83548 348.3406L438.83548 349.4656L430.30423 349.4656L430.30423 346.63748Q430.30423 345.19998 430.96048 344.43436Q431.61673 343.6531 432.86673 343.6531Q433.6636 343.6531 434.25735 344.0906Q434.8511 344.51248 435.14798 345.2781L438.75735 343.2781L438.83548 343.2781L438.83548 344.48123L435.38235 346.32498ZM434.46048 348.3406L434.46048 346.60623Q434.46048 345.76248 434.0386 345.2781Q433.6011 344.7781 432.86673 344.7781Q432.08548 344.7781 431.6636 345.24686Q431.24173 345.7156 431.2261 346.60623L431.2261 348.3406L434.46048 348.3406ZM438.83548 335.9031L438.83548 337.0281L432.25735 341.32498L438.83548 341.32498L438.83548 342.4656L430.30423 342.4656L430.30423 341.32498L436.9136 337.0281L430.30423 337.0281L430.30423 335.9031L438.83548 335.9031Z" fill-rule="nonzero"/><path fill="#757575" d="M454.35492 344.32498L454.35492 346.34064L457.80804 346.34064L457.80804 347.46564L449.2768 347.46564L449.2768 344.63748Q449.2768 343.19998 449.93304 342.43436Q450.5893 341.6531 451.8393 341.6531Q452.63617 341.6531 453.22992 342.0906Q453.82367 342.51248 454.12054 343.2781L457.72992 341.2781L457.80804 341.2781L457.80804 342.48123L454.35492 344.32498ZM453.43304 346.34064L453.43304 344.60623Q453.43304 343.76248 453.01117 343.2781Q452.57367 342.7781 451.8393 342.7781Q451.05804 342.7781 450.63617 343.24686Q450.2143 343.7156 450.19867 344.60623L450.19867 346.34064L453.43304 346.34064ZM454.01117 337.94998Q453.5893 339.38748 452.97992 340.05936Q452.37054 340.7156 451.47992 340.7156Q450.47992 340.7156 449.82367 339.91873Q449.1518 339.10623 449.1518 337.80936Q449.1518 336.93436 449.49554 336.24686Q449.8393 335.55936 450.43304 335.18436Q451.0268 334.79373 451.74554 334.79373L451.74554 335.93436Q450.9643 335.93436 450.5268 336.43436Q450.0893 336.91873 450.0893 337.80936Q450.0893 338.63748 450.4643 339.10623Q450.82367 339.57498 451.4643 339.57498Q451.99554 339.57498 452.35492 339.13748Q452.7143 338.68436 453.01117 337.62186Q453.30804 336.55936 453.66742 335.9656Q454.0268 335.35623 454.51117 335.07498Q454.99554 334.7781 455.63617 334.7781Q456.68304 334.7781 457.30804 335.5906Q457.93304 336.4031 457.93304 337.74686Q457.93304 338.63748 457.5893 339.4031Q457.24554 340.1531 456.66742 340.57498Q456.07367 340.98123 455.3393 340.98123L455.3393 339.85623Q456.10492 339.85623 456.55804 339.2781Q457.01117 338.69998 457.01117 337.74686Q457.01117 336.85623 456.6518 336.38748Q456.2768 335.91873 455.6518 335.91873Q455.0268 335.91873 454.68304 336.35623Q454.3393 336.79373 454.01117 337.94998Z" fill-rule="nonzero"/><path fill="#757575" d="M473.3275 345.325L473.3275 347.34064L476.78064 347.34064L476.78064 348.46564L468.2494 348.46564L468.2494 345.6375Q468.2494 344.2 468.90564 343.4344Q469.5619 342.65314 470.8119 342.65314Q471.60876 342.65314 472.2025 343.09064Q472.79626 343.5125 473.09314 344.27814L476.7025 342.27814L476.78064 342.27814L476.78064 343.48126L473.3275 345.325ZM472.40564 347.34064L472.40564 345.60626Q472.40564 344.7625 471.98376 344.27814Q471.54626 343.77814 470.8119 343.77814Q470.03064 343.77814 469.60876 344.2469Q469.1869 344.71564 469.17126 345.60626L469.17126 347.34064L472.40564 347.34064ZM472.79626 334.90314Q474.04626 334.90314 474.98376 335.325Q475.90564 335.7469 476.40564 336.52814Q476.90564 337.29376 476.90564 338.325Q476.90564 339.325 476.40564 340.10626Q475.90564 340.8875 474.9994 341.325Q474.0775 341.7469 472.85876 341.7625L472.2494 341.7625Q471.015 341.7625 470.0775 341.34064Q469.14 340.90314 468.64 340.1219Q468.1244 339.34064 468.1244 338.325Q468.1244 337.3094 468.6244 336.52814Q469.1244 335.7469 470.0619 335.325Q470.9994 334.90314 472.2494 334.90314L472.79626 334.90314ZM472.23376 336.0125Q470.71814 336.0125 469.90564 336.6219Q469.09314 337.23126 469.09314 338.325Q469.09314 339.40314 469.90564 340.0125Q470.71814 340.6219 472.15564 340.6375L472.79626 340.6375Q474.265 340.6375 475.10876 340.02814Q475.9369 339.40314 475.9369 338.325Q475.9369 337.23126 475.15564 336.6375Q474.35876 336.02814 472.8744 336.0125L472.23376 336.0125Z" fill-rule="nonzero"/><path fill="#757575" d="M492.30008 344.325L492.30008 346.34064L495.7532 346.34064L495.7532 347.46564L487.22195 347.46564L487.22195 344.6375Q487.22195 343.2 487.8782 342.4344Q488.53445 341.65314 489.78445 341.65314Q490.58133 341.65314 491.17508 342.09064Q491.76883 342.5125 492.0657 343.27814L495.67508 341.27814L495.7532 341.27814L495.7532 342.48126L492.30008 344.325ZM491.3782 346.34064L491.3782 344.60626Q491.3782 343.7625 490.95633 343.27814Q490.51883 342.77814 489.78445 342.77814Q489.0032 342.77814 488.58133 343.2469Q488.15945 343.71564 488.14383 344.60626L488.14383 346.34064L491.3782 346.34064ZM492.30008 337.325L492.30008 339.34064L495.7532 339.34064L495.7532 340.46564L487.22195 340.46564L487.22195 337.6375Q487.22195 336.2 487.8782 335.4344Q488.53445 334.65314 489.78445 334.65314Q490.58133 334.65314 491.17508 335.09064Q491.76883 335.5125 492.0657 336.27814L495.67508 334.27814L495.7532 334.27814L495.7532 335.48126L492.30008 337.325ZM491.3782 339.34064L491.3782 337.60626Q491.3782 336.7625 490.95633 336.27814Q490.51883 335.77814 489.78445 335.77814Q489.0032 335.77814 488.58133 336.2469Q488.15945 336.71564 488.14383 337.60626L488.14383 339.34064L491.3782 339.34064Z" fill-rule="nonzero"/><path fill="#757575" d="M510.92892 345.94998Q510.50705 347.38748 509.89767 348.05936Q509.2883 348.7156 508.39767 348.7156Q507.39767 348.7156 506.74142 347.91873Q506.06955 347.10623 506.06955 345.80936Q506.06955 344.93436 506.4133 344.24686Q506.75705 343.55936 507.3508 343.18436Q507.94455 342.79373 508.6633 342.79373L508.6633 343.93436Q507.88205 343.93436 507.44455 344.43436Q507.00705 344.91873 507.00705 345.80936Q507.00705 346.63748 507.38205 347.10623Q507.74142 347.57498 508.38205 347.57498Q508.9133 347.57498 509.27267 347.13748Q509.63205 346.68436 509.92892 345.62186Q510.2258 344.55936 510.58517 343.9656Q510.94455 343.35623 511.42892 343.07498Q511.9133 342.7781 512.5539 342.7781Q513.60077 342.7781 514.22577 343.5906Q514.85077 344.4031 514.85077 345.74686Q514.85077 346.63748 514.507 347.4031Q514.16327 348.1531 513.58514 348.57498Q512.9914 348.98123 512.257 348.98123L512.257 347.85623Q513.02264 347.85623 513.47577 347.2781Q513.9289 346.69998 513.9289 345.74686Q513.9289 344.85623 513.5695 344.38748Q513.1945 343.91873 512.5695 343.91873Q511.94455 343.91873 511.6008 344.35623Q511.25705 344.79373 510.92892 345.94998ZM512.02264 335.18436Q513.3664 335.3406 514.1164 336.18436Q514.85077 337.0281 514.85077 338.41873Q514.85077 339.93436 513.77264 340.8406Q512.6789 341.74686 510.8508 341.74686L510.0383 341.74686Q508.8508 341.74686 507.94455 341.32498Q507.0383 340.9031 506.55392 340.12186Q506.06955 339.3406 506.06955 338.32498Q506.06955 336.9656 506.83517 336.1531Q507.6008 335.32498 508.92892 335.18436L508.92892 336.30936Q507.9133 336.4656 507.46017 336.94998Q507.00705 337.43436 507.00705 338.32498Q507.00705 339.4031 507.80392 340.01248Q508.6008 340.62186 510.06955 340.62186L510.89767 340.62186Q512.28827 340.62186 513.1164 340.04373Q513.9289 339.4656 513.9289 338.41873Q513.9289 337.48123 513.507 336.98123Q513.0695 336.48123 512.02264 336.30936L512.02264 335.18436Z" fill-rule="nonzero"/><path fill="#757575" d="M529.9015 345.95Q529.4796 347.3875 528.87024 348.0594Q528.26086 348.71564 527.37024 348.71564Q526.37024 348.71564 525.714 347.91876Q525.0421 347.10626 525.0421 345.8094Q525.0421 344.9344 525.38586 344.2469Q525.7296 343.5594 526.32336 343.1844Q526.9171 342.79376 527.63586 342.79376L527.63586 343.9344Q526.8546 343.9344 526.4171 344.4344Q525.9796 344.91876 525.9796 345.8094Q525.9796 346.6375 526.3546 347.10626Q526.714 347.575 527.3546 347.575Q527.88586 347.575 528.24524 347.1375Q528.6046 346.6844 528.9015 345.6219Q529.19836 344.5594 529.55774 343.96564Q529.9171 343.35626 530.4015 343.075Q530.88586 342.77814 531.5265 342.77814Q532.57336 342.77814 533.19836 343.59064Q533.82336 344.40314 533.82336 345.7469Q533.82336 346.6375 533.4796 347.40314Q533.13586 348.15314 532.55774 348.575Q531.964 348.98126 531.2296 348.98126L531.2296 347.85626Q531.99524 347.85626 532.44836 347.27814Q532.9015 346.7 532.9015 345.7469Q532.9015 344.85626 532.5421 344.3875Q532.1671 343.91876 531.5421 343.91876Q530.9171 343.91876 530.57336 344.35626Q530.2296 344.79376 529.9015 345.95ZM530.3546 340.34064L533.69836 340.34064L533.69836 341.46564L525.1671 341.46564L525.1671 338.3094Q525.1671 336.91876 525.88586 336.1219Q526.589 335.325 527.7765 335.325Q529.01086 335.325 529.68274 336.10626Q530.3546 336.8719 530.3546 338.325L530.3546 340.34064ZM529.43274 340.34064L529.43274 338.3094Q529.43274 337.40314 529.01086 336.9344Q528.589 336.45 527.7921 336.45Q527.0265 336.45 526.57336 336.9344Q526.1046 337.40314 526.089 338.2469L526.089 340.34064L529.43274 340.34064Z" fill-rule="nonzero"/><path fill="#757575" d="M548.8741 344.95Q548.4522 346.3875 547.84283 347.0594Q547.23346 347.71564 546.34283 347.71564Q545.34283 347.71564 544.6866 346.91876Q544.0147 346.10626 544.0147 344.8094Q544.0147 343.9344 544.35846 343.2469Q544.7022 342.5594 545.29596 342.1844Q545.8897 341.79376 546.60846 341.79376L546.60846 342.9344Q545.8272 342.9344 545.3897 343.4344Q544.9522 343.91876 544.9522 344.8094Q544.9522 345.6375 545.3272 346.10626Q545.6866 346.575 546.3272 346.575Q546.85846 346.575 547.21783 346.1375Q547.5772 345.6844 547.8741 344.6219Q548.17096 343.5594 548.53033 342.96564Q548.8897 342.35626 549.3741 342.075Q549.85846 341.77814 550.4991 341.77814Q551.54596 341.77814 552.17096 342.59064Q552.79596 343.40314 552.79596 344.7469Q552.79596 345.6375 552.4522 346.40314Q552.10846 347.15314 551.53033 347.575Q550.9366 347.98126 550.2022 347.98126L550.2022 346.85626Q550.96783 346.85626 551.42096 346.27814Q551.8741 345.7 551.8741 344.7469Q551.8741 343.85626 551.5147 343.3875Q551.1397 342.91876 550.5147 342.91876Q549.8897 342.91876 549.54596 343.35626Q549.2022 343.79376 548.8741 344.95ZM548.73346 335.6375L548.73346 339.34064L551.7491 339.34064L551.7491 335.04376L552.67096 335.04376L552.67096 340.46564L544.1397 340.46564L544.1397 335.09064L545.0616 335.09064L545.0616 339.34064L547.8116 339.34064L547.8116 335.6375L548.73346 335.6375Z" fill-rule="nonzero"/><path fill="#757575" d="M564.0341 342.55936L564.0341 345.30936L571.6435 345.30936L571.6435 346.41873L564.0341 346.41873L564.0341 349.16873L563.11224 349.16873L563.11224 342.55936L564.0341 342.55936ZM567.6591 334.9031Q568.9091 334.9031 569.8466 335.32498Q570.7685 335.74686 571.2685 336.5281Q571.7685 337.29373 571.7685 338.32498Q571.7685 339.32498 571.2685 340.10623Q570.7685 340.88748 569.86224 341.32498Q568.94037 341.74686 567.7216 341.76248L567.11224 341.76248Q565.87787 341.76248 564.94037 341.3406Q564.00287 340.9031 563.50287 340.12186Q562.98724 339.3406 562.98724 338.32498Q562.98724 337.30936 563.48724 336.5281Q563.98724 335.74686 564.92474 335.32498Q565.86224 334.9031 567.11224 334.9031L567.6591 334.9031ZM567.0966 336.01248Q565.581 336.01248 564.7685 336.62186Q563.956 337.23123 563.956 338.32498Q563.956 339.4031 564.7685 340.01248Q565.581 340.62186 567.0185 340.63748L567.6591 340.63748Q569.12787 340.63748 569.9716 340.0281Q570.79974 339.4031 570.79974 338.32498Q570.79974 337.23123 570.0185 336.63748Q569.2216 336.0281 567.73724 336.01248L567.0966 336.01248Z" fill-rule="nonzero"/><path fill="#f1c232" d="M166.5 21.05C166.5 20.497715 166.94771 20.05 167.5 20.05L177.5 20.05C178.05229 20.05 178.5 20.497715 178.5 21.05L178.5 31.05C178.5 31.602285 178.05229 32.05 177.5 32.05L167.5 32.05C166.94771 32.05 166.5 31.602285 166.5 31.05Z" fill-rule="nonzero"/><path fill="#757575" d="M190.10938 23.659374Q190.10938 22.89375 190.59375 22.39375Q191.09375 21.89375 191.85938 21.89375Q192.64062 21.89375 193.125 22.39375Q193.60938 22.89375 193.60938 23.690624L193.60938 24.1125Q193.60938 24.878124 193.10938 25.378124Q192.625 25.8625 191.875 25.8625Q191.10938 25.8625 190.60938 25.378124Q190.10938 24.878124 190.10938 24.065624L190.10938 23.659374ZM190.92188 24.1125Q190.92188 24.565624 191.17188 24.8625Q191.4375 25.159374 191.875 25.159374Q192.29688 25.159374 192.54688 24.878124Q192.79688 24.58125 192.79688 24.08125L192.79688 23.659374Q192.79688 23.20625 192.54688 22.909374Q192.29688 22.596874 191.85938 22.596874Q191.42188 22.596874 191.17188 22.909374Q190.92188 23.20625 190.92188 23.675L190.92188 24.1125ZM194.26562 28.45625Q194.26562 27.690624 194.75 27.20625Q195.25 26.70625 196.01562 26.70625Q196.78125 26.70625 197.26562 27.20625Q197.76562 27.690624 197.76562 28.503124L197.76562 28.909374Q197.76562 29.675 197.28125 30.175Q196.79688 30.675 196.03125 30.675Q195.26562 30.675 194.76562 30.190624Q194.26562 29.690624 194.26562 28.878124L194.26562 28.45625ZM195.07812 28.909374Q195.07812 29.378124 195.32812 29.675Q195.59375 29.971874 196.03125 29.971874Q196.45312 29.971874 196.70312 29.690624Q196.95312 29.39375 196.95312 28.89375L196.95312 28.45625Q196.95312 27.9875 196.6875 27.70625Q196.4375 27.409374 196.01562 27.409374Q195.59375 27.409374 195.32812 27.70625Q195.07812 27.9875 195.07812 28.4875L195.07812 28.909374ZM192.125 29.909374L191.5 29.51875L195.67188 22.846874L196.28125 23.2375L192.125 29.909374ZM202.0625 27.33125Q202.0625 25.8625 202.75 24.9875Q203.4375 24.096874 204.5625 24.096874Q205.67188 24.096874 206.32812 24.846874L206.32812 21.55L207.40625 21.55L207.40625 30.55L206.40625 30.55L206.35938 29.8625Q205.70312 30.675 204.54688 30.675Q203.45312 30.675 202.75 29.76875Q202.0625 28.8625 202.0625 27.409374L202.0625 27.33125ZM203.14062 27.45625Q203.14062 28.534374 203.57812 29.14375Q204.03125 29.753124 204.8125 29.753124Q205.84375 29.753124 206.32812 28.815624L206.32812 25.909374Q205.84375 25.01875 204.82812 25.01875Q204.03125 25.01875 203.57812 25.628124Q203.14062 26.2375 203.14062 27.45625ZM213.23438 30.55Q213.14062 30.3625 213.07812 29.878124Q212.32812 30.675 211.28125 30.675Q210.34375 30.675 209.73438 30.14375Q209.14062 29.6125 209.14062 28.784374Q209.14062 27.8 209.89062 27.253124Q210.64062 26.70625 212.01562 26.70625L213.0625 26.70625L213.0625 26.20625Q213.0625 25.64375 212.71875 25.315624Q212.39062 24.971874 211.71875 24.971874Q211.14062 24.971874 210.75 25.26875Q210.35938 25.55 210.35938 25.971874L209.26562 25.971874Q209.26562 25.4875 209.59375 25.05Q209.9375 24.6125 210.51562 24.3625Q211.09375 24.096874 211.78125 24.096874Q212.89062 24.096874 213.5 24.64375Q214.125 25.190624 214.15625 26.14375L214.15625 29.065624Q214.15625 29.940624 214.375 30.45625L214.375 30.55L213.23438 30.55ZM211.4375 29.721874Q211.95312 29.721874 212.40625 29.45625Q212.85938 29.190624 213.0625 28.76875L213.0625 27.471874L212.21875 27.471874Q210.21875 27.471874 210.21875 28.64375Q210.21875 29.14375 210.5625 29.440624Q210.90625 29.721874 211.4375 29.721874ZM224.67188 27.45625Q224.67188 28.89375 224.01562 29.784374Q223.35938 30.675 222.21875 30.675Q221.0625 30.675 220.40625 29.940624L220.40625 32.9875L219.32812 32.9875L219.32812 24.20625L220.3125 24.20625L220.35938 24.909374Q221.03125 24.096874 222.20312 24.096874Q223.34375 24.096874 224.0 24.95625Q224.67188 25.815624 224.67188 27.346874L224.67188 27.45625ZM223.59375 27.33125Q223.59375 26.253124 223.125 25.64375Q222.67188 25.01875 221.875 25.01875Q220.89062 25.01875 220.40625 25.878124L220.40625 28.909374Q220.89062 29.784374 221.89062 29.784374Q222.67188 29.784374 223.125 29.175Q223.59375 28.55 223.59375 27.33125ZM226.03125 27.315624Q226.03125 26.39375 226.39062 25.64375Q226.76562 24.89375 227.42188 24.503124Q228.07812 24.096874 228.90625 24.096874Q230.20312 24.096874 231.0 24.9875Q231.8125 25.878124 231.8125 27.378124L231.8125 27.45625Q231.8125 28.378124 231.45312 29.1125Q231.09375 29.846874 230.4375 30.26875Q229.78125 30.675 228.92188 30.675Q227.64062 30.675 226.82812 29.784374Q226.03125 28.878124 226.03125 27.39375L226.03125 27.315624ZM227.125 27.45625Q227.125 28.503124 227.60938 29.14375Q228.10938 29.784374 228.92188 29.784374Q229.75 29.784374 230.23438 29.14375Q230.71875 28.4875 230.71875 27.315624Q230.71875 26.284374 230.21875 25.64375Q229.73438 24.9875 228.90625 24.9875Q228.10938 24.9875 227.60938 25.628124Q227.125 26.253124 227.125 27.45625ZM238.67188 27.45625Q238.67188 28.89375 238.01562 29.784374Q237.35938 30.675 236.21875 30.675Q235.0625 30.675 234.40625 29.940624L234.40625 32.9875L233.32812 32.9875L233.32812 24.20625L234.3125 24.20625L234.35938 24.909374Q235.03125 24.096874 236.20312 24.096874Q237.34375 24.096874 238.0 24.95625Q238.67188 25.815624 238.67188 27.346874L238.67188 27.45625ZM237.59375 27.33125Q237.59375 26.253124 237.125 25.64375Q236.67188 25.01875 235.875 25.01875Q234.89062 25.01875 234.40625 25.878124L234.40625 28.909374Q234.89062 29.784374 235.89062 29.784374Q236.67188 29.784374 237.125 29.175Q237.59375 28.55 237.59375 27.33125ZM244.23438 29.925Q243.60938 30.675 242.375 30.675Q241.35938 30.675 240.82812 30.08125Q240.29688 29.4875 240.29688 28.33125L240.29688 24.20625L241.375 24.20625L241.375 28.3Q241.375 29.753124 242.54688 29.753124Q243.79688 29.753124 244.20312 28.815624L244.20312 24.20625L245.29688 24.20625L245.29688 30.55L244.26562 30.55L244.23438 29.925ZM248.5 30.55L247.42188 30.55L247.42188 21.55L248.5 21.55L248.5 30.55ZM254.23438 30.55Q254.14062 30.3625 254.07812 29.878124Q253.32812 30.675 252.28125 30.675Q251.34375 30.675 250.73438 30.14375Q250.14062 29.6125 250.14062 28.784374Q250.14062 27.8 250.89062 27.253124Q251.64062 26.70625 253.01562 26.70625L254.0625 26.70625L254.0625 26.20625Q254.0625 25.64375 253.71875 25.315624Q253.39062 24.971874 252.71875 24.971874Q252.14062 24.971874 251.75 25.26875Q251.35938 25.55 251.35938 25.971874L250.26562 25.971874Q250.26562 25.4875 250.59375 25.05Q250.9375 24.6125 251.51562 24.3625Q252.09375 24.096874 252.78125 24.096874Q253.89062 24.096874 254.5 24.64375Q255.125 25.190624 255.15625 26.14375L255.15625 29.065624Q255.15625 29.940624 255.375 30.45625L255.375 30.55L254.23438 30.55ZM252.4375 29.721874Q252.95312 29.721874 253.40625 29.45625Q253.85938 29.190624 254.0625 28.76875L254.0625 27.471874L253.21875 27.471874Q251.21875 27.471874 251.21875 28.64375Q251.21875 29.14375 251.5625 29.440624Q251.90625 29.721874 252.4375 29.721874ZM259.85938 29.784374Q260.4375 29.784374 260.875 29.440624Q261.3125 29.08125 261.35938 28.55L262.39062 28.55Q262.35938 29.096874 262.0 29.596874Q261.65625 30.08125 261.07812 30.378124Q260.51562 30.675 259.85938 30.675Q258.5625 30.675 257.79688 29.815624Q257.04688 28.940624 257.04688 27.440624L257.04688 27.253124Q257.04688 26.33125 257.375 25.6125Q257.71875 24.89375 258.34375 24.503124Q258.98438 24.096874 259.85938 24.096874Q260.92188 24.096874 261.625 24.7375Q262.34375 25.3625 262.39062 26.39375L261.35938 26.39375Q261.3125 25.76875 260.89062 25.378124Q260.46875 24.9875 259.85938 24.9875Q259.03125 24.9875 258.57812 25.58125Q258.125 26.175 258.125 27.3L258.125 27.503124Q258.125 28.596874 258.57812 29.190624Q259.03125 29.784374 259.85938 29.784374ZM260.17188 30.55L260.09375 30.8625Q261.0 31.01875 261.0 31.8625Q261.0 32.440624 260.53125 32.76875Q260.0625 33.096874 259.21875 33.096874L259.1875 32.471874Q259.64062 32.471874 259.89062 32.315624Q260.15625 32.175 260.15625 31.89375Q260.15625 31.628124 259.96875 31.503124Q259.78125 31.39375 259.20312 31.33125L259.39062 30.55L260.17188 30.55ZM267.23438 30.55Q267.14062 30.3625 267.07812 29.878124Q266.32812 30.675 265.28125 30.675Q264.34375 30.675 263.73438 30.14375Q263.14062 29.6125 263.14062 28.784374Q263.14062 27.8 263.89062 27.253124Q264.64062 26.70625 266.01562 26.70625L267.0625 26.70625L267.0625 26.20625Q267.0625 25.64375 266.71875 25.315624Q266.39062 24.971874 265.71875 24.971874Q265.14062 24.971874 264.75 25.26875Q264.35938 25.55 264.35938 25.971874L263.26562 25.971874Q263.26562 25.4875 263.59375 25.05Q263.9375 24.6125 264.51562 24.3625Q265.09375 24.096874 265.78125 24.096874Q266.89062 24.096874 267.5 24.64375Q268.125 25.190624 268.15625 26.14375L268.15625 29.065624Q268.15625 29.940624 268.375 30.45625L268.375 30.55L267.23438 30.55ZM265.4375 29.721874Q265.95312 29.721874 266.40625 29.45625Q266.85938 29.190624 267.0625 28.76875L267.0625 27.471874L266.21875 27.471874Q264.21875 27.471874 264.21875 28.64375Q264.21875 29.14375 264.5625 29.440624Q264.90625 29.721874 265.4375 29.721874ZM268.35938 21.753124Q268.35938 22.39375 268.0 22.784374Q267.64062 23.175 267.10938 23.175Q266.85938 23.175 266.6875 23.128124Q266.51562 23.065624 266.21875 22.878124Q265.9375 22.690624 265.8125 22.659374Q265.6875 22.628124 265.53125 22.628124Q265.28125 22.628124 265.10938 22.815624Q264.95312 22.9875 264.95312 23.284374L264.21875 23.2375Q264.21875 22.6125 264.57812 22.20625Q264.9375 21.784374 265.46875 21.784374Q265.6875 21.784374 265.84375 21.846874Q266.01562 21.909374 266.29688 22.08125Q266.57812 22.253124 266.71875 22.3Q266.875 22.346874 267.04688 22.346874Q267.29688 22.346874 267.46875 22.159374Q267.64062 21.95625 267.64062 21.690624L268.35938 21.753124ZM270.03125 27.315624Q270.03125 26.39375 270.39062 25.64375Q270.76562 24.89375 271.42188 24.503124Q272.07812 24.096874 272.90625 24.096874Q274.20312 24.096874 275.0 24.9875Q275.8125 25.878124 275.8125 27.378124L275.8125 27.45625Q275.8125 28.378124 275.45312 29.1125Q275.09375 29.846874 274.4375 30.26875Q273.78125 30.675 272.92188 30.675Q271.64062 30.675 270.82812 29.784374Q270.03125 28.878124 270.03125 27.39375L270.03125 27.315624ZM271.125 27.45625Q271.125 28.503124 271.60938 29.14375Q272.10938 29.784374 272.92188 29.784374Q273.75 29.784374 274.23438 29.14375Q274.71875 28.4875 274.71875 27.315624Q274.71875 26.284374 274.21875 25.64375Q273.73438 24.9875 272.90625 24.9875Q272.10938 24.9875 271.60938 25.628124Q271.125 26.253124 271.125 27.45625ZM284.01562 28.8625Q284.01562 28.425 283.67188 28.190624Q283.34375 27.940624 282.51562 27.76875Q281.70312 27.596874 281.21875 27.346874Q280.73438 27.096874 280.5 26.76875Q280.28125 26.425 280.28125 25.95625Q280.28125 25.175 280.9375 24.64375Q281.59375 24.096874 282.625 24.096874Q283.70312 24.096874 284.35938 24.659374Q285.03125 25.20625 285.03125 26.065624L283.95312 26.065624Q283.95312 25.628124 283.5625 25.315624Q283.1875 24.9875 282.625 24.9875Q282.03125 24.9875 281.6875 25.253124Q281.35938 25.503124 281.35938 25.909374Q281.35938 26.3 281.67188 26.503124Q281.98438 26.70625 282.79688 26.89375Q283.60938 27.065624 284.10938 27.315624Q284.60938 27.565624 284.84375 27.925Q285.09375 28.284374 285.09375 28.784374Q285.09375 29.64375 284.40625 30.159374Q283.73438 30.675 282.65625 30.675Q281.89062 30.675 281.29688 30.409374Q280.71875 30.128124 280.39062 29.64375Q280.0625 29.159374 280.0625 28.596874L281.14062 28.596874Q281.17188 29.14375 281.57812 29.471874Q281.98438 29.784374 282.65625 29.784374Q283.26562 29.784374 283.64062 29.534374Q284.01562 29.284374 284.01562 28.8625ZM288.95312 30.675Q287.65625 30.675 286.84375 29.83125Q286.04688 28.971874 286.04688 27.55L286.04688 27.3625Q286.04688 26.409374 286.40625 25.675Q286.76562 24.925 287.40625 24.51875Q288.0625 24.096874 288.8125 24.096874Q290.04688 24.096874 290.73438 24.909374Q291.42188 25.721874 291.42188 27.2375L291.42188 27.690624L287.125 27.690624Q287.15625 28.628124 287.67188 29.20625Q288.20312 29.784374 289.01562 29.784374Q289.57812 29.784374 289.96875 29.55Q290.375 29.315624 290.6875 28.925L291.34375 29.440624Q290.54688 30.675 288.95312 30.675ZM288.8125 24.9875Q288.15625 24.9875 287.70312 25.471874Q287.26562 25.940624 287.17188 26.8L290.34375 26.8L290.34375 26.721874Q290.29688 25.89375 289.89062 25.440624Q289.5 24.9875 288.8125 24.9875ZM293.34375 24.20625L293.375 24.909374Q294.0625 24.096874 295.25 24.096874Q296.57812 24.096874 297.0625 25.1125Q297.375 24.659374 297.875 24.378124Q298.39062 24.096874 299.07812 24.096874Q301.17188 24.096874 301.20312 26.3L301.20312 30.55L300.125 30.55L300.125 26.3625Q300.125 25.690624 299.8125 25.3625Q299.5 25.01875 298.76562 25.01875Q298.15625 25.01875 297.75 25.378124Q297.35938 25.7375 297.29688 26.346874L297.29688 30.55L296.21875 30.55L296.21875 26.39375Q296.21875 25.01875 294.85938 25.01875Q293.79688 25.01875 293.40625 25.925L293.40625 30.55L292.3125 30.55L292.3125 24.20625L293.34375 24.20625ZM310.23438 30.55Q310.14062 30.3625 310.07812 29.878124Q309.32812 30.675 308.28125 30.675Q307.34375 30.675 306.73438 30.14375Q306.14062 29.6125 306.14062 28.784374Q306.14062 27.8 306.89062 27.253124Q307.64062 26.70625 309.01562 26.70625L310.0625 26.70625L310.0625 26.20625Q310.0625 25.64375 309.71875 25.315624Q309.39062 24.971874 308.71875 24.971874Q308.14062 24.971874 307.75 25.26875Q307.35938 25.55 307.35938 25.971874L306.26562 25.971874Q306.26562 25.4875 306.59375 25.05Q306.9375 24.6125 307.51562 24.3625Q308.09375 24.096874 308.78125 24.096874Q309.89062 24.096874 310.5 24.64375Q311.125 25.190624 311.15625 26.14375L311.15625 29.065624Q311.15625 29.940624 311.375 30.45625L311.375 30.55L310.23438 30.55ZM308.4375 29.721874Q308.95312 29.721874 309.40625 29.45625Q309.85938 29.190624 310.0625 28.76875L310.0625 27.471874L309.21875 27.471874Q307.21875 27.471874 307.21875 28.64375Q307.21875 29.14375 307.5625 29.440624Q307.90625 29.721874 308.4375 29.721874ZM318.6875 27.45625Q318.6875 28.909374 318.01562 29.8Q317.35938 30.675 316.23438 30.675Q315.03125 30.675 314.375 29.815624L314.3125 30.55L313.32812 30.55L313.32812 21.55L314.40625 21.55L314.40625 24.909374Q315.0625 24.096874 316.21875 24.096874Q317.375 24.096874 318.03125 24.971874Q318.6875 25.83125 318.6875 27.3625L318.6875 27.45625ZM317.60938 27.33125Q317.60938 26.221874 317.17188 25.628124Q316.75 25.01875 315.95312 25.01875Q314.875 25.01875 314.40625 26.003124L314.40625 28.753124Q314.90625 29.753124 315.95312 29.753124Q316.73438 29.753124 317.17188 29.14375Q317.60938 28.534374 317.60938 27.33125ZM324.23438 30.55Q324.14062 30.3625 324.07812 29.878124Q323.32812 30.675 322.28125 30.675Q321.34375 30.675 320.73438 30.14375Q320.14062 29.6125 320.14062 28.784374Q320.14062 27.8 320.89062 27.253124Q321.64062 26.70625 323.01562 26.70625L324.0625 26.70625L324.0625 26.20625Q324.0625 25.64375 323.71875 25.315624Q323.39062 24.971874 322.71875 24.971874Q322.14062 24.971874 321.75 25.26875Q321.35938 25.55 321.35938 25.971874L320.26562 25.971874Q320.26562 25.4875 320.59375 25.05Q320.9375 24.6125 321.51562 24.3625Q322.09375 24.096874 322.78125 24.096874Q323.89062 24.096874 324.5 24.64375Q325.125 25.190624 325.15625 26.14375L325.15625 29.065624Q325.15625 29.940624 325.375 30.45625L325.375 30.55L324.23438 30.55ZM322.4375 29.721874Q322.95312 29.721874 323.40625 29.45625Q323.85938 29.190624 324.0625 28.76875L324.0625 27.471874L323.21875 27.471874Q321.21875 27.471874 321.21875 28.64375Q321.21875 29.14375 321.5625 29.440624Q321.90625 29.721874 322.4375 29.721874ZM331.01562 28.8625Q331.01562 28.425 330.67188 28.190624Q330.34375 27.940624 329.51562 27.76875Q328.70312 27.596874 328.21875 27.346874Q327.73438 27.096874 327.5 26.76875Q327.28125 26.425 327.28125 25.95625Q327.28125 25.175 327.9375 24.64375Q328.59375 24.096874 329.625 24.096874Q330.70312 24.096874 331.35938 24.659374Q332.03125 25.20625 332.03125 26.065624L330.95312 26.065624Q330.95312 25.628124 330.5625 25.315624Q330.1875 24.9875 329.625 24.9875Q329.03125 24.9875 328.6875 25.253124Q328.35938 25.503124 328.35938 25.909374Q328.35938 26.3 328.67188 26.503124Q328.98438 26.70625 329.79688 26.89375Q330.60938 27.065624 331.10938 27.315624Q331.60938 27.565624 331.84375 27.925Q332.09375 28.284374 332.09375 28.784374Q332.09375 29.64375 331.40625 30.159374Q330.73438 30.675 329.65625 30.675Q328.89062 30.675 328.29688 30.409374Q327.71875 30.128124 327.39062 29.64375Q327.0625 29.159374 327.0625 28.596874L328.14062 28.596874Q328.17188 29.14375 328.57812 29.471874Q328.98438 29.784374 329.65625 29.784374Q330.26562 29.784374 330.64062 29.534374Q331.01562 29.284374 331.01562 28.8625ZM334.79688 22.675L334.79688 24.20625L335.96875 24.20625L335.96875 25.05L334.79688 25.05L334.79688 28.971874Q334.79688 29.3625 334.95312 29.55Q335.10938 29.7375 335.48438 29.7375Q335.67188 29.7375 336.0 29.675L336.0 30.55Q335.57812 30.675 335.17188 30.675Q334.45312 30.675 334.07812 30.2375Q333.70312 29.784374 333.70312 28.971874L333.70312 25.05L332.54688 25.05L332.54688 24.20625L333.70312 24.20625L333.70312 22.675L334.79688 22.675ZM339.95312 30.675Q338.65625 30.675 337.84375 29.83125Q337.04688 28.971874 337.04688 27.55L337.04688 27.3625Q337.04688 26.409374 337.40625 25.675Q337.76562 24.925 338.40625 24.51875Q339.0625 24.096874 339.8125 24.096874Q341.04688 24.096874 341.73438 24.909374Q342.42188 25.721874 342.42188 27.2375L342.42188 27.690624L338.125 27.690624Q338.15625 28.628124 338.67188 29.20625Q339.20312 29.784374 340.01562 29.784374Q340.57812 29.784374 340.96875 29.55Q341.375 29.315624 341.6875 28.925L342.34375 29.440624Q341.54688 30.675 339.95312 30.675ZM339.8125 24.9875Q339.15625 24.9875 338.70312 25.471874Q338.26562 25.940624 338.17188 26.8L341.34375 26.8L341.34375 26.721874Q341.29688 25.89375 340.89062 25.440624Q340.5 24.9875 339.8125 24.9875ZM345.85938 29.784374Q346.4375 29.784374 346.875 29.440624Q347.3125 29.08125 347.35938 28.55L348.39062 28.55Q348.35938 29.096874 348.0 29.596874Q347.65625 30.08125 347.07812 30.378124Q346.51562 30.675 345.85938 30.675Q344.5625 30.675 343.79688 29.815624Q343.04688 28.940624 343.04688 27.440624L343.04688 27.253124Q343.04688 26.33125 343.375 25.6125Q343.71875 24.89375 344.34375 24.503124Q344.98438 24.096874 345.85938 24.096874Q346.92188 24.096874 347.625 24.7375Q348.34375 25.3625 348.39062 26.39375L347.35938 26.39375Q347.3125 25.76875 346.89062 25.378124Q346.46875 24.9875 345.85938 24.9875Q345.03125 24.9875 344.57812 25.58125Q344.125 26.175 344.125 27.3L344.125 27.503124Q344.125 28.596874 344.57812 29.190624Q345.03125 29.784374 345.85938 29.784374ZM350.5 30.55L349.42188 30.55L349.42188 24.20625L350.5 24.20625L350.5 30.55ZM349.32812 22.534374Q349.32812 22.26875 349.48438 22.08125Q349.65625 21.89375 349.96875 21.89375Q350.28125 21.89375 350.4375 22.08125Q350.60938 22.26875 350.60938 22.534374Q350.60938 22.784374 350.4375 22.971874Q350.28125 23.14375 349.96875 23.14375Q349.65625 23.14375 349.48438 22.971874Q349.32812 22.784374 349.32812 22.534374ZM353.34375 24.20625L353.375 24.909374Q354.0625 24.096874 355.25 24.096874Q356.57812 24.096874 357.0625 25.1125Q357.375 24.659374 357.875 24.378124Q358.39062 24.096874 359.07812 24.096874Q361.17188 24.096874 361.20312 26.3L361.20312 30.55L360.125 30.55L360.125 26.3625Q360.125 25.690624 359.8125 25.3625Q359.5 25.01875 358.76562 25.01875Q358.15625 25.01875 357.75 25.378124Q357.35938 25.7375 357.29688 26.346874L357.29688 30.55L356.21875 30.55L356.21875 26.39375Q356.21875 25.01875 354.85938 25.01875Q353.79688 25.01875 353.40625 25.925L353.40625 30.55L352.3125 30.55L352.3125 24.20625L353.34375 24.20625ZM365.95312 30.675Q364.65625 30.675 363.84375 29.83125Q363.04688 28.971874 363.04688 27.55L363.04688 27.3625Q363.04688 26.409374 363.40625 25.675Q363.76562 24.925 364.40625 24.51875Q365.0625 24.096874 365.8125 24.096874Q367.04688 24.096874 367.73438 24.909374Q368.42188 25.721874 368.42188 27.2375L368.42188 27.690624L364.125 27.690624Q364.15625 28.628124 364.67188 29.20625Q365.20312 29.784374 366.01562 29.784374Q366.57812 29.784374 366.96875 29.55Q367.375 29.315624 367.6875 28.925L368.34375 29.440624Q367.54688 30.675 365.95312 30.675ZM365.8125 24.9875Q365.15625 24.9875 364.70312 25.471874Q364.26562 25.940624 364.17188 26.8L367.34375 26.8L367.34375 26.721874Q367.29688 25.89375 366.89062 25.440624Q366.5 24.9875 365.8125 24.9875ZM370.34375 24.20625L370.375 25.003124Q371.10938 24.096874 372.28125 24.096874Q374.29688 24.096874 374.3125 26.3625L374.3125 30.55L373.21875 30.55L373.21875 26.346874Q373.21875 25.675 372.90625 25.346874Q372.60938 25.01875 371.95312 25.01875Q371.42188 25.01875 371.01562 25.3Q370.625 25.58125 370.40625 26.034374L370.40625 30.55L369.32812 30.55L369.32812 24.20625L370.34375 24.20625ZM377.79688 22.675L377.79688 24.20625L378.96875 24.20625L378.96875 25.05L377.79688 25.05L377.79688 28.971874Q377.79688 29.3625 377.95312 29.55Q378.10938 29.7375 378.48438 29.7375Q378.67188 29.7375 379.0 29.675L379.0 30.55Q378.57812 30.675 378.17188 30.675Q377.45312 30.675 377.07812 30.2375Q376.70312 29.784374 376.70312 28.971874L376.70312 25.05L375.54688 25.05L375.54688 24.20625L376.70312 24.20625L376.70312 22.675L377.79688 22.675ZM380.03125 27.315624Q380.03125 26.39375 380.39062 25.64375Q380.76562 24.89375 381.42188 24.503124Q382.07812 24.096874 382.90625 24.096874Q384.20312 24.096874 385.0 24.9875Q385.8125 25.878124 385.8125 27.378124L385.8125 27.45625Q385.8125 28.378124 385.45312 29.1125Q385.09375 29.846874 384.4375 30.26875Q383.78125 30.675 382.92188 30.675Q381.64062 30.675 380.82812 29.784374Q380.03125 28.878124 380.03125 27.39375L380.03125 27.315624ZM381.125 27.45625Q381.125 28.503124 381.60938 29.14375Q382.10938 29.784374 382.92188 29.784374Q383.75 29.784374 384.23438 29.14375Q384.71875 28.4875 384.71875 27.315624Q384.71875 26.284374 384.21875 25.64375Q383.73438 24.9875 382.90625 24.9875Q382.10938 24.9875 381.60938 25.628124Q381.125 26.253124 381.125 27.45625ZM390.0625 27.33125Q390.0625 25.8625 390.75 24.9875Q391.4375 24.096874 392.5625 24.096874Q393.67188 24.096874 394.32812 24.846874L394.32812 21.55L395.40625 21.55L395.40625 30.55L394.40625 30.55L394.35938 29.8625Q393.70312 30.675 392.54688 30.675Q391.45312 30.675 390.75 29.76875Q390.0625 28.8625 390.0625 27.409374L390.0625 27.33125ZM391.14062 27.45625Q391.14062 28.534374 391.57812 29.14375Q392.03125 29.753124 392.8125 29.753124Q393.84375 29.753124 394.32812 28.815624L394.32812 25.909374Q393.84375 25.01875 392.82812 25.01875Q392.03125 25.01875 391.57812 25.628124Q391.14062 26.2375 391.14062 27.45625ZM399.95312 30.675Q398.65625 30.675 397.84375 29.83125Q397.04688 28.971874 397.04688 27.55L397.04688 27.3625Q397.04688 26.409374 397.40625 25.675Q397.76562 24.925 398.40625 24.51875Q399.0625 24.096874 399.8125 24.096874Q401.04688 24.096874 401.73438 24.909374Q402.42188 25.721874 402.42188 27.2375L402.42188 27.690624L398.125 27.690624Q398.15625 28.628124 398.67188 29.20625Q399.20312 29.784374 400.01562 29.784374Q400.57812 29.784374 400.96875 29.55Q401.375 29.315624 401.6875 28.925L402.34375 29.440624Q401.54688 30.675 399.95312 30.675ZM399.8125 24.9875Q399.15625 24.9875 398.70312 25.471874Q398.26562 25.940624 398.17188 26.8L401.34375 26.8L401.34375 26.721874Q401.29688 25.89375 400.89062 25.440624Q400.5 24.9875 399.8125 24.9875ZM410.23438 30.55Q410.14062 30.3625 410.07812 29.878124Q409.32812 30.675 408.28125 30.675Q407.34375 30.675 406.73438 30.14375Q406.14062 29.6125 406.14062 28.784374Q406.14062 27.8 406.89062 27.253124Q407.64062 26.70625 409.01562 26.70625L410.0625 26.70625L410.0625 26.20625Q410.0625 25.64375 409.71875 25.315624Q409.39062 24.971874 408.71875 24.971874Q408.14062 24.971874 407.75 25.26875Q407.35938 25.55 407.35938 25.971874L406.26562 25.971874Q406.26562 25.4875 406.59375 25.05Q406.9375 24.6125 407.51562 24.3625Q408.09375 24.096874 408.78125 24.096874Q409.89062 24.096874 410.5 24.64375Q411.125 25.190624 411.15625 26.14375L411.15625 29.065624Q411.15625 29.940624 411.375 30.45625L411.375 30.55L410.23438 30.55ZM408.4375 29.721874Q408.95312 29.721874 409.40625 29.45625Q409.85938 29.190624 410.0625 28.76875L410.0625 27.471874L409.21875 27.471874Q407.21875 27.471874 407.21875 28.64375Q407.21875 29.14375 407.5625 29.440624Q407.90625 29.721874 408.4375 29.721874ZM409.35938 21.55L410.67188 21.55L409.09375 23.26875L408.21875 23.26875L409.35938 21.55ZM413.0625 27.33125Q413.0625 25.846874 413.75 24.971874Q414.4375 24.096874 415.5625 24.096874Q416.71875 24.096874 417.375 24.909374L417.42188 24.20625L418.42188 24.20625L418.42188 30.39375Q418.42188 31.628124 417.6875 32.33125Q416.95312 33.05 415.73438 33.05Q415.04688 33.05 414.39062 32.753124Q413.73438 32.45625 413.39062 31.95625L413.95312 31.3Q414.64062 32.159374 415.65625 32.159374Q416.4375 32.159374 416.875 31.70625Q417.32812 31.26875 417.32812 30.45625L417.32812 29.909374Q416.67188 30.675 415.54688 30.675Q414.4375 30.675 413.75 29.784374Q413.0625 28.878124 413.0625 27.33125ZM414.15625 27.45625Q414.15625 28.51875 414.59375 29.14375Q415.03125 29.753124 415.82812 29.753124Q416.84375 29.753124 417.32812 28.815624L417.32812 25.925Q416.82812 25.01875 415.82812 25.01875Q415.04688 25.01875 414.59375 25.628124Q414.15625 26.2375 414.15625 27.45625ZM424.23438 29.925Q423.60938 30.675 422.375 30.675Q421.35938 30.675 420.82812 30.08125Q420.29688 29.4875 420.29688 28.33125L420.29688 24.20625L421.375 24.20625L421.375 28.3Q421.375 29.753124 422.54688 29.753124Q423.79688 29.753124 424.20312 28.815624L424.20312 24.20625L425.29688 24.20625L425.29688 30.55L424.26562 30.55L424.23438 29.925ZM431.23438 30.55Q431.14062 30.3625 431.07812 29.878124Q430.32812 30.675 429.28125 30.675Q428.34375 30.675 427.73438 30.14375Q427.14062 29.6125 427.14062 28.784374Q427.14062 27.8 427.89062 27.253124Q428.64062 26.70625 430.01562 26.70625L431.0625 26.70625L431.0625 26.20625Q431.0625 25.64375 430.71875 25.315624Q430.39062 24.971874 429.71875 24.971874Q429.14062 24.971874 428.75 25.26875Q428.35938 25.55 428.35938 25.971874L427.26562 25.971874Q427.26562 25.4875 427.59375 25.05Q427.9375 24.6125 428.51562 24.3625Q429.09375 24.096874 429.78125 24.096874Q430.89062 24.096874 431.5 24.64375Q432.125 25.190624 432.15625 26.14375L432.15625 29.065624Q432.15625 29.940624 432.375 30.45625L432.375 30.55L431.23438 30.55ZM429.4375 29.721874Q429.95312 29.721874 430.40625 29.45625Q430.85938 29.190624 431.0625 28.76875L431.0625 27.471874L430.21875 27.471874Q428.21875 27.471874 428.21875 28.64375Q428.21875 29.14375 428.5625 29.440624Q428.90625 29.721874 429.4375 29.721874Z" fill-rule="nonzero"/></svg>